<svg width="115" height="80" viewBox="0 0 115 80" fill="none" xmlns="http://www.w3.org/2000/svg">
<path d="M16.4171 0.605469H97.9889V79.602H16.4171V0.605469Z" fill="white"/>
<path d="M16 0H98.3341V80H16V0Z" fill="#008061"/>
<path d="M66.7641 74.7335V77.9363H47.0166V74.7275H32.0736C30.6135 74.7275 29.4241 73.2014 29.4241 71.3198L23.1714 8.082C23.1714 6.19917 24.6315 4.67188 26.4332 4.67188H86.8177C88.6076 4.67188 90.0677 6.19918 90.0677 8.082L83.8856 71.3198C83.8856 73.2014 82.6962 74.7275 81.2362 74.7275L66.7641 74.7335H66.7641Z" fill="white"/>
<path d="M34.1696 13.9297H74.5949C70.6146 15.4217 58.4977 23.6256 55.4715 29.1414H34.205L34.1696 13.9297H34.1696Z" fill="#F5821F"/>
<path d="M66.3874 57.5195C65.8103 63.0282 65.7868 69.7366 65.7868 76.783H48.2649C48.2649 69.7366 48.5593 63.0282 49.1362 57.5195H66.3874H66.3874Z" fill="#ED1B2D"/>
<path d="M39.2802 49.5568V51.6918H36.4777V53.8276H39.2802V56.2748H32.8743V44.8867H39.2802V47.4233H36.4777V49.5568H39.2802Z" fill="#008061"/>
<path d="M54.1759 49.5568V51.6918H51.3854V53.8276H54.1759V56.2748H47.7821V44.8867H54.1759V47.4233H51.3854V49.5568H54.1759Z" fill="#008061"/>
<path d="M70.5909 49.5568V51.6918H67.7884V53.8276H70.5909V56.2748H64.1851V44.8867H70.5909V47.4233H67.7884V49.5568H70.5909Z" fill="#008061"/>
<path d="M44.0846 44.8867V53.8276H46.8868V56.2748H40.4812V44.8867H44.0846Z" fill="#008061"/>
<path d="M59.3457 52.5834L57.9795 44.8867H54.8357L56.6253 56.2748H61.253L63.4197 44.8867H60.7467L59.3457 52.5834Z" fill="#008061"/>
<path d="M72.11 44.8867H75.5723V56.2736H72.11V44.8867Z" fill="#008061"/>
<path d="M75.572 48.2733C75.7606 47.0262 77.5268 47.3607 77.5268 48.073V56.2805H81.0006V46.6282C81.0006 44.5816 78.1155 43.7585 75.5956 45.5602L75.572 48.2733L75.572 48.2733Z" fill="#008061"/>
<path d="M68.0124 43.2861C68.3656 38.9279 74.3357 31.8109 80.1174 29.9421V13.1289C64.2089 20.2461 53.8699 31.0101 51.6327 43.2436L68.0124 43.286L68.0124 43.2861Z" fill="#ED1B2D"/>
</svg>
