<svg width="115" height="80" viewBox="0 0 115 80" fill="none" xmlns="http://www.w3.org/2000/svg">
<path d="M32.9529 36.221C33.3021 35.1649 33.6332 34.1667 33.9571 33.1771C33.997 33.0562 34.0779 33.0284 34.1831 33.0091C35.9316 32.6828 37.6874 32.4049 39.4734 32.4931C40.7338 32.5523 41.9458 32.8097 43.0309 33.4864C44.5028 34.4024 45.1758 35.7824 45.2713 37.4741C45.3269 38.4469 45.1686 39.4075 45.0296 40.3598C44.7408 42.3004 44.4435 44.2387 44.1644 46.1794C44.1568 46.2608 44.1274 46.3386 44.0794 46.4047C44.0313 46.4708 43.9664 46.5228 43.8913 46.5552C42.753 47.1799 41.518 47.5219 40.2492 47.7297C38.679 48.0018 37.0774 48.0425 35.4954 47.8506C34.177 47.685 32.9481 47.2754 31.991 46.3063C31.5757 45.881 31.2533 45.374 31.0443 44.8176C30.8352 44.2611 30.7441 43.6672 30.7767 43.0737C30.8093 42.4802 30.9649 41.8999 31.2337 41.3696C31.5024 40.8394 31.8784 40.3708 32.3378 39.9936C33.3191 39.1864 34.4791 38.7852 35.7008 38.5254C37.5509 38.1339 39.4178 38.1871 41.286 38.3297C41.5192 38.3466 41.57 38.2753 41.5809 38.0674C41.6642 36.6101 40.7894 35.5636 39.2535 35.2821C38.1877 35.0863 37.1412 35.2555 36.0947 35.4271C35.027 35.6028 33.976 35.8684 32.9529 36.221ZM39.4879 40.6171C38.8229 40.6128 38.1586 40.6617 37.5013 40.7634C36.7908 40.8842 36.1008 41.0715 35.528 41.5428C34.8803 42.0757 34.7075 42.791 34.8356 43.5789C34.9564 44.2979 35.4591 44.6918 36.1105 44.9239C36.409 45.0289 36.7196 45.0959 37.0349 45.1232C38.1998 45.2356 39.3308 45.0326 40.4546 44.7547C40.5309 44.7446 40.6008 44.707 40.6511 44.6489C40.7014 44.5907 40.7287 44.5162 40.7277 44.4393C40.8812 43.2974 41.0335 42.1542 41.2026 41.0147C41.2316 40.8177 41.1664 40.7803 41.002 40.7489C40.5014 40.6662 39.9953 40.6222 39.4879 40.6171Z" fill="#114185"/>
<path d="M86.9005 44.1827C86.7072 44.7699 86.538 45.2956 86.3592 45.8212C86.2166 46.2526 86.0643 46.6804 85.929 47.1154C85.916 47.182 85.8836 47.2433 85.8359 47.2914C85.7881 47.3396 85.7272 47.3726 85.6607 47.3861C83.8119 47.8791 81.9389 48.1462 80.0296 47.9057C77.8545 47.6314 76.0564 46.6973 74.9543 44.7023C74.2764 43.4673 74.0613 42.1223 74.1532 40.7363C74.3284 38.0996 75.4268 35.9136 77.469 34.2207C78.71 33.1911 80.1577 32.6618 81.7503 32.5047C82.8488 32.3972 83.9412 32.4177 85.013 32.7162C87.1954 33.3204 88.6503 35.0182 88.9294 37.2658C89.0901 38.5576 88.9294 39.8264 88.7204 41.0964C88.695 41.2547 88.6152 41.2596 88.4944 41.2596C87.9083 41.2596 87.321 41.2596 86.735 41.2596C83.9154 41.2596 81.0958 41.2596 78.2762 41.2596C78.049 41.2596 77.9826 41.3151 77.9789 41.5484C77.9475 43.448 78.9964 44.7023 80.8634 45.0225C82.2434 45.2642 83.5859 45.0551 84.926 44.7627C85.5962 44.6128 86.2558 44.4191 86.9005 44.1827ZM81.9703 38.7932H84.6771C85.5036 38.7932 85.5036 38.7932 85.5314 37.9667C85.5882 36.2931 84.5647 35.2019 82.9007 35.1088C80.9105 34.9965 79.0339 36.4381 78.5505 38.5769C78.5106 38.7546 78.5505 38.7981 78.7318 38.7968C79.8085 38.7884 80.8827 38.7932 81.9703 38.7932Z" fill="#114185"/>
<path d="M93.8487 47.9553C92.0743 47.9435 90.3131 47.6499 88.6309 47.0853C88.4629 47.0273 88.4182 46.979 88.4786 46.7965C88.755 45.9595 89.0196 45.1184 89.2725 44.2734C89.3354 44.0655 89.4091 44.0824 89.5759 44.1622C91.1916 44.9525 93.0164 45.2098 94.7877 44.8969C95.2032 44.8336 95.5976 44.672 95.9381 44.4256C96.0956 44.3164 96.2266 44.1733 96.3215 44.0068C96.4164 43.8403 96.4728 43.6546 96.4865 43.4634C96.5001 43.2723 96.4708 43.0805 96.4006 42.9021C96.3303 42.7238 96.221 42.5635 96.0806 42.433C95.7735 42.1487 95.4287 41.9079 95.0559 41.7176C94.1315 41.2004 93.1914 40.7159 92.3129 40.1165C89.9529 38.5009 90.2405 35.1379 92.5642 33.6625C93.5938 33.0087 94.7212 32.6812 95.9187 32.5568C97.915 32.3501 99.8448 32.6921 101.747 33.2649C101.921 33.3169 101.966 33.364 101.899 33.5489C101.613 34.3428 101.336 35.1415 101.076 35.9451C101.007 36.1566 100.925 36.1409 100.762 36.066C99.5722 35.5046 98.2696 35.2235 96.9543 35.2443C96.3163 35.26 95.6939 35.3651 95.1538 35.7421C94.9242 35.8885 94.749 36.1063 94.6551 36.3619C94.5613 36.6175 94.5539 36.8969 94.6342 37.1571C94.7383 37.449 94.9347 37.6988 95.1937 37.8689C95.7532 38.2894 96.3936 38.5734 97.0063 38.9093C97.7559 39.3007 98.4713 39.7542 99.1451 40.2651C101.137 41.8457 100.935 44.857 99.0243 46.3869C97.7917 47.3717 96.3489 47.7656 94.8142 47.9058C94.4288 47.9396 94.0457 47.9457 93.8487 47.9553Z" fill="#114185"/>
<path d="M106.884 47.9562C105.133 47.9393 103.395 47.6485 101.735 47.0946C101.542 47.0305 101.493 46.9737 101.564 46.7707C101.837 45.9514 102.096 45.1273 102.347 44.3008C102.408 44.1002 102.468 44.0712 102.664 44.1654C104.273 44.9484 106.087 45.2063 107.85 44.9025C108.228 44.8432 108.59 44.7084 108.915 44.5062C109.716 43.995 109.814 43.0561 109.137 42.3988C108.853 42.1437 108.538 41.9264 108.198 41.7523C107.232 41.2036 106.227 40.713 105.317 40.0605C103.219 38.544 103.48 35.7997 104.763 34.4221C105.628 33.4953 106.72 32.9975 107.932 32.7304C109.541 32.3679 111.148 32.4549 112.754 32.7521C113.431 32.873 114.093 33.0567 114.755 33.2355C114.975 33.2971 115.055 33.3624 114.962 33.6137C114.683 34.3714 114.429 35.1375 114.182 35.9097C114.113 36.1211 114.045 36.1514 113.837 36.0607C112.663 35.5096 111.38 35.2292 110.083 35.2402C109.479 35.2511 108.896 35.3405 108.369 35.6571C107.87 35.9556 107.617 36.3894 107.692 36.9864C107.739 37.3658 107.967 37.6304 108.255 37.8479C108.859 38.3059 109.554 38.608 110.211 38.9705C110.961 39.385 111.7 39.8164 112.354 40.3735C114.186 41.9444 113.979 44.8566 112.141 46.355C111.154 47.161 110.008 47.5791 108.772 47.7954C108.148 47.8969 107.516 47.9506 106.884 47.9562Z" fill="#114185"/>
<path d="M59.0107 44.3938C58.9491 44.7563 58.7932 45.0814 58.6784 45.4234C58.4597 46.0747 58.2264 46.72 58.0101 47.3725C57.9942 47.4377 57.9581 47.4963 57.9068 47.5397C57.8556 47.5831 57.7919 47.6092 57.725 47.6142C56.2749 47.8558 54.8091 48.0093 53.3361 47.8981C51.138 47.7326 49.2529 46.9314 47.9575 45.0584C47.044 43.7388 46.7213 42.2392 46.8023 40.6599C46.9376 38.0256 48.0542 35.8698 50.1121 34.2191C51.2915 33.2742 52.6787 32.8101 54.1566 32.6168C55.9859 32.3575 57.8488 32.4689 59.6342 32.9443C59.975 33.0373 60.3037 33.1678 60.6384 33.2766C60.7592 33.3152 60.7906 33.3672 60.7459 33.4989C60.4608 34.3327 60.178 35.1689 59.9109 36.0088C59.8517 36.1936 59.7684 36.1562 59.6487 36.109C58.7955 35.7592 57.892 35.5475 56.9721 35.4819C54.9819 35.3695 53.2515 35.9169 52.0093 37.5736C50.8456 39.1264 50.6655 41.7051 51.9114 43.264C52.686 44.2307 53.7083 44.743 54.9215 44.8844C56.2302 45.0367 57.4954 44.7841 58.7448 44.4252C58.8246 44.4023 58.9056 44.3866 58.9865 44.3672L59.0107 44.3938Z" fill="#114185"/>
<path d="M72.7863 44.3821C72.5084 45.1821 72.1894 45.9736 71.961 46.7905C71.7954 47.3862 71.5163 47.669 70.8662 47.7342C69.0536 47.9155 67.241 48.1185 65.4284 47.6387C62.5778 46.8811 60.7157 44.6069 60.561 41.6512C60.3918 38.4392 61.622 35.8726 64.2091 33.9742C65.2967 33.1779 66.5655 32.8009 67.8899 32.6281C69.7188 32.3696 71.581 32.4806 73.3664 32.9543C73.6974 33.045 74.0153 33.1803 74.3452 33.2758C74.518 33.3265 74.5228 33.4051 74.466 33.5561C74.1893 34.3645 73.915 35.173 73.6576 35.9874C73.5959 36.182 73.5222 36.1747 73.3639 36.1143C72.0975 35.6309 70.8021 35.3687 69.4354 35.5101C67.1141 35.759 65.3474 37.2937 64.9016 39.5522C64.5801 41.1823 64.875 42.6735 66.174 43.8275C67.2096 44.7459 68.4699 45.002 69.8125 44.9235C70.7596 44.8611 71.6955 44.6825 72.599 44.3918C72.6534 44.3821 72.7017 44.3374 72.7863 44.3821Z" fill="#114185"/>
<path d="M26.7514 41.053L11.6985 26V28.3105L24.441 41.053L24.4458 41.0578L13.4083 52.0953L13.395 52.082L2.36483 41.053L2.35516 41.0433L7.76997 35.6285H5.41965L0 41.0481L0.00483369 41.053L13.3902 54.4383L13.395 54.4335L26.7635 41.065L26.7514 41.053Z" fill="#FE6309"/>
<path d="M11.6937 29.8984V32.2089L20.5404 41.0555L13.4133 48.1826L6.28011 41.0507L6.27044 41.041L11.6853 35.6262H9.33493L3.91528 41.0459L3.92012 41.0507L12.2327 49.3632L13.3951 50.5257L14.5769 49.3451L22.8581 41.0628L11.6937 29.8984Z" fill="#FE6309"/>
<path d="M18.9562 41.0546L14.5419 36.6355L13.3673 35.4609L12.2121 36.6162L7.7749 41.0498L12.2145 45.4894L13.377 46.6519L14.5564 45.4713L18.9683 41.0667L18.9562 41.0546ZM13.3976 44.3173L10.1349 41.0546L10.1252 41.0449L13.3794 37.7907L16.6421 41.0534L13.3976 44.3173Z" fill="#FE6309"/>
</svg>
