<svg width="230" height="80" viewBox="0 0 230 80" fill="none" xmlns="http://www.w3.org/2000/svg">
<g clip-path="url(#clip0_125_1016)">
<rect width="230" height="80" rx="40" fill="#B2FCE5"/>
<path d="M45.7198 39.0154C45.7198 36.4155 43.6154 34.5882 41.0304 34.5882C38.4454 34.5882 36.3409 36.4463 36.3409 39.0154C36.3409 41.5537 38.4454 43.4426 41.0304 43.4426C43.618 43.4402 45.7198 41.6153 45.7198 39.0154ZM45.7568 46.7536V44.7414C44.4814 46.135 42.5829 47 40.3095 47C35.5857 47 32 43.5943 32 39.0154C32 34.465 35.723 31 40.4151 31C42.6226 31 44.4841 31.8674 45.7594 33.2278V31.2773H50V46.7536H45.7568Z" fill="black"/>
<path d="M70.157 43.4366C68.7081 43.4366 68.306 42.9229 68.306 41.5762V34.4517H70.9665V30.9522H68.306V27.0373H64.0626V30.9522H58.5971V29.9765C58.5971 28.6273 59.136 28.1137 60.6184 28.1137H61.549V25H59.5072C56.0062 25 54.3563 26.0911 54.3563 29.4285V30.9497H52V34.4493H54.3563V46.9975H58.5998V34.4493H64.0651V42.3134C64.0651 45.5868 65.3774 47 68.8113 47H71V43.4366H70.157Z" fill="black"/>
<path d="M85.2974 37.6232C84.9854 35.6113 83.138 34.4052 80.9813 34.4052C78.8219 34.4052 77.0465 35.5806 76.5959 37.6232H85.2974ZM76.5586 40.0379C76.8732 42.327 78.718 43.628 81.0506 43.628C82.8954 43.628 84.3244 42.853 85.1587 41.6161H89.6507C88.6057 44.8957 85.2974 47 80.9467 47C75.6895 47 72 43.7203 72 39.0474C72 34.3744 75.9002 31 81.0533 31C86.2411 31 90 34.4053 90 39.0474C90 39.3887 89.9653 39.7275 89.896 40.0379H76.5586Z" fill="black"/>
<path d="M117.658 39.3336C117.658 36.7265 115.554 34.7307 112.968 34.7307C110.383 34.7307 108.278 36.6625 108.278 39.3336C108.278 41.9727 110.383 43.9366 112.968 43.9366C115.554 43.9341 117.658 41.9406 117.658 39.3336ZM104 31.2883H108.241V33.3803C109.517 31.8994 111.413 31 113.689 31C118.345 31 122 34.5729 122 39.3016C122 44.0326 118.276 47.6376 113.586 47.6376C111.413 47.6376 109.62 46.8319 108.379 45.4816V54H104V31.2883Z" fill="black"/>
<path d="M137.722 39.0154C137.722 36.4155 135.619 34.5882 133.031 34.5882C130.446 34.5882 128.341 36.4463 128.341 39.0154C128.341 41.5537 130.446 43.4426 133.031 43.4426C135.619 43.4402 137.722 41.6153 137.722 39.0154ZM137.759 46.7536V44.7414C136.483 46.135 134.584 47 132.31 47C127.586 47 124 43.5943 124 39.0154C124 34.465 127.723 31 132.414 31C134.621 31 136.483 31.8674 137.759 33.2278V31.2773H142V46.7536H137.759Z" fill="black"/>
<path d="M96.8844 32.8219C96.8844 32.8219 97.8737 31 100.295 31C101.33 31 102 31.3538 102 31.3538V35.3634C102 35.3634 100.539 34.4657 99.1967 34.6462C97.8543 34.8267 97.0053 36.0541 97.0102 37.6955V47H93V31.284H96.8844V32.8219Z" fill="black"/>
<path d="M162 31L151.368 54H146.884L151.058 45.1086L144 31H149.082L153.211 40.4266L157.449 31H162Z" fill="black"/>
<path d="M195.715 30.5013L185.339 24.6088C182.293 22.8792 178.487 25.0406 178.487 28.5024V29.1069C178.487 29.653 178.783 30.1584 179.263 30.4302L181.222 31.5426C181.798 31.8703 182.515 31.4614 182.515 30.8086V29.305C182.515 28.5532 183.342 28.0833 184.002 28.4592L192.989 33.5644C193.651 33.9403 193.651 34.88 192.989 35.2534L184.002 40.3585C183.342 40.7344 182.515 40.2645 182.515 39.5127V38.7126C182.515 35.2508 178.708 33.0869 175.66 34.819L165.285 40.7115C162.238 42.4412 162.238 46.7691 165.285 48.4987L175.66 54.3912C178.706 56.1208 182.515 53.9594 182.515 50.4976V49.8931C182.515 49.347 182.219 48.8441 181.739 48.5698L179.779 47.4548C179.204 47.1272 178.487 47.5361 178.487 48.1889V49.6925C178.487 50.4443 177.661 50.9141 176.999 50.5382L168.013 45.4331C167.352 45.0572 167.352 44.1175 168.013 43.7416L176.999 38.6364C177.661 38.2605 178.487 38.7304 178.487 39.4822V40.2823C178.487 43.7441 182.293 45.9081 185.339 44.1759L195.715 38.2834C198.762 36.5588 198.762 32.2309 195.715 30.5013Z" fill="black"/>
</g>
<defs>
<clipPath id="clip0_125_1016">
<rect width="230" height="80" fill="white"/>
</clipPath>
</defs>
</svg>
