<svg width="115" height="80" viewBox="0 0 115 80" fill="none" xmlns="http://www.w3.org/2000/svg">
<path d="M12.9802 16.0312C15.7337 16.0312 16.5988 18.0036 17.322 19.9756C17.6292 20.8113 24.7808 40.3951 24.9938 40.9827C25.0538 41.1451 25.0145 41.4161 24.7616 41.5124C24.5083 41.6074 20.7922 43.0535 20.5871 43.1309C20.3817 43.2077 20.1504 43.0934 20.0748 42.8892C19.9986 42.6863 18.4581 38.4167 18.2844 37.9395C17.7721 37.9395 8.20022 37.9395 7.68885 37.9395C7.51423 38.4167 5.95787 42.6948 5.88625 42.8892C5.81555 43.0858 5.59187 43.2165 5.37488 43.1309C5.15699 43.0447 1.4241 41.5983 1.20346 41.5124C0.990134 41.4307 0.8917 41.1875 0.968192 40.9827C1.23028 40.2482 8.27306 20.9801 8.63358 19.9756C9.33085 18.035 10.2277 16.0312 12.9802 16.0312ZM0.401356 51.0702C0.179193 51.0702 0 51.2552 0 51.4823V56.0578C0 56.2864 0.179498 56.4686 0.401356 56.4686H25.5594C25.7798 56.4686 25.9574 56.2864 25.9574 56.0578V51.4823C25.9574 51.2555 25.7798 51.0702 25.5594 51.0702H0.401356ZM12.9592 22.4258L9.37565 33.1835H16.5988L13.0031 22.4258H12.9592ZM66.7147 40.0633C66.1878 40.2437 65.8398 40.2876 65.4241 40.2876C64.5678 40.2876 64.0911 39.9484 64.0911 39.0692C64.0911 38.1543 64.697 37.8459 65.8831 37.8459C66.1689 37.8459 66.4572 37.8883 66.5901 37.9346V38.5892C66.5901 39.2974 66.6273 39.7616 66.7147 40.0633ZM69.7589 41.1147C69.1274 40.1529 68.9626 39.5866 68.9626 38.3743V35.9184C68.9626 34.5921 68.809 34.1157 68.4573 33.6315C67.9715 32.9479 67.1609 32.6517 65.6664 32.6517C64.6117 32.6517 63.5853 32.7666 62.5933 33.0184L62.948 34.7676C63.6212 34.6741 64.3246 34.5921 64.821 34.5921C66.4076 34.5921 66.5907 34.8228 66.5907 36.0116V36.4562C66.2381 36.3621 65.8404 36.2941 65.3802 36.2941C62.9934 36.2941 61.7333 37.4613 61.7333 39.3931C61.7333 41.2061 63.0782 42.1941 64.7202 42.1941C65.3351 42.1941 65.9742 42.081 66.4807 41.8762C66.786 41.7412 66.9189 41.6638 67.3169 41.4054C67.5528 41.7543 68.0331 42.1085 68.2278 42.1722L69.7589 41.1147ZM93.3694 40.0633C92.841 40.2437 92.4954 40.2876 92.0782 40.2876C91.2206 40.2876 90.7358 39.9484 90.7358 39.0692C90.7358 38.1543 91.3492 37.8459 92.5378 37.8459C92.8245 37.8459 93.1107 37.8883 93.2414 37.9346V38.5892C93.2411 39.2974 93.2801 39.7616 93.3694 40.0633ZM96.4139 41.1147C95.7791 40.1529 95.616 39.5866 95.616 38.3743V35.9184C95.616 34.5921 95.4622 34.1157 95.1096 33.6315C94.6247 32.9479 93.8141 32.6517 92.3186 32.6517C91.2624 32.6517 90.2271 32.7666 89.2376 33.0184L89.5908 34.7676C90.2634 34.6741 90.9695 34.5921 91.4766 34.5921C93.058 34.5921 93.2414 34.8228 93.2414 36.0116V36.4562C92.891 36.3621 92.4957 36.2941 92.0322 36.2941C89.6378 36.2941 88.3761 37.4613 88.3761 39.3931C88.3761 41.2061 89.7225 42.1941 91.3736 42.1941C91.9877 42.1941 92.6271 42.081 93.1323 41.8762C93.4407 41.7412 93.5715 41.6638 93.9673 41.4054C94.206 41.7543 94.6872 42.1085 94.881 42.1722L96.4139 41.1147ZM115 41.9896C115 41.9896 113.693 39.1999 113.374 38.5675C113.012 37.8514 112.68 37.3568 111.942 37.1831V37.1401C112.436 37.0465 112.83 36.7467 113.253 35.8349C113.666 34.9447 113.785 34.753 114.023 34.543C114.26 34.3297 114.581 34.4092 114.581 34.4092L114.703 32.7617C114.36 32.7166 113.979 32.7154 113.587 32.738C112.939 32.7767 112.603 32.9611 112.283 33.2844C112.036 33.5309 111.865 33.8988 111.656 34.3199C111.431 34.7807 111.255 35.1525 111.026 35.6224C110.798 36.1018 110.684 36.3173 110.064 36.3173H109.662V29.0349H107.267V41.9893H109.662V38.2652L109.987 38.2582C110.673 38.2582 110.792 38.428 111.154 39.1505C111.579 40.0136 112.39 41.9896 112.39 41.9896H115ZM47.6767 41.9896H50.4356L46.2651 29.2535C45.8275 29.1057 45.2813 29.0133 44.7014 29.0133C44.0681 29.0133 43.8432 29.0977 43.3468 29.2535L38.9355 41.9896H41.5804C41.5804 41.9896 41.9364 40.873 42.3594 39.4861H46.9319C47.3418 40.8718 47.6767 41.9896 47.6767 41.9896ZM43.0314 37.3504C43.0314 37.3504 43.7923 34.7956 43.91 34.3958C44.2184 33.3673 44.6782 31.7308 44.6782 31.7308H44.755C44.755 31.7308 45.1793 33.427 45.4587 34.3806C45.5648 34.7572 46.2946 37.3504 46.2946 37.3504H43.0314ZM73.8313 35.8961C72.9868 35.8961 72.302 36.5833 72.302 37.4278C72.302 38.2759 72.9865 38.9579 73.8313 38.9579C74.6748 38.9579 75.3587 38.2759 75.3587 37.4278C75.3587 36.5833 74.6745 35.8961 73.8313 35.8961ZM53.711 29.0349H51.3157V41.9893H53.711V29.0349ZM101.316 34.71C102.638 34.7402 102.801 35.0117 102.801 36.1241V41.9896H105.174V35.918C105.174 34.5918 105.021 34.1154 104.669 33.6312C104.183 32.9476 103.223 32.6514 101.604 32.6514C100.003 32.6514 98.9841 32.8218 97.6692 33.2128V41.9893H100.067V34.8228C100.7 34.7313 100.807 34.71 101.316 34.71ZM59.6351 28.8052C58.1406 28.8052 57.3281 29.0996 56.8433 29.7834C56.4916 30.2674 56.3374 30.7565 56.3374 32.0837V33.2128H55.147V35.1492H56.3374V41.9893H58.7102L58.7047 35.1492H61.075V33.2128H58.7047L58.7102 32.1745C58.7102 30.9872 58.8942 30.7568 60.4802 30.7568C60.6505 30.7568 60.8431 30.7659 61.0497 30.7818L61.4243 28.9219C60.837 28.8427 60.2382 28.8052 59.6351 28.8052ZM78.7012 28.9246C79.5164 28.8774 81.3361 28.8094 82.4822 28.8094C82.6858 28.8094 82.8997 28.8113 83.1188 28.821C85.3697 28.821 86.6567 30.4594 86.6567 32.3799C86.6567 33.6861 86.0588 34.5531 84.6569 35.0708C86.309 35.4359 87.1735 36.7253 87.1735 38.2997C87.1735 39.4562 86.8438 40.3735 86.2428 41.0007C85.4688 41.7668 84.2946 42.1941 82.7321 42.1935C81.3357 42.1935 79.591 42.1517 78.7009 42.0987V28.9246H78.7012ZM82.4825 31.0487C82.0812 31.0487 81.5954 31.0551 81.1072 31.0728C81.1072 31.2843 81.1072 33.9725 81.1072 34.1834C81.304 34.1834 82.4847 34.1834 82.4847 34.1834C83.0244 34.1834 83.4647 34.0316 83.7646 33.7388C84.0468 33.4648 84.1934 33.0744 84.1934 32.6112C84.1934 31.6183 83.6564 31.0533 82.6565 31.0487C82.5736 31.0487 82.5377 31.0487 82.4825 31.0487ZM82.5279 39.9621C82.5648 39.9621 82.602 39.9621 82.6386 39.9621C83.8771 39.9621 84.6456 39.2983 84.6533 37.9626C84.6392 37.4805 84.457 37.0395 84.1303 36.7198C83.767 36.3578 83.2572 36.1685 82.6599 36.1685C82.6599 36.1685 81.308 36.1685 81.1069 36.1685C81.1069 36.3828 81.1069 39.732 81.1069 39.9468C81.5448 39.9563 82.0263 39.9599 82.5279 39.9621Z" fill="#EE3424"/>
</svg>
