<svg width="115" height="80" viewBox="0 0 115 80" fill="none" xmlns="http://www.w3.org/2000/svg">
<path d="M18.3617 35.7758V35.4692H14.1641C12.19 35.4692 10.7333 35.6608 9.77498 36.0633C8.85498 36.4275 8.39498 37.2325 8.39498 38.4975C8.39498 40.3758 9.71748 41.315 12.3433 41.315C14.5475 41.315 16.1 40.855 16.9816 39.935C17.9016 38.9767 18.3617 37.5967 18.3617 35.7758ZM10.7142 46.7775C7.62832 46.7775 5.32832 46.0108 3.85248 44.4967C2.37665 42.9442 1.62915 40.9508 1.62915 38.4975C1.62915 35.5458 2.58748 33.4375 4.48498 32.1533C6.40165 30.8308 9.31498 30.16 13.225 30.16H18.3617V29.0675C18.3617 26.6142 16.8091 25.4067 13.7233 25.4067C10.9633 25.4067 9.42998 26.4608 9.12332 28.5883H2.22332C2.45332 26.0392 3.50748 23.9117 5.38582 22.1867C7.26415 20.4617 10.1008 19.5992 13.8766 19.5992C17.6333 19.5992 20.47 20.4425 22.3675 22.1292C24.265 23.835 25.2233 26.2117 25.2233 29.2783V46.1833H18.9942V43.3083C17.5183 45.6275 14.7583 46.7775 10.7142 46.7775ZM40.9975 40.1458V46.145C40.3075 46.2408 39.5792 46.2983 38.8316 46.2983C36.0908 46.2983 34.155 45.7233 33.005 44.5542C31.855 43.3658 31.28 41.4683 31.28 38.8425V9H38.295V38.3633C38.295 38.9958 38.41 39.4558 38.64 39.7433C38.87 40.05 39.3492 40.1842 40.0775 40.1842H40.6141C40.825 40.165 40.9591 40.1458 40.9975 40.1458ZM68.6933 31.4058V46.1833H61.6783V30.7542C61.6783 27.3425 60.2983 25.6367 57.5383 25.6367C55.9283 25.6367 54.6825 26.135 53.7817 27.1317C52.9192 28.1283 52.4975 29.4892 52.4975 31.2525V46.1833H45.4825V20.2125H51.9608V23.375C53.3025 20.8642 55.7941 19.5992 59.4166 19.5992C62.8475 19.5992 65.3391 20.8258 66.93 23.26C69.1341 20.8067 72.0091 19.5992 75.5166 19.5992C78.545 19.5992 80.8642 20.5383 82.4742 22.4167C84.0842 24.295 84.8891 26.8058 84.8891 29.9492V46.1833H77.8742V30.7542C77.8742 27.3425 76.4941 25.6367 73.7342 25.6367C72.0858 25.6367 70.84 26.1542 69.9775 27.17C69.1341 28.1858 68.6933 29.585 68.6933 31.4058ZM106.471 35.7758V35.4692H102.273C100.299 35.4692 98.8425 35.6608 97.8841 36.0633C96.9641 36.4275 96.5042 37.2325 96.5042 38.4975C96.5042 40.3758 97.8266 41.315 100.452 41.315C102.657 41.315 104.209 40.855 105.091 39.935C106.011 38.9767 106.471 37.5967 106.471 35.7758ZM98.8233 46.7775C95.7375 46.7775 93.4375 46.0108 91.9617 44.4967C90.4858 42.9442 89.7383 40.9508 89.7383 38.4975C89.7383 35.5458 90.6966 33.4375 92.5941 32.1533C94.5108 30.8308 97.4241 30.16 101.334 30.16H106.471V29.0675C106.471 26.6142 104.918 25.4067 101.832 25.4067C99.0725 25.4067 97.5392 26.4608 97.2325 28.5883H90.3133C90.5433 26.0392 91.5975 23.9117 93.4758 22.1867C95.3541 20.4617 98.1908 19.5992 101.967 19.5992C105.723 19.5992 108.56 20.4425 110.457 22.1292C112.374 23.8158 113.313 26.1925 113.313 29.2783V46.1833H107.084V43.3083C105.627 45.6275 102.867 46.7775 98.8233 46.7775Z" fill="#004261"/>
<path d="M115 63.2207H0V71.4432H115V63.2207Z" fill="#E8494E"/>
</svg>
