<svg width="120" height="80" viewBox="0 0 120 80" fill="none" xmlns="http://www.w3.org/2000/svg">
<path d="M116 0H4C1.79086 0 0 1.79086 0 4V76C0 78.2091 1.79086 80 4 80H116C118.209 80 120 78.2091 120 76V4C120 1.79086 118.209 0 116 0Z" fill="#FFFFFE"/>
<path d="M89.3219 24.791H85.8845H69.9793H66.5419L64.2115 27.4169L56.6958 35.9074L54.3654 38.5333H50.928H35.314H31.8766L34.1488 35.8782L35.2266 34.6236L37.4988 31.9685H34.0614H29.6336H27.1575C25.264 31.9685 23.7201 33.5733 23.7201 35.4989V42.3263V42.9682C23.7201 44.9231 25.264 46.4986 27.1575 46.4986H28.1188H64.2406H66.8332C68.7267 46.4986 71.3193 45.3024 72.5719 43.8727L78.5728 37.0453L89.3219 24.791Z" fill="#004E91"/>
<path d="M93.8954 16.8261C95.7889 16.8261 97.3328 18.4308 97.3328 20.3565V27.8257C97.3328 29.7806 95.7889 31.3561 93.8954 31.3561H92.031H86.9915H83.5541L85.8554 28.7302L86.9915 27.4173L89.2928 24.7913H66.5127L54.3653 38.5045H31.731L47.9566 20.123L48.5684 19.4228C49.8501 17.9931 52.4427 16.7969 54.3362 16.7969H55.1227H93.8954V16.8261Z" fill="#FFDD00"/>
<path d="M97.3327 62.1354V61.0558C97.3327 60.9099 97.2453 60.8224 97.0414 60.8224H96.3422C96.1383 60.8224 95.9927 60.7932 95.9635 60.7057C95.9053 60.6182 95.9053 60.4431 95.9053 60.1514V56.0666H97.0414C97.1288 56.0666 97.187 56.0374 97.2453 55.9791C97.3036 55.9207 97.3327 55.8623 97.3327 55.7748V54.6369C97.3327 54.5494 97.3036 54.491 97.2453 54.4327C97.187 54.3743 97.1288 54.3451 97.0414 54.3451H95.9053V52.8571C95.9053 52.7696 95.8762 52.7112 95.847 52.6821C95.7888 52.6529 95.7305 52.6237 95.6722 52.6237H95.6431L93.9535 52.9155C93.8661 52.9447 93.8079 52.9738 93.7496 53.003C93.6914 53.0614 93.6622 53.1197 93.6622 53.1781V54.316H92.5261C92.4388 54.316 92.3805 54.3451 92.3222 54.4035C92.264 54.4619 92.2348 54.5202 92.2348 54.6077V55.5414C92.2348 55.6289 92.264 55.6873 92.3222 55.7165C92.3805 55.7748 92.4388 55.804 92.5261 55.8332L93.6622 56.0082V60.093C93.6622 60.589 93.7205 60.9975 93.8079 61.3184C93.9244 61.6394 94.0701 61.8728 94.2448 62.0478C94.4488 62.2229 94.6818 62.3396 94.9731 62.398C95.2644 62.4563 95.614 62.4855 95.9927 62.4855C96.1966 62.4855 96.3714 62.4855 96.5462 62.4563C96.6918 62.4271 96.8957 62.398 97.0996 62.3688C97.2453 62.3688 97.3327 62.2813 97.3327 62.1354ZM91.2735 61.9895V60.7349C91.2735 60.6474 91.2444 60.589 91.1861 60.5598C91.1279 60.5306 91.0696 60.5015 91.0114 60.5015H90.9822C90.7201 60.5306 90.4579 60.5598 90.2248 60.5598C89.9918 60.589 89.6714 60.589 89.2635 60.589C89.1179 60.589 88.9431 60.5598 88.8266 60.5015C88.6809 60.4431 88.5644 60.3556 88.4479 60.2389C88.3314 60.1222 88.2731 59.9471 88.2148 59.7429C88.1566 59.5386 88.1274 59.276 88.1274 58.9551V57.788C88.1274 57.4671 88.1566 57.2045 88.2148 57.0002C88.2731 56.796 88.3605 56.6209 88.4479 56.5042C88.5644 56.3875 88.6809 56.3 88.8266 56.2416C88.9722 56.1833 89.1179 56.1541 89.2635 56.1541C89.6714 56.1541 89.9918 56.1541 90.2248 56.1833C90.4579 56.2125 90.7201 56.2125 90.9822 56.2416H91.0114C91.0988 56.2416 91.157 56.2125 91.1861 56.1833C91.2444 56.1541 91.2735 56.0958 91.2735 56.0082V54.7536C91.2735 54.6369 91.2444 54.5786 91.2153 54.5494C91.157 54.5202 91.0988 54.4619 90.9822 54.4327C90.7783 54.3743 90.5453 54.3451 90.2248 54.2868C89.9044 54.2284 89.5548 54.2284 89.1179 54.2284C88.1274 54.2284 87.3409 54.5202 86.7292 55.1329C86.1466 55.7456 85.8261 56.6209 85.8261 57.788V58.9551C85.8261 60.093 86.1174 60.9975 86.7292 61.6102C87.3118 62.2229 88.1274 62.5147 89.1179 62.5147C89.5257 62.5147 89.9044 62.4855 90.2248 62.4563C90.5453 62.398 90.8075 62.3688 90.9822 62.3104C91.0988 62.2813 91.157 62.2521 91.2153 62.1937C91.2735 62.1646 91.2735 62.077 91.2735 61.9895ZM82.1557 60.5015C81.9809 60.589 81.8061 60.6474 81.6022 60.7057C81.3983 60.7641 81.1944 60.7932 80.9905 60.7932C80.6992 60.7932 80.4661 60.7641 80.3205 60.6765C80.1748 60.589 80.1166 60.4139 80.1166 60.093V59.9763C80.1166 59.8012 80.1457 59.6553 80.1748 59.5386C80.204 59.4219 80.2914 59.3052 80.3787 59.2177C80.4661 59.1302 80.6118 59.0718 80.7574 59.0134C80.9031 58.9843 81.107 58.9551 81.3692 58.9551H82.1557V60.5015ZM84.3696 57.0878C84.3696 56.5626 84.2822 56.1249 84.1366 55.7748C83.9909 55.4247 83.7579 55.1329 83.4957 54.8995C83.2044 54.6661 82.884 54.491 82.4761 54.4035C82.0683 54.2868 81.6022 54.2284 81.107 54.2284C80.6409 54.2284 80.1748 54.2576 79.7379 54.316C79.3009 54.3743 78.9513 54.4327 78.6892 54.5202C78.5144 54.5786 78.427 54.6661 78.427 54.8412V55.9791C78.427 56.0666 78.4561 56.1249 78.4853 56.1833C78.5435 56.2125 78.6018 56.2416 78.66 56.2416H78.7183C78.8348 56.2416 78.9805 56.2125 79.1261 56.2125C79.3009 56.2125 79.4757 56.1833 79.6796 56.1833C79.8835 56.1833 80.1166 56.1541 80.3496 56.1541C80.5827 56.1541 80.8157 56.1541 81.0196 56.1541C81.34 56.1541 81.6022 56.2125 81.777 56.3292C81.9518 56.4459 82.0683 56.7085 82.0683 57.117V57.613H81.3109C80.1166 57.613 79.2135 57.788 78.6892 58.1673C78.1357 58.5466 77.8735 59.1593 77.8735 59.9763V60.093C77.8735 60.5598 77.9318 60.9391 78.0774 61.2309C78.2231 61.5518 78.3979 61.7853 78.6309 61.9895C78.864 62.1646 79.097 62.3104 79.3883 62.398C79.6796 62.4855 79.9709 62.5147 80.2913 62.5147C80.6992 62.5147 81.0779 62.4563 81.3692 62.3396C81.6605 62.2229 81.9518 62.077 82.2431 61.8728V62.1062C82.2431 62.1937 82.2722 62.2521 82.3305 62.3104C82.3887 62.3688 82.447 62.398 82.5344 62.398H84.1074C84.1948 62.398 84.2531 62.3688 84.3114 62.3104C84.3696 62.2521 84.3987 62.1937 84.3987 62.1062V57.0878H84.3696ZM76.8831 62.1354V61.0558C76.8831 60.9099 76.7957 60.8224 76.5918 60.8224H75.9218C75.7179 60.8224 75.5722 60.7932 75.5431 60.7057C75.4848 60.6182 75.4848 60.4431 75.4848 60.1514V56.0666H76.6209C76.7083 56.0666 76.7666 56.0374 76.8248 55.9791C76.8831 55.9207 76.9122 55.8623 76.9122 55.7748V54.6369C76.9122 54.5494 76.8831 54.491 76.8248 54.4327C76.7666 54.3743 76.7083 54.3451 76.6209 54.3451H75.4848V52.8571C75.4848 52.7696 75.4557 52.7112 75.4266 52.6821C75.3683 52.6529 75.31 52.6237 75.2518 52.6237H75.2226L73.5331 52.9155C73.4457 52.9447 73.3874 52.9738 73.3292 53.003C73.2709 53.0614 73.2418 53.1197 73.2418 53.1781V54.316H72.1057C72.0183 54.316 71.96 54.3451 71.9018 54.4035C71.8435 54.4619 71.8144 54.5202 71.8144 54.6077V55.5414C71.8144 55.6289 71.8435 55.6873 71.9018 55.7165C71.96 55.7748 72.0183 55.804 72.1057 55.8332L73.2418 56.0082V60.093C73.2418 60.589 73.3 60.9975 73.3874 61.3184C73.504 61.6394 73.6496 61.8728 73.8244 62.0478C73.9992 62.2229 74.2613 62.3396 74.5526 62.398C74.844 62.4563 75.1935 62.4855 75.5722 62.4855C75.7761 62.4855 75.9509 62.4855 76.1257 62.4563C76.2713 62.4271 76.4753 62.398 76.6792 62.3688C76.7957 62.3688 76.8831 62.2813 76.8831 62.1354ZM70.7657 62.1062V57.4379C70.7657 57.0002 70.7366 56.5918 70.6492 56.1833C70.5909 55.804 70.4453 55.4539 70.2705 55.1621C70.0957 54.8703 69.8335 54.6369 69.5131 54.491C69.1926 54.316 68.7848 54.2284 68.2605 54.2284C67.8235 54.2284 67.4157 54.2868 67.0661 54.4035C66.7166 54.5202 66.367 54.6953 65.9592 54.987V54.6369C65.9592 54.5494 65.93 54.491 65.8718 54.4327C65.8135 54.3743 65.7552 54.3451 65.6679 54.3451H64.0948C64.0074 54.3451 63.9492 54.3743 63.8909 54.4327C63.8326 54.491 63.8035 54.5494 63.8035 54.6369V62.1062C63.8035 62.1937 63.8326 62.2521 63.8909 62.3104C63.9492 62.3688 64.0074 62.398 64.0948 62.398H65.7844C65.8718 62.398 65.93 62.3688 65.9883 62.3104C66.0465 62.2521 66.0757 62.1937 66.0757 62.1062V56.5918C66.3087 56.4751 66.5418 56.3584 66.7748 56.2708C66.9787 56.1833 67.2118 56.1541 67.4157 56.1541C67.6196 56.1541 67.7944 56.1833 67.94 56.2125C68.0857 56.2416 68.1731 56.3292 68.2605 56.4167C68.3479 56.5334 68.377 56.6501 68.4061 56.8252C68.4352 57.0002 68.4352 57.2045 68.4352 57.4379V62.1062C68.4352 62.1937 68.4644 62.2521 68.5226 62.3104C68.5809 62.3688 68.6392 62.398 68.7266 62.398H70.4161C70.5035 62.398 70.5618 62.3688 70.62 62.3104C70.7366 62.2521 70.7657 62.1646 70.7657 62.1062ZM60.1622 58.8676C60.1622 60.0055 59.7544 60.589 58.9096 60.589C58.5018 60.589 58.1813 60.4431 57.9774 60.1514C57.7735 59.8596 57.657 59.4219 57.657 58.8676V57.8756C57.657 57.292 57.7735 56.8835 57.9774 56.5918C58.1813 56.3 58.5018 56.1541 58.9096 56.1541C59.7252 56.1541 60.1622 56.7377 60.1622 57.8756V58.8676ZM62.4344 57.8756C62.4344 57.3212 62.347 56.796 62.2013 56.3584C62.0557 55.9207 61.8226 55.5414 61.5313 55.2205C61.24 54.8995 60.8613 54.6661 60.4244 54.491C59.9874 54.316 59.4922 54.2284 58.9096 54.2284C58.327 54.2284 57.8318 54.316 57.3948 54.491C56.9578 54.6661 56.5791 54.8995 56.2878 55.2205C55.9965 55.5414 55.7635 55.9207 55.6178 56.3584C55.4722 56.796 55.3848 57.3212 55.3848 57.8756V58.8676C55.3848 59.4219 55.4722 59.9471 55.6178 60.3848C55.7635 60.8224 55.9965 61.2017 56.2878 61.5227C56.5791 61.8436 56.9578 62.077 57.3948 62.2521C57.8318 62.4271 58.327 62.5147 58.9096 62.5147C59.4922 62.5147 59.9874 62.4271 60.4244 62.2521C60.8613 62.077 61.24 61.8436 61.5313 61.5227C61.8226 61.2017 62.0557 60.8224 62.2013 60.3848C62.347 59.9471 62.4344 59.4219 62.4344 58.8676V57.8756ZM54.6274 61.9895V60.7349C54.6274 60.6474 54.5983 60.589 54.54 60.5598C54.4818 60.5306 54.4235 60.5015 54.3361 60.5015H54.307C54.0448 60.5306 53.7826 60.5598 53.5496 60.5598C53.3165 60.5598 52.9961 60.589 52.5883 60.589C52.4426 60.589 52.2678 60.5598 52.1513 60.5015C52.0057 60.4431 51.8891 60.3556 51.7726 60.2389C51.6561 60.1222 51.5978 59.9471 51.5396 59.7429C51.4813 59.5386 51.4522 59.276 51.4522 58.9551V57.788C51.4522 57.4671 51.4813 57.2045 51.5396 57.0002C51.5978 56.796 51.6852 56.6209 51.7726 56.5042C51.8891 56.3875 52.0057 56.3 52.1513 56.2416C52.297 56.1833 52.4426 56.1541 52.5883 56.1541C52.9961 56.1541 53.3165 56.1541 53.5496 56.1833C53.7826 56.2125 54.0448 56.2125 54.307 56.2416H54.3361C54.4235 56.2416 54.4818 56.2125 54.54 56.1833C54.5983 56.1541 54.6274 56.0958 54.6274 56.0082V54.7536C54.6274 54.6369 54.5983 54.5786 54.5691 54.5494C54.5109 54.5202 54.4526 54.4619 54.3361 54.4327C54.1322 54.3743 53.8991 54.3451 53.5787 54.2868C53.2583 54.2284 52.9087 54.2284 52.4717 54.2284C51.4813 54.2284 50.6948 54.5202 50.083 55.1329C49.5004 55.7456 49.18 56.6209 49.18 57.788V58.9551C49.18 60.093 49.4713 60.9975 50.083 61.6102C50.6657 62.2229 51.4813 62.5147 52.4717 62.5147C52.8796 62.5147 53.2583 62.4855 53.5787 62.4563C53.8991 62.398 54.1322 62.3688 54.3361 62.3104C54.4526 62.2813 54.5109 62.2521 54.5691 62.1937C54.6274 62.1646 54.6274 62.077 54.6274 61.9895ZM47.7526 62.1062V57.4379C47.7526 57.0002 47.7235 56.5918 47.6361 56.1833C47.5778 55.804 47.4322 55.4539 47.2574 55.1621C47.0826 54.8703 46.8204 54.6369 46.5 54.491C46.1796 54.316 45.7717 54.2284 45.2474 54.2284C44.8104 54.2284 44.4026 54.2868 44.053 54.4035C43.7035 54.5202 43.3539 54.6953 42.9461 54.987V54.6369C42.9461 54.5494 42.917 54.491 42.8587 54.4327C42.8004 54.3743 42.7422 54.3451 42.6548 54.3451H41.0817C40.9943 54.3451 40.9361 54.3743 40.8778 54.4327C40.8196 54.491 40.7904 54.5494 40.7904 54.6369V62.1062C40.7904 62.1937 40.8196 62.2521 40.8778 62.3104C40.9361 62.3688 40.9943 62.398 41.0817 62.398H42.7713C42.8587 62.398 42.917 62.3688 42.9752 62.3104C43.0335 62.2521 43.0626 62.1937 43.0626 62.1062V56.5918C43.2956 56.4751 43.5287 56.3584 43.7617 56.2708C43.9657 56.1833 44.1987 56.1541 44.4026 56.1541C44.6065 56.1541 44.7813 56.1833 44.927 56.2125C45.0726 56.2416 45.16 56.3292 45.2474 56.4167C45.3348 56.5334 45.3639 56.6501 45.393 56.8252C45.4222 57.0002 45.4222 57.2045 45.4222 57.4379V62.1062C45.4222 62.1937 45.4513 62.2521 45.5096 62.3104C45.5678 62.3688 45.6261 62.398 45.7135 62.398H47.403C47.4904 62.398 47.5487 62.3688 47.607 62.3104C47.6944 62.2521 47.7526 62.1646 47.7526 62.1062ZM36.9161 60.5015C36.7413 60.589 36.5665 60.6474 36.3626 60.7057C36.1587 60.7641 35.9548 60.7932 35.7509 60.7932C35.4596 60.7932 35.2265 60.7641 35.0809 60.6765C34.9352 60.589 34.8769 60.4139 34.8769 60.093V59.9763C34.8769 59.8012 34.9061 59.6553 34.9352 59.5386C34.9643 59.4219 35.0517 59.3052 35.1391 59.2177C35.2265 59.1302 35.3722 59.0718 35.5178 59.0134C35.6635 58.9843 35.8674 58.9551 36.1296 58.9551H36.9161V60.5015ZM39.1591 57.0878C39.1591 56.5626 39.0717 56.1249 38.9261 55.7748C38.7804 55.4247 38.5474 55.1329 38.2852 54.8995C37.9939 54.6661 37.6735 54.491 37.2656 54.4035C36.8578 54.2868 36.3917 54.2284 35.8965 54.2284C35.4304 54.2284 34.9643 54.2576 34.5274 54.316C34.0904 54.3743 33.7409 54.4327 33.4787 54.5202C33.3039 54.5786 33.2165 54.6661 33.2165 54.8412V55.9791C33.2165 56.0666 33.2456 56.1249 33.2748 56.1833C33.333 56.2125 33.3913 56.2416 33.4495 56.2416H33.5078C33.6243 56.2416 33.77 56.2125 33.9156 56.2125C34.0904 56.2125 34.2652 56.1833 34.4982 56.1833C34.7022 56.1833 34.9352 56.1541 35.1682 56.1541C35.4013 56.1541 35.6343 56.1541 35.8382 56.1541C36.1587 56.1541 36.4209 56.2125 36.5956 56.3292C36.7704 56.4459 36.8869 56.7085 36.8869 57.117V57.613H36.1296C34.9352 57.613 34.0322 57.788 33.5078 58.1673C32.9835 58.5466 32.6922 59.1593 32.6922 59.9763V60.093C32.6922 60.5598 32.7504 60.9391 32.8961 61.2309C33.0417 61.5518 33.2165 61.7853 33.4495 61.9895C33.6826 62.1646 33.9156 62.3104 34.2069 62.398C34.4982 62.4855 34.7896 62.5147 35.11 62.5147C35.5178 62.5147 35.8965 62.4563 36.1878 62.3396C36.4791 62.2229 36.7704 62.077 37.0617 61.8728V62.1062C37.0617 62.1937 37.0909 62.2521 37.1491 62.3104C37.2074 62.3688 37.2656 62.398 37.353 62.398H38.9261C39.0135 62.398 39.0717 62.3688 39.13 62.3104C39.1883 62.2521 39.2174 62.1937 39.2174 62.1062V57.0878H39.1591ZM29.1382 59.3052C29.1382 59.6845 28.9926 60.0055 28.7304 60.2097C28.4682 60.4139 27.9439 60.5306 27.2448 60.5306H27.0117C26.8952 60.5306 26.7787 60.5306 26.6621 60.5306C26.5456 60.5306 26.4291 60.5306 26.3126 60.5306H26.0795V57.9047H27.6526C28.2061 57.9047 28.6139 58.0214 28.8178 58.284C29.0217 58.5466 29.1382 58.8384 29.1382 59.1593V59.3052ZM29.08 55.1329C29.08 55.2788 29.0508 55.4247 29.0217 55.5706C28.9635 55.7165 28.9052 55.8332 28.7887 55.9207C28.6722 56.0082 28.5265 56.0958 28.3517 56.1541C28.1769 56.2125 27.9439 56.2416 27.6526 56.2416H26.0795V53.82C26.1378 53.82 26.1961 53.82 26.2835 53.82C26.3708 53.82 26.4874 53.82 26.6039 53.82H26.9243H27.1574C27.8856 53.82 28.3808 53.9075 28.6722 54.0826C28.9635 54.2576 29.1091 54.5494 29.1091 54.9287V55.1329H29.08ZM31.4687 59.1593C31.4687 58.6633 31.3522 58.2548 31.1191 57.9047C30.8861 57.5546 30.5948 57.2628 30.2161 57.0878C30.5948 56.9127 30.8861 56.6209 31.09 56.2708C31.2939 55.8915 31.4104 55.483 31.4104 55.0454V54.7828C31.4104 54.2284 31.2939 53.7616 31.09 53.3823C30.8861 53.003 30.5656 52.7112 30.1869 52.4778C29.8082 52.2444 29.3422 52.0985 28.7887 51.9818C28.2352 51.8943 27.6526 51.8359 26.9826 51.8359C26.7495 51.8359 26.5165 51.8359 26.2835 51.8359C26.0504 51.8359 25.8174 51.8651 25.5843 51.8651C25.3513 51.8651 25.1474 51.8943 24.9435 51.9235C24.7395 51.9526 24.5939 51.9526 24.4774 51.9818C24.2152 52.0402 24.0113 52.0985 23.8948 52.2444C23.7782 52.3611 23.72 52.5945 23.72 52.9155V61.4351C23.72 61.7561 23.7782 61.9603 23.8948 62.1062C24.0113 62.2229 24.2152 62.3104 24.4774 62.3688C24.623 62.398 24.7978 62.4271 24.9726 62.4271C25.1765 62.4563 25.3804 62.4563 25.6135 62.4855C25.8465 62.4855 26.0795 62.5147 26.3126 62.5147C26.5456 62.5147 26.8078 62.5147 27.0408 62.5147C27.6526 62.5147 28.2352 62.4563 28.7595 62.3688C29.2839 62.2813 29.7791 62.1062 30.1578 61.8728C30.5656 61.6394 30.8569 61.3184 31.1191 60.9099C31.3522 60.5015 31.4687 59.9763 31.4687 59.3636V59.1593Z" fill="#004E91"/>
</svg>
