<svg width="120" height="80" viewBox="0 0 120 80" fill="none" xmlns="http://www.w3.org/2000/svg">
<path d="M116 0H4C1.79086 0 0 1.79086 0 4V76C0 78.2091 1.79086 80 4 80H116C118.209 80 120 78.2091 120 76V4C120 1.79086 118.209 0 116 0Z" fill="#FFFFFE"/>
<path d="M74.4581 16H45.375C40.1973 16 36 20.1973 36 25.375V54.3921C36 59.5698 40.1973 63.7671 45.375 63.7671H74.4581C79.6358 63.7671 83.8331 59.5698 83.8331 54.3921V25.375C83.8331 20.1973 79.6358 16 74.4581 16Z" fill="#00353B" stroke="#00353B" stroke-width="0.378"/>
<path d="M70.2212 47.669C69.2547 49.2724 67.7331 50.0741 65.6563 50.0741C64.3197 50.0741 63.1888 49.7334 62.2635 49.0519C61.3382 48.3705 60.7213 47.3282 60.4129 45.9252C59.6109 47.2681 58.3258 48.2903 56.5575 48.9918C54.7891 49.6933 52.8254 50.044 50.6664 50.044C45.1762 50.044 42.4312 47.5387 42.4312 42.5279V31.3138C42.4312 30.8929 42.5751 30.5421 42.863 30.2615C43.1714 29.9609 43.5415 29.8105 43.9733 29.8105C44.4051 29.8105 44.765 29.9609 45.0528 30.2615C45.3613 30.5421 45.5155 30.8929 45.5155 31.3138V37.1463C46.6053 36.064 47.9624 35.5228 49.5869 35.5228C50.8617 35.5228 51.9926 35.8235 52.9796 36.4248C53.9872 37.006 54.7685 37.8178 55.3237 38.86C55.8995 39.9022 56.1873 41.0848 56.1873 42.4076C56.1873 43.3497 56.0434 44.2316 55.7555 45.0533C55.4676 45.8751 55.0461 46.5966 54.491 47.218C56.1154 46.7971 57.4211 46.0054 58.4081 44.8429C59.3951 43.6804 59.8886 42.2874 59.8886 40.6639V37.0261C59.8886 36.6051 60.0325 36.2544 60.3204 35.9738C60.6288 35.6732 60.9989 35.5228 61.4307 35.5228C61.8625 35.5228 62.2224 35.6732 62.5103 35.9738C62.8187 36.2544 62.9729 36.6051 62.9729 37.0261V43.3998C62.9729 44.7827 63.1991 45.8049 63.6515 46.4663C64.1038 47.1278 64.8132 47.4585 65.7797 47.4585C66.89 47.4585 67.7434 47.0776 68.3397 46.316C68.9565 45.5344 69.265 44.422 69.265 42.9789V38.409H67.291C66.8592 38.409 66.4891 38.2688 66.1806 37.9881C65.8927 37.7075 65.7488 37.3668 65.7488 36.9659C65.7488 36.5651 65.8927 36.2243 66.1806 35.9437C66.4891 35.6631 66.8592 35.5228 67.291 35.5228H69.265V31.3438C69.265 30.9229 69.4089 30.5722 69.6968 30.2916C70.0052 29.9909 70.3753 29.8406 70.8072 29.8406C71.239 29.8406 71.5988 29.9909 71.8867 30.2916C72.1951 30.5722 72.3493 30.9229 72.3493 31.3438V35.5228H76.359C76.7908 35.5228 77.1506 35.6631 77.4385 35.9437C77.7469 36.2243 77.9012 36.5651 77.9012 36.9659C77.9012 37.3668 77.7469 37.7075 77.4385 37.9881C77.1506 38.2688 76.7908 38.409 76.359 38.409H72.3493V43.3697C72.3493 45.835 73.0587 47.0677 74.4775 47.0677C75.1766 47.0677 75.7524 46.8071 76.2048 46.286C76.4515 46.0054 76.6777 45.7949 76.8833 45.6546C77.0889 45.4943 77.3254 45.4141 77.5927 45.4141C78.0245 45.4141 78.3843 45.5544 78.6722 45.835C78.9601 46.0955 79.1041 46.4363 79.1041 46.8572C79.1041 47.3783 78.8882 47.8894 78.4564 48.3905C78.0245 48.8916 77.4488 49.2924 76.7291 49.5931C76.0094 49.9137 75.2486 50.0741 74.4467 50.0741C73.5008 50.0741 72.668 49.8637 71.9484 49.4428C71.2493 49.0419 70.6735 48.4506 70.2212 47.669ZM62.6337 32.6366C62.3046 32.9573 61.9037 33.1177 61.4307 33.1177C60.9578 33.1177 60.5569 32.9573 60.2278 32.6366C59.8988 32.3159 59.7343 31.9351 59.7343 31.4942C59.7343 31.0332 59.8988 30.6423 60.2278 30.3216C60.5774 30.001 60.9784 29.8406 61.4307 29.8406C61.9037 29.8406 62.3046 30.001 62.6337 30.3216C62.9626 30.6423 63.1272 31.0332 63.1272 31.4942C63.1272 31.9351 62.9626 32.3159 62.6337 32.6366ZM46.6259 45.8951C47.3661 46.6768 48.2914 47.0677 49.4018 47.0677C50.4504 47.0677 51.3243 46.6768 52.0234 45.8951C52.7226 45.1134 53.0721 44.0812 53.0721 42.7985C53.0721 41.5357 52.7123 40.5035 51.9926 39.7018C51.273 38.9001 50.3785 38.4992 49.3092 38.4992C48.24 38.4992 47.3455 38.8901 46.6259 39.6718C45.9062 40.4534 45.5463 41.4757 45.5463 42.7383C45.5463 44.0411 45.9062 45.0934 46.6259 45.8951Z" fill="#39EDF6"/>
</svg>
