<svg width="115" height="80" viewBox="0 0 115 80" fill="none" xmlns="http://www.w3.org/2000/svg">
<path d="M89.0272 47.6633C84.686 64.3411 67.0498 74.491 49.635 70.332C32.2274 66.174 21.6303 49.2811 25.9735 32.6043C30.3127 15.9245 47.9489 5.77358 65.3586 9.93161C82.7723 14.0896 93.3684 30.9844 89.0272 47.6633Z" fill="#F7931A"/>
<path d="M71.8332 35.6937C72.4802 31.5512 69.1872 29.3243 64.6844 27.8388L66.145 22.2273L62.5788 21.376L61.1568 26.8396C60.2193 26.6159 59.2564 26.4048 58.2995 26.1956L59.7317 20.696L56.1675 19.8447L54.7059 25.4543C53.9299 25.285 53.1681 25.1177 52.4286 24.9416L52.4327 24.9241L47.5145 23.7479L46.5658 27.3961C46.5658 27.3961 49.2118 27.9769 49.1559 28.0129C50.6003 28.3583 50.8613 29.2737 50.8177 29.9995L49.1539 36.3922C49.2534 36.4165 49.3824 36.4516 49.5246 36.506C49.4058 36.4778 49.2788 36.4467 49.1478 36.4165L46.8157 45.3718C46.6389 45.7921 46.191 46.4225 45.1814 46.1831C45.2169 46.2327 42.5892 45.5634 42.5892 45.5634L40.8188 49.4734L45.4597 50.5815C46.323 50.7887 47.1691 51.0056 48.002 51.2099L46.5262 56.8856L50.0884 57.7369L51.55 52.1215C52.5231 52.3745 53.4677 52.608 54.392 52.8278L52.9355 58.4169L56.5017 59.2682L57.9776 53.6032C64.0588 54.7055 68.6316 54.2608 70.5564 48.9928C72.1074 44.7511 70.4792 42.3043 67.2796 40.7088C69.6097 40.1942 71.3649 38.7261 71.8332 35.6937ZM63.6849 46.6375C62.5829 50.8792 55.1264 48.5861 52.7089 48.0111L54.6673 40.4919C57.0847 41.0697 64.8368 42.2138 63.6849 46.6375ZM64.788 35.6324C63.7825 39.4908 57.5763 37.5305 55.5631 37.0499L57.3387 30.2301C59.3518 30.7107 65.8353 31.6076 64.788 35.6324Z" fill="white"/>
</svg>