<svg width="115" height="80" viewBox="0 0 115 80" fill="none" xmlns="http://www.w3.org/2000/svg">
<g clip-path="url(#clip0)">
<path d="M23.6491 43.2839C22.0455 49.4445 15.5308 53.1938 9.09792 51.6575C2.66768 50.1216 -1.24683 43.8815 0.357543 37.7212C1.96041 31.5598 8.47509 27.8101 14.9061 29.3461C21.3386 30.882 25.2527 37.1228 23.6491 43.2839Z" fill="#F7931A"/>
<path d="M17.2977 38.8623C17.5367 37.3321 16.3203 36.5095 14.657 35.9608L15.1966 33.8879L13.8792 33.5735L13.354 35.5917C13.0076 35.509 12.6519 35.431 12.2985 35.3538L12.8275 33.3223L11.5109 33.0078L10.971 35.0799C10.6844 35.0174 10.403 34.9556 10.1298 34.8906L10.1313 34.8841L8.31459 34.4496L7.96416 35.7972C7.96416 35.7972 8.94156 36.0118 8.92092 36.0251C9.45446 36.1527 9.55089 36.4908 9.53475 36.7589L8.92017 39.1203C8.95694 39.1293 9.0046 39.1423 9.05712 39.1624C9.01323 39.152 8.96632 39.1404 8.91792 39.1293L8.05645 42.4373C7.99116 42.5926 7.82571 42.8254 7.45275 42.737C7.46589 42.7553 6.49523 42.5081 6.49523 42.5081L5.84125 43.9524L7.55555 44.3617C7.87448 44.4383 8.18702 44.5184 8.49469 44.5939L7.94952 46.6904L9.26536 47.0049L9.80528 44.9306C10.1647 45.024 10.5137 45.1103 10.8551 45.1915L10.3171 47.2561L11.6344 47.5705L12.1796 45.4779C14.4259 45.8851 16.1151 45.7209 16.8261 43.7749C17.399 42.208 16.7976 41.3042 15.6157 40.7149C16.4764 40.5247 17.1248 39.9825 17.2977 38.8623ZM14.2878 42.9048C13.8807 44.4717 11.1264 43.6247 10.2334 43.4123L10.9568 40.6347C11.8498 40.8482 14.7133 41.2708 14.2878 42.9048ZM14.6953 38.8397C14.3239 40.2649 12.0314 39.5408 11.2877 39.3633L11.9436 36.8441C12.6872 37.0216 15.0821 37.3529 14.6953 38.8397Z" fill="white"/>
<path d="M35.1838 35.9584C36.1575 35.9584 36.9987 36.1255 37.7056 36.4536C38.4158 36.785 39.0019 37.2313 39.472 37.7926C39.9358 38.3569 40.281 39.0163 40.5038 39.772C40.7252 40.53 40.8363 41.3446 40.8363 42.2168C40.8363 43.5566 40.58 44.8223 40.0626 46.0154C39.5452 47.2103 38.8432 48.2467 37.9502 49.1307C37.058 50.0137 36.0044 50.7098 34.7895 51.2241C33.5764 51.7387 32.2576 51.996 30.8416 51.996C30.6585 51.996 30.3366 51.991 29.8818 51.982C29.4271 51.973 28.9044 51.9281 28.3191 51.8522C27.73 51.7735 27.1072 51.6571 26.4494 51.5011C25.7921 51.3481 25.1677 51.1335 24.5798 50.8611L29.8372 29.7029L34.546 29.0039L32.6636 36.5122C33.0665 36.3383 33.4725 36.2035 33.8777 36.1054C34.2833 36.0087 34.7186 35.9584 35.1838 35.9584ZM31.234 48.4181C31.9432 48.4181 32.6114 48.251 33.2391 47.9229C33.8687 47.5944 34.412 47.151 34.8671 46.5986C35.3223 46.0438 35.6825 45.4188 35.9451 44.7206C36.2077 44.0223 36.3406 43.2939 36.3406 42.536C36.3406 41.6048 36.1781 40.8785 35.8543 40.3535C35.5305 39.8306 34.9313 39.5676 34.0612 39.5676C33.776 39.5676 33.4087 39.6197 32.9532 39.7127C32.4962 39.8116 32.0873 40.0168 31.7207 40.3255L29.7163 48.2992C29.8372 48.3196 29.9441 48.3391 30.0353 48.3574C30.1246 48.3771 30.2232 48.3912 30.3215 48.4009C30.4255 48.412 30.5444 48.4178 30.6881 48.4178C30.8318 48.4178 31.0115 48.4181 31.234 48.4181Z" fill="#4D4D4D"/>
<path d="M45.7195 51.592H41.222L45.0202 36.284H49.5485L45.7195 51.592ZM47.9081 34.4189C47.2804 34.4189 46.7112 34.2399 46.2062 33.8812C45.697 33.5248 45.4449 32.976 45.4449 32.2364C45.4449 31.8296 45.5312 31.448 45.7023 31.0879C45.876 30.7285 46.103 30.4191 46.3874 30.156C46.6714 29.8951 47.0005 29.6867 47.3742 29.5296C47.7501 29.3751 48.1501 29.2979 48.5763 29.2979C49.2037 29.2979 49.7699 29.4768 50.2768 29.8355C50.7818 30.1959 51.0358 30.7447 51.0358 31.4803C51.0358 31.8885 50.9499 32.2716 50.7773 32.631C50.6058 32.9904 50.3788 33.2998 50.0944 33.5628C49.8126 33.8241 49.4806 34.0318 49.1076 34.1874C48.7313 34.3445 48.3328 34.4189 47.9081 34.4189Z" fill="#4D4D4D"/>
<path d="M53.49 32.4695L58.2006 31.7705L57.0439 36.2827H62.0889L61.1779 39.8326H56.1633L54.8275 45.1872C54.7045 45.6335 54.6347 46.0504 54.6152 46.4378C54.593 46.827 54.6445 47.1612 54.766 47.4426C54.8868 47.7247 55.1041 47.9421 55.4192 48.0959C55.7329 48.2523 56.182 48.331 56.7711 48.331C57.2562 48.331 57.729 48.2868 58.186 48.1991C58.6404 48.1128 59.1007 47.9928 59.5667 47.8358L59.9022 51.1549C59.2944 51.3684 58.6362 51.552 57.9271 51.7065C57.2168 51.8632 56.376 51.9387 55.4042 51.9387C54.007 51.9387 52.9238 51.7399 52.152 51.3443C51.3813 50.9457 50.8365 50.4013 50.5105 49.712C50.1889 49.0253 50.0452 48.2336 50.0853 47.3416C50.127 46.4475 50.2677 45.5078 50.5105 44.5181L53.49 32.4695Z" fill="#4D4D4D"/>
<path d="M61.8909 45.4784C61.8909 44.1598 62.1137 42.9164 62.5591 41.7524C63.0037 40.5874 63.6442 39.5685 64.4753 38.6942C65.3033 37.8242 66.3123 37.1349 67.4998 36.6289C68.6817 36.1258 70.005 35.8721 71.4634 35.8721C72.3763 35.8721 73.1916 35.9547 73.909 36.1204C74.6294 36.2875 75.2811 36.5035 75.8706 36.7745L74.3195 40.1525C73.9143 39.9951 73.4937 39.8564 73.0588 39.7306C72.6236 39.6023 72.0923 39.5405 71.4638 39.5405C69.9626 39.5405 68.7759 40.0361 67.8926 41.024C67.0128 42.0126 66.5697 43.3434 66.5697 45.0126C66.5697 46.002 66.7925 46.8019 67.2398 47.4139C67.6848 48.0259 68.5068 48.3303 69.7004 48.3303C70.2894 48.3303 70.8579 48.2714 71.4023 48.1564C71.9508 48.04 72.4352 47.8933 72.8618 47.7201L73.1976 51.183C72.6288 51.3943 72.0015 51.5851 71.3134 51.7522C70.6237 51.9136 69.8028 51.9973 68.8509 51.9973C67.5943 51.9973 66.5306 51.8213 65.6605 51.4745C64.7901 51.1223 64.0708 50.6547 63.5042 50.0625C62.9347 49.4688 62.5257 48.7756 62.2728 47.98C62.0199 47.185 61.8909 46.3498 61.8909 45.4784Z" fill="#4D4D4D"/>
<path d="M81.8704 51.9973C80.797 51.9973 79.8646 51.8406 79.0737 51.5305C78.285 51.2204 77.6318 50.7852 77.1151 50.221C76.5977 49.6596 76.2105 48.9944 75.9452 48.2279C75.68 47.4617 75.5524 46.6133 75.5524 45.6836C75.5524 44.5174 75.7479 43.3516 76.143 42.1891C76.5362 41.024 77.1196 39.9772 77.8918 39.0467C78.6579 38.1149 79.6031 37.353 80.7159 36.759C81.8277 36.1689 83.1064 35.8721 84.5427 35.8721C85.5966 35.8721 86.5241 36.0291 87.3259 36.3392C88.124 36.6487 88.7813 37.0875 89.301 37.6488C89.815 38.213 90.2056 38.8753 90.4682 39.6429C90.7328 40.4077 90.8633 41.2583 90.8633 42.1887C90.8633 43.3513 90.6705 44.5171 90.2878 45.6832C89.9047 46.8436 89.3363 47.893 88.5859 48.8255C87.8369 49.756 86.9004 50.5175 85.7756 51.109C84.6522 51.7005 83.3495 51.9973 81.8704 51.9973ZM84.1183 39.5409C83.4516 39.5409 82.8621 39.7263 82.3575 40.0925C81.8509 40.463 81.4254 40.9288 81.0825 41.4905C80.7358 42.0547 80.4788 42.6699 80.3051 43.3387C80.1329 44.0089 80.0485 44.6425 80.0485 45.2444C80.0485 46.2158 80.212 46.9723 80.5336 47.5167C80.8596 48.0583 81.4453 48.3307 82.2967 48.3307C82.9657 48.3307 83.5521 48.1467 84.0598 47.7765C84.5633 47.4089 84.9892 46.9428 85.3347 46.38C85.6792 45.8187 85.9384 45.2017 86.1121 44.5318C86.2821 43.8637 86.3688 43.2266 86.3688 42.6257C86.3688 41.6568 86.2059 40.8986 85.8814 40.3548C85.5572 39.8133 84.9689 39.5409 84.1183 39.5409Z" fill="#4D4D4D"/>
<path d="M95.7642 51.592H91.2629L95.0611 36.284H99.5917L95.7642 51.592ZM97.9494 34.4189C97.322 34.4189 96.7532 34.2399 96.249 33.8812C95.7424 33.5248 95.488 32.976 95.488 32.2364C95.488 31.8296 95.5755 31.448 95.7469 31.0879C95.9184 30.7285 96.1469 30.4191 96.4313 30.156C96.7138 29.8951 97.0459 29.6867 97.4188 29.5296C97.7926 29.3751 98.1925 29.2979 98.6172 29.2979C99.2461 29.2979 99.8142 29.4768 100.32 29.8355C100.826 30.1959 101.082 30.7447 101.082 31.4803C101.082 31.8885 100.991 32.2716 100.821 32.631C100.651 32.9904 100.422 33.2998 100.139 33.5628C99.8539 33.8241 99.526 34.0318 99.1523 34.1874C98.7756 34.3445 98.3764 34.4189 97.9494 34.4189Z" fill="#4D4D4D"/>
<path d="M102.833 36.9797C103.174 36.8841 103.556 36.7691 103.97 36.644C104.386 36.519 104.851 36.4025 105.37 36.2976C105.884 36.1894 106.464 36.1017 107.101 36.0338C107.739 35.9645 108.465 35.9307 109.272 35.9307C111.644 35.9307 113.279 36.5923 114.182 37.9115C115.084 39.2308 115.24 41.0362 114.655 43.3247L112.586 51.5902H108.059L110.064 43.4986C110.186 42.9934 110.282 42.505 110.353 42.0277C110.425 41.5548 110.421 41.1379 110.337 40.7771C110.257 40.4206 110.069 40.1288 109.776 39.9028C109.48 39.6803 109.031 39.5686 108.423 39.5686C107.837 39.5686 107.24 39.6289 106.631 39.7454L103.683 51.5898H99.1541L102.833 36.9797Z" fill="#4D4D4D"/>
</g>
<defs>
<clipPath id="clip0">
<rect width="115" height="23" fill="white" transform="translate(0 29)"/>
</clipPath>
</defs>
</svg>