<svg width="103" height="80" viewBox="0 0 103 80" fill="none" xmlns="http://www.w3.org/2000/svg">
<path fill-rule="evenodd" clip-rule="evenodd" d="M26.5519 32.174C27.4108 31.8942 28.3086 31.7524 29.2119 31.754C33.2719 31.754 36.6609 34.578 37.4369 38.334L43.1899 37.184C41.8699 30.801 36.1149 26 29.2129 26C27.6309 26 26.1129 26.252 24.6899 26.718L26.5519 32.174Z" fill="#FFCA05"/>
<path fill-rule="evenodd" clip-rule="evenodd" d="M19.872 50.6664L23.81 46.3134C22.052 44.7904 20.943 42.5684 20.943 40.0934C20.943 37.6184 22.05 35.3974 23.807 33.8764L19.87 29.5234C16.884 32.1094 15 35.8864 15 40.0934C15 44.3014 16.884 48.0794 19.872 50.6664Z" fill="#00A4DF"/>
<path fill-rule="evenodd" clip-rule="evenodd" d="M37.4379 41.8574C36.6589 45.6124 33.2739 48.4344 29.2179 48.4344C28.3131 48.4363 27.4137 48.2935 26.5539 48.0114L24.6899 53.4734C26.1119 53.9394 27.6339 54.1904 29.2169 54.1904C36.1109 54.1904 41.8649 49.3934 43.1899 43.0144L37.4379 41.8574Z" fill="#EE4123"/>
<path fill-rule="evenodd" clip-rule="evenodd" d="M59.476 44.7244L59.472 44.7284L59.309 44.6184C58.839 45.3824 58.109 46.0024 57.184 46.4044C55.427 47.1714 53.799 46.9744 52.63 45.9444L52.523 46.1084C52.521 46.1064 52.521 46.1054 52.519 46.1054L50.525 49.1014C51.0209 49.4475 51.5522 49.7398 52.11 49.9734C54.313 50.8934 56.566 50.8504 58.786 49.8804C60.393 49.1814 61.652 48.1154 62.514 46.7644L59.476 44.7244ZM53.251 37.3314C51.396 38.1314 50.439 39.8804 50.636 41.9304L58.496 38.5324C57.144 36.9364 55.386 36.4084 53.251 37.3314ZM48.033 46.4594C47.8102 46.0881 47.6111 45.703 47.437 45.3064C46.53 43.1914 46.487 41.0034 47.252 38.9024C48.094 36.5984 49.702 34.8344 51.781 33.9364C54.394 32.8064 57.283 33.0294 59.787 34.5224C61.378 35.4384 62.506 36.8544 63.362 38.8554C63.472 39.1114 63.567 39.3854 63.661 39.6184L48.033 46.4594ZM69.123 29.5234V46.1824L71.702 47.2324L70.237 50.6664L67.391 49.4764C66.752 49.1974 66.317 48.7724 65.988 48.2924C65.673 47.8024 65.438 47.1324 65.438 46.2274V29.5234H69.123ZM75.803 41.9384C75.8017 42.6102 75.9437 43.2746 76.2196 43.8871C76.4956 44.4997 76.899 45.0463 77.403 45.4904L74.761 48.4564C73.8406 47.6379 73.1045 46.6332 72.6014 45.5089C72.0984 44.3845 71.8399 43.1662 71.843 41.9344C71.8419 40.7033 72.1023 39.486 72.6069 38.3631C73.1115 37.2401 73.8488 36.2371 74.77 35.4204L77.415 38.3834C76.9083 38.8268 76.5023 39.3733 76.2243 39.9865C75.9463 40.5996 75.8026 41.2652 75.803 41.9384ZM80.503 46.6664C82.775 46.6684 84.671 45.0514 85.113 42.9004L88.996 43.6964C88.186 47.6654 84.688 50.6504 80.499 50.6464C79.564 50.6461 78.6352 50.4938 77.749 50.1954L79.013 46.4224C79.481 46.5784 79.983 46.6654 80.503 46.6664ZM80.515 33.2384C84.707 33.2414 88.201 36.2384 89 40.2124L85.116 41.0024C84.903 39.9371 84.3281 38.9782 83.4888 38.2883C82.6495 37.5985 81.5974 37.2201 80.511 37.2174C80.0042 37.2175 79.5008 37.2993 79.02 37.4594L77.768 33.6824C78.6536 33.3866 79.5813 33.2367 80.515 33.2384Z" fill="black"/>
</svg>
