<svg width="120" height="80" viewBox="0 0 120 80" fill="none" xmlns="http://www.w3.org/2000/svg">
<path d="M116 0H4C1.79086 0 0 1.79086 0 4V76C0 78.2091 1.79086 80 4 80H116C118.209 80 120 78.2091 120 76V4C120 1.79086 118.209 0 116 0Z" fill="#FFFFFE"/>
<path fill-rule="evenodd" clip-rule="evenodd" d="M36.0644 32.9133C36.887 32.6453 37.7469 32.5096 38.6121 32.5111C42.5007 32.5111 45.7466 35.2159 46.4899 38.8133L52 37.7118C50.7357 31.5983 45.2237 27 38.6131 27C37.0978 27 35.6439 27.2414 34.281 27.6877L36.0644 32.9133Z" fill="#FFCA05"/>
<path fill-rule="evenodd" clip-rule="evenodd" d="M29.6663 50.6254L33.4381 46.4562C31.7543 44.9975 30.6921 42.8693 30.6921 40.4988C30.6921 38.1283 31.7524 36.001 33.4352 34.5442L29.6644 30.375C26.8045 32.8518 25 36.4694 25 40.4988C25 44.5291 26.8045 48.1476 29.6663 50.6254Z" fill="#00A4DF"/>
<path fill-rule="evenodd" clip-rule="evenodd" d="M46.4908 42.1875C45.7447 45.784 42.5026 48.4868 38.6178 48.4868C37.7512 48.4886 36.8898 48.3519 36.0663 48.0817L34.281 53.3131C35.643 53.7594 37.1007 53.9998 38.6169 53.9998C45.2198 53.9998 50.7309 49.4054 52 43.2957L46.4908 42.1875Z" fill="#EE4123"/>
<path fill-rule="evenodd" clip-rule="evenodd" d="M67.5984 44.9343L67.5946 44.9381L67.4384 44.8327C66.9883 45.5645 66.2891 46.1583 65.4032 46.5433C63.7203 47.278 62.1611 47.0893 61.0414 46.1028L60.9389 46.2598C60.937 46.2579 60.937 46.257 60.9351 46.257L59.0253 49.1265C59.5003 49.4579 60.0091 49.7379 60.5434 49.9617C62.6534 50.8428 64.8112 50.8016 66.9375 49.8726C68.4767 49.2031 69.6825 48.1821 70.5081 46.8881L67.5984 44.9343ZM61.6362 37.8534C59.8595 38.6196 58.9429 40.2948 59.1316 42.2582L66.6598 39.0037C65.3648 37.475 63.6811 36.9693 61.6362 37.8534ZM56.6385 46.596C56.4251 46.2403 56.2344 45.8715 56.0677 45.4917C55.1989 43.466 55.1578 41.3703 55.8905 39.358C56.6969 37.1513 58.237 35.4618 60.2283 34.6017C62.7309 33.5194 65.498 33.733 67.8963 35.163C69.4201 36.0403 70.5005 37.3965 71.3203 39.313C71.4257 39.5582 71.5167 39.8207 71.6067 40.0438L56.6385 46.596ZM76.8381 30.375V46.3307L79.3082 47.3364L77.9051 50.6254L75.1792 49.4856C74.5672 49.2184 74.1506 48.8114 73.8355 48.3516C73.5338 47.8823 73.3087 47.2406 73.3087 46.3738V30.375H76.8381ZM83.2361 42.2659C83.2348 42.9093 83.3709 43.5456 83.6351 44.1323C83.8994 44.719 84.2858 45.2425 84.7686 45.6679L82.2381 48.5087C81.3565 47.7247 80.6515 46.7625 80.1697 45.6856C79.6879 44.6087 79.4403 43.4418 79.4433 42.262C79.4423 41.0829 79.6916 39.917 80.1749 38.8414C80.6582 37.7659 81.3644 36.8052 82.2467 36.023L84.7801 38.861C84.2948 39.2856 83.9059 39.8091 83.6396 40.3963C83.3733 40.9836 83.2357 41.621 83.2361 42.2659ZM87.7377 46.7943C89.9138 46.7962 91.7297 45.2474 92.1531 43.1873L95.8721 43.9497C95.0963 47.7511 91.746 50.6101 87.7339 50.6062C86.8383 50.6059 85.9487 50.46 85.1 50.1743L86.3106 46.5606C86.7588 46.71 87.2396 46.7933 87.7377 46.7943ZM87.7492 33.9332C91.7642 33.936 95.1107 36.8065 95.876 40.6127L92.1559 41.3694C91.9519 40.349 91.4013 39.4306 90.5974 38.7699C89.7936 38.1091 88.7859 37.7468 87.7454 37.7442C87.26 37.7443 86.7778 37.8225 86.3173 37.976L85.1182 34.3584C85.9663 34.0751 86.8549 33.9315 87.7492 33.9332Z" fill="black"/>
</svg>
