<svg width="120" height="80" viewBox="0 0 120 80" fill="none" xmlns="http://www.w3.org/2000/svg">
<path d="M116 0H4C1.79086 0 0 1.79086 0 4V76C0 78.2091 1.79086 80 4 80H116C118.209 80 120 78.2091 120 76V4C120 1.79086 118.209 0 116 0Z" fill="#FFFFFE"/>
<path fill-rule="evenodd" clip-rule="evenodd" d="M11 26.9975C11 23.1332 14.1595 20 18.055 20H94.9419C98.839 20 101.997 23.1332 101.997 26.9975V52.0041C101.997 55.8662 98.839 59 94.9419 59H18.055C14.1595 59 11 55.8662 11 52.0041V26.9975Z" fill="#000268"/>
<path fill-rule="evenodd" clip-rule="evenodd" d="M13.8955 27.2378V51.7678C13.8955 54.1822 15.8704 56.1404 18.3065 56.1404H58.5883V22.8652H18.3065C15.8704 22.8652 13.8955 24.8234 13.8955 27.2378ZM68.9963 39.3803C68.9963 40.9421 68.2213 42.0154 66.9381 42.0154C65.8045 42.0154 64.8595 40.9421 64.8595 39.5118C64.8595 38.0438 65.6906 36.9523 66.9381 36.9523C68.261 36.9523 68.9963 38.0816 68.9963 39.3803ZM61.4621 48.3377H64.8595V43.0114H64.8975C65.5411 44.1786 66.826 44.6111 68.0151 44.6111C70.9412 44.6111 72.5082 42.2029 72.5082 39.3046C72.5082 36.9343 71.0171 34.3544 68.2972 34.3544C66.7501 34.3544 65.315 34.9761 64.6335 36.3504H64.5955V34.582H61.4621V48.3377ZM77.1486 41.2803C77.1486 40.3402 78.0539 39.9839 79.2073 39.9839C79.7167 39.9839 80.2084 40.0195 80.6424 40.0398C80.6424 41.1871 79.8305 42.3542 78.5456 42.3542C77.7525 42.3542 77.1486 41.9595 77.1486 41.2803ZM84.0018 44.3858C83.8517 43.6151 83.8137 42.8421 83.8137 42.0714V38.4204C83.8137 35.4284 81.6434 34.3544 79.1314 34.3544C77.6783 34.3544 76.4132 34.5617 75.2043 35.0518L75.2621 37.3487C76.203 36.8208 77.3004 36.6136 78.3955 36.6136C79.6209 36.6136 80.622 36.9721 80.6424 38.3086C80.2084 38.2329 79.6028 38.1753 79.0555 38.1753C77.2443 38.1753 73.9772 38.5339 73.9772 41.5253C73.9772 43.6529 75.7136 44.6111 77.6584 44.6111C79.0555 44.6111 80.0005 44.0673 80.7743 42.8421H80.8123C80.8123 43.3519 80.8678 43.8578 80.8882 44.3858H84.0018ZM85.5309 48.3377C86.2299 48.489 86.9279 48.5652 87.6451 48.5652C90.761 48.5652 91.4964 46.1745 92.4595 43.7088L96.0671 34.582H92.6674L90.6471 40.9799H90.6092L88.4943 34.582H84.8329L88.8161 44.6111C88.5703 45.4772 87.9289 45.9673 87.0973 45.9673C86.6237 45.9673 86.2101 45.9097 85.7563 45.7601L85.5309 48.3377Z" fill="white"/>
<path fill-rule="evenodd" clip-rule="evenodd" d="M22.1956 39.3976C22.1956 38.0611 22.8573 36.9499 24.1224 36.9499C25.6515 36.9499 26.2928 38.1729 26.2928 39.2643C26.2928 40.7702 25.3297 41.786 24.1224 41.786C23.1032 41.786 22.1956 40.9215 22.1956 39.3976ZM29.5786 34.5796H26.5007V36.348H26.465C25.7455 35.1431 24.5739 34.352 23.1213 34.352C20.0632 34.352 18.6843 36.5371 18.6843 39.4535C18.6843 42.3517 20.3652 44.3833 23.063 44.3833C24.4243 44.3833 25.5574 43.8554 26.3687 42.7081H26.4066V43.236C26.4066 45.1546 25.3495 46.0767 23.387 46.0767C21.9702 46.0767 21.1006 45.7757 20.0632 45.2681L19.8933 47.9411C20.6847 48.224 22.0257 48.5628 23.651 48.5628C27.6162 48.5628 29.5786 47.2635 29.5786 43.236V34.5796ZM35.3226 30.4961H31.9234V32.9799H35.3226V30.4961ZM31.9251 44.3833H35.3226V34.5796H31.9251V44.3833ZM44.7858 34.4655C44.4459 34.4101 44.0301 34.352 43.6346 34.352C42.1617 34.352 41.3125 35.1431 40.7267 36.3858H40.6887V34.5796H37.5927V44.3833H40.9907V40.2445C40.9907 38.3242 41.8796 37.1769 43.4647 37.1769C43.8624 37.1769 44.238 37.1769 44.6159 37.2881L44.7858 34.4655ZM50.6375 42.2383C49.0705 42.2383 48.4292 40.9396 48.4292 39.4913C48.4292 38.0233 49.0705 36.7246 50.6375 36.7246C52.2062 36.7246 52.8481 38.0233 52.8481 39.4913C52.8481 40.9396 52.2062 42.2383 50.6375 42.2383ZM50.6375 44.6086C53.8854 44.6086 56.3594 42.7284 56.3594 39.4913C56.3594 36.2345 53.8854 34.352 50.6375 34.352C47.3902 34.352 44.9179 36.2345 44.9179 39.4913C44.9179 42.7284 47.3902 44.6086 50.6375 44.6086Z" fill="#FF0007"/>
</svg>
