<svg width="132" height="80" viewBox="0 0 132 80" fill="none" xmlns="http://www.w3.org/2000/svg">
<path d="M57.2783 62.9843L13 63V62.8938C13 62.8353 13.0706 62.4565 13.1569 62.0519C13.2432 61.6473 13.3774 61.0037 13.4551 60.6217C13.5328 60.2397 13.6657 59.5906 13.7503 59.1793C13.835 58.7679 13.9756 58.0827 14.0629 57.6567C14.1502 57.2306 14.2868 56.5575 14.3667 56.1608C14.4465 55.7641 14.5797 55.115 14.6628 54.7183C14.7458 54.3217 14.8874 53.6365 14.9774 53.1957C15.0674 52.755 15.2042 52.0819 15.2815 51.6999C15.3587 51.3179 15.4814 50.7289 15.5542 50.391C15.6269 50.0531 15.7197 49.5963 15.7603 49.3759C15.8009 49.1555 15.9323 48.5064 16.0523 47.9335C16.1723 47.3605 16.3048 46.7114 16.3468 46.491C16.3887 46.2706 16.5218 45.6215 16.6425 45.0485C16.7632 44.4756 16.8959 43.8265 16.9372 43.6061C16.9786 43.3857 17.112 42.7366 17.2336 42.1636C17.3553 41.5906 17.4865 40.9536 17.5254 40.7479C17.5642 40.5422 17.6705 40.0133 17.7616 39.5725C17.8528 39.1318 18.0252 38.3024 18.1448 37.7294C18.2645 37.1564 18.4691 36.1587 18.5996 35.5123C18.73 34.8659 18.8859 34.0966 18.946 33.8027C19.0061 33.5089 19.1147 32.98 19.1874 32.6274C19.2601 32.2748 19.3922 31.6377 19.4808 31.2116C19.5695 30.7856 19.7138 30.0884 19.8014 29.6623C19.8891 29.2363 20.0241 28.5751 20.1016 28.1932C20.179 27.8112 20.3111 27.1741 20.3952 26.7774C20.4793 26.3807 20.624 25.6836 20.7167 25.2281C20.8093 24.7727 20.9646 24.0755 21.0617 23.6788C21.1588 23.2821 21.2961 22.8013 21.3667 22.6103C21.4374 22.4193 21.6325 22.0053 21.8004 21.6903L22.1055 21.1175L22.3828 20.7553C22.5354 20.5562 22.8077 20.2414 22.9881 20.0559C23.1684 19.8704 23.4727 19.5913 23.6643 19.4357C23.8559 19.28 24.1332 19.0699 24.2806 18.9688C24.428 18.8677 24.7173 18.6908 24.9237 18.5755C25.13 18.4603 25.4194 18.3094 25.5667 18.2402C25.7141 18.171 26.0155 18.0448 26.2366 17.9596C26.4577 17.8745 26.8797 17.7317 27.1744 17.6424C27.4692 17.5531 28.0224 17.4186 28.4039 17.3433C28.7854 17.2681 29.3882 17.1677 29.7436 17.1201L30.3898 17.0336L74.6949 17.0168L119 17V17.1062C119 17.1646 118.929 17.5434 118.842 17.948C118.755 18.3526 118.61 19.0442 118.519 19.485C118.429 19.9257 118.297 20.5628 118.226 20.9007C118.155 21.2386 118.02 21.8878 117.927 22.3432C117.834 22.7986 117.69 23.4958 117.608 23.8925C117.526 24.2892 117.393 24.9383 117.313 25.335C117.232 25.7316 117.099 26.3807 117.016 26.7774C116.932 27.1741 116.804 27.7992 116.729 28.1664C116.655 28.5337 116.52 29.1949 116.43 29.6356C116.34 30.0764 116.195 30.7736 116.108 31.1849C116.021 31.5963 115.889 32.2334 115.814 32.6007C115.739 32.968 115.605 33.6291 115.515 34.0698C115.425 34.5106 115.28 35.2078 115.194 35.6191C115.107 36.0305 114.977 36.6556 114.906 37.0082C114.835 37.3608 114.7 38.0219 114.608 38.4773C114.515 38.9328 114.38 39.5939 114.307 39.9465C114.235 40.2991 114.105 40.9242 114.02 41.3355C113.934 41.7469 113.787 42.4561 113.694 42.9116C113.6 43.367 113.467 44.0161 113.397 44.354C113.327 44.6919 113.196 45.329 113.105 45.7698C113.015 46.2105 112.872 46.9077 112.787 47.3191C112.702 47.7304 112.568 48.3795 112.49 48.7615C112.412 49.1435 112.276 49.8046 112.188 50.2307C112.101 50.6568 111.957 51.3539 111.87 51.78C111.782 52.2061 111.651 52.8431 111.578 53.1957C111.506 53.5483 111.373 54.1975 111.283 54.6382C111.193 55.079 111.047 55.7735 110.958 56.1817L110.797 56.9238L110.605 57.4371C110.499 57.7195 110.34 58.0948 110.251 58.2711C110.163 58.4474 109.983 58.7584 109.851 58.9623C109.719 59.1662 109.535 59.4274 109.442 59.5428C109.349 59.6582 109.07 59.9561 108.822 60.2049L108.37 60.6571L107.935 60.9653C107.696 61.1347 107.438 61.3071 107.362 61.3483C107.286 61.3894 106.998 61.5361 106.722 61.6741C106.445 61.8122 106.055 61.9879 105.854 62.0646C105.653 62.1412 105.255 62.2718 104.969 62.3547C104.684 62.4375 104.378 62.5191 104.29 62.536C104.201 62.5529 103.894 62.6162 103.608 62.6767C103.321 62.7372 102.742 62.8277 102.321 62.8776L101.557 62.9685L57.2783 62.9843ZM41.5249 51.5663H42.6771L42.7096 51.4818C42.7275 51.4353 42.7422 51.3261 42.7422 51.239C42.7422 51.1519 42.7801 50.8353 42.8266 50.5355C42.873 50.2356 42.9819 49.5455 43.0687 49.0019C43.1554 48.4583 43.2852 47.641 43.3572 47.1855C43.4292 46.7301 43.5171 46.1471 43.5525 45.89C43.5879 45.6329 43.6311 45.4225 43.6485 45.4225C43.6659 45.4225 43.7404 45.5361 43.814 45.675L43.9479 45.9274L44.245 46.2258L44.5421 46.5242L44.9078 46.6702L45.2734 46.8161L45.7093 46.8724L46.1451 46.9288L46.6983 46.8949L47.2515 46.8611L47.8505 46.7066L48.4494 46.552L48.771 46.4057C48.9478 46.3252 49.2613 46.1498 49.4676 46.0158L49.8428 45.7722L50.1925 45.4237C50.3849 45.2321 50.6562 44.9247 50.7954 44.7407C50.9346 44.5568 51.0485 44.3928 51.0485 44.3764C51.0485 44.36 51.1169 44.2461 51.2005 44.1232C51.2841 44.0004 51.4552 43.6595 51.5807 43.3657C51.7062 43.0718 51.9024 42.5429 52.0166 42.1903L52.2243 41.5492L52.3317 40.9939C52.3907 40.6885 52.4667 40.1836 52.5005 39.872L52.5619 39.3054L52.5264 38.8246L52.4909 38.3438L52.3791 37.863L52.2673 37.3821L52.0863 37.0222L51.9052 36.6622L51.5556 36.2926L51.2059 35.9231L50.7923 35.71L50.3787 35.4969L49.9232 35.3881L49.4676 35.2794L49.0121 35.2461L48.5566 35.2127L48.0492 35.2709L47.5418 35.329L47.1276 35.4344L46.7135 35.5398L46.3537 35.7059C46.1558 35.7972 45.8679 35.9522 45.7138 36.0505C45.5598 36.1487 45.4009 36.2617 45.3607 36.3016C45.3205 36.3415 45.2244 36.4155 45.147 36.4659L45.0063 36.5576L45.1047 36.0884C45.1588 35.8303 45.204 35.5891 45.2052 35.5524L45.2073 35.4856H44.2248H43.2423L43.07 36.5674C42.9753 37.1624 42.8257 38.082 42.7376 38.6109C42.6495 39.1398 42.5166 39.9332 42.4424 40.3739C42.3681 40.8147 42.2356 41.596 42.148 42.1102C42.0603 42.6244 41.9154 43.4418 41.826 43.9266C41.7366 44.4115 41.6056 45.1207 41.5349 45.5026C41.4642 45.8846 41.3312 46.6059 41.2393 47.1054C41.1474 47.6049 40.9997 48.3982 40.911 48.8684C40.8224 49.3385 40.6782 50.0838 40.5906 50.5245C40.5029 50.9653 40.418 51.38 40.4019 51.4461L40.3726 51.5663H41.5249ZM46.4853 45.3895L46.0379 45.4163L45.7455 45.3648L45.453 45.3133L45.156 45.1782L44.8589 45.043L44.6514 44.8454L44.4439 44.6479L44.3241 44.3807C44.2583 44.2338 44.1736 43.9842 44.1361 43.8261L44.0678 43.5386L44.0952 43.0782L44.1225 42.6177L44.2606 41.8965C44.3366 41.4998 44.4729 40.7546 44.5636 40.2403C44.6544 39.7261 44.7917 38.9727 44.8689 38.5661L45.0092 37.8267L45.3164 37.5718C45.4853 37.4316 45.753 37.2438 45.9111 37.1543L46.1987 36.9917L46.5738 36.8759L46.9489 36.7602L47.4312 36.732L47.9135 36.7037L48.3063 36.7872L48.699 36.8706L48.9761 36.9979L49.2533 37.1251L49.4857 37.358L49.7181 37.591L49.8435 37.8376C49.9124 37.9733 50.0093 38.2388 50.0587 38.4277L50.1486 38.7712L50.121 39.7862L50.0935 40.8013L49.9559 41.4013C49.8802 41.7313 49.7361 42.2361 49.6357 42.5232L49.4531 43.0451L49.2295 43.4676C49.1065 43.7 48.9168 44.014 48.808 44.1655C48.6992 44.3169 48.5258 44.513 48.4226 44.6014C48.3195 44.6897 48.1467 44.8277 48.0387 44.9081L47.8424 45.0542L47.3876 45.2084L46.9327 45.3627L46.4853 45.3895ZM57.6132 46.8582L58.2027 46.8649L58.7922 46.8113C59.1164 46.7818 59.647 46.7204 59.9712 46.6749C60.2954 46.6294 60.8555 46.5274 61.2158 46.4484L61.871 46.3047L61.9036 46.0639C61.9215 45.9315 61.9951 45.5373 62.0671 45.188L62.198 44.5527L62.1691 44.5239L62.1402 44.4951L61.9399 44.5916C61.8298 44.6446 61.4867 44.7711 61.1775 44.8727L60.6153 45.0574L60.0253 45.1713L59.4353 45.2853L58.4975 45.2871L57.5597 45.2889L57.2381 45.1866C57.0613 45.1302 56.8012 45.0272 56.6601 44.9576L56.4036 44.8311L56.192 44.6404L55.9803 44.4498L55.8151 44.162L55.65 43.8742L55.5464 43.5133L55.4429 43.1523L55.4421 42.4843L55.4414 41.8163L55.5333 41.2204L55.6253 40.6245L56.4317 40.587L57.2381 40.5494L60.2191 40.5685L63.2001 40.5876L63.2901 40.2069C63.3396 39.9976 63.4153 39.5649 63.4583 39.2453L63.5365 38.6643L63.5381 38.1756L63.5398 37.6868L63.4549 37.322L63.37 36.9571L63.2297 36.7155C63.1525 36.5826 63.0165 36.3901 62.9274 36.2876C62.8384 36.1851 62.6794 36.0406 62.5741 35.9665C62.4688 35.8924 62.2621 35.7678 62.1148 35.6897L61.8468 35.5477L61.3786 35.4352L60.9105 35.3227L60.3337 35.2677L59.7568 35.2128L59.2209 35.2475L58.685 35.2823L58.042 35.4054L57.3989 35.5285L56.997 35.6887C56.7759 35.7769 56.4383 35.9375 56.2467 36.0458C56.0551 36.1541 55.7899 36.3303 55.6572 36.4375C55.5246 36.5446 55.295 36.7529 55.1469 36.9004C54.9989 37.0478 54.7799 37.3127 54.6603 37.489C54.5407 37.6653 54.3573 37.9778 54.2528 38.1835C54.1483 38.3892 54.0122 38.6777 53.9503 38.8246C53.8883 38.9715 53.7758 39.272 53.7002 39.4924C53.6246 39.7128 53.5057 40.1335 53.4361 40.4273C53.3664 40.7211 53.271 41.2048 53.224 41.5022L53.1385 42.0428L53.1393 42.8378L53.1401 43.6328L53.2216 43.9801C53.2664 44.171 53.352 44.4595 53.4119 44.6211C53.4718 44.7828 53.5825 45.0232 53.658 45.1554C53.7335 45.2876 53.8946 45.5005 54.0162 45.6285C54.1377 45.7565 54.3577 45.9507 54.5051 46.06C54.6524 46.1694 54.9148 46.3232 55.0881 46.4018L55.4031 46.5448L55.8424 46.6507C56.084 46.7089 56.4487 46.7779 56.6527 46.804C56.8568 46.8301 57.289 46.8545 57.6132 46.8582ZM58.6227 39.3321C57.139 39.3321 55.9252 39.3215 55.9252 39.3086C55.9252 39.2957 55.9885 39.1094 56.0658 38.8946C56.1432 38.6798 56.2791 38.3601 56.3678 38.1842L56.5291 37.8642L56.8836 37.5128L57.2381 37.1613L57.5865 36.9952C57.778 36.9039 58.0312 36.8044 58.1491 36.7742C58.267 36.744 58.6047 36.7039 58.8994 36.6852L59.4353 36.651L59.8468 36.7037L60.2584 36.7565L60.5574 36.893L60.8565 37.0295L61.0205 37.2058C61.1108 37.3028 61.2183 37.4456 61.2595 37.5232L61.3344 37.6642L61.3838 37.9773L61.4333 38.2904L61.3767 38.8112L61.3201 39.3321H58.6227ZM74.655 46.8584L75.2448 46.865L75.9144 46.7859C76.2826 46.7424 76.7728 46.6703 77.0037 46.6256C77.2346 46.581 77.6084 46.4925 77.8343 46.4288C78.0603 46.3652 78.2648 46.2964 78.2886 46.2759C78.3125 46.2555 78.3764 46.013 78.4306 45.7371C78.4847 45.4612 78.5529 45.0913 78.5821 44.915C78.6113 44.7387 78.6264 44.585 78.6157 44.5735C78.6049 44.5619 78.5654 44.5768 78.5278 44.6066C78.4903 44.6363 78.2273 44.7466 77.9435 44.8517L77.4275 45.0428L76.6927 45.1847L75.9578 45.3266L75.3331 45.3054L74.7083 45.2841L74.3534 45.1614L73.9985 45.0387L73.7243 44.7996L73.4501 44.5605L73.2682 44.2302L73.0863 43.8999L72.9997 43.4581L72.913 43.0162L72.9136 42.443L72.9141 41.8698L73.0194 41.1753L73.1247 40.4808L73.2361 40.1068C73.2973 39.9011 73.3667 39.6607 73.3901 39.5725C73.4136 39.4844 73.5119 39.232 73.6085 39.0116C73.7052 38.7912 73.8776 38.4506 73.9917 38.2547L74.1991 37.8985L74.4539 37.6353L74.7087 37.3722L74.9785 37.2053L75.2483 37.0385L75.5947 36.9321C75.7853 36.8736 76.1221 36.7976 76.3431 36.7633L76.7451 36.7009L77.3346 36.7304L77.924 36.7598L78.6207 36.8989L79.3174 37.0379L79.6007 37.1432C79.7566 37.2012 79.8909 37.2486 79.8992 37.2486C79.9075 37.2486 79.9449 37.0502 79.9823 36.8078C80.0196 36.5654 80.0861 36.1666 80.13 35.9216C80.1739 35.6765 80.1993 35.4655 80.1864 35.4526C80.1734 35.4397 79.964 35.4066 79.721 35.3789C79.478 35.3513 78.8175 35.3022 78.2533 35.2699L77.2274 35.2111L76.5039 35.2665L75.7805 35.3218L75.2446 35.4341L74.7087 35.5464L74.3635 35.684C74.1737 35.7597 73.8957 35.8962 73.7457 35.9875C73.5957 36.0787 73.4048 36.2015 73.3214 36.2602C73.2381 36.319 72.9851 36.5483 72.7594 36.7698L72.3489 37.1724L72.1198 37.5071C71.9938 37.6911 71.7758 38.0749 71.6354 38.3599L71.38 38.878L71.1844 39.439C71.0767 39.7475 70.9265 40.2524 70.8504 40.5609L70.7122 41.1219L70.662 41.6294L70.6118 42.1369L70.6124 42.8047L70.6129 43.4725L70.6635 43.861L70.7141 44.2495L70.8746 44.6491L71.0351 45.0487L71.2205 45.3377L71.4059 45.6266L71.7007 45.9158L71.9955 46.2051L72.3074 46.3694L72.6192 46.5337L73.0289 46.6471C73.2542 46.7095 73.5798 46.7811 73.7524 46.8062C73.9249 46.8314 74.3315 46.8549 74.6559 46.8584H74.655ZM83.4702 46.8387L84.1936 46.8181L84.6491 46.7018L85.1047 46.5856L85.3994 46.4467C85.5615 46.3703 85.8268 46.2195 85.9889 46.1115C86.151 46.0036 86.4019 45.7984 86.5465 45.6555C86.6911 45.5127 86.9054 45.2689 87.0229 45.1139C87.1404 44.9589 87.2435 44.8391 87.2522 44.8477C87.2608 44.8563 87.2338 45.1034 87.1921 45.3967C87.1504 45.69 87.1159 46.0803 87.1153 46.2639L87.1143 46.5978H88.0978H89.0813L89.1114 45.8365L89.1415 45.0753L89.2818 44.0869C89.359 43.5433 89.4837 42.7379 89.5589 42.2972C89.634 41.8564 89.7647 41.1112 89.8493 40.641C89.9338 40.1709 90.0678 39.4376 90.1469 39.0116L90.2908 38.2369L90.2957 37.5678L90.3005 36.8987L90.1487 36.5894L89.997 36.2802L89.7911 36.0832L89.5853 35.8863L89.2475 35.7156L88.9096 35.5449L88.406 35.4332L87.9024 35.3216L87.2091 35.269L86.5158 35.2164L85.6227 35.2714C85.1315 35.3017 84.4402 35.3616 84.0865 35.4044L83.4434 35.4822L83.0052 35.4839L82.5669 35.4856L82.5031 35.7928C82.4681 35.9617 82.3706 36.3631 82.2866 36.6848C82.2025 37.0064 82.1415 37.2774 82.151 37.2869C82.1606 37.2964 82.395 37.2433 82.6719 37.169C82.9489 37.0947 83.5372 36.9725 83.9793 36.8974L84.7832 36.761L85.5066 36.7312L86.2301 36.7015L86.6961 36.7829L87.1621 36.8644L87.4731 37.0174L87.7842 37.1705L87.9584 37.4292L88.1325 37.688L88.1301 38.096L88.1276 38.504L88.0353 38.9518L87.9429 39.3995L86.0147 39.4064L84.0865 39.4134L83.4554 39.5859C83.1083 39.6807 82.724 39.8067 82.6013 39.8658C82.4787 39.9249 82.356 39.9732 82.3287 39.9732C82.3014 39.9732 82.0949 40.0874 81.8698 40.2269L81.4606 40.4805L81.1383 40.8012C80.9611 40.9775 80.7346 41.242 80.6351 41.389C80.5356 41.5359 80.3739 41.8428 80.2758 42.071L80.0974 42.4859L80.0155 42.9525L79.9336 43.4191V43.9086V44.398L80.0119 44.8056L80.0901 45.2131L80.2352 45.4789C80.315 45.6251 80.4615 45.8392 80.5607 45.9548L80.741 46.1649L81.0616 46.359L81.3821 46.5531L81.749 46.6566C81.9508 46.7135 82.2579 46.7824 82.4315 46.8097L82.7471 46.8594L83.4706 46.8387L83.4702 46.8387ZM84.14 45.3448L83.7113 45.3671L83.4274 45.295C83.2712 45.2554 83.0342 45.167 82.9008 45.0985L82.6581 44.9741L82.5257 44.8172C82.4529 44.7309 82.3416 44.5613 82.2784 44.4404L82.1636 44.2205L82.1411 43.7069L82.1186 43.1933L82.2094 42.8818C82.2594 42.7105 82.3766 42.4132 82.4699 42.2211L82.6395 41.872L82.9644 41.5503L83.2893 41.2287L83.6343 41.0631L83.9793 40.8975L84.408 40.796L84.8367 40.6945H86.1764H87.5162L87.6009 40.7294L87.6857 40.7643L87.6144 41.1835C87.5751 41.414 87.4816 41.8311 87.4064 42.1102C87.3313 42.3893 87.1986 42.7997 87.1116 43.0221C87.0247 43.2445 86.9535 43.4411 86.9535 43.459C86.9535 43.4769 86.8654 43.639 86.7578 43.8191L86.5621 44.1466L86.2407 44.464C86.064 44.6386 85.8999 44.7814 85.8761 44.7814C85.8523 44.7814 85.744 44.8415 85.6354 44.915L85.4379 45.0486L85.0033 45.1856L84.5688 45.3226L84.14 45.3448ZM101.583 46.8578L102.093 46.8642L102.575 46.7862C102.84 46.7432 103.178 46.6741 103.325 46.6325C103.472 46.5909 103.738 46.483 103.915 46.3927L104.236 46.2285L104.513 45.9857L104.789 45.743L105.081 45.3557C105.241 45.1427 105.386 44.9323 105.403 44.8883L105.434 44.8081L105.407 45.0753C105.392 45.2222 105.359 45.4626 105.333 45.6095C105.307 45.7564 105.27 46.0389 105.25 46.2372L105.215 46.5978H106.266H107.317V46.2372V45.8766L107.478 44.5143C107.566 43.765 107.696 42.7673 107.767 42.2972C107.838 41.8271 107.948 41.1539 108.011 40.8013C108.074 40.4487 108.186 39.8116 108.259 39.3856C108.333 38.9595 108.465 38.2142 108.554 37.7294C108.643 37.2446 108.785 36.4753 108.869 36.0198C108.954 35.5644 109.086 34.8552 109.162 34.4438C109.238 34.0324 109.375 33.3112 109.466 32.8411C109.557 32.3709 109.689 31.7098 109.76 31.3719C109.832 31.034 109.89 30.7395 109.89 30.7175V30.6774H108.743H107.596L107.562 31.0113C107.543 31.1949 107.456 31.802 107.367 32.3603C107.278 32.9185 107.134 33.8081 107.046 34.337C106.958 34.8659 106.873 35.3787 106.857 35.4767L106.829 35.6548L106.738 35.6164C106.688 35.5953 106.418 35.5207 106.138 35.4506L105.629 35.3232L104.933 35.2691L104.236 35.215L103.647 35.2697L103.057 35.3245L102.521 35.4595L101.985 35.5946L101.476 35.8421L100.967 36.0897L100.592 36.3665L100.217 36.6434L99.8928 36.9897C99.7146 37.1801 99.4572 37.4951 99.3208 37.6897L99.0728 38.0435L98.7815 38.6477C98.6213 38.9801 98.4263 39.4203 98.3482 39.626C98.2701 39.8317 98.1324 40.2876 98.0422 40.6392L97.8782 41.2784L97.7973 42.1083L97.7165 42.9383L97.7772 43.6061L97.8379 44.2739L97.9096 44.5143C97.9491 44.6465 98.0323 44.8821 98.0945 45.0378L98.2077 45.3209L98.414 45.5993L98.6203 45.8777L98.8559 46.0701L99.0914 46.2624L99.4129 46.4216C99.5898 46.5091 99.8865 46.6222 100.072 46.673C100.258 46.7237 100.559 46.7846 100.742 46.8083C100.925 46.832 101.303 46.8543 101.583 46.8578H101.583ZM102.497 45.3421L102.093 45.3635L101.819 45.3145C101.669 45.2875 101.429 45.2153 101.285 45.1539L101.024 45.0424L100.805 44.863L100.585 44.6835L100.422 44.3719L100.258 44.0602L100.184 43.7129L100.11 43.3657L100.116 42.6712L100.122 41.9766L100.209 41.3623L100.295 40.7479L100.429 40.3205C100.503 40.0854 100.564 39.8636 100.564 39.8276C100.565 39.7917 100.638 39.5993 100.726 39.4003C100.815 39.2012 100.963 38.8941 101.056 38.7178C101.148 38.5415 101.321 38.2666 101.439 38.107C101.558 37.9474 101.77 37.707 101.909 37.5728C102.049 37.4385 102.271 37.2625 102.403 37.1815L102.643 37.0344L103.064 36.889L103.486 36.7437L104.37 36.7431H105.254L105.763 36.8839C106.043 36.9614 106.341 37.0512 106.424 37.0835L106.576 37.1423L106.546 37.2889C106.53 37.3696 106.466 37.7241 106.405 38.0767C106.343 38.4293 106.222 39.1024 106.135 39.5725C106.048 40.0427 105.915 40.7519 105.839 41.1486C105.763 41.5452 105.653 42.0501 105.594 42.2705C105.535 42.4908 105.453 42.7961 105.41 42.9488C105.368 43.1015 105.266 43.3659 105.185 43.5365C105.104 43.707 104.962 43.9547 104.87 44.0869C104.777 44.2191 104.621 44.4023 104.523 44.4939C104.424 44.5856 104.211 44.7484 104.049 44.8558L103.754 45.0511L103.328 45.1859L102.902 45.3206L102.497 45.3421ZM23.6267 46.5978H24.9287L25.0222 46.0235C25.0735 45.7077 25.1739 45.1006 25.2452 44.6746C25.3164 44.2485 25.4491 43.4552 25.5399 42.9116C25.6308 42.368 25.767 41.5626 25.8426 41.1219C25.9182 40.6811 26.0383 39.9974 26.1095 39.6025C26.1808 39.2076 26.2525 38.871 26.2691 38.8546L26.2991 38.8246H29.8003H33.3015L33.3403 38.8633L33.3792 38.9021L33.3185 39.2106C33.2851 39.3803 33.1863 39.9038 33.099 40.3739C33.0117 40.844 32.8649 41.6374 32.7728 42.1369C32.6807 42.6364 32.5475 43.3456 32.4768 43.7129C32.4061 44.0802 32.2631 44.8495 32.159 45.4225C32.0549 45.9955 31.9699 46.4943 31.9702 46.5311L31.9707 46.5978H33.2782H34.5856L34.6435 46.2639C34.6753 46.0803 34.7265 45.7497 34.7572 45.5294C34.788 45.309 34.8621 44.8402 34.922 44.4876C34.9818 44.135 35.1014 43.4378 35.1877 42.9383C35.274 42.4388 35.4185 41.5853 35.5088 41.0417C35.599 40.4981 35.7329 39.7048 35.8063 39.2787C35.8797 38.8527 36.0105 38.1314 36.097 37.676C36.1834 37.2205 36.3274 36.4512 36.417 35.9664C36.5065 35.4816 36.6407 34.7483 36.7151 34.337C36.7895 33.9256 36.9252 33.1803 37.0167 32.6808C37.1081 32.1813 37.2235 31.5983 37.2732 31.3853L37.3635 30.9979H36.0397H34.716L34.6799 31.2517C34.6601 31.3913 34.5962 31.7819 34.5378 32.1199C34.4795 32.4578 34.3733 33.0588 34.3019 33.4555C34.2305 33.8521 34.1001 34.6094 34.012 35.1383C33.9239 35.6672 33.8117 36.3674 33.7626 36.6942L33.6733 37.2884L31.73 37.3276L29.7868 37.3668L28.1591 37.3283C27.2638 37.3071 26.5264 37.2856 26.5204 37.2805C26.5143 37.2753 26.5448 37.0677 26.5881 36.8191C26.6314 36.5705 26.7134 36.1387 26.7703 35.8596C26.8271 35.5804 26.9349 35.0275 27.0098 34.6308C27.0847 34.2341 27.1695 33.7413 27.1983 33.5356C27.2271 33.3299 27.2874 32.9873 27.3324 32.7743C27.3774 32.5613 27.4627 32.1125 27.522 31.7771C27.5813 31.4417 27.6445 31.1292 27.6624 31.0826L27.695 30.9979H26.3819H25.0688L24.9847 31.4654C24.9384 31.7225 24.8768 32.0891 24.8476 32.2801C24.8185 32.4711 24.7207 33.0842 24.6303 33.6424C24.5399 34.2007 24.4064 35.0301 24.3337 35.4856C24.261 35.941 24.1285 36.7704 24.0394 37.3287C23.9503 37.887 23.8032 38.7525 23.7126 39.252C23.622 39.7515 23.4908 40.4607 23.421 40.828C23.3513 41.1953 23.2184 41.8925 23.1257 42.3773C23.033 42.8621 22.8978 43.5473 22.8252 43.8999C22.7527 44.2525 22.6724 44.6612 22.6469 44.8081C22.6214 44.955 22.5385 45.3788 22.4626 45.7498C22.3867 46.1207 22.3246 46.4633 22.3246 46.5111V46.5978H23.6267ZM38.0411 46.5978H39.1938L39.2263 46.5133C39.2442 46.4669 39.2588 46.3449 39.2588 46.2424C39.2588 46.1399 39.3313 45.6069 39.4199 45.0581C39.5085 44.5092 39.6549 43.6154 39.7452 43.0718C39.8355 42.5282 39.9689 41.7349 40.0416 41.3088C40.1143 40.8828 40.2436 40.1736 40.3289 39.7328C40.4143 39.2921 40.5452 38.6069 40.62 38.2102C40.6948 37.8135 40.8418 37.0589 40.9467 36.5331C41.0517 36.0074 41.1506 35.5562 41.1666 35.5304L41.1957 35.4835L40.03 35.4979L38.8644 35.5123L38.7673 36.2068C38.7139 36.5888 38.5971 37.3461 38.5079 37.8897C38.4186 38.4333 38.2835 39.2627 38.2077 39.7328C38.132 40.203 37.9998 40.9602 37.9141 41.4157C37.8283 41.8711 37.6969 42.5683 37.6221 42.965C37.5472 43.3617 37.4129 44.0589 37.3236 44.5143C37.2343 44.9697 37.1145 45.5708 37.0573 45.8499C37.0002 46.129 36.9388 46.4115 36.9209 46.4776L36.8884 46.5978H38.0411ZM65.0006 46.5978H66.1447L66.1791 46.1152C66.198 45.8498 66.2627 45.3149 66.323 44.9265C66.3832 44.5382 66.5065 43.7637 66.597 43.2054C66.6875 42.6471 66.8558 41.7179 66.9708 41.1404C67.0859 40.5629 67.216 39.9889 67.2599 39.8649C67.3038 39.7408 67.3397 39.6063 67.3397 39.5661C67.3397 39.5258 67.4258 39.3064 67.5309 39.0786C67.636 38.8507 67.832 38.5019 67.9663 38.3033L68.2106 37.9422L68.5375 37.6405L68.8645 37.3387L69.2677 37.1467L69.6709 36.9548L70.2872 36.958L70.9034 36.9612L71.2064 37.0514C71.3731 37.1011 71.5238 37.1417 71.5414 37.1417C71.5589 37.1417 71.5733 37.0849 71.5733 37.0155C71.5733 36.9461 71.6336 36.5942 71.7073 36.2335C71.781 35.8728 71.8413 35.5625 71.8413 35.5439C71.8413 35.5253 71.6664 35.4571 71.4527 35.3923C71.239 35.3275 70.9436 35.2597 70.7963 35.2415L70.5283 35.2085L70.18 35.27C69.9884 35.3037 69.7035 35.3783 69.5469 35.4357C69.3903 35.4931 69.1318 35.6232 68.9724 35.7248C68.813 35.8265 68.565 36.0246 68.4213 36.1651C68.2776 36.3055 68.036 36.5888 67.8843 36.7944C67.7326 37.0001 67.574 37.2165 67.5318 37.2753L67.4551 37.3821L67.5017 37.1684C67.5273 37.0509 67.5987 36.6662 67.6603 36.3136C67.7219 35.961 67.7851 35.6305 67.8008 35.579L67.8293 35.4855H66.8075H65.7856V35.6143C65.7856 35.6852 65.7253 36.1119 65.6516 36.5626C65.5779 37.0133 65.4564 37.7668 65.3815 38.2369C65.3067 38.707 65.1738 39.5244 65.0863 40.0533C64.9988 40.5822 64.8659 41.3395 64.791 41.7362C64.7161 42.1329 64.5832 42.8301 64.4955 43.2855C64.4079 43.7409 64.2623 44.4862 64.1721 44.9417C64.0819 45.3971 63.974 45.935 63.9323 46.1369C63.8905 46.3388 63.8564 46.5252 63.8564 46.5509V46.5978L65.0006 46.5978ZM92.1608 46.5978H93.3306V46.2409V45.884L93.4654 44.9988C93.5396 44.5119 93.6619 43.741 93.7373 43.2855C93.8127 42.8301 93.9066 42.2531 93.946 42.0034C93.9855 41.7536 94.09 41.2127 94.1783 40.8013C94.2667 40.3899 94.377 39.9452 94.4235 39.813C94.47 39.6807 94.5084 39.542 94.5088 39.5047C94.5094 39.4673 94.609 39.2273 94.7304 38.9712L94.9513 38.5057L95.2426 38.1198L95.5339 37.7339L95.8528 37.4949C96.0281 37.3635 96.3101 37.1891 96.4794 37.1074L96.7872 36.9588L97.457 36.9634L98.1269 36.968L98.3906 37.0524L98.6543 37.1368L98.6987 37.1094L98.7432 37.082L98.7454 36.9116C98.7467 36.8178 98.804 36.4689 98.8729 36.1363L98.9981 35.5315L98.8573 35.4765C98.7798 35.4463 98.5958 35.3837 98.4484 35.3374L98.1805 35.2533L97.6982 35.2545L97.2159 35.2557L96.8228 35.3936L96.4298 35.5315L96.1346 35.7089L95.8395 35.8863L95.4558 36.287L95.0721 36.6876L94.866 36.9985C94.7526 37.1694 94.6528 37.3017 94.6441 37.2923C94.6355 37.283 94.6971 36.9267 94.7811 36.5007C94.865 36.0746 94.9348 35.6719 94.936 35.6058L94.9383 35.4856H93.9469H92.9555V35.5196C92.9555 35.5384 92.9061 35.881 92.8457 36.2809C92.7853 36.6809 92.664 37.453 92.5762 37.9965C92.4883 38.5401 92.3442 39.4176 92.2559 39.9465C92.1676 40.4754 92.0344 41.2327 91.96 41.6294C91.8856 42.0261 91.7535 42.7233 91.6664 43.1787C91.5793 43.6342 91.4361 44.3674 91.3483 44.8081C91.2605 45.2489 91.1441 45.8319 91.0898 46.1037L90.9909 46.5979L92.1608 46.5978ZM40.3077 33.5611L40.6331 33.5623L40.8917 33.4745L41.1504 33.3866L41.3793 33.1551L41.6082 32.9236L41.7287 32.6152L41.8493 32.3068L41.8536 31.8527L41.8579 31.3986L41.7508 31.2213L41.6436 31.044L41.457 30.9288L41.2704 30.8136H40.8675L40.4646 30.8136L40.1903 30.936L39.916 31.0585L39.7568 31.2285L39.5976 31.3986L39.4726 31.6925L39.3475 31.9863L39.3239 32.444L39.3003 32.9017L39.4167 33.1292L39.5331 33.3566L39.7577 33.4583L39.9823 33.56L40.3077 33.5611Z" fill="#B3131B"/>
</svg>
