<svg width="120" height="80" viewBox="0 0 120 80" fill="none" xmlns="http://www.w3.org/2000/svg">
<path d="M116 0H4C1.79086 0 0 1.79086 0 4V76C0 78.2091 1.79086 80 4 80H116C118.209 80 120 78.2091 120 76V4C120 1.79086 118.209 0 116 0Z" fill="#FFFFFE"/>
<mask id="mask0_125_1251" style="mask-type:luminance" maskUnits="userSpaceOnUse" x="35" y="15" width="50" height="50">
<path d="M85 15H35V65H85V15Z" fill="white"/>
</mask>
<g mask="url(#mask0_125_1251)">
<path d="M39.8768 15.8516H80.1236C81.1911 15.8516 82.2149 16.2756 82.9698 17.0305C83.7246 17.7853 84.1487 18.8091 84.1487 19.8765V60.1232C84.1487 61.1906 83.7246 62.2143 82.9699 62.9691C82.2151 63.7239 81.1914 64.1479 80.1239 64.1479H39.8762C38.809 64.1479 37.7854 63.724 37.0307 62.9693C36.276 62.2146 35.8521 61.1911 35.8521 60.1238V19.8763C35.8521 19.3477 35.9562 18.8244 36.1584 18.3361C36.3607 17.8478 36.6571 17.4041 37.0309 17.0304C37.4046 16.6566 37.8483 16.3602 38.3366 16.1579C38.8249 15.9557 39.3483 15.8516 39.8768 15.8516Z" fill="#FDB913"/>
<path d="M80.1242 15.8518C81.1916 15.8521 82.2151 16.2763 82.9697 17.0311C83.7243 17.7859 84.1483 18.8095 84.1484 19.8768V60.1235C84.1484 61.1908 83.7244 62.2144 82.9697 62.9691C82.2151 63.7239 81.1915 64.148 80.1242 64.1482H39.8768C39.3483 64.1483 38.8248 64.0443 38.3365 63.8421C37.8481 63.6399 37.4044 63.3434 37.0306 62.9697C36.6569 62.5959 36.3604 62.1522 36.1582 61.6638C35.956 61.1755 35.852 60.652 35.8521 60.1235V19.8768C35.852 19.3482 35.956 18.8248 36.1582 18.3365C36.3604 17.8481 36.6569 17.4043 37.0307 17.0306C37.4044 16.6568 37.8481 16.3603 38.3365 16.1581C38.8248 15.9558 39.3483 15.8518 39.8768 15.8518H80.1242ZM80.1242 15H39.8768C38.5839 15.0014 37.3443 15.5157 36.43 16.4299C35.5158 17.3442 35.0016 18.5839 35.0002 19.8768V60.1235C35.0017 61.4164 35.5159 62.6559 36.4301 63.5701C37.3444 64.4843 38.5839 64.9986 39.8768 65H80.1242C81.4171 64.9985 82.6565 64.4842 83.5706 63.57C84.4848 62.6558 84.9989 61.4163 85.0003 60.1235V19.8768C84.999 18.5839 84.4849 17.3443 83.5708 16.4301C82.6566 15.5158 81.4171 15.0015 80.1242 15Z" fill="white"/>
<path d="M62.8187 40.5207L62.8147 31.8737L65.0718 31.3381V32.4716C65.0718 32.4716 65.6565 30.9809 67.0133 30.6349C67.216 30.5696 67.4315 30.5551 67.6411 30.5927V32.799C67.2347 32.8043 66.8332 32.8879 66.4584 33.0451C65.6244 33.3745 65.2047 34.0932 65.2047 35.1903L65.2061 39.965L62.8187 40.5207Z" fill="#231F20"/>
<path d="M50.92 43.3318C50.92 43.3318 50.553 42.7815 50.553 40.836V36.5304L49.3916 36.8067V35.033L50.5556 34.7582V32.8247L52.9556 32.2578V34.1913L54.6515 33.7884V35.5601L52.9556 35.9626C52.9556 35.9626 52.953 39.4901 52.9556 40.3468C52.9556 42.3402 53.4847 42.7229 53.4847 42.7229L50.92 43.3318Z" fill="#231F20"/>
<path d="M54.9023 38.1868C54.9023 36.6496 55.1213 35.5281 55.5912 34.6674C56.1504 33.646 57.0674 32.9804 58.4032 32.6763C61.0362 32.0775 61.9864 33.6359 61.9497 35.7258C61.9356 36.4731 61.9391 36.8372 61.9391 36.8372L57.3003 37.9275V38.0023C57.3003 39.4624 57.6065 40.1553 58.5317 39.959C59.3311 39.7903 59.5534 39.2897 59.6166 38.6705C59.6269 38.5707 59.6318 38.3168 59.6318 38.3168L61.8048 37.7961C61.8048 37.7961 61.81 37.9739 61.8068 38.1736C61.7879 39.0034 61.5466 41.0616 58.5263 41.7757C55.6652 42.4548 54.9023 40.7076 54.9023 38.1868ZM58.4996 34.2869C57.731 34.4614 57.3279 35.2154 57.3104 36.4645L59.6438 35.9088C59.6478 35.8523 59.6484 35.7278 59.6478 35.5327C59.6438 34.5896 59.3523 34.0918 58.4996 34.2869Z" fill="#231F20"/>
<path d="M75.7644 33.1326C75.6746 30.4991 76.3577 28.409 79.296 27.7434C81.1686 27.3179 81.8799 27.8051 82.2399 28.2759C82.5862 28.7252 82.7199 29.3311 82.7199 30.1798L82.7219 30.3356L80.4232 30.8819C80.4232 30.8819 80.4215 30.572 80.4215 30.562C80.4232 29.5555 80.1435 29.1728 79.4125 29.3558C78.5431 29.5741 78.1919 30.3993 78.1919 32.0398C78.1919 32.6222 78.1945 32.7267 78.1945 32.8053C78.1945 34.4725 78.4223 35.2356 79.4242 35.0259C80.2933 34.8463 80.4123 34.0831 80.4264 33.4141C80.4281 33.3091 80.4324 32.9728 80.4324 32.9728L82.7277 32.4306C82.7277 32.4306 82.73 32.6001 82.73 32.7886C82.7242 34.9748 81.572 36.3526 79.4133 36.8549C76.4392 37.5521 75.8568 35.8335 75.7644 33.1326Z" fill="#231F20"/>
<path d="M67.8179 36.8167C67.8179 34.8135 68.9913 34.18 70.7575 33.4493C72.3459 32.7923 72.3803 32.466 72.3869 31.8951C72.3958 31.4145 72.1729 31.0034 71.3821 31.2051C71.1185 31.2582 70.8805 31.3988 70.7067 31.6042C70.533 31.8095 70.4337 32.0675 70.425 32.3364C70.4121 32.4839 70.4071 32.6321 70.4101 32.7802L68.1831 33.3061C68.1681 32.8623 68.22 32.4188 68.3369 31.9904C68.6929 30.7925 69.7493 29.9866 71.5729 29.5646C73.9422 29.0186 74.7321 30.0583 74.735 31.6756V35.5055C74.735 37.3578 75.0787 37.6292 75.0787 37.6292L72.8924 38.1465C72.7719 37.8939 72.6738 37.6311 72.5995 37.3612C72.5995 37.3612 72.1207 38.5674 70.4698 38.9552C68.736 39.3641 67.8179 38.2896 67.8179 36.8167ZM72.3717 34.0813C72.0032 34.3397 71.6142 34.5675 71.2086 34.7624C70.4798 35.1185 70.1504 35.5577 70.1504 36.2342C70.1504 36.8201 70.5134 37.2048 71.173 37.0419C71.8805 36.8634 72.3717 36.2033 72.3717 35.286V34.0813Z" fill="#231F20"/>
<path d="M38.3712 49.3953C38.1216 49.395 37.8768 49.3274 37.6625 49.1996C37.4481 49.0719 37.2722 48.8888 37.1532 48.6695C37.0341 48.4501 36.9765 48.2028 36.9862 47.9535C36.9959 47.7042 37.0726 47.4621 37.2083 47.2527L37.2238 47.2326L37.2499 47.2257L40.5144 46.4551V48.9342L40.4636 48.946C39.7231 49.1242 38.838 49.327 38.6558 49.3657C38.5622 49.3855 38.4668 49.3954 38.3712 49.3953Z" fill="#231F20"/>
<path d="M38.3712 52.5671C38.0038 52.5672 37.6515 52.4214 37.3916 52.1618C37.1317 51.9023 36.9855 51.5501 36.9851 51.1828C36.9844 50.9151 37.062 50.6531 37.2083 50.4291L37.2238 50.4058L37.2499 50.3992L40.5144 49.6289V52.108L40.4636 52.1212C39.7231 52.2988 38.838 52.504 38.6558 52.5404C38.562 52.5585 38.4667 52.5675 38.3712 52.5671Z" fill="#231F20"/>
<path d="M38.3712 55.7443C38.0037 55.7441 37.6514 55.5981 37.3915 55.3383C37.1317 55.0786 36.9855 54.7263 36.9851 54.3589C36.9841 54.0912 37.0617 53.8291 37.2083 53.6052L37.2238 53.5802L40.5144 52.8047V55.2838L40.4636 55.297C39.6815 55.4852 38.813 55.6815 38.6558 55.7162C38.5621 55.735 38.4667 55.7444 38.3712 55.7443Z" fill="#231F20"/>
<path d="M37.986 46.3559L37.9851 32.4843L40.5142 31.8867V45.758L37.986 46.3559Z" fill="#231F20"/>
<path d="M44.2853 45.1775C44.2853 44.7637 44.1209 44.3668 43.8282 44.0742C43.5356 43.7816 43.1387 43.6172 42.7249 43.6172C42.3111 43.6172 41.9142 43.7816 41.6216 44.0742C41.3289 44.3668 41.1646 44.7637 41.1646 45.1775L41.1671 58.1424C41.1685 59.2621 41.6137 60.3354 42.4051 61.1274C43.1966 61.9193 44.2697 62.3653 45.3893 62.3674C46.5705 62.3674 49.8063 62.3617 49.8063 62.3617L49.8077 56.9529C49.8086 53.9978 49.8091 50.9899 49.8091 50.9213C49.8095 50.5851 49.7269 50.254 49.5686 49.9573C49.4103 49.6607 49.1812 49.4077 48.9016 49.2209L44.965 46.5472C44.965 46.5472 44.9641 52.3519 44.9641 52.6187C44.9641 52.7077 44.9287 52.7931 44.8658 52.856C44.8028 52.919 44.7174 52.9544 44.6284 52.9544C44.5394 52.9544 44.454 52.919 44.391 52.856C44.3281 52.7931 44.2927 52.7077 44.2927 52.6187C44.2927 52.5535 44.2853 45.9794 44.2853 45.1775Z" fill="#231F20"/>
<path d="M46.3928 35.5043C45.9144 35.6153 45.4657 35.8282 45.0772 36.1286C44.6887 36.429 44.3696 36.8096 44.1417 37.2446V36.2697L41.8645 36.8085L41.8671 43.0344C42.2665 42.8764 42.7019 42.832 43.125 42.9059C43.5482 42.9799 43.9426 43.1694 44.2648 43.4535V39.4337C44.2648 38.4709 44.7439 37.7017 45.4285 37.5508C45.9435 37.4377 46.3736 37.6219 46.3736 38.5392L46.3753 44.4041L48.7739 43.8417V37.6374C48.7739 36.1332 48.1946 35.0817 46.3928 35.5043Z" fill="#231F20"/>
<path d="M81.2424 26.6253C80.9491 26.6256 80.6623 26.5388 80.4183 26.376C80.1743 26.2133 79.9841 25.9818 79.8717 25.7108C79.7593 25.4399 79.7298 25.1417 79.7869 24.854C79.844 24.5663 79.9852 24.302 80.1926 24.0946C80.4 23.8872 80.6642 23.7459 80.9519 23.6887C81.2396 23.6314 81.5377 23.6608 81.8087 23.7731C82.0797 23.8854 82.3113 24.0755 82.4742 24.3195C82.637 24.5634 82.7239 24.8501 82.7238 25.1435C82.7234 25.5363 82.5672 25.9129 82.2895 26.1907C82.0118 26.4685 81.6353 26.6248 81.2424 26.6253ZM81.2424 23.8466C80.986 23.8466 80.7353 23.9226 80.5221 24.065C80.3088 24.2074 80.1426 24.4099 80.0444 24.6467C79.9462 24.8836 79.9205 25.1443 79.9705 25.3958C80.0204 25.6473 80.1439 25.8784 80.3252 26.0597C80.5064 26.2411 80.7374 26.3646 80.9889 26.4147C81.2404 26.4648 81.5011 26.4392 81.7381 26.3411C81.975 26.243 82.1775 26.0769 82.32 25.8637C82.4625 25.6505 82.5386 25.3999 82.5387 25.1435C82.5384 24.7997 82.4018 24.4701 82.1588 24.227C81.9157 23.9839 81.5862 23.8471 81.2424 23.8466Z" fill="#231F20"/>
<path d="M80.7024 24.2621H81.3413C81.4038 24.2555 81.467 24.2629 81.5261 24.284C81.5853 24.3051 81.639 24.3393 81.6831 24.384C81.7272 24.4287 81.7607 24.4827 81.7811 24.5422C81.8015 24.6016 81.8081 24.6648 81.8007 24.7272C81.8007 24.9619 81.6965 25.1424 81.4991 25.1731V25.1765C81.6787 25.1949 81.7731 25.2939 81.7823 25.5483C81.7858 25.6631 81.7875 25.8054 81.7929 25.9161C81.793 25.9473 81.8009 25.9779 81.8159 26.0053C81.8309 26.0326 81.8525 26.0557 81.8787 26.0725H81.5522C81.5211 26.0247 81.5042 25.9689 81.5034 25.9118C81.4934 25.8037 81.496 25.7015 81.4911 25.5701C81.4862 25.3727 81.4257 25.2864 81.2274 25.2864H80.991V26.0725H80.7024V24.2621ZM81.2223 25.0683C81.2615 25.0719 81.3011 25.0668 81.3381 25.0532C81.3751 25.0397 81.4086 25.0181 81.4362 24.99C81.4639 24.9619 81.485 24.9281 81.4979 24.8909C81.5109 24.8536 81.5154 24.814 81.5112 24.7748C81.5112 24.5818 81.4277 24.4802 81.2375 24.4802H80.991V25.0683H81.2223Z" fill="#231F20"/>
</g>
</svg>
