<svg width="115" height="80" viewBox="0 0 115 80" fill="none" xmlns="http://www.w3.org/2000/svg">
<path d="M97 58.1932C97 65.0391 91.4254 70.6137 84.5795 70.6137H17V21.4205C17 14.5746 22.5746 9 29.4205 9H97V58.1932Z" fill="white"/>
<path d="M74.9951 45.5772H80.1296C80.2763 45.5772 80.6186 45.5283 80.7653 45.5283C81.7433 45.3327 82.5746 44.4525 82.5746 43.23C82.5746 42.0564 81.7433 41.1762 80.7653 40.9317C80.6186 40.8828 80.3252 40.8828 80.1296 40.8828H74.9951V45.5772Z" fill="url(#paint0_linear)"/>
<path d="M79.5428 13.1572C74.6528 13.1572 70.643 17.1181 70.643 22.057V31.299H83.2103C83.5037 31.299 83.846 31.299 84.0905 31.3479C86.9266 31.4946 89.0293 32.9616 89.0293 35.5044C89.0293 37.5093 87.6112 39.2208 84.9706 39.5631V39.6609C87.8557 39.8565 90.0562 41.4702 90.0562 43.9641C90.0562 46.6536 87.6112 48.4139 84.3838 48.4139H70.5941V66.5069H83.6503C88.5403 66.5069 92.5501 62.546 92.5501 57.6071V13.1572H79.5428Z" fill="url(#paint1_linear)"/>
<path d="M81.9389 36.091C81.9389 34.9174 81.1076 34.1351 80.1296 33.9884C80.0318 33.9884 79.7873 33.9395 79.6406 33.9395H74.9951V38.2426H79.6406C79.7873 38.2426 80.0807 38.2426 80.1296 38.1937C81.1076 38.047 81.9389 37.2646 81.9389 36.091Z" fill="url(#paint2_linear)"/>
<path d="M30.3497 13.1572C25.4597 13.1572 21.4499 17.1181 21.4499 22.057V44.013C23.9438 45.2355 26.5355 46.0179 29.1272 46.0179C32.2078 46.0179 33.8704 44.1597 33.8704 41.6169V31.2501H41.4988V41.568C41.4988 45.5778 39.0049 48.854 30.5453 48.854C25.4108 48.854 21.401 47.7294 21.401 47.7294V66.458H34.4572C39.3472 66.458 43.357 62.4971 43.357 57.5582V13.1572H30.3497Z" fill="url(#paint3_linear)"/>
<path d="M54.9461 13.1572C50.0562 13.1572 46.0464 17.1181 46.0464 22.057V33.6951C48.2958 31.788 52.2078 30.5655 58.5158 30.8589C61.8899 31.0056 65.5085 31.9347 65.5085 31.9347V35.7C63.6992 34.7709 61.5476 33.9396 58.7603 33.744C53.9681 33.4017 51.0831 35.7489 51.0831 39.8565C51.0831 44.013 53.9681 46.3602 58.7603 45.969C61.5476 45.7734 63.6992 44.8932 65.5085 44.013V47.7783C65.5085 47.7783 61.9388 48.7074 58.5158 48.854C52.2078 49.1474 48.2958 47.925 46.0464 46.0179V66.5558H59.1026C63.9926 66.5558 68.0024 62.5949 68.0024 57.656V13.1572H54.9461Z" fill="url(#paint4_linear)"/>
<defs>
<linearGradient id="paint0_linear" x1="70.6349" y1="43.2358" x2="92.6091" y2="43.2358" gradientUnits="userSpaceOnUse">
<stop stop-color="#007940"/>
<stop offset="0.2285" stop-color="#00873F"/>
<stop offset="0.7433" stop-color="#40A737"/>
<stop offset="1" stop-color="#5CB531"/>
</linearGradient>
<linearGradient id="paint1_linear" x1="70.6342" y1="39.8107" x2="92.6101" y2="39.8107" gradientUnits="userSpaceOnUse">
<stop stop-color="#007940"/>
<stop offset="0.2285" stop-color="#00873F"/>
<stop offset="0.7433" stop-color="#40A737"/>
<stop offset="1" stop-color="#5CB531"/>
</linearGradient>
<linearGradient id="paint2_linear" x1="70.6343" y1="36.0849" x2="92.6095" y2="36.0849" gradientUnits="userSpaceOnUse">
<stop stop-color="#007940"/>
<stop offset="0.2285" stop-color="#00873F"/>
<stop offset="0.7433" stop-color="#40A737"/>
<stop offset="1" stop-color="#5CB531"/>
</linearGradient>
<linearGradient id="paint3_linear" x1="21.4395" y1="39.8107" x2="43.754" y2="39.8107" gradientUnits="userSpaceOnUse">
<stop stop-color="#1F286F"/>
<stop offset="0.4751" stop-color="#004E94"/>
<stop offset="0.8261" stop-color="#0066B1"/>
<stop offset="1" stop-color="#006FBC"/>
</linearGradient>
<linearGradient id="paint4_linear" x1="45.92" y1="39.8107" x2="67.5925" y2="39.8107" gradientUnits="userSpaceOnUse">
<stop stop-color="#6C2C2F"/>
<stop offset="0.1735" stop-color="#882730"/>
<stop offset="0.5731" stop-color="#BE1833"/>
<stop offset="0.8585" stop-color="#DC0436"/>
<stop offset="1" stop-color="#E60039"/>
</linearGradient>
</defs>
</svg>