<svg width="120" height="80" viewBox="0 0 120 80" fill="none" xmlns="http://www.w3.org/2000/svg">
<path d="M116 0H4C1.79086 0 0 1.79086 0 4V76C0 78.2091 1.79086 80 4 80H116C118.209 80 120 78.2091 120 76V4C120 1.79086 118.209 0 116 0Z" fill="white"/>
<path d="M98.6665 54.6839V53.7324H98.4282L98.1503 54.3667L97.8723 53.7324H97.634V54.6839H97.7929V53.9703L98.0709 54.6046H98.2694L98.5474 53.9703V54.6839H98.6665ZM97.0781 54.6839V53.891H97.3958V53.7324H96.6016V53.891H96.9192V54.6839H97.0781Z" fill="#00A2E5"/>
<path d="M70.4321 58.7684H48.9487V20.2344H70.4321V58.7684Z" fill="#7375CF"/>
<path d="M50.3388 39.5C50.3388 31.6901 53.9921 24.7128 59.7104 20.233C55.5408 16.9426 50.2593 15 44.541 15C30.9998 15 20 25.9814 20 39.5C20 53.0186 30.9998 64 44.541 64C50.2593 64 55.5408 62.0574 59.7104 58.767C53.9921 54.2872 50.3388 47.3099 50.3388 39.5Z" fill="#EB001B"/>
<path d="M99.4209 39.5C99.4209 53.0186 88.4211 64 74.8798 64C69.1615 64 63.88 62.0574 59.7104 58.767C65.4287 54.2872 69.0821 47.3099 69.0821 39.5C69.0821 31.6901 65.4287 24.7128 59.7104 20.233C63.88 16.9426 69.1615 15 74.8798 15C88.4211 15 99.4209 25.9814 99.4209 39.5Z" fill="#00A2E5"/>
</svg>
