<svg width="115" height="80" viewBox="0 0 115 80" fill="none" xmlns="http://www.w3.org/2000/svg">
<rect y="9" width="115" height="61" fill="#26A7E6"/>
<path opacity="0.51" fill-rule="evenodd" clip-rule="evenodd" d="M29.3456 51.9986C28.6545 51.9986 27.9634 51.7683 27.4451 51.2499C21.2828 45.03 21.2828 34.9515 27.4451 28.7892C28.4817 27.7526 30.1519 27.7526 31.1885 28.7892C32.2252 29.8259 32.2252 31.496 31.1885 32.5327C27.0995 36.6217 27.0995 43.3599 31.1885 47.4489C32.2252 48.4855 32.2252 50.1557 31.1885 51.1923C30.6702 51.7107 30.0367 51.9986 29.3456 51.9986Z" fill="white"/>
<path opacity="0.51" fill-rule="evenodd" clip-rule="evenodd" d="M10.6859 52.0008C9.99485 52.0008 9.30375 51.7704 8.78542 51.2521C7.74877 50.2155 7.74877 48.5453 8.78542 47.5087C11.7802 44.5139 15.754 42.8438 19.9582 42.8438H20.0158C24.22 42.8438 28.1938 44.4563 31.1886 47.4511C32.2252 48.4877 32.2252 50.1579 31.1886 51.1945C30.1519 52.2312 28.4818 52.2312 27.4451 51.1945C25.487 49.2364 22.8378 48.1422 20.0158 48.1422H19.9582C17.1362 48.1422 14.487 49.2364 12.4713 51.2521C12.0106 51.7704 11.3195 52.0008 10.6859 52.0008Z" fill="white"/>
<path fill-rule="evenodd" clip-rule="evenodd" d="M28.2513 51.7676C29.0575 52.1132 30.0942 52.0556 30.8429 51.5373C30.3822 51.8828 29.8638 51.998 29.3455 51.998C29 51.998 28.5968 51.8828 28.2513 51.7676ZM27.445 51.1917C25.1413 48.8881 23.7591 46.1237 23.1256 43.1289C26.178 43.7048 28.9424 45.2022 31.1884 47.4483C32.2251 48.4849 32.2251 50.1551 31.1884 51.1917C31.1308 51.2493 31.0157 51.3069 30.9581 51.3645C30.9005 51.4221 30.8429 51.4221 30.8429 51.4797L27.445 51.1917Z" fill="white"/>
<path opacity="0.51" fill-rule="evenodd" clip-rule="evenodd" d="M8.78493 32.5903C7.74828 31.5536 7.74828 29.8834 8.78493 28.8468C9.82158 27.8101 11.4917 27.8101 12.5284 28.8468C16.6174 32.9358 23.3556 32.8782 27.4446 28.7892C28.4813 27.7526 30.1514 27.7526 31.1881 28.7892C32.2247 29.8259 32.2247 31.496 31.1881 32.5327C28.0781 35.6426 23.9891 37.1976 19.9001 37.1976C15.9263 37.1976 11.8373 35.6426 8.78493 32.5903Z" fill="white"/>
<path fill-rule="evenodd" clip-rule="evenodd" d="M23.1256 36.8534C23.7015 33.8587 25.1413 31.0367 27.445 28.7906C28.1937 28.0419 29.2879 27.8115 30.2094 28.1571C30.6125 28.2723 30.9581 28.5026 31.1884 28.7906C31.4764 29.0786 31.6492 29.3665 31.7644 29.6545C31.8795 30 31.9371 30.3456 31.9371 30.6911C31.9371 31.3246 31.6492 32.0157 31.1884 32.534C31.1884 32.534 31.1884 32.534 31.1308 32.5916C28.8848 34.8377 26.0628 36.2775 23.1256 36.8534Z" fill="white"/>
<path opacity="0.51" fill-rule="evenodd" clip-rule="evenodd" d="M10.6855 51.9986C9.99436 51.9986 9.30326 51.7683 8.78493 51.2499C7.74828 50.2133 7.74828 48.5431 8.78493 47.5065C10.8006 45.4908 11.8949 42.8416 11.8949 40.0196C11.8949 37.1976 10.8006 34.5484 8.78493 32.5327C7.74828 31.496 7.74828 29.8259 8.78493 28.7892C9.82158 27.7526 11.4917 27.7526 12.5284 28.7892C15.5231 31.784 17.1933 35.7578 17.1933 40.0196C17.1933 44.2813 15.5231 48.2552 12.5284 51.2499C12.0101 51.7683 11.319 51.9986 10.6855 51.9986Z" fill="white"/>
<path fill-rule="evenodd" clip-rule="evenodd" d="M8.43985 29.1937C8.49744 29.0785 8.55503 29.0209 8.67021 28.9057C8.7278 28.9057 8.7278 28.8481 8.7854 28.8481C9.01576 28.6177 9.24613 28.445 9.47649 28.3298C10.2828 27.9266 11.2042 27.9842 11.9529 28.3874C12.1257 28.5026 12.3561 28.6177 12.5288 28.7905C12.5288 28.7905 12.5288 28.7905 12.5864 28.8481C14.8325 31.0942 16.2723 33.8586 16.9058 36.8533C13.911 36.2774 11.0891 34.8376 8.84299 32.534C7.86393 31.6701 7.74875 30.2303 8.43985 29.1937ZM8.7854 47.5078C11.0315 45.2617 13.8535 43.7643 16.9058 43.1308C16.3299 46.1832 14.8325 49.0052 12.5864 51.2512C12.0681 51.7696 11.377 51.9999 10.6859 51.9999C9.99482 51.9999 9.30372 51.7696 8.7854 51.2512C7.74875 50.2146 7.74875 48.5444 8.7854 47.5078ZM45.2409 38.2931C45.0681 37.7748 44.8953 37.3141 44.5498 36.8533C44.2618 36.4502 43.8587 36.1047 43.3979 35.8743C42.9372 35.6439 42.3613 35.5287 41.7278 35.5287C41.0943 35.5287 40.5184 35.6439 40.0576 35.9319C39.5969 36.2198 39.1938 36.5078 38.9058 36.9685C38.6178 37.3717 38.3875 37.89 38.2723 38.4083C38.1571 38.9266 38.0995 39.5026 38.0995 40.0209C38.0995 40.5968 38.1571 41.1727 38.3299 41.691C38.4451 42.2094 38.6754 42.7277 38.9634 43.1308C39.2514 43.534 39.6545 43.8795 40.1152 44.1099C40.576 44.3403 41.1519 44.513 41.843 44.513C42.5341 44.513 43.11 44.3978 43.5131 44.1099C43.9739 43.8219 44.3194 43.4764 44.6074 43.0732C44.8953 42.6701 45.0681 42.1518 45.1833 41.5759C45.2985 40.9999 45.3561 40.4816 45.3561 39.8481C45.4137 39.3874 45.3561 38.8115 45.2409 38.2931ZM38.1571 34.0314V35.6439H38.2147C38.5603 35.0104 39.021 34.4921 39.7121 34.2041C40.4032 33.9162 41.1519 33.7434 42.0157 33.7434C42.9372 33.7434 43.7435 33.9162 44.4346 34.2617C45.1257 34.6073 45.7016 35.068 46.1623 35.6439C46.6231 36.2198 46.9686 36.9109 47.199 37.6596C47.4294 38.4083 47.5445 39.2146 47.5445 40.0785C47.5445 40.9423 47.4294 41.7486 47.199 42.4973C46.9686 43.246 46.6231 43.8795 46.1623 44.4554C45.7016 45.0314 45.1257 45.4345 44.4346 45.78C43.7435 46.1256 42.9372 46.2408 42.0733 46.2408C41.7854 46.2408 41.4398 46.1832 41.0943 46.1256C40.7487 46.068 40.4032 45.9528 40 45.8376C39.6545 45.7225 39.3089 45.4921 39.021 45.2617C38.733 45.0314 38.4451 44.7434 38.2147 44.3978H38.1571V50.5026H36.199V34.0314H38.1571ZM56.7016 39.8481C56.4712 40.0209 56.1257 40.1937 55.7225 40.2512C55.3194 40.3088 54.9163 40.424 54.4555 40.4816C53.9948 40.5392 53.5917 40.5968 53.1309 40.6544C52.6702 40.712 52.2671 40.8272 51.9215 40.9999C51.576 41.1727 51.288 41.3455 51.0576 41.6334C50.8273 41.9214 50.7121 42.3245 50.7121 42.7853C50.7121 43.1308 50.7697 43.3612 50.8849 43.5916C51 43.8219 51.1728 43.9947 51.4032 44.1099C51.6335 44.2251 51.8639 44.3403 52.1519 44.3978C52.4398 44.4554 52.7278 44.513 53.0157 44.513C53.6493 44.513 54.2252 44.3978 54.6859 44.2251C55.1466 44.0523 55.5498 43.8219 55.8377 43.534C56.1257 43.246 56.3561 42.9581 56.4712 42.6701C56.5864 42.3821 56.7016 42.0366 56.7016 41.8062V39.8481ZM59.9267 45.9528C59.5812 46.1256 59.1205 46.2408 58.5445 46.2408C58.0262 46.2408 57.6231 46.1256 57.3351 45.8376C57.0472 45.5497 56.8744 45.0889 56.8744 44.4554C56.3561 45.0889 55.7225 45.5497 54.9739 45.8376C54.2828 46.1256 53.4765 46.2408 52.6702 46.2408C52.1519 46.2408 51.6335 46.1832 51.1152 46.068C50.6545 45.9528 50.1938 45.78 49.8482 45.4921C49.5027 45.2041 49.2147 44.9162 48.9843 44.4554C48.754 44.0523 48.6964 43.534 48.6964 42.9005C48.6964 42.2094 48.8116 41.691 49.0419 41.2303C49.2723 40.8272 49.5602 40.424 49.9634 40.1937C50.3665 39.9057 50.7697 39.7329 51.2304 39.5601C51.6911 39.445 52.2095 39.3298 52.7278 39.2146C53.2461 39.0994 53.7644 39.0418 54.2828 38.9842C54.7435 38.9266 55.2042 38.869 55.5498 38.7539C55.8953 38.6387 56.1833 38.5235 56.4137 38.2931C56.644 38.1204 56.7592 37.8324 56.7592 37.4293C56.7592 37.0261 56.7016 36.6806 56.5288 36.3926C56.3561 36.1047 56.1833 35.9319 55.8953 35.8167C55.665 35.7015 55.377 35.5863 55.0315 35.5287C54.7435 35.4711 54.3979 35.4711 54.11 35.4711C53.3037 35.4711 52.6126 35.6439 52.0367 35.9319C51.4608 36.2198 51.1728 36.8533 51.1152 37.7172H49.1571C49.2147 36.9685 49.3299 36.335 49.6178 35.8743C49.9058 35.356 50.2513 34.9528 50.7121 34.6649C51.1728 34.3769 51.6911 34.1465 52.2671 33.9738C52.843 33.8586 53.4765 33.7434 54.1676 33.7434C54.6859 33.7434 55.2618 33.801 55.7801 33.8586C56.2985 33.9162 56.8168 34.0889 57.2199 34.3193C57.6231 34.5497 57.9686 34.8952 58.2566 35.2984C58.5445 35.7015 58.6597 36.2774 58.6597 36.9685V43.1884C58.6597 43.6492 58.6597 43.9947 58.7173 44.2251C58.7749 44.4554 58.9477 44.5706 59.2356 44.5706C59.4084 44.5706 59.5812 44.513 59.8116 44.4554V45.9528H59.9267ZM65.9739 47.5654C65.7435 48.1413 65.5131 48.6596 65.2828 49.0628C65.0524 49.4659 64.822 49.8115 64.5341 50.0418C64.2461 50.2722 63.9581 50.5026 63.6126 50.6177C63.2671 50.7329 62.9215 50.7905 62.4608 50.7905C62.2304 50.7905 62 50.7905 61.7697 50.7329C61.5393 50.6753 61.3089 50.6753 61.0786 50.5601V48.7748C61.2513 48.8324 61.4241 48.89 61.6545 48.9476C61.8848 49.0052 62.0576 49.0052 62.2304 49.0052C62.6335 49.0052 62.9791 48.89 63.2095 48.7172C63.4974 48.5444 63.6702 48.2565 63.843 47.9109L64.6492 45.8952L59.9843 34.0314H62.1728L65.6283 43.7643H65.6859L69.0262 34.0314H71.0995L65.9739 47.5654ZM71.6178 35.7591V34.0314H73.6335V32.3036C73.6335 31.3245 73.9215 30.5759 74.4974 30.1151C75.0733 29.5968 75.8796 29.3664 76.9738 29.3664C77.1466 29.3664 77.377 29.3664 77.6074 29.424C77.8377 29.4816 78.0681 29.4816 78.2409 29.5392V31.267C78.0681 31.2094 77.8953 31.1518 77.6649 31.1518C77.4922 31.1518 77.2618 31.0942 77.089 31.0942C76.6283 31.0942 76.2252 31.2094 75.9948 31.3821C75.7068 31.5549 75.5917 31.9005 75.5917 32.4188V34.0889H77.8953V35.8167H75.5917V46.0104H73.6335V35.7591H71.6178Z" fill="white"/>
<path fill-rule="evenodd" clip-rule="evenodd" d="M81.6963 29.5391V45.9527H79.7382V29.5391H81.6963Z" fill="white"/>
<path fill-rule="evenodd" clip-rule="evenodd" d="M92.2357 37.5452C92.0629 37.1421 91.8325 36.7965 91.5446 36.451C91.2566 36.163 90.9111 35.9327 90.5079 35.7599C90.1048 35.5871 89.644 35.4719 89.1833 35.4719C88.665 35.4719 88.2043 35.5871 87.8011 35.7599C87.398 35.9327 87.0524 36.163 86.7645 36.5086C86.4765 36.7965 86.2461 37.1997 86.0734 37.6028C85.9006 38.006 85.7854 38.4667 85.7854 38.9274H92.6388C92.5236 38.4091 92.4084 37.9484 92.2357 37.5452ZM92.6964 45.2049C91.8325 45.896 90.6807 46.2416 89.3561 46.2416C88.377 46.2416 87.5707 46.0688 86.8796 45.7808C86.1885 45.4929 85.6126 45.0321 85.0943 44.5138C84.6336 43.9379 84.288 43.3044 84.0001 42.5557C83.7697 41.807 83.6545 40.9431 83.5969 40.0217C83.5969 39.1002 83.7121 38.2939 84.0001 37.5452C84.288 36.7965 84.6912 36.163 85.1519 35.5871C85.6702 35.0112 86.2461 34.6081 86.9372 34.3201C87.6283 34.0321 88.377 33.8594 89.1833 33.8594C90.22 33.8594 91.1414 34.0897 91.8325 34.4929C92.5236 34.9536 93.0995 35.4719 93.5027 36.163C93.9058 36.8541 94.1938 37.6028 94.3666 38.3515C94.5393 39.1578 94.5969 39.9065 94.5393 40.6552H85.6126C85.6126 41.1735 85.6702 41.6918 85.7854 42.1526C85.9006 42.6133 86.131 43.0164 86.4765 43.4196C86.7645 43.7651 87.1676 44.0531 87.6283 44.2835C88.0891 44.5138 88.665 44.629 89.2985 44.629C90.1048 44.629 90.7959 44.4562 91.3142 44.0531C91.8325 43.6499 92.1781 43.074 92.3508 42.3253H94.309C94.1938 43.5348 93.6179 44.5138 92.6964 45.2049Z" fill="white"/>
<path fill-rule="evenodd" clip-rule="evenodd" d="M94.7696 34.0312H97.3037L100.183 38.2354L103.12 34.0312H105.482L101.393 39.56L106 45.9527H103.466L100.183 41.0574L96.8429 45.9527H94.4817L98.9162 39.7328L94.7696 34.0312Z" fill="white"/>
</svg>