<svg width="120" height="80" viewBox="0 0 120 80" fill="none" xmlns="http://www.w3.org/2000/svg">
<path d="M116 0H4C1.79086 0 0 1.79086 0 4V76C0 78.2091 1.79086 80 4 80H116C118.209 80 120 78.2091 120 76V4C120 1.79086 118.209 0 116 0Z" fill="#FFFFFE"/>
<path d="M29.5124 27C31.6619 27 33.4199 28.7296 33.4199 30.8447V49.1507C33.4199 51.2658 31.6619 52.9954 29.5124 52.9954H10.9075C8.75788 52.9954 7 51.2658 7 49.1507V35.1344L7.00935 30.6383C7.12125 28.6195 8.82783 27 10.9075 27H29.5124Z" fill="white"/>
<path d="M82.0445 31.8594H77.3628C76.9343 31.8594 76.5891 32.1989 76.5891 32.621V47.1281H79.8856V41.9391H82.0445C85.2343 41.9391 88.1251 39.9801 88.1251 36.663C88.1251 33.3459 85.2343 31.8594 82.0445 31.8594ZM79.8856 40.3792V33.4192C79.8856 33.4192 80.9021 33.4238 82.0445 33.4238C83.6628 33.4238 85.4441 34.6305 85.4441 36.6996C85.4441 38.7689 83.658 40.3792 82.0445 40.3792H79.8856ZM93.7393 35.6949C91.2448 35.6949 89.9621 36.2959 89.9621 36.2959L90.2654 37.2043C90.2654 37.2043 91.207 36.7777 93.0441 36.7777C95.0915 36.7777 95.5063 37.7549 95.5063 39.09L95.4781 39.6864C95.0399 39.558 94.0144 39.3928 92.9649 39.3928C91.403 39.3928 88.8293 40.3379 88.8293 43.4302C88.8293 46.3711 91.0997 47.33 92.7084 47.33C94.0372 47.33 94.8487 46.9262 95.5015 46.5271V47.1327H98.7938V39.09C98.8076 36.5483 96.2387 35.6949 93.7393 35.6949ZM93.879 45.894C92.4477 45.894 91.4216 44.8571 91.4216 43.3201C91.4216 41.7831 92.7971 40.8839 94.0468 40.8839C94.6761 40.8839 95.2779 41.0536 95.511 41.2509V45.1828C95.1101 45.5315 94.639 45.894 93.879 45.894ZM106.506 48.5137C105.504 50.6929 103.858 50.9728 103.121 51.06C102.347 51.1472 101.517 51.1105 101.517 51.1105V49.3304C102.986 49.3304 103.783 49.4451 104.65 47.7521L105.238 46.2839L99.8241 35.6903H103.279L106.828 42.7328L109.966 35.6903H112.214C112.218 35.6949 107.509 46.339 106.506 48.5137ZM44.3453 31.8594H39.6637C39.2347 31.8594 38.8896 32.1989 38.8896 32.621V47.1281H42.1863V41.9391H44.3453C47.5347 41.9391 50.4256 39.9801 50.4256 36.663C50.4303 33.3459 47.5393 31.8594 44.3453 31.8594ZM42.191 40.3792V33.4192C42.191 33.4192 43.2075 33.4238 44.3499 33.4238C45.9679 33.4238 47.7491 34.6305 47.7491 36.6996C47.7491 38.7689 45.9632 40.3792 44.3499 40.3792H42.191ZM56.0444 35.6949C53.5497 35.6949 52.2674 36.2959 52.2674 36.2959L52.5705 37.2043C52.5705 37.2043 53.5078 36.7777 55.3496 36.7777C57.3966 36.7777 57.8116 37.7549 57.8116 39.09L57.7836 39.6864C57.3453 39.558 56.3195 39.3928 55.2703 39.3928C53.7129 39.3928 51.1344 40.3379 51.1344 43.4302C51.1344 46.3711 53.4052 47.33 55.0139 47.33C56.3428 47.33 57.1495 46.9262 57.807 46.5271V47.1327H61.0989V39.09C61.1083 36.5483 58.539 35.6949 56.0444 35.6949ZM56.1843 45.894C54.7528 45.894 53.727 44.8571 53.727 43.3201C53.727 41.7831 55.1025 40.8839 56.3521 40.8839C56.9816 40.8839 57.5832 41.0536 57.8163 41.2509V45.1828C57.4106 45.5315 56.9397 45.894 56.1843 45.894ZM68.8069 48.5137C67.8041 50.6929 66.1582 50.9728 65.4214 51.06C64.6474 51.1472 63.8174 51.1105 63.8174 51.1105V49.3304C65.2862 49.3304 66.0835 49.4451 66.9507 47.7521L67.5386 46.2839L62.1248 35.6903H65.58L69.1282 42.7328L72.2664 35.6903H74.5141C74.5189 35.6949 69.809 46.339 68.8069 48.5137Z" fill="#3F3A39"/>
<path d="M12.1432 52.9954H10.9075C8.75788 52.9954 7 51.2658 7 49.1507V35.1344C10.5065 34.7858 13.7752 34.795 16.6428 35.0657L12.1432 52.9954ZM28.0342 40.8786C28.6544 38.3965 24.5837 36.0979 18.0697 35.2308L15.7056 44.9114C21.1658 45.1683 27.3674 43.5488 28.0342 40.8786ZM29.5124 27H10.9075C8.82783 27 7.12125 28.6195 7.00935 30.6383C22.588 30.207 30.1651 35.5382 28.9761 40.8556C27.9037 45.6409 22.961 47.4761 14.9315 48.0817L13.7285 53H29.5124C31.6619 53 33.4199 51.2704 33.4199 49.1553V30.8447C33.4199 28.7296 31.6619 27 29.5124 27Z" fill="#FF0033"/>
</svg>
