<svg width="101" height="80" viewBox="0 0 101 80" fill="none" xmlns="http://www.w3.org/2000/svg">
<path d="M97 29.7145L89.3477 52.9381C88.5336 55.4152 86.7427 56.8005 84.4307 56.8005C82.9816 56.8005 81.6465 56.2627 80.6371 55.2686L82.0536 53.0684C82.7374 53.6714 83.3724 53.9485 84.219 53.9485C85.4076 53.9485 85.9774 53.4433 86.5636 51.8462L87.0357 50.5587L79.6439 29.6982H82.8025L88.4685 46.2888L93.8251 29.6982H97V29.7145ZM73.6849 48.7334C72.0242 50.7053 70.1355 51.618 67.6607 51.618C62.0762 51.618 58.25 47.0385 58.25 40.3892C58.25 33.7399 62.1087 29.193 67.7421 29.193C70.282 29.193 72.0404 29.9426 73.7337 31.7027L74.1733 29.6982H76.8923V51.0639H74.1733L73.6849 48.7334ZM61.49 40.3892C61.49 45.2458 64.1276 48.766 67.7258 48.766C71.3241 48.766 73.9291 45.2784 73.9291 40.4218C73.9291 35.5326 71.3241 32.045 67.6933 32.045C64.1276 32.045 61.49 35.6141 61.49 40.3892ZM48.8067 24.3853C53.5772 24.3853 56.98 27.6773 56.98 32.3872C56.98 37.0971 53.5935 40.4218 48.8067 40.4218H43.0105V51.0639H39.9659V24.3853H48.8067ZM48.6113 37.586C51.5909 37.586 53.7237 35.4185 53.7237 32.4035C53.7237 29.3885 51.6234 27.2536 48.6113 27.2536H43.0268V37.6023H48.6113V37.586ZM8.67279 57.9576L4 54.03H36.8235L8.67279 57.9576ZM14.0131 51.0802V42.3611H17.7742L24.303 51.0802H30.9785L23.0819 40.5684C25.5404 38.8083 27.1523 35.9237 27.1523 32.6806C27.1523 27.3351 22.8051 23 17.4648 23H8.67279V51.0965H14.0131V51.0802ZM14.0131 28.3129H17.4974C19.8908 28.3129 21.8445 30.2686 21.8445 32.6643C21.8445 35.0763 19.8908 37.0156 17.4974 37.0156H14.0131V28.3129Z" fill="#BF0000"/>
</svg>
