<svg width="120" height="80" viewBox="0 0 120 80" fill="none" xmlns="http://www.w3.org/2000/svg">
<path d="M116 0H4C1.79086 0 0 1.79086 0 4V76C0 78.2091 1.79086 80 4 80H116C118.209 80 120 78.2091 120 76V4C120 1.79086 118.209 0 116 0Z" fill="#FFFFFE"/>
<path d="M84.2066 28.7465L91.0339 27.5323V53.7109H84.2066V28.7465ZM94.1727 28.7465V53.6964H101V27.5323L94.1727 28.7465ZM74.5008 53.6964H81.3281V34.5576H74.5008V53.6964ZM29.3856 37.2607C28.5177 37.2029 26.5216 37.0728 26.5216 35.2803C26.5216 33.112 29.4001 33.112 30.4705 33.112C32.3653 33.112 34.8243 33.6758 36.5745 34.1962C36.5745 34.1962 37.5581 34.5431 38.3826 34.89L38.4549 34.9045V28.9778L38.3537 28.9489C36.2852 28.2261 33.8841 27.5323 29.4145 27.5323C21.7194 27.5323 19 32.0134 19 35.8441C19 38.0558 19.9547 43.2597 28.7636 43.8668C29.5158 43.9102 31.4974 44.0258 31.4974 45.8906C31.4974 47.4228 29.8774 48.3335 27.1436 48.3335C24.1494 48.3335 21.2565 47.5674 19.4918 46.8446V52.9592C22.1244 53.6531 25.1041 54 28.5901 54C36.1117 54 39.4819 49.7646 39.4819 45.5581C39.4819 40.7878 35.7211 37.6944 29.3856 37.2607ZM70.6532 34.2829C64.3466 34.4853 61.1499 37.3185 61.1499 42.9417V53.7109H68.0351V44.922C68.0351 41.554 68.469 40.1084 72.4757 39.9783V34.3696C71.7814 34.2395 70.6532 34.2829 70.6532 34.2829ZM52.1385 34.5431C51.9938 34.9189 50.8945 38.0124 48.2475 41.207V27.5323L41.2032 28.92V53.6964H48.2475V46.0351C50.287 49.0996 51.2995 53.6964 51.2995 53.6964H59.7324C58.8935 50.2272 55.2484 43.8379 55.2484 43.8379C58.5174 39.6892 59.9638 35.2659 60.1953 34.5287H52.1385V34.5431ZM77.9 32.7217C79.7515 32.7217 81.2702 31.2184 81.2702 29.3681C81.2702 27.5178 79.7659 26 77.9 26C76.0485 26 74.5442 27.5034 74.5442 29.3681C74.5442 31.2184 76.0485 32.7217 77.9 32.7217Z" fill="url(#paint0_linear_125_1124)"/>
<defs>
<linearGradient id="paint0_linear_125_1124" x1="19.0145" y1="39.991" x2="101.005" y2="39.991" gradientUnits="userSpaceOnUse">
<stop stop-color="#872166"/>
<stop offset="1" stop-color="#4F2455"/>
</linearGradient>
</defs>
</svg>
