<svg width="120" height="80" viewBox="0 0 120 80" fill="none" xmlns="http://www.w3.org/2000/svg">
<path d="M88.1916 26.2439L96.169 24.8098V55.7293H88.1916V26.2439ZM99.8366 26.2439V55.7122H107.814V24.8098L99.8366 26.2439ZM76.8507 55.7122H84.8282V33.1073H76.8507V55.7122ZM24.1352 36.3C23.1211 36.2317 20.7887 36.078 20.7887 33.961C20.7887 31.4 24.1521 31.4 25.4028 31.4C27.6169 31.4 30.4901 32.0659 32.5352 32.6805C32.5352 32.6805 33.6845 33.0902 34.6479 33.5L34.7324 33.5171V26.5171L34.6141 26.4829C32.1972 25.6293 29.3915 24.8098 24.169 24.8098C15.1775 24.8098 12 30.1024 12 34.6268C12 37.239 13.1155 43.3854 23.4085 44.1024C24.2873 44.1537 26.6028 44.2902 26.6028 46.4927C26.6028 48.3024 24.7099 49.378 21.5155 49.378C18.0169 49.378 14.6366 48.4732 12.5746 47.6195V54.8415C15.6507 55.661 19.1324 56.0707 23.2056 56.0707C31.9944 56.0707 35.9324 51.0683 35.9324 46.1C35.9324 40.4659 31.538 36.8122 24.1352 36.3ZM72.3549 32.7829C64.9859 33.022 61.2507 36.3683 61.2507 43.0098V55.7293H69.2958V45.3488C69.2958 41.3707 69.8028 39.6634 74.4845 39.5098V32.8854C73.6732 32.7317 72.3549 32.7829 72.3549 32.7829ZM50.7211 33.0902C50.5521 33.5341 49.2676 37.1878 46.1746 40.961V24.8098L37.9437 26.4488V55.7122H46.1746V46.6634C48.5577 50.2829 49.7408 55.7122 49.7408 55.7122H59.5944C58.6141 51.6146 54.3549 44.0683 54.3549 44.0683C58.1746 39.1683 59.8648 33.9439 60.1352 33.0732H50.7211V33.0902ZM80.8225 30.939C82.9859 30.939 84.7606 29.1634 84.7606 26.978C84.7606 24.7927 83.0028 23 80.8225 23C78.6592 23 76.9014 24.7756 76.9014 26.978C76.9014 29.1634 78.6592 30.939 80.8225 30.939Z" fill="url(#paint0_linear_125_1095)"/>
<defs>
<linearGradient id="paint0_linear_125_1095" x1="12.0169" y1="39.5247" x2="107.819" y2="39.5247" gradientUnits="userSpaceOnUse">
<stop stop-color="#872166"/>
<stop offset="1" stop-color="#4F2455"/>
</linearGradient>
</defs>
</svg>
