<svg width="120" height="80" viewBox="0 0 120 80" fill="none" xmlns="http://www.w3.org/2000/svg">
<path d="M116 0H4C1.79086 0 0 1.79086 0 4V76C0 78.2091 1.79086 80 4 80H116C118.209 80 120 78.2091 120 76V4C120 1.79086 118.209 0 116 0Z" fill="#FFFFFE"/>
<path d="M37.0851 43.6823L38.2335 42.0978C38.6999 42.6075 39.267 43.0146 39.8989 43.2934C40.5309 43.5722 41.2137 43.7165 41.9043 43.7172C43.5747 43.7172 44.2183 42.8988 44.2183 42.1154C44.2183 41.0261 42.8707 40.7258 41.3798 40.347C39.5337 39.8773 37.4678 39.2866 37.4678 36.9265C37.4678 34.9937 39.1382 33.5137 41.6956 33.5137C43.4877 33.5137 44.9664 34.1056 46.0278 35.1506L44.8794 36.6651C43.9574 35.7422 42.7219 35.3243 41.5042 35.3243C40.3212 35.3243 39.5555 35.9163 39.5555 36.7695C39.5555 37.793 41.0482 38.0388 42.6294 38.4608C44.4114 38.9364 46.3059 39.6359 46.3059 41.9237C46.3059 43.8567 44.9314 45.528 41.8172 45.528C39.6772 45.528 38.1288 44.7619 37.085 43.6823" fill="#3B77BC"/>
<path d="M53.8049 45.3186V40.06C53.8049 38.7365 53.1263 38.3185 52.0998 38.3185C51.1777 38.3185 50.3773 38.8758 49.9424 39.433V45.3186H48.1157V36.9081H49.9424V38.0401C50.3165 37.6202 50.7748 37.2839 51.2874 37.0529C51.7999 36.8219 52.3553 36.7014 52.9174 36.6992C54.727 36.6992 55.6317 37.6745 55.6317 39.3982V45.3186H53.8049Z" fill="#3B77BC"/>
<path d="M62.9392 45.3186V44.3956C62.3129 45.1268 61.321 45.5275 60.2077 45.5275C58.8506 45.5275 57.3022 44.5872 57.3022 42.7414C57.3022 40.7911 58.8332 39.99 60.2077 39.99C61.3559 39.99 62.3129 40.3563 62.9392 41.0697V39.8161C62.9392 38.8409 62.1214 38.2488 60.9731 38.2488C60.0336 38.2488 59.1986 38.5972 58.4854 39.3284L57.7197 38.0572C58.6941 37.1169 59.912 36.6992 61.2513 36.6992C63.1303 36.6992 64.7658 37.4827 64.7658 39.729V45.3186H62.9392ZM62.9392 43.4031V42.1151C62.5041 41.5405 61.7213 41.2443 60.9383 41.2443C59.912 41.2443 59.1295 41.8536 59.1295 42.7592C59.1295 43.6819 59.9125 44.2741 60.9383 44.2741C61.7213 44.2741 62.5041 43.9781 62.9392 43.4035" fill="#3B77BC"/>
<path d="M68.489 44.1519V48.5223H66.6621V36.9081H68.489V38.0574C68.8011 37.6358 69.2076 37.2932 69.676 37.0574C70.1444 36.8215 70.6615 36.6988 71.1858 36.6992C73.3605 36.6992 74.9088 38.3359 74.9088 41.1046C74.9088 43.8732 73.3604 45.5274 71.1858 45.5274C70.1244 45.5274 69.1849 45.04 68.489 44.1519ZM73.0298 41.1046C73.0298 39.4677 72.0905 38.3185 70.646 38.3185C69.7936 38.3185 68.9062 38.806 68.4886 39.433V42.7587C68.8887 43.3855 69.7936 43.9079 70.646 43.9079C72.0902 43.9079 73.0298 42.7413 73.0298 41.1046Z" fill="#3B77BC"/>
<path d="M76.0581 43.681L77.2066 42.0966C77.6731 42.6061 78.2402 43.0132 78.8721 43.2919C79.504 43.5705 80.1868 43.7148 80.8774 43.7156C82.5475 43.7156 83.1913 42.8972 83.1913 42.1137C83.1913 41.0433 81.8901 40.7348 80.4301 40.3646C78.5649 39.8917 76.4408 39.3182 76.4408 36.9246C76.4408 34.9917 78.1111 33.5117 80.6687 33.5117C82.4605 33.5117 83.9394 34.1037 85.0006 35.1486L83.8524 36.6639C82.9304 35.741 81.695 35.323 80.4772 35.323C79.294 35.323 78.5287 35.9151 78.5287 36.7683C78.5287 37.7571 79.922 38.02 81.4425 38.4173C83.269 38.8947 85.2795 39.5661 85.2795 41.9228C85.2795 43.8558 83.9051 45.5271 80.7908 45.5271C78.6509 45.5271 77.1027 44.761 76.0586 43.6814" fill="#3B77BC"/>
<path d="M86.5845 41.1046C86.5845 38.5618 88.3764 36.6992 90.9166 36.6992C92.5693 36.6992 93.5438 37.3956 94.1351 38.1967L92.9347 39.2937C92.465 38.632 91.8213 38.3185 91.0036 38.3185C89.49 38.3185 88.4635 39.4677 88.4635 41.1046C88.4635 42.7414 89.49 43.9079 91.0036 43.9079C91.3845 43.9162 91.7612 43.828 92.0989 43.6515C92.4365 43.4749 92.724 43.2157 92.9347 42.8981L94.1351 44.03C93.5438 44.8134 92.5693 45.5273 90.9166 45.5273C88.376 45.5273 86.5845 43.6468 86.5845 41.1046Z" fill="#3B77BC"/>
<path d="M100.903 45.3186V44.3956C100.276 45.1268 99.2845 45.5275 98.1711 45.5275C96.8143 45.5275 95.2656 44.5872 95.2656 42.7414C95.2656 40.7911 96.7967 39.99 98.1711 39.99C99.3193 39.99 100.276 40.3563 100.903 41.0697V39.8161C100.903 38.8409 100.085 38.2488 98.9371 38.2488C97.9975 38.2488 97.1625 38.5972 96.4487 39.3284L95.6831 38.0572C96.6574 37.1169 97.8754 36.6992 99.2149 36.6992C101.094 36.6992 102.729 37.4827 102.729 39.729V45.3186H100.903ZM100.903 43.4031V42.1151C100.468 41.5405 99.6848 41.2443 98.902 41.2443C97.8755 41.2443 97.0925 41.8536 97.0925 42.7592C97.0925 43.6819 97.8755 44.2741 98.902 44.2741C99.6848 44.2741 100.468 43.9781 100.903 43.4035" fill="#3B77BC"/>
<path d="M110.333 45.3186V40.06C110.333 38.7365 109.654 38.3185 108.628 38.3185C107.706 38.3185 106.905 38.8758 106.47 39.433V45.3186H104.644V36.9081H106.471V38.0401C106.845 37.6202 107.303 37.2839 107.816 37.0528C108.329 36.8218 108.884 36.7014 109.446 36.6992C111.255 36.6992 112.16 37.6745 112.16 39.3982V45.3186H110.333Z" fill="#3B77BC"/>
<path d="M20.5084 52.0376C18.0345 52.0376 15.6161 51.3034 13.5591 49.9278C11.5021 48.5522 9.89888 46.5971 8.95215 44.3096C8.00542 42.022 7.75771 39.5049 8.24035 37.0765C8.72299 34.6481 9.9143 32.4175 11.6636 30.6667C13.413 28.9159 15.6417 27.7236 18.0681 27.2406C20.4945 26.7575 23.0095 27.0054 25.2951 27.9529C27.5807 28.9005 29.5343 30.505 30.9087 32.5637C32.2832 34.6224 33.0168 37.0428 33.0168 39.5188C33.013 42.8379 31.694 46.0199 29.349 48.3668C27.004 50.7137 23.8247 52.0339 20.5084 52.0376ZM20.5084 28.2487C18.2813 28.2487 16.1042 28.9096 14.2525 30.148C12.4007 31.3863 10.9575 33.1464 10.1052 35.2057C9.25293 37.2649 9.02993 39.5309 9.46442 41.717C9.8989 43.9031 10.9713 45.9112 12.5461 47.4873C14.1209 49.0634 16.1273 50.1367 18.3116 50.5716C20.4959 51.0064 22.76 50.7832 24.8175 49.9303C26.8751 49.0773 28.6337 47.6328 29.871 45.7795C31.1083 43.9262 31.7687 41.7473 31.7687 39.5184C31.7652 36.5306 30.5777 33.6661 28.4668 31.5534C26.3558 29.4407 23.4937 28.2522 20.5084 28.2487Z" fill="#3B77BC"/>
<path d="M18.8997 38.6903H15.9944C15.7843 38.6903 15.5828 38.6067 15.4342 38.458C15.2857 38.3093 15.2022 38.1076 15.2021 37.8973V34.9902C15.2021 34.7799 15.2856 34.5782 15.4342 34.4295C15.5828 34.2808 15.7843 34.1973 15.9944 34.1973H18.8997C19.0037 34.1973 19.1068 34.2178 19.2029 34.2576C19.299 34.2974 19.3864 34.3558 19.46 34.4295C19.5335 34.5031 19.5919 34.5905 19.6317 34.6867C19.6716 34.783 19.6921 34.8861 19.6921 34.9902V37.8979C19.692 38.1082 19.6086 38.3098 19.46 38.4585C19.3114 38.6072 19.1099 38.6908 18.8998 38.6908" fill="#3B77BC"/>
<path d="M18.8997 44.8271H15.9944C15.7843 44.8271 15.5828 44.7436 15.4342 44.5949C15.2856 44.4462 15.2021 44.2445 15.2021 44.0342V41.1269C15.2022 40.9167 15.2857 40.715 15.4343 40.5663C15.5828 40.4176 15.7843 40.334 15.9944 40.334H18.8997C19.1098 40.334 19.3113 40.4176 19.4598 40.5663C19.6084 40.715 19.6919 40.9167 19.692 41.1269V44.0346C19.6918 44.2448 19.6083 44.4464 19.4597 44.595C19.3112 44.7436 19.1097 44.8271 18.8997 44.8271Z" fill="#3B77BC"/>
<path d="M25.0347 38.6869H22.1297C21.9196 38.6869 21.718 38.6034 21.5695 38.4547C21.4209 38.3059 21.3374 38.1043 21.3374 37.8939V34.9865C21.3374 34.8824 21.3579 34.7793 21.3977 34.683C21.4375 34.5868 21.4958 34.4994 21.5694 34.4257C21.643 34.3521 21.7303 34.2936 21.8265 34.2538C21.9226 34.2139 22.0256 34.1934 22.1297 34.1934H25.0347C25.2449 34.1934 25.4464 34.277 25.595 34.4257C25.7435 34.5745 25.827 34.7762 25.827 34.9865V37.8939C25.827 38.1042 25.7435 38.3059 25.5949 38.4546C25.4463 38.6033 25.2448 38.6869 25.0347 38.6869Z" fill="#3B77BC"/>
</svg>
