<svg width="115" height="80" viewBox="0 0 115 80" fill="none" xmlns="http://www.w3.org/2000/svg">
<path d="M41.2535 28.8406C41.5234 29.0963 41.8419 29.2961 42.1905 29.4283C42.539 29.5605 42.9107 29.6225 43.2837 29.6106C44.0318 29.6226 44.7555 29.3466 45.3029 28.8406C45.8674 28.3237 46.1497 27.6452 46.1497 26.8268C46.1497 26.0083 45.8674 25.3191 45.3029 24.7914C44.7534 24.2828 44.0298 24 43.2782 24C42.5267 24 41.8031 24.2828 41.2535 24.7914C40.6999 25.3191 40.4285 25.9975 40.4285 26.8268C40.4285 27.656 40.6999 28.3237 41.2535 28.8406Z" fill="#466AFC"/>
<path d="M11.5945 43.4143C11.5221 43.4861 11.4027 43.5938 11.2362 43.7374C11.0427 43.8971 10.8314 44.0344 10.6065 44.1467C10.3379 44.2871 10.0584 44.4059 9.77061 44.502C9.46386 44.6098 9.1407 44.6645 8.81526 44.6636C7.43652 44.6636 6.75258 43.8236 6.75258 42.1436V34.4705H11.8224V30.809H6.74172V28.3051C6.74172 27.7021 6.64402 27.2174 6.4486 26.8513C6.27595 26.4971 6.01423 26.1929 5.68867 25.9682C5.37346 25.7503 5.01407 25.6033 4.63561 25.5374C4.25289 25.464 3.86382 25.4279 3.474 25.4298C3.27858 25.4298 3.08317 25.4405 2.89862 25.4513C2.71406 25.4621 2.5295 25.4836 2.3558 25.5051L1.81299 25.5805V30.8251H0V34.4867H1.81299V42.2405C1.81115 42.7691 1.83651 43.2975 1.88899 43.8236C1.93141 44.338 2.04088 44.8448 2.21467 45.3313C2.53923 46.2477 3.14711 47.0391 3.95167 47.5928C4.77674 48.1636 5.93836 48.4543 7.45823 48.4543C8.17815 48.4613 8.89627 48.3817 9.59691 48.2174C10.1773 48.0862 10.739 47.8836 11.2688 47.6143C11.6749 47.41 12.0364 47.1282 12.3327 46.7851C12.5649 46.5344 12.6996 46.2099 12.7127 45.8697C12.7017 45.4908 12.6053 45.1191 12.4304 44.782C12.1829 44.3081 11.9036 43.8512 11.5945 43.4143Z" fill="#466AFC"/>
<path d="M36.0753 30.7803C35.1525 30.7803 34.4686 31.0603 34.0126 31.6095C33.5567 32.1588 33.1767 32.9772 32.8944 34.0541L30.5386 42.1741L27.4229 32.7618C27.2058 32.0726 26.8692 31.5665 26.4241 31.2541C25.9536 30.9294 25.3903 30.7633 24.8174 30.7803C23.984 30.7794 23.1558 30.9103 22.3639 31.168L24.1009 36.6603L21.6691 42.5187L18.4122 32.8265C18.1517 32.0834 17.75 31.5557 17.2397 31.2434C16.7295 30.9311 16.0781 30.7695 15.329 30.7695C14.9212 30.7761 14.5145 30.8157 14.1131 30.888C13.6532 30.971 13.1997 31.0861 12.7561 31.2326L18.4665 46.4172C18.6515 46.9033 18.981 47.3222 19.4114 47.6184C19.8418 47.9146 20.3528 48.074 20.8766 48.0757C21.3784 48.0773 21.8696 47.932 22.2886 47.6581C22.7076 47.3842 23.0359 46.9937 23.2324 46.5357L25.9356 40.2895L28.248 46.428C28.433 46.9141 28.7625 47.333 29.1929 47.6291C29.6233 47.9253 30.1342 48.0848 30.658 48.0864H30.8752C31.4095 48.0864 31.9305 47.9216 32.3662 47.6148C32.8019 47.308 33.1307 46.8745 33.307 46.3741L38.5722 31.2434C38.1898 31.1022 37.798 30.987 37.3998 30.8988C36.9647 30.8066 36.52 30.7669 36.0753 30.7803Z" fill="#466AFC"/>
<path d="M46.3019 33.9616C46.291 32.7555 45.9545 31.9478 45.2706 31.5493C44.5866 31.1509 43.6964 30.957 42.6108 30.957C42.1657 30.957 41.7423 30.9678 41.3515 30.9893C41.0946 30.9938 40.8393 31.03 40.5915 31.097L40.6132 37.3109L42.8713 39.2386L43.1069 39.4679L42.1874 40.4124C40.9383 41.7241 40.2329 43.4543 40.2115 45.2585C40.2115 46.4647 40.5589 47.2724 41.2429 47.6709C41.9268 48.0693 42.817 48.2632 43.9027 48.2632C44.3478 48.2632 44.7712 48.2524 45.162 48.2309C45.4188 48.2264 45.6741 48.1902 45.9219 48.1232L45.9002 41.9093L43.6421 39.9816L43.4065 39.7523L44.3261 38.8078C45.5752 37.4961 46.2806 35.7659 46.3019 33.9616Z" fill="#466AFC"/>
<path d="M59.4814 38.6081C58.896 38.1925 58.2472 37.8725 57.5598 37.6604C56.8506 37.4346 56.1294 37.2477 55.3994 37.1004C53.6407 36.7127 52.7614 36.1204 52.7614 35.302C52.7463 35.0137 52.8306 34.7289 53.0002 34.4943C53.1501 34.2948 53.3479 34.1356 53.5756 34.0312C53.8242 33.9222 54.0875 33.8496 54.3572 33.8158C54.6345 33.7812 54.9137 33.7632 55.1932 33.762C55.6696 33.7629 56.1439 33.8245 56.6045 33.945C57.0743 34.0633 57.535 34.2144 57.9832 34.3974C58.3949 34.5665 58.794 34.7645 59.1774 34.9897C59.4777 35.1632 59.7677 35.3538 60.0459 35.5604C60.3194 35.1159 60.5659 34.6556 60.7841 34.182C61.0121 33.6866 61.1315 33.2666 61.1315 32.9112C61.0881 32.222 60.5236 31.6512 59.4705 31.2204C58.8349 30.9591 58.1723 30.7677 57.4947 30.6497C56.6421 30.4978 55.7771 30.4257 54.9109 30.4343C54.0199 30.4302 53.1324 30.5461 52.2728 30.7789C51.4739 30.9813 50.7194 31.3281 50.0473 31.802C49.4262 32.2419 48.9017 32.8024 48.5057 33.4497C48.1059 34.1359 47.9067 34.919 47.9303 35.7112C47.9303 36.5727 48.0823 37.305 48.3863 37.8974C48.6728 38.4777 49.0886 38.9859 49.6022 39.3835C50.1258 39.7905 50.7124 40.1105 51.3392 40.3312C51.9991 40.5786 52.678 40.7731 53.3693 40.9127C54.4549 41.1281 55.2692 41.3866 55.812 41.6881C56.3548 41.9897 56.6262 42.485 56.6262 43.1743C56.6381 43.5042 56.5512 43.8302 56.3765 44.1112C56.2135 44.3468 55.998 44.5421 55.7468 44.682C55.4709 44.833 55.169 44.9316 54.8566 44.9727C54.533 45.0194 54.2066 45.0445 53.8796 45.0481C53.3782 45.046 52.8789 44.9846 52.3923 44.865C51.5199 44.6498 50.6853 44.3049 49.917 43.842C49.6302 43.6663 49.3579 43.4682 49.1028 43.2497C48.788 43.7343 48.5057 44.1866 48.2669 44.6281C48.0418 45.0151 47.9186 45.4522 47.9086 45.8989C47.9039 46.122 47.9561 46.3427 48.0605 46.5405C48.1649 46.7382 48.3181 46.9065 48.5057 47.0296C48.8522 47.275 49.2233 47.4844 49.6131 47.6543C50.196 47.9008 50.8037 48.0849 51.426 48.2035C52.3203 48.3738 53.2297 48.4532 54.1401 48.4404C55.1136 48.4489 56.0831 48.3147 57.017 48.042C57.8505 47.8051 58.6314 47.4141 59.3185 46.8896C59.9664 46.3908 60.4931 45.7541 60.8601 45.0266C61.243 44.2304 61.4326 43.3562 61.4138 42.4743C61.3812 41.5481 61.2075 40.7673 60.8601 40.1481C60.5279 39.5352 60.0557 39.0078 59.4814 38.6081Z" fill="#466AFC"/>
<path d="M78.0673 32.166C77.4691 31.5083 76.7209 31.0024 75.8852 30.6906C75.0574 30.3902 74.1828 30.2371 73.3014 30.2383C72.0312 30.2383 70.9781 30.4698 70.1422 30.9437C69.3063 31.4175 68.6983 31.8806 68.3075 32.3437C68.2484 32.0503 68.1202 31.775 67.9334 31.5401C67.7466 31.3053 67.5066 31.1175 67.2327 30.9921C66.6682 30.7229 65.9843 30.5937 65.1809 30.5937C64.9095 30.5937 64.6815 30.6044 64.4861 30.6152C64.2907 30.626 64.117 30.6475 63.9759 30.6691L63.5308 30.7444V55.9121H68.4812V46.769C68.5927 46.9119 68.7162 47.0452 68.8503 47.1675C69.1019 47.402 69.3873 47.598 69.6971 47.749C70.1233 47.9687 70.5707 48.1455 71.0324 48.2767C71.6359 48.4468 72.2616 48.5267 72.8888 48.5136C73.7575 48.502 74.6187 48.3529 75.4401 48.0721C76.3304 47.7595 77.1338 47.243 77.785 46.5644C78.4798 45.8537 79.0443 44.8844 79.4894 43.6567C79.9345 42.429 80.1517 40.8675 80.1517 38.9721C80.1517 37.346 79.9671 35.9783 79.5871 34.8583C79.2072 33.7383 78.7078 32.8444 78.0673 32.166ZM74.0613 43.1506C73.4751 44.1198 72.5523 44.6044 71.3038 44.6044C70.6968 44.6186 70.0959 44.4816 69.556 44.206C69.0566 43.9367 68.7092 43.7106 68.5138 43.5167V35.7952C68.5138 35.3429 68.72 34.9121 69.1217 34.5244C69.5234 34.1367 70.2399 33.9429 71.2713 33.9429C71.9661 33.9429 72.5414 34.0614 73.0191 34.3198C73.4921 34.5674 73.8867 34.9402 74.159 35.3967C74.463 35.8999 74.6692 36.4551 74.767 37.0337C74.8935 37.7048 74.9553 38.3863 74.9515 39.069C74.9515 40.8298 74.6475 42.1813 74.0613 43.1506Z" fill="#466AFC"/>
<path d="M96.9245 36.8966C96.9378 35.9081 96.8136 34.9224 96.5554 33.9674C96.3387 33.173 95.9157 32.4489 95.3287 31.8674C94.7533 31.3074 94.0042 30.8982 93.0923 30.629C92.1804 30.3597 91.0622 30.2305 89.7377 30.2305C88.8277 30.2286 87.9193 30.3078 87.0236 30.4674C86.2457 30.6045 85.4824 30.8136 84.7438 31.092C84.1755 31.2903 83.6464 31.5855 83.1805 31.9643C82.8006 32.2982 82.616 32.6213 82.616 32.9336C82.616 33.1705 82.7246 33.5474 82.9308 34.0428C83.1332 34.5381 83.4115 34.9995 83.7559 35.4105C84.5376 34.9817 85.3422 34.5953 86.166 34.2528C87.0592 33.8974 88.0157 33.7252 88.9778 33.7467C90.1068 33.7467 90.921 33.9297 91.4204 34.3282C91.9198 34.7267 92.1695 35.3728 92.1695 36.299V36.9559H91.377C91.0947 36.9559 90.8016 36.9666 90.5085 36.9882C89.537 37.042 88.5692 37.1498 87.6099 37.3113C86.5914 37.4719 85.6032 37.7841 84.6787 38.2374C83.7925 38.6648 83.0192 39.2917 82.4206 40.0682C81.8235 40.8436 81.5195 41.8559 81.5195 43.0943C81.5195 44.0851 81.6824 44.9359 82.0298 45.6251C82.335 46.2727 82.7885 46.8406 83.3542 47.2836C83.8932 47.6909 84.5045 47.9941 85.1564 48.1774C85.8039 48.3529 86.4718 48.4434 87.1431 48.4466C88.4241 48.4466 89.4989 48.2528 90.3782 47.8651C91.1738 47.5328 91.8965 47.0499 92.506 46.4436C92.6363 47.0682 92.9294 47.5636 93.3745 47.8974C93.8197 48.2312 94.4927 48.4036 95.3721 48.4036C95.7727 48.4054 96.1726 48.3694 96.5663 48.2959C96.9853 48.2101 97.3959 48.0876 97.793 47.9297C97.2285 47.0359 96.9463 45.6359 96.9463 43.7405L96.9245 36.8966ZM92.2455 43.2343C92.231 43.4707 92.1352 43.695 91.9741 43.8697C91.7611 44.1207 91.508 44.3353 91.225 44.5051C90.8834 44.7127 90.5144 44.8722 90.1285 44.9789C89.6984 45.1038 89.2522 45.1654 88.8041 45.162C87.8704 45.162 87.2082 44.9251 86.8174 44.4513C86.4234 43.9592 86.216 43.3456 86.2311 42.7174C86.2311 42.1036 86.3831 41.6082 86.6762 41.2205C86.9801 40.8297 87.37 40.5129 87.8162 40.2943C88.3228 40.0553 88.8596 39.8851 89.412 39.7882C90.0116 39.677 90.6168 39.5979 91.225 39.5513C91.3942 39.5298 91.5647 39.519 91.7353 39.519H92.2455V43.2343Z" fill="#466AFC"/>
<path d="M113.904 30.7241C113.493 30.6381 113.075 30.5948 112.655 30.5949C112.161 30.5818 111.671 30.6813 111.222 30.8857C110.843 31.0793 110.507 31.3467 110.234 31.6718C109.953 32.0185 109.723 32.4028 109.55 32.8134C109.356 33.2773 109.19 33.7519 109.051 34.2349L106.337 44.0349L103.036 32.8241C102.819 32.0703 102.439 31.5103 101.918 31.1441C101.387 30.7767 100.753 30.5845 100.105 30.5949C99.6184 30.5979 99.1324 30.6339 98.6505 30.7026C98.1971 30.7572 97.75 30.8546 97.3152 30.9934L102.95 47.8095C102.95 47.8095 104.784 52.1387 101.484 52.3649C100.613 52.3682 99.7593 52.1173 99.0305 51.6433C98.7513 52.0901 98.5011 52.5542 98.2814 53.0326C98.1164 53.3879 98.0241 53.7723 98.01 54.1633C98.01 54.9172 98.3682 55.4556 99.0739 55.7679C99.7795 56.0802 100.691 56.2418 101.788 56.2418C103.764 56.2418 105.327 55.7572 106.467 54.7987C107.607 53.8403 108.421 52.5587 108.91 50.9541L115 31.0687C114.644 30.9266 114.277 30.8114 113.904 30.7241Z" fill="#466AFC"/>
</svg>
