<svg width="115" height="80" viewBox="0 0 115 80" fill="none" xmlns="http://www.w3.org/2000/svg">
<path d="M45 41.0406V41H69.1244V41.0423L45 41.0406Z" fill="#E4B935"/>
<path d="M21.3745 60.5986H23.3706C24.4917 60.5986 25.1753 61.2275 25.1753 62.2529C25.1753 63.2988 24.5327 63.9004 23.4116 63.9004H21.3745V60.5986ZM21.3745 65.3018H23.3296L25.2641 69H27.2807L25.1274 65.0283C26.3032 64.6045 26.9868 63.5176 26.9868 62.2188C26.9868 60.3252 25.688 59.1357 23.6167 59.1357H19.6108V69H21.3745V65.3018ZM34.9512 67.4756H30.3301V64.7139H34.6983V63.2783H30.3301V60.6602H34.9512V59.1357H28.5664V69H34.9512V67.4756ZM45.11 65.0488V63.8115H41.0152V65.1924H43.3873L43.3805 65.3975C43.3531 66.7578 42.3277 67.6738 40.8238 67.6738C39.067 67.6738 37.9664 66.293 37.9664 64.0508C37.9664 61.8359 39.0465 60.4619 40.7691 60.4619C42.0338 60.4619 42.9156 61.084 43.2711 62.2051H45.0279C44.7135 60.1885 43.0455 58.8896 40.7691 58.8896C37.9596 58.8896 36.1617 60.9062 36.1617 64.0645C36.1617 67.2637 37.9391 69.2461 40.7965 69.2461C43.4283 69.2461 45.11 67.6123 45.11 65.0488ZM48.3644 69V59.1357H46.6007V69H48.3644ZM49.7868 66.3203C49.8757 68.1113 51.3728 69.2461 53.6355 69.2461C56.028 69.2461 57.5114 68.0498 57.5114 66.1289C57.5114 64.625 56.6706 63.791 54.6677 63.3398L53.5329 63.0801C52.3093 62.7998 51.8103 62.4102 51.8103 61.7471C51.8103 60.9062 52.5622 60.3594 53.697 60.3594C54.7771 60.3594 55.5427 60.9062 55.6657 61.7744H57.3542C57.2722 60.0791 55.7751 58.8896 53.7038 58.8896C51.4958 58.8896 50.0329 60.0791 50.0329 61.8701C50.0329 63.3398 50.8737 64.2285 52.6648 64.6318L53.9431 64.9258C55.2077 65.2197 55.7478 65.6367 55.7478 66.3477C55.7478 67.1748 54.907 67.7695 53.7448 67.7695C52.4939 67.7695 51.6189 67.2021 51.5095 66.3203H49.7868ZM63.1516 69V60.6602H66.1936V59.1357H58.3528V60.6602H61.388V69H63.1516ZM73.8641 67.4756H69.243V64.7139H73.6112V63.2783H69.243V60.6602H73.8641V59.1357H67.4793V69H73.8641V67.4756ZM77.2553 60.5986H79.2514C80.3725 60.5986 81.0561 61.2275 81.0561 62.2529C81.0561 63.2988 80.4135 63.9004 79.2924 63.9004H77.2553V60.5986ZM77.2553 65.3018H79.2104L81.1449 69H83.1615L81.0082 65.0283C82.184 64.6045 82.8676 63.5176 82.8676 62.2188C82.8676 60.3252 81.5688 59.1357 79.4975 59.1357H75.4916V69H77.2553V65.3018ZM90.832 67.4756H86.2109V64.7139H90.5791V63.2783H86.2109V60.6602H90.832V59.1357H84.4472V69H90.832V67.4756ZM92.4595 59.1357V69H96.1577C99.1109 69 100.799 67.1885 100.799 64.0234C100.799 60.9268 99.0903 59.1357 96.1577 59.1357H92.4595ZM94.2232 60.6602H95.9253C97.8599 60.6602 99.0015 61.8975 99.0015 64.0508C99.0015 66.252 97.8872 67.4756 95.9253 67.4756H94.2232V60.6602Z" fill="#1C1E21"/>
<path fill-rule="evenodd" clip-rule="evenodd" d="M43.6267 12.6407L43.5553 22.9853C43.5553 27.3372 40.9868 28.9783 37.5627 28.9783C34.5661 28.9783 30.7846 27.6942 30.7846 23.1995V12.6407C30.7846 12.0699 30.428 11.7132 30 11.4991H34.8514C34.4948 11.7132 34.0664 12.0699 34.0664 12.6407V23.2705C34.0664 25.054 34.7082 27.5511 37.9903 27.5511C40.9865 27.5511 42.0567 25.5534 42.0567 23.0567V12.6407C42.0567 12.0699 41.7001 11.7132 41.3431 11.4991H44.2682C43.9119 11.7132 43.6267 12.0699 43.6267 12.6407ZM50.4754 28.9783C48.1925 28.9783 46.4804 28.1936 45.624 27.7656L45.4819 23.4851C45.981 25.2682 47.4792 27.6942 50.1191 27.6942C52.6158 27.6942 53.4008 25.839 53.4008 24.6263C53.4008 22.2006 51.1893 21.8437 48.9061 20.631C46.5518 19.3466 45.553 17.9915 45.553 16.0652C45.553 12.6407 48.7633 11.2138 51.0466 11.2138C51.9026 11.2138 53.615 11.4277 54.8995 12.2127L54.9709 15.9224C54.6139 14.567 53.187 12.5693 50.7617 12.5693C48.8351 12.5693 48.1218 13.9247 48.1218 14.995C48.1218 16.5646 49.192 17.1354 51.5463 18.2057C53.9006 19.3469 56.3977 20.1319 56.3977 23.6989C56.397 26.8382 53.6147 28.9783 50.4754 28.9783ZM64.5301 28.7645H58.038C58.3947 28.4789 58.6802 28.1226 58.6802 27.6228V12.6407C58.6802 12.0699 58.3947 11.7132 58.038 11.4991H64.7443C73.0912 11.4991 74.7323 17.4207 74.7323 19.8464C74.7323 24.2697 71.3795 28.7645 64.5301 28.7645ZM64.2449 12.7835C63.6027 12.7835 62.3186 12.7835 61.8906 12.8549V27.409H63.9596C69.6671 27.409 71.2371 23.5561 71.2371 19.8464C71.2371 16.8499 69.4532 12.7835 64.2449 12.7835ZM84.5782 28.7645C85.2197 28.4078 85.3628 28.0512 85.2197 27.4804C85.1486 27.2662 84.435 25.6969 83.7218 23.9845H77.586C76.8013 25.6969 76.1591 27.1948 76.1591 27.4804C75.9449 28.0512 76.0163 28.4078 76.7303 28.7645H73.2344C73.948 28.265 74.1618 27.9798 74.447 27.4804C74.8754 26.553 81.5813 11 81.5813 11C81.5813 11 88.2876 26.553 88.7156 27.4804C89.0008 28.0512 89.144 28.265 90 28.7645H84.5782ZM80.5828 16.4932C80.5828 16.4932 78.87 20.7738 78.0854 22.6287H83.1513C82.0097 19.8464 80.5828 16.4932 80.5828 16.4932Z" fill="#2B568C"/>
<path fill-rule="evenodd" clip-rule="evenodd" d="M89.215 31.1894C89.215 31.1894 52.4016 30.262 30.6418 41.891C30.6418 41.891 53.7571 32.7587 89.215 33.6151V31.1894ZM30.6418 31.1894C30.6418 31.1894 43.0559 31.2608 50.761 34.1863C50.761 34.1863 34.9224 32.8305 30.6418 33.5441V31.1894ZM30.6418 35.1848C30.6418 35.1848 39.4886 34.8278 44.8394 35.3272C44.8394 35.3272 31.9263 36.8972 30.6418 37.5387V35.1848Z" fill="#345F50"/>
<path fill-rule="evenodd" clip-rule="evenodd" d="M83.1513 35.6097H82.9371C72.2355 35.8239 49.8335 37.1083 30.6418 43.8856V52.0194H89.286V35.6097C89.2864 35.6097 87.0039 35.5387 83.1513 35.6097Z" fill="#345F50"/>
</svg>
