<svg width="115" height="80" viewBox="0 0 115 80" fill="none" xmlns="http://www.w3.org/2000/svg">
<g clip-path="url(#clip0)">
<path fill-rule="evenodd" clip-rule="evenodd" d="M9.86061 50.0215C10.5572 51.5486 11.7092 52.3255 13.531 52.2988C15.2189 52.3791 16.3977 51.5218 17.1479 49.8339C19.0416 45.6799 20.9509 41.5414 22.8638 37.3948L22.8639 37.3945C23.4678 36.0855 24.0721 34.7757 24.6763 33.4643L24.6766 33.4637C25.3731 31.9636 26.0696 30.4634 26.7393 28.9633C27.1947 27.9988 26.9 27.2219 25.9891 27.0879C24.1941 26.82 22.3455 27.0611 21.3274 29.2848C19.9913 32.2116 18.6457 35.1289 17.3019 38.0424L17.3013 38.0437C16.3819 40.037 15.4633 42.0286 14.5491 44.0202C14.5125 44.0974 14.4778 44.1784 14.4428 44.26L14.4427 44.26C14.2469 44.7165 14.0415 45.1949 13.4507 45.1722C12.8823 45.1495 12.6805 44.6829 12.485 44.2311C12.4502 44.1505 12.4155 44.0704 12.379 43.9934C11.2538 41.5286 10.1219 39.0638 8.98992 36.599C7.85797 34.1341 6.72601 31.6693 5.60075 29.2044C5.35962 28.7222 5.06492 28.2935 4.63625 27.9184C3.5378 26.9807 2.2518 26.9272 0.939017 27.1415C0.13527 27.2754 -0.159437 27.8916 0.0816871 28.6686C0.162062 28.9097 0.269228 29.1509 0.376394 29.392C1.95707 32.8346 3.53775 36.2706 5.11843 39.7066L5.1191 39.708C6.6996 43.1436 8.2801 46.5792 9.86061 50.0215ZM54.254 52.2724C52.459 52.3528 51.3069 51.5223 50.5836 49.9148C49.4583 47.45 48.3264 44.9852 47.1945 42.5204C46.0625 40.0555 44.9306 37.5907 43.8053 35.1258C43.7785 35.0722 43.7584 35.0254 43.7383 34.9785C43.7182 34.9316 43.6982 34.8847 43.6714 34.8311C43.648 34.7873 43.6252 34.7428 43.6025 34.6984C43.4169 34.3353 43.232 33.9738 42.7069 33.9738C42.1555 33.9738 41.9643 34.4112 41.7804 34.8322L41.7692 34.8579C40.9355 36.6723 40.0947 38.4867 39.2533 40.3024L39.2532 40.3025L39.2532 40.3025L39.2532 40.3026L39.2532 40.3027L39.253 40.303C37.7959 43.4472 36.3371 46.5952 34.9105 49.754C33.7585 52.326 32.0974 52.3796 30.1684 52.2456C29.4718 52.192 29.07 51.5758 29.2307 50.8793C29.2843 50.6381 29.3647 50.3702 29.4718 50.1559L39.0364 29.3388C39.8402 27.5974 41.2065 26.9812 43.0284 27.0616C44.6626 27.1419 45.7611 27.8921 46.4309 29.3656C49.5923 36.2779 52.7805 43.2169 55.9687 50.1291C56.0758 50.3702 56.183 50.6113 56.2366 50.8525C56.3973 51.6026 55.9687 52.192 55.1917 52.2724C54.9753 52.2905 54.7589 52.2842 54.5507 52.2782H54.5506H54.5506H54.5506H54.5505C54.4494 52.2753 54.3503 52.2724 54.254 52.2724ZM56.8263 27.3328C57.3851 27.3328 57.9439 27.3284 58.5027 27.3241C59.8997 27.3131 61.2967 27.3022 62.6937 27.3596C64.4083 27.4132 66.0694 27.7615 67.6769 28.4848C70.8383 29.9584 71.8832 34.0307 70.3561 36.7634C69.7667 37.8619 69.847 38.237 70.7044 39.0943C73.4371 41.7467 73.9461 45.8726 71.8028 48.7661C70.4097 50.6415 68.4003 51.5792 66.1766 52.0078C64.9174 52.249 63.6314 52.3829 62.3722 52.4901C61.3273 52.5705 60.6575 51.9543 60.2021 51.0969C59.9074 50.5343 59.6394 49.9717 59.3983 49.3823C59.0232 48.5249 59.3715 47.9623 60.336 47.9623C61.9703 47.9623 63.6046 47.9623 65.2121 47.7212C65.6408 47.6408 66.0426 47.5069 66.4445 47.3193C67.5162 46.8371 68.2127 46.0333 68.2663 44.8277C68.3199 43.5685 67.6769 42.6844 66.632 42.0682C65.614 41.4788 64.4887 41.3448 63.3635 41.318C61.4613 41.2644 59.5323 41.2376 57.6301 41.2644C56.2101 41.2912 55.2724 40.675 54.7366 39.389C54.5758 39.0407 54.4151 38.6924 54.2543 38.3173C53.8257 37.3529 54.1472 36.8438 55.192 36.817H57.4157L57.4937 36.8159C59.3706 36.7895 61.2729 36.7627 63.1491 36.7099C63.8189 36.6831 64.4351 36.5223 65.0245 36.2008C66.5249 35.3971 66.6052 33.5217 65.2121 32.5572C64.1136 31.807 62.8276 31.7802 61.5684 31.7802C58.7285 31.7266 55.8618 31.7534 53.0219 31.7802C51.8163 31.7802 50.9858 31.2444 50.4767 30.1995C50.2088 29.6637 49.9677 29.1546 49.7534 28.592C49.4319 27.8151 49.7802 27.306 50.6107 27.306C52.7004 27.2792 54.7634 27.306 56.8263 27.3328ZM82.4389 39.8669V29.0967C82.4389 27.8911 83.0015 27.3821 84.1803 27.3285C86.1897 27.2213 86.672 27.8107 86.6452 29.7665C86.605 33.8456 86.61 37.9247 86.615 42.0038C86.6167 43.3634 86.6184 44.723 86.6184 46.0826C86.6184 47.6097 87.2078 48.2259 88.7349 48.2259C89.2965 48.2259 89.8611 48.2289 90.4267 48.2318C91.5609 48.2378 92.6991 48.2438 93.8253 48.2259C94.6558 48.2259 95.3792 48.4938 95.9686 49.0296C96.7188 49.7262 97.2546 50.6103 97.7905 51.4945C98.112 52.0303 97.844 52.459 97.201 52.5661C97.0929 52.5841 96.9727 52.5779 96.8566 52.5719L96.8565 52.5719C96.8 52.569 96.7446 52.5661 96.692 52.5661H84.3411C83.0283 52.5661 82.4121 51.9767 82.4121 50.6639C82.4389 47.0481 82.4389 43.459 82.4389 39.87V39.8669ZM99.532 29.0974V39.8676C99.532 43.4577 99.532 47.0477 99.5052 50.6378C99.5052 51.9506 100.095 52.54 101.407 52.54H113.758C113.946 52.54 114.16 52.54 114.348 52.5132C114.937 52.406 115.178 51.9774 114.857 51.4683L114.857 51.4683C114.321 50.5842 113.785 49.7001 113.035 49.0035C112.472 48.4677 111.776 48.1998 110.972 48.1998H105.882C104.274 48.1998 103.712 47.6371 103.712 46.0564C103.712 44.6967 103.71 43.3369 103.708 41.9771C103.703 37.8982 103.698 33.8193 103.738 29.7404C103.765 28.0525 103.444 27.1684 101.327 27.3023C100.068 27.3827 99.532 27.8382 99.532 29.0974ZM22.0508 52.3008C20.3629 52.4884 19.6931 51.6311 20.5236 49.8896C23.7118 43.031 26.8732 36.1455 30.0079 29.2869C30.9456 27.224 32.8746 26.8221 34.6964 27.1704C35.5805 27.3311 35.8216 28.1081 35.3662 29.0994C34.3481 31.3499 33.3032 33.6003 32.2583 35.824L32.2576 35.8257L32.2575 35.8259C30.1145 40.487 27.9714 45.1481 25.8284 49.836C25.105 51.4971 23.9262 52.408 22.0508 52.3008ZM74.8569 29.15V39.9202C74.8569 43.537 74.8569 47.1807 74.8837 50.7975C74.8837 51.896 75.5267 52.539 76.6252 52.539H76.9467C78.581 52.539 79.0632 52.0567 79.0632 50.3957V29.3107C79.0632 29.2491 79.0661 29.1847 79.069 29.1193C79.075 28.9854 79.0812 28.8473 79.0632 28.7213C78.9828 27.9175 78.3666 27.3549 77.5361 27.3281H76.6788C75.3928 27.3281 74.8569 27.864 74.8569 29.15Z" fill="#0F8FFF"/>
</g>
<defs>
<clipPath id="clip0">
<rect width="115" height="80" fill="white"/>
</clipPath>
</defs>
</svg>
