<svg width="115" height="80" viewBox="0 0 115 80" fill="none" xmlns="http://www.w3.org/2000/svg">
<g clip-path="url(#clip0)">
<path d="M5.7789 25.5781L10.691 39.9291L15.5067 25.5781H21.1893L12.7136 46.8637H8.47571L0 25.5781H5.7789Z" fill="#FF5B24"/>
<path d="M33.9992 43.494C37.5628 43.494 39.5855 41.7603 41.5118 39.2561C42.5712 37.9077 43.9196 37.6188 44.8828 38.3893C45.8459 39.1598 45.9422 40.6046 44.8828 41.953C42.0896 45.6129 38.526 47.8282 33.9992 47.8282C29.0871 47.8282 24.753 45.1314 21.7672 40.4119C20.9004 39.1598 21.093 37.8114 22.0561 37.1372C23.0193 36.463 24.464 36.752 25.3308 38.1004C27.4498 41.2788 30.3392 43.494 33.9992 43.494ZM40.6449 31.6473C40.6449 33.3809 39.2965 34.5367 37.7555 34.5367C36.2144 34.5367 34.866 33.3809 34.866 31.6473C34.866 29.9136 36.2144 28.7578 37.7555 28.7578C39.2965 28.7578 40.6449 30.0099 40.6449 31.6473Z" fill="#FF5B24"/>
<path d="M54.2253 25.5779V28.4673C55.67 26.4447 57.8853 25 61.16 25C65.3015 25 70.1173 28.4673 70.1173 35.8836C70.1173 43.6851 65.4941 47.4414 60.6784 47.4414C58.1742 47.4414 55.8626 46.4782 54.129 44.0704V54.2797H48.928V25.5779H54.2253ZM54.2253 36.1725C54.2253 40.5067 56.7295 42.8183 59.5226 42.8183C62.2194 42.8183 64.9163 40.6993 64.9163 36.1725C64.9163 31.742 62.2194 29.6231 59.5226 29.6231C56.8258 29.6231 54.2253 31.6457 54.2253 36.1725Z" fill="#FF5B24"/>
<path d="M79.2673 25.5779V28.4673C80.712 26.4447 82.9273 25 86.202 25C90.3435 25 95.1593 28.4673 95.1593 35.8836C95.1593 43.6851 90.5361 47.4414 85.7204 47.4414C83.2162 47.4414 80.9046 46.4782 79.171 44.0704V54.2797H73.97V25.5779H79.2673ZM79.2673 36.1725C79.2673 40.5067 81.7715 42.8183 84.5646 42.8183C87.2614 42.8183 89.9582 40.6993 89.9582 36.1725C89.9582 31.742 87.2614 29.6231 84.5646 29.6231C81.7715 29.6231 79.2673 31.6457 79.2673 36.1725Z" fill="#FF5B24"/>
<path d="M106.235 25C110.57 25 113.652 27.0226 115 32.031L110.281 32.8015C110.184 30.2973 108.643 29.4305 106.332 29.4305C104.598 29.4305 103.25 30.201 103.25 31.4531C103.25 32.4163 103.924 33.3794 105.946 33.7647L109.51 34.4389C112.977 35.1131 114.904 37.4246 114.904 40.5067C114.904 45.1298 110.762 47.4414 106.813 47.4414C102.672 47.4414 98.0486 45.3224 97.3744 40.1214L102.094 39.3509C102.383 42.0477 104.02 43.0109 106.717 43.0109C108.74 43.0109 110.088 42.2404 110.088 40.9883C110.088 39.8325 109.414 38.9657 107.199 38.5804L103.924 38.0025C100.456 37.3283 98.3375 34.9204 98.3375 31.8384C98.4339 27.0226 102.768 25 106.235 25Z" fill="#FF5B24"/>
</g>
<defs>
<clipPath id="clip0">
<rect width="115" height="80" fill="white"/>
</clipPath>
</defs>
</svg>
