<svg width="115" height="80" viewBox="0 0 115 80" fill="none" xmlns="http://www.w3.org/2000/svg">
<path d="M15.1369 48.212C13.8771 48.212 12.7098 47.4894 11.9687 46.2481C11.2276 47.4894 10.0789 48.212 8.80055 48.212H8.78202C7.39246 48.1935 6.15112 47.3227 5.44708 45.8776V45.859L0 34.2423L6.9478 31L11.9687 41.6348L16.9341 31L23.8819 34.2423L18.4904 45.859C17.7864 47.3227 16.545 48.1935 15.1555 48.1935C15.1555 48.212 15.1555 48.212 15.1369 48.212ZM13.5806 45.0438C13.9697 45.8034 14.5255 46.2296 15.1555 46.2296C15.7854 46.2296 16.3412 45.7849 16.7303 45.0068L21.2695 35.2057L17.8975 33.6309L13.0804 43.9692L13.5806 45.0438ZM7.24424 45.0068C7.61479 45.7849 8.18914 46.2296 8.80055 46.2296C9.41195 46.2296 9.98631 45.8034 10.3754 45.0438L10.8756 43.9692L6.0029 33.6309L2.6309 35.2057L7.24424 45.0068Z" fill="#20253A"/>
<path d="M32.2747 46.0049C33.3122 46.0049 33.831 45.1712 34.0904 44.5783L36.6286 38.1122L34.5906 37.3711L32.2561 43.8557L29.9217 37.3711L27.8837 38.1122L30.4405 44.5783C30.7184 45.1712 31.2371 46.0049 32.2747 46.0049Z" fill="#20253A"/>
<path d="M46.4113 46.0049C47.4488 46.0049 47.9676 45.1712 48.227 44.5783L50.7652 38.1122L48.7272 37.3711L46.3927 43.8557L44.0583 37.3711L42.0203 38.1122L44.5771 44.5783C44.855 45.1712 45.3737 46.0049 46.4113 46.0049Z" fill="#20253A"/>
<path d="M60.029 45.8046H57.9354V44.8597C57.3796 45.5452 56.5644 46.0084 55.3972 46.0084C53.0627 46.0084 51.2841 44.1 51.2841 41.5432C51.2841 39.005 53.0442 37.0781 55.3972 37.0781C56.5644 37.0781 57.3796 37.5413 57.9354 38.2454V37.3005H60.029V45.8046ZM53.3962 41.5618C53.3962 42.9328 54.2855 44.0259 55.7121 44.0259C57.0832 44.0259 58.0095 42.9699 58.0095 41.5618C58.0095 40.1537 57.0832 39.0976 55.7121 39.0976C54.2855 39.0976 53.3962 40.1907 53.3962 41.5618Z" fill="#20253A"/>
<path d="M106.422 41.5442C106.422 41.8036 106.403 42.1186 106.385 42.3224H100.252C100.493 43.5452 101.475 44.1381 102.55 44.1381C103.457 44.1381 104.106 43.8602 104.717 43.3414L106.033 44.731C105.069 45.6203 103.847 46.0094 102.42 46.0094C99.8261 46.0094 98.0104 44.2493 98.0104 41.5813C98.0104 38.9133 99.7705 37.0977 102.29 37.0977C104.736 37.0977 106.422 38.8948 106.422 41.5442ZM100.215 40.8217H104.254C104.124 39.6915 103.328 38.9319 102.272 38.9319C101.142 38.9504 100.289 39.7841 100.215 40.8217Z" fill="#20253A"/>
<path d="M114.37 39.3585H111.091V42.4526C111.091 43.5087 111.461 43.9904 112.536 43.9904C113.073 43.9904 113.722 43.6569 114.185 43.379L115 45.1391C114.259 45.6394 113.407 46.0284 112.184 46.0284C110.09 46.0284 109.016 44.8427 109.016 42.6379V39.3585H107.385V37.3761H109.016V34.8008H111.091V37.3761H114.37V39.3585Z" fill="#20253A"/>
<path d="M76.0552 37.3756L73.7208 43.8602L71.6272 38.0611C71.4234 37.5053 70.9602 37.0977 70.3488 37.0977C69.7559 37.0977 69.2742 37.5053 69.0704 38.0611L66.9953 43.8602L64.6608 37.3756L62.6228 38.1167L65.1796 44.5828C65.439 45.1756 65.9577 46.0094 66.9953 46.0094C68.0328 46.0094 68.5516 45.1756 68.811 44.5828L70.3488 40.6735L71.8865 44.5828C72.1459 45.1756 72.6647 46.0094 73.7022 46.0094C74.7398 46.0094 75.2585 45.1756 75.5179 44.5828L78.0932 38.1167L76.0552 37.3756Z" fill="#20253A"/>
<path d="M87.2828 45.8046H85.1892V44.8597C84.6334 45.5452 83.8182 46.0084 82.6509 46.0084C80.3165 46.0084 78.5378 44.1 78.5378 41.5432C78.5378 39.005 80.298 37.0781 82.6509 37.0781C83.8182 37.0781 84.6334 37.5413 85.1892 38.2454V37.3005H87.2828V45.8046ZM80.65 41.5618C80.65 42.9328 81.5393 44.0259 82.9659 44.0259C84.3369 44.0259 85.2633 42.9699 85.2633 41.5618C85.2633 40.1537 84.3369 39.0976 82.9659 39.0976C81.5393 39.0976 80.65 40.1907 80.65 41.5618Z" fill="#20253A"/>
<path d="M91.5997 33.207H89.5247V45.8242H91.5997V33.207Z" fill="#20253A"/>
<path d="M96.1021 33.207H94.027V45.8242H96.1021V33.207Z" fill="#20253A"/>
<path d="M40.3529 37.3203H38.2778V45.8059H40.3529V37.3203Z" fill="#20253A"/>
<path d="M40.6493 34.4633C40.6493 35.2044 40.0564 35.7788 39.3153 35.7788C38.5742 35.7788 37.9999 35.2044 37.9999 34.4633C37.9999 33.7222 38.5742 33.1293 39.3153 33.1293C40.0564 33.1108 40.6493 33.7037 40.6493 34.4633Z" fill="#20253A"/>
</svg>
