<svg width="115" height="80" viewBox="0 0 115 80" fill="none" xmlns="http://www.w3.org/2000/svg">
<g clip-path="url(#clip0)">
<path d="M69.6931 33.236C69.5647 33.3644 69.5647 33.3644 69.5647 33.3644L61.7355 35.6747H61.6071C61.4788 35.6747 61.4788 35.6747 61.3504 35.6747C61.2221 35.6747 61.2221 35.6747 61.2221 35.5463L61.0938 35.418V35.2896V35.1613L62.5056 27.2037V27.0753L71.1049 17.4492H37.7344V45.9425H83.4263V18.091L69.6931 33.236Z" fill="#BAA15B"/>
<path d="M82.0144 26.0469H39.1461V44.2723H82.0144V26.0469Z" fill="white"/>
<path d="M59.1686 32.0781H40.9431V34.5167H59.1686V32.0781Z" fill="#BAA15B"/>
<path d="M78.4208 38.4961H40.9431V40.9347H78.4208V38.4961Z" fill="#BAA15B"/>
<path d="M85.9933 8.07924C84.3248 6.53907 81.6295 6.66741 80.0893 8.33594L64.1741 26.048V26.1763L62.8906 33.2355C62.8906 33.2355 62.8906 33.2355 62.8906 33.3638V33.4922C62.8906 33.4922 62.8906 33.6205 63.019 33.6205L63.1473 33.7489H63.2757H63.404L70.2065 31.6953C70.2065 31.6953 70.2065 31.6953 70.3348 31.6953L86.25 13.9833C87.7902 12.3147 87.6618 9.61942 85.9933 8.07924ZM85.3516 8.72099C86.635 9.87612 86.7634 11.673 85.865 12.9565L81.1161 8.59264C82.2712 7.6942 84.1964 7.6942 85.3516 8.72099ZM83.4263 15.7801L78.5491 11.4163L79.1908 10.7746L84.0681 15.1384L83.4263 15.7801ZM64.9442 31.4386C64.8158 31.3103 64.4308 31.3103 64.3025 31.4386L63.9174 31.8237L64.8158 26.8181L66.8694 26.433L66.7411 28.8717C66.7411 28.8717 66.7411 28.8717 66.7411 29C66.7411 29 66.7411 29 66.7411 29.1283C66.7411 29.1283 66.7411 29.1283 66.8694 29.1283C66.8694 29.1283 66.8694 29.1283 66.9978 29.1283C66.9978 29.1283 66.9978 29.1283 67.1261 29.1283L69.4364 28.7433L69.308 30.7969L64.4308 32.2087L64.8158 31.8237C65.2009 31.952 65.2009 31.567 64.9442 31.4386ZM70.7199 28.615L80.6027 17.577C80.731 17.4487 80.731 17.0636 80.6027 16.9353C80.4743 16.8069 80.0893 16.8069 79.9609 16.9353L70.0781 27.9732L67.8962 28.3583L68.0245 26.1763L77.9074 15.1384C78.0357 15.01 78.0357 14.625 77.9074 14.4967C77.779 14.3683 77.394 14.3683 77.2656 14.4967L67.2545 25.5346L65.8426 25.7913L78.0357 12.1864L82.9129 16.5502L70.7199 30.1551V28.615ZM84.7098 14.3683L79.8326 10.0045L80.4743 9.36273L85.3516 13.7266L84.7098 14.3683Z" fill="#787878"/>
<path d="M12.5781 58.6484H15.2734L8.72768 73.4085H6.54576L0 58.6484H2.82366L7.70089 70.0714L12.5781 58.6484Z" fill="#787878"/>
<path d="M19.5089 72.6378C18.4821 71.9961 17.5837 71.0977 17.0703 69.9425C16.5569 68.7874 16.1719 67.5039 16.1719 65.9637C16.1719 64.4235 16.4286 63.1401 17.0703 61.9849C17.5837 60.8298 18.4821 59.9314 19.5089 59.418C20.5357 58.7762 21.8192 58.5195 23.231 58.5195C24.6429 58.5195 25.9263 58.7762 26.9531 59.418C27.9799 60.0597 28.8783 60.9581 29.3917 61.9849C29.9051 63.1401 30.2902 64.4235 30.2902 65.9637C30.2902 67.5039 30.0335 68.7874 29.3917 69.9425C28.8783 71.0977 27.9799 71.9961 26.9531 72.6378C25.9263 73.2796 24.6429 73.5363 23.231 73.5363C21.8192 73.5363 20.5357 73.2796 19.5089 72.6378ZM26.4397 70.0709C27.2098 69.1724 27.5949 67.7606 27.5949 66.0921C27.5949 64.2952 27.2098 63.0117 26.4397 62.1133C25.6696 61.2148 24.6429 60.7015 23.231 60.7015C21.8192 60.7015 20.7924 61.2148 20.0223 62.1133C19.2522 63.0117 18.8672 64.4235 18.8672 66.0921C18.8672 67.8889 19.2522 69.1724 20.0223 70.0709C20.7924 70.9693 21.8192 71.4827 23.231 71.4827C24.6429 71.3544 25.6696 70.9693 26.4397 70.0709Z" fill="#787878"/>
<path d="M45.692 73.4085H42.74L40.173 68.6596C39.9163 68.2746 39.6596 67.8895 39.2746 67.7612C38.8895 67.6328 38.5045 67.5045 37.9911 67.5045H35.9375V73.4085H33.2422V58.6484H39.7879C41.4565 58.6484 42.74 59.0335 43.6384 59.8036C44.5368 60.5737 44.9219 61.6004 44.9219 63.0123C44.9219 64.1674 44.6652 65.0659 44.0234 65.8359C43.3817 66.606 42.4833 66.9911 41.3281 67.2478C42.0982 67.5045 42.74 68.0179 43.2534 68.9163L45.692 73.4085ZM41.7132 64.8092C42.2266 64.4241 42.4833 63.7824 42.4833 63.0123C42.4833 62.2422 42.2266 61.6004 41.7132 61.2154C41.1998 60.8304 40.4297 60.702 39.5313 60.702H36.0658V65.3225H39.5313C40.558 65.3225 41.1998 65.1942 41.7132 64.8092Z" fill="#787878"/>
<path d="M60.9654 73.4085H57.6284L50.8259 66.4777V73.4085H48.1306V58.6484H50.8259V65.1942L57.3717 58.6484H60.7087L53.5212 65.7076L60.9654 73.4085Z" fill="#BAA15B"/>
<path d="M73.2868 73.4085L71.7466 69.9431H64.5591L63.0189 73.4085H60.3236L67.1261 58.6484H69.308L75.9821 73.4085H73.2868ZM65.5859 67.8895H70.9765L68.2812 61.6004L65.5859 67.8895Z" fill="#BAA15B"/>
<path d="M79.5759 73.1518C78.5491 72.8951 77.779 72.3817 77.0089 71.8683L77.9074 69.9431C78.6774 70.4565 79.3192 70.8415 80.2176 71.0982C80.9877 71.3549 81.8861 71.4833 82.7846 71.4833C83.8114 71.4833 84.5815 71.3549 85.0949 70.9699C85.6082 70.5848 85.8649 70.0714 85.8649 69.4297C85.8649 68.9163 85.6082 68.4029 85.0949 68.1462C84.5815 67.8895 83.683 67.6328 82.5279 67.2478C81.2444 66.9911 80.346 66.7344 79.5759 66.3493C78.8058 65.9643 78.2924 65.5792 77.779 65.0658C77.394 64.5525 77.1373 63.7824 77.1373 63.0123C77.1373 62.1138 77.394 61.3438 77.9074 60.702C78.4207 60.0603 79.0625 59.5469 79.9609 59.1618C80.8594 58.7768 81.8862 58.6484 82.9129 58.6484C83.9397 58.6484 84.9665 58.7768 85.8649 59.1618C86.7634 59.4185 87.5335 59.9319 88.1752 60.4453L87.2768 62.3705C85.9933 61.3438 84.4531 60.8304 82.9129 60.8304C82.0145 60.8304 81.2444 60.9587 80.6027 61.3438C80.2176 61.6004 79.9609 62.1138 79.9609 62.7556C79.9609 63.269 80.2176 63.7824 80.731 64.0391C81.2444 64.2958 82.0145 64.6808 83.1696 64.9375C84.4531 65.1942 85.4799 65.5792 86.25 65.8359C87.0201 66.0926 87.6618 66.606 88.0469 67.1194C88.4319 67.6328 88.6886 68.2746 88.6886 69.173C88.6886 70.0714 88.4319 70.8415 88.0469 71.4833C87.5335 72.125 86.8917 72.6384 85.9933 73.0234C85.0948 73.4085 84.0681 73.5368 82.9129 73.5368C81.6295 73.5368 80.6027 73.4085 79.5759 73.1518Z" fill="#BAA15B"/>
<path d="M93.1807 73.1518C92.1539 72.8951 91.3839 72.3817 90.6138 71.8683L91.5122 69.9431C92.2823 70.4565 92.924 70.8415 93.8225 71.0982C94.5926 71.3549 95.491 71.4833 96.3894 71.4833C97.4162 71.4833 98.1863 71.3549 98.6997 70.9699C99.2131 70.5848 99.4698 70.0714 99.4698 69.4297C99.4698 68.9163 99.2131 68.4029 98.6997 68.1462C98.1863 67.8895 97.2879 67.6328 96.1327 67.2478C94.8493 66.9911 93.9508 66.7344 93.1807 66.3493C92.4106 65.9643 91.8972 65.5792 91.3839 65.0658C90.9988 64.5525 90.7421 63.7824 90.7421 63.0123C90.7421 62.1138 90.9988 61.3438 91.5122 60.702C92.0256 60.0603 92.6673 59.5469 93.5658 59.1618C94.4642 58.7768 95.491 58.6484 96.5178 58.6484C97.5446 58.6484 98.5714 58.7768 99.4698 59.1618C100.368 59.4185 101.138 59.9319 101.78 60.4453L100.882 62.3705C99.5981 61.3438 98.058 60.8304 96.5178 60.8304C95.6193 60.8304 94.8493 60.9587 94.2075 61.3438C93.6941 61.7288 93.4374 62.2422 93.4374 62.8839C93.4374 63.3973 93.6941 63.9107 94.2075 64.1674C94.7209 64.4241 95.491 64.8092 96.6461 65.0658C97.9296 65.3225 98.9564 65.7076 99.7265 65.9643C100.497 66.221 101.138 66.7344 101.523 67.2478C101.908 67.7612 102.165 68.4029 102.165 69.3013C102.165 70.1998 101.908 70.9699 101.523 71.6116C101.01 72.2534 100.368 72.7667 99.4698 73.1518C98.5714 73.5368 97.5446 73.6652 96.3894 73.6652C95.2343 73.5368 94.2075 73.4085 93.1807 73.1518Z" fill="#BAA15B"/>
<path d="M105.117 73.4085V58.6484H115V60.8304H107.812V64.9375H114.615V66.9911H107.812V71.3549H115V73.5368H105.117V73.4085Z" fill="#BAA15B"/>
</g>
<defs>
<clipPath id="clip0">
<rect width="115" height="80" fill="white"/>
</clipPath>
</defs>
</svg>
