<svg width="115" height="80" viewBox="0 0 115 80" fill="none" xmlns="http://www.w3.org/2000/svg">
<path d="M32.4836 31.7305V42.6704L21.3828 37.1315C20.9078 36.894 20.3256 36.894 19.8506 37.1315L8.74983 42.6704V31.7305H5.17215H0.0392841C0.000979121 31.7305 -0.0143419 31.7841 0.016302 31.8071L5.17215 34.8178V45.7424C5.17215 46.7767 6.45154 47.4278 7.47811 46.9146L20.6167 40.3567L33.7553 46.9146C34.7819 47.4278 36.0613 46.7767 36.0613 45.7424V31.7305H32.4836Z" fill="black"/>
<path d="M58.6229 39.4754V47.0751H54.8998V45.1982C52.0117 46.5389 48.8477 47.5041 45.224 47.5041C40.7117 47.5041 38.2065 45.9566 38.2065 42.4862C38.2065 38.5638 42.4124 37.292 47.1239 37.292C49.8589 37.292 52.5479 37.7517 54.8998 38.4029C54.8003 35.1316 50.8472 34.7026 48.6178 34.7026C46.4421 34.7026 43.9063 34.9554 40.5355 35.9973L39.4476 33.1858C42.5656 32.2741 45.5764 31.7148 49.1005 31.7148C55.3748 31.7225 58.5692 33.6761 58.6229 39.4754ZM54.8998 42.6624V41.1685C52.8467 40.6093 50.4411 40.1266 47.4534 40.1266C44.1821 40.1266 42.1826 40.7625 42.1826 42.3789C42.1826 44.1257 43.7761 44.4781 46.3885 44.4781C48.6868 44.4857 52.387 43.5511 54.8998 42.6624Z" fill="black"/>
<path d="M60.8827 27H64.5753V47.0871H60.8827V27Z" fill="black"/>
<path d="M66.9653 27H70.6579V47.0871H66.9653V27Z" fill="black"/>
<path d="M89.0905 42.0006H92.9593C92.0553 45.4403 88.6385 47.4782 83.1379 47.4782C76.9632 47.4782 72.6884 44.9424 72.6884 39.618C72.6884 34.2936 77.1317 31.7578 82.9081 31.7578C88.7611 31.7578 93.1815 33.9948 93.1815 40.4224H76.6108C76.9632 43.2876 79.2691 44.4138 83.2146 44.4138C86.8076 44.4138 88.3857 43.4332 89.0905 42.0006ZM76.81 37.81H89.0905C88.4394 35.6036 86.3249 34.646 82.9158 34.646C79.6982 34.646 77.5148 35.573 76.81 37.81Z" fill="black"/>
<path d="M110.802 31.7578H115L106.021 48.0987C104.052 51.7607 102.114 53.8751 98.1458 53.8751C96.1769 53.8751 94.5758 53.6146 92.921 53.2775V50.0369C94.8899 50.4813 96.3301 50.6115 97.464 50.6115C99.6933 50.6115 100.85 49.9603 102.267 47.2943L102.375 47.0875H100.329L91.9327 31.7578H96.1846L103.478 45.0879L110.802 31.7578Z" fill="black"/>
</svg>
