<svg width="115" height="80" viewBox="0 0 115 80" fill="none" xmlns="http://www.w3.org/2000/svg">
<path fill-rule="evenodd" clip-rule="evenodd" d="M9.3426 42.5329L12.8743 30.6171L16.367 42.5329H19.0905L25.7831 24.1406H21.1122L17.654 35.3626L14.6746 24.1406H11.182L8.12886 35.3626L4.7454 24.1406H0L6.65833 42.5329H9.3426Z" fill="#222020"/>
<path fill-rule="evenodd" clip-rule="evenodd" d="M41.9987 33.0845C41.9987 27.7869 37.6954 23.4102 32.4725 23.4102C27.1381 23.4102 22.7969 27.8614 22.7969 33.3784C22.7969 38.8208 27.1014 43.1619 32.5104 43.1619C36.4796 43.1619 40.1949 40.4408 41.3351 36.7253H36.4796C35.4876 38.342 34.1627 39.1169 32.3599 39.1169C30.1178 39.1169 28.0579 37.4969 27.4688 35.2878H41.7404C41.9618 34.2236 41.9987 33.7458 41.9987 33.0845ZM27.3219 31.7594C27.9119 29.1486 30.0061 27.4552 32.5447 27.4552C35.0833 27.4552 37.0697 29.1141 37.6954 31.7594H27.3219Z" fill="#222020"/>
<path fill-rule="evenodd" clip-rule="evenodd" d="M45.5557 42.534V40.3259C47.3585 42.3133 49.2323 43.1597 51.7353 43.1597C56.8847 43.1597 60.8931 38.893 60.8931 33.3762C60.8931 27.8961 56.7736 23.5193 51.6618 23.5193C49.3437 23.5193 47.3585 24.3298 45.9244 25.8362V18H41.5107V42.534H45.5557ZM51.1096 27.562C54.1971 27.562 56.4807 30.0304 56.4807 33.3028C56.4807 36.6852 54.2716 39.1147 51.1818 39.1147C48.0211 39.1147 45.6295 36.5749 45.6295 33.1924C45.6295 30.0637 48.0577 27.562 51.1096 27.562Z" fill="#222020"/>
<path fill-rule="evenodd" clip-rule="evenodd" d="M64.9237 46.992V39.3475C66.7518 41.0697 68.0824 41.6432 70.415 41.6432C75.4429 41.6432 79.4268 37.3689 79.4268 31.9867C79.4268 26.6022 75.5144 22.4727 70.4506 22.4727C67.9731 22.4727 66.0003 23.4046 64.5629 25.1994V23.0827H60.6146V46.992H64.9237ZM69.9115 26.4207C72.7864 26.4207 75.118 28.9348 75.118 32.0579C75.118 35.182 72.7864 37.6929 69.8795 37.6929C66.9689 37.6929 64.6351 35.2166 64.6351 32.0579C64.6351 28.8982 66.9689 26.4207 69.9115 26.4207Z" fill="#16A9E1"/>
<path fill-rule="evenodd" clip-rule="evenodd" d="M93.0694 23.0827V25.344C91.7398 23.6551 89.2994 22.4727 87.0368 22.4727C81.9397 22.4727 78.0629 26.5644 78.0629 31.9488C78.0629 37.5136 81.7604 41.6432 86.7841 41.6432C89.0111 41.6432 91.7398 40.4228 93.0694 38.843V41.0331H97.0164V23.0827H93.0694ZM87.6827 37.6928C84.7032 37.6928 82.3694 35.2545 82.3694 32.1647C82.3694 28.8982 84.6676 26.4207 87.6827 26.4207C90.7346 26.4207 92.9624 28.7924 92.9624 31.9867C92.9624 35.2901 90.7346 37.6928 87.6827 37.6928Z" fill="#16A9E1"/>
<path fill-rule="evenodd" clip-rule="evenodd" d="M104.662 46.9953L115 23.0859H110.082L105.738 34.5919L101.679 23.0859H96.7625L103.333 39.3239L100.029 46.9953H104.662Z" fill="#16A9E1"/>
<path d="M43.0129 60.9446C42.4349 61.5592 41.4775 62.1013 40.0857 62.1013C38.6952 62.1013 37.7554 61.5592 37.1775 60.9446C36.3291 60.0604 36.1119 58.9949 36.1119 57.2781C36.1119 55.5791 36.3291 54.5136 37.1775 53.6296C37.7554 53.015 38.6952 52.4727 40.0857 52.4727C41.4775 52.4727 42.4349 53.015 43.0129 53.6296C43.8615 54.5136 44.0784 55.5791 44.0784 57.2781C44.0784 58.9949 43.8615 60.0604 43.0129 60.9446ZM41.1891 55.0024C40.9174 54.7307 40.5556 54.587 40.0857 54.587C39.6171 54.587 39.2732 54.7307 39.0025 55.0024C38.5147 55.49 38.4601 56.3028 38.4601 57.2781C38.4601 58.2535 38.5147 59.084 39.0025 59.5728C39.2732 59.8435 39.6171 59.9869 40.0857 59.9869C40.5556 59.9869 40.9174 59.8435 41.1891 59.5728C41.6759 59.084 41.7292 58.2535 41.7292 57.2781C41.7292 56.3028 41.6759 55.49 41.1891 55.0024Z" fill="#16A9E1"/>
<path d="M53.1495 61.9933V56.3028C53.1495 55.0201 52.3367 54.587 51.5964 54.587C50.8558 54.587 50.0241 55.0201 50.0241 56.3028V61.9933H47.6771V52.5817H49.9695V53.4481C50.5841 52.7989 51.4517 52.4727 52.3187 52.4727C53.2585 52.4727 54.0168 52.7812 54.5412 53.3054C55.2994 54.0626 55.4987 54.9489 55.4987 55.9776V61.9933H53.1495Z" fill="#16A9E1"/>
<path d="M61.2272 58.0197C61.2272 59.23 61.9675 60.1139 63.2868 60.1139C64.3167 60.1139 64.8212 59.8266 65.4178 59.23L66.8464 60.6204C65.8877 61.5782 64.9659 62.1013 63.2678 62.1013C61.0456 62.1013 58.9146 61.0903 58.9146 57.2781C58.9146 54.2063 60.5757 52.4727 63.0153 52.4727C65.635 52.4727 67.1159 54.3888 67.1159 56.9709V58.0197H61.2272ZM64.5861 55.3986C64.3346 54.8398 63.8092 54.4244 63.0153 54.4244C62.2202 54.4244 61.6968 54.8398 61.4443 55.3986C61.2994 55.7417 61.2448 55.9945 61.2272 56.4119H64.8032C64.7856 55.9945 64.731 55.7417 64.5861 55.3986Z" fill="#16A9E1"/>
<path d="M75.1213 62.1054C73.0614 62.1054 71.0385 60.8416 71.0385 57.4092C71.0385 53.9765 73.0614 52.7305 75.1213 52.7305C76.3861 52.7305 77.27 53.0913 78.1374 54.0121L76.8726 55.2413C76.2959 54.6088 75.8439 54.375 75.1213 54.375C74.4166 54.375 73.821 54.6633 73.4223 55.1867C73.0258 55.6922 72.8799 56.3437 72.8799 57.4092C72.8799 58.4758 73.0258 59.1426 73.4223 59.6481C73.821 60.1738 74.4166 60.4621 75.1213 60.4621C75.8439 60.4621 76.2959 60.2271 76.8726 59.5958L78.1374 60.805C77.27 61.7259 76.3861 62.1054 75.1213 62.1054Z" fill="#222020"/>
<path d="M84.445 62.0009C82.6925 62.0009 81.9332 60.8263 81.9332 59.4724V49.1367H83.777V59.3633C83.777 60.068 84.0287 60.4288 84.769 60.4288H85.5828V62.0009H84.445Z" fill="#222020"/>
<path d="M88.9072 51.0287V49.0781H90.859V51.0287H88.9072ZM88.962 61.9946V52.837H90.8045V61.9946H88.962Z" fill="#222020"/>
<path d="M98.701 62.1054C96.6413 62.1054 94.6171 60.8416 94.6171 57.4092C94.6171 53.9765 96.6413 52.7305 98.701 52.7305C99.9647 52.7305 100.851 53.0913 101.717 54.0121L100.454 55.2413C99.8745 54.6088 99.4236 54.375 98.701 54.375C97.9952 54.375 97.3993 54.6633 97.0019 55.1867C96.6045 55.6922 96.4608 56.3437 96.4608 57.4092C96.4608 58.4758 96.6045 59.1426 97.0019 59.6481C97.3993 60.1738 97.9952 60.4621 98.701 60.4621C99.4236 60.4621 99.8745 60.2271 100.454 59.5958L101.717 60.805C100.851 61.7259 99.9647 62.1054 98.701 62.1054Z" fill="#222020"/>
<path d="M110.968 62.0009L108.403 57.7733L107.048 59.3088V62.0009H105.205V49.1367H107.048V57.0696L110.607 52.8433H112.847L109.667 56.4361L113.245 62.0009H110.968Z" fill="#222020"/>
</svg>
