<svg width="115" height="80" viewBox="0 0 115 80" fill="none" xmlns="http://www.w3.org/2000/svg">
<g clip-path="url(#clip0)">
<path d="M13.1688 43.9675C11.3318 44.9634 10.5129 43.0379 10.5129 43.0379C10.5129 43.0379 8.10046 38.9655 7.45862 37.2171C7.1709 36.4203 7.41436 36.3539 7.67994 36.1769C8.18899 35.8227 8.65377 36.4646 8.65377 36.4646C8.65377 36.4646 10.3137 38.036 11.1326 38.7664C12.2392 39.7402 13.368 39.1205 13.368 39.1205L30.7419 31.4627C27.7319 27.5895 22.6193 25 16.7985 25C7.52502 25 0 31.5512 0 39.5631C0 43.9232 2.19111 47.7964 5.68803 50.4965L5.04619 54.923C5.00192 55.255 5.15685 55.5649 5.44457 55.7419C5.57737 55.8083 5.73229 55.8526 5.86509 55.8526C6.04215 55.8526 6.19707 55.8083 6.32987 55.7198L10.1145 53.0196C12.1728 53.7721 14.3861 54.2148 16.7764 54.2148C26.0498 54.2148 33.5749 47.6636 33.5749 39.6517C33.5749 37.3056 32.9552 35.1145 31.8485 33.189C27.1565 35.8891 14.6738 43.1486 13.1688 43.9675Z" fill="#35B34A"/>
<path d="M48.9205 38.814L48.9204 38.8144L46.7957 46.4058L46.7752 46.4788H46.6994H45.9026H45.8255L45.8059 46.4043L43.15 36.3341L43.1169 36.2086H43.2467H43.8885H43.9659L43.9853 36.2835L46.11 44.4723L48.9205 38.814ZM48.9205 38.814C49.0094 38.4918 49.1092 38.0979 49.1867 37.7851C49.2035 37.7175 49.2192 37.6537 49.2335 37.5951M48.9205 38.814L49.2335 37.5951M49.2335 37.5951C49.2479 37.6537 49.2636 37.7175 49.2803 37.7851C49.3578 38.0979 49.4577 38.4918 49.5466 38.814L49.5467 38.8144L51.6714 46.4058L51.6918 46.4788H51.7677H52.5644H52.641L52.661 46.4049L55.3833 36.3347L55.4174 36.2086H55.2867H54.6449H54.5681L54.5483 36.2827L52.3572 44.4717L52.357 44.4723C52.2901 44.7289 52.2289 45.0017 52.1845 45.2099C52.1794 45.2336 52.1745 45.2565 52.1699 45.2785C52.1644 45.2559 52.1586 45.2322 52.1526 45.2074C52.1384 45.148 52.1231 45.083 52.107 45.0143C52.0674 44.8452 52.0225 44.6542 51.9751 44.4723L51.9751 44.4723L51.9746 44.4705L49.6728 36.2815L49.6523 36.2086H49.5766H48.8905H48.8147L48.7942 36.2815L46.4927 44.4695C46.4147 44.7258 46.3425 44.9982 46.2898 45.2062C46.2883 45.2119 46.2869 45.2177 46.2855 45.2233C46.2845 45.2189 46.2835 45.2144 46.2826 45.2099C46.2382 45.0017 46.177 44.729 46.11 44.4725L49.2335 37.5951Z" fill="black" stroke="black" stroke-width="0.2"/>
<path d="M62.5461 42.8091H62.6308L62.6447 42.7256L62.5461 42.7091L62.6447 42.7256L62.6447 42.7255L62.6447 42.7255L62.6447 42.7253L62.6448 42.7247L62.6452 42.7223L62.6467 42.7134L62.6518 42.6808C62.656 42.6533 62.6617 42.6153 62.6673 42.573C62.6784 42.4902 62.6903 42.3846 62.6903 42.3108C62.6903 41.4295 62.4362 40.5868 61.9264 39.9623C61.4145 39.3354 60.6499 38.9352 59.6467 38.9352C57.7771 38.9352 56.0713 40.352 56.1162 42.7986C56.1167 45.157 57.8453 46.6823 59.9123 46.6823C60.7086 46.6823 61.3618 46.4264 61.8149 46.1715C62.0416 46.044 62.2189 45.9164 62.3399 45.8203C62.4004 45.7722 62.4469 45.732 62.4786 45.7035C62.4944 45.6892 62.5066 45.6779 62.5149 45.67L62.5245 45.6608L62.5271 45.6582L62.5278 45.6575L62.5281 45.6572L62.5282 45.6571L62.4575 45.5863L62.5282 45.6571L62.5856 45.5997L62.5413 45.5317L62.2093 45.0227L62.1402 44.9168L62.0532 45.0083L62.0531 45.0083L62.0531 45.0083L62.0531 45.0084L62.0529 45.0086L62.0514 45.0101L62.0449 45.0167C62.0388 45.0227 62.0296 45.0318 62.0171 45.0436C61.9922 45.0671 61.9547 45.1011 61.9053 45.1422C61.8064 45.2244 61.6601 45.3345 61.4719 45.4447C61.0953 45.6653 60.5538 45.8847 59.8902 45.8847C59.0617 45.8847 58.3133 45.5945 57.7724 45.0562C57.2498 44.5362 56.9143 43.7782 56.8927 42.8091H62.5461ZM59.6467 39.7327C60.2226 39.7327 60.7545 39.919 61.1504 40.3123C61.5302 40.6896 61.7941 41.2666 61.8435 42.078H56.9547C57.2486 40.5218 58.3977 39.7327 59.6467 39.7327Z" fill="black" stroke="black" stroke-width="0.2"/>
<path d="M73.7895 36.2555H73.6897L73.6895 36.3552L73.6673 46.4034L73.6671 46.5036H73.7673H74.387H74.487V46.4036V42.8845C74.487 42.5612 74.5302 42.2155 74.5947 41.9352C74.9603 40.6048 76.0954 39.7089 77.4192 39.7089C77.8171 39.7089 78.1152 39.7802 78.3397 39.9001C78.563 40.0194 78.7196 40.1901 78.8302 40.3998C79.055 40.8259 79.0898 41.4103 79.0898 42.0435V46.4036V46.5036H79.1898H79.8095H79.9095V46.4036V41.8664C79.9095 41.0086 79.7823 40.2789 79.4032 39.7628C79.0189 39.2396 78.3916 38.9556 77.4413 38.9556C75.9275 38.9556 74.9498 39.8742 74.5071 40.5987C74.5084 40.565 74.5092 40.5301 74.5092 40.4942V36.3555V36.2555H74.4092H73.7895Z" fill="black" stroke="black" stroke-width="0.2"/>
<path d="M86.1325 45.2634C86.1295 45.3208 86.1278 45.3825 86.1278 45.4483V46.3779V46.4779H86.2278H86.8475H86.9475V46.3779V41.7301C86.9475 40.8186 86.7224 40.1096 86.2702 39.6282C85.817 39.1458 85.1506 38.9078 84.3022 38.9078C83.4992 38.9078 82.8757 39.1115 82.4522 39.3162C82.2405 39.4184 82.0787 39.521 81.9693 39.5985C81.9146 39.6372 81.8729 39.6698 81.8446 39.6929C81.8304 39.7045 81.8196 39.7137 81.8121 39.7202L81.8034 39.7278L81.801 39.73L81.8003 39.7307L81.8 39.7309L81.7999 39.731C81.7999 39.7311 81.7999 39.7311 81.8677 39.8046L81.7999 39.7311L81.7358 39.7902L81.7856 39.8617L82.1397 40.3707L82.203 40.4618L82.287 40.3895L82.287 40.3895L82.287 40.3894L82.2871 40.3894L82.2872 40.3893L82.2884 40.3882L82.2944 40.3833C82.2998 40.3789 82.3083 40.372 82.3197 40.3632C82.3425 40.3456 82.3769 40.32 82.4223 40.2891C82.5132 40.2271 82.6479 40.144 82.8212 40.0607C83.1679 39.8941 83.6677 39.7275 84.2801 39.7275C84.8402 39.7275 85.3033 39.8675 85.6267 40.1832C85.9497 40.4985 86.1499 41.0052 86.1499 41.7744V41.9178H85.7851C85.1663 41.9178 84.0392 41.9283 83.0594 42.2492C82.5686 42.41 82.1077 42.6509 81.7658 43.0137C81.422 43.3787 81.2038 43.8619 81.1923 44.4948L81.1922 44.4948V44.4966C81.1922 45.2501 81.5303 45.7993 82.0189 46.157C82.5041 46.5123 83.1347 46.6771 83.7268 46.6771C84.703 46.6771 85.3591 46.2163 85.7684 45.7584C85.9234 45.585 86.0433 45.4117 86.1325 45.2634ZM86.1499 42.9695C86.1499 43.6707 85.9391 44.4135 85.5402 44.9784C85.1427 45.5414 84.5621 45.9238 83.8153 45.9238C83.2296 45.9238 82.796 45.7327 82.5039 45.4535C82.2116 45.1741 82.0555 44.8013 82.0341 44.4275C82.0347 43.9908 82.1885 43.6688 82.4347 43.4268C82.6843 43.1814 83.034 43.0134 83.4307 42.8996C84.2255 42.6718 85.174 42.6711 85.7851 42.6711H86.1499V42.9695Z" fill="black" stroke="black" stroke-width="0.2"/>
<path d="M89.7583 43.7478V39.9082H91.5174H91.6174V39.8082V39.2771V39.1771H91.5174H89.7583V37.2188V37.1187H89.6583H89.0386H88.9386V37.2188V39.1771H88.109H88.009V39.2771V39.8082V39.9082H88.109H88.9391L88.9607 43.8142C88.9607 43.8143 88.9607 43.8144 88.9607 43.8145C88.9608 45.0221 89.3572 45.7187 89.8687 46.1097C90.3751 46.4968 90.9763 46.5701 91.3625 46.5701C91.4798 46.5701 91.5743 46.5584 91.6404 46.5464C91.6735 46.5403 91.6994 46.5343 91.7176 46.5295C91.7267 46.5271 91.7339 46.5251 91.739 46.5236L91.7452 46.5217L91.7471 46.5211L91.7477 46.5209L91.748 46.5208L91.7481 46.5207L91.7482 46.5207L91.7166 46.4258L91.7482 46.5207L91.8166 46.4979V46.4258V45.8504V45.7027L91.6802 45.7573L91.6801 45.7573L91.6801 45.7573L91.6799 45.7574L91.6784 45.7579C91.6763 45.7586 91.6726 45.7599 91.6671 45.7615C91.6562 45.7648 91.6385 45.7696 91.614 45.7745C91.565 45.7843 91.4886 45.7947 91.3846 45.7947C91.1085 45.7947 90.7039 45.7359 90.3696 45.4581C90.0388 45.1833 89.7583 44.6785 89.7583 43.7478Z" fill="black" stroke="black" stroke-width="0.2"/>
<path d="M95.5677 36.2555H95.4677V36.3555V46.4036V46.5036H95.5677H96.1875H96.2875V46.4036V42.3427H98.8876C99.7936 42.3427 100.583 42.0594 101.147 41.5328C101.712 41.0056 102.042 40.242 102.042 39.2991C102.042 38.3561 101.712 37.5926 101.147 37.0653C100.583 36.5388 99.7936 36.2555 98.8876 36.2555H95.5677ZM101.178 39.2991C101.178 40.0299 100.947 40.5937 100.548 40.9752C100.147 41.3573 99.5657 41.5672 98.8433 41.5672H96.2875V37.0309H98.8433C99.5543 37.0309 100.136 37.2407 100.54 37.6232C100.942 38.005 101.178 38.5689 101.178 39.2991Z" fill="black" stroke="black" stroke-width="0.2"/>
<path d="M106.981 45.2634C106.978 45.3208 106.977 45.3825 106.977 45.4483V46.3779V46.4779H107.077H107.674H107.774V46.3779V41.7301C107.774 40.8186 107.549 40.1096 107.097 39.6282C106.644 39.1458 105.977 38.9078 105.129 38.9078C104.326 38.9078 103.702 39.1115 103.279 39.3162C103.067 39.4184 102.905 39.521 102.796 39.5985C102.741 39.6372 102.7 39.6698 102.671 39.6929C102.657 39.7045 102.646 39.7137 102.639 39.7202L102.63 39.7278L102.628 39.73L102.627 39.7307L102.627 39.7309L102.627 39.731C102.627 39.7311 102.626 39.7311 102.694 39.8046L102.626 39.7311L102.562 39.7902L102.612 39.8617L102.966 40.3707L103.03 40.4618L103.114 40.3895L103.114 40.3895L103.114 40.3894L103.114 40.3894L103.114 40.3893L103.115 40.3882L103.121 40.3833C103.126 40.3789 103.135 40.372 103.146 40.3632C103.169 40.3456 103.204 40.32 103.249 40.2891C103.34 40.2271 103.475 40.144 103.648 40.0607C103.995 39.8941 104.494 39.7275 105.107 39.7275C105.667 39.7275 106.13 39.8675 106.453 40.1832C106.776 40.4985 106.977 41.0052 106.977 41.7744V41.9178H106.612C105.96 41.9178 104.827 41.9282 103.855 42.2493C103.368 42.4102 102.915 42.6513 102.582 43.0147C102.247 43.3804 102.041 43.864 102.041 44.4966C102.041 45.2501 102.379 45.7993 102.868 46.157C103.353 46.5123 103.983 46.6771 104.576 46.6771C105.552 46.6771 106.208 46.2163 106.617 45.7584C106.772 45.585 106.892 45.4117 106.981 45.2634ZM106.932 42.9695C106.932 43.6707 106.721 44.4135 106.323 44.9784C105.925 45.5414 105.344 45.9238 104.598 45.9238C104.012 45.9238 103.578 45.7327 103.286 45.4535C102.994 45.1741 102.838 44.8013 102.816 44.4275C102.817 43.9908 102.971 43.6688 103.217 43.4268C103.467 43.1814 103.816 43.0134 104.213 42.8996C105.008 42.6718 105.956 42.6711 106.567 42.6711H106.932V42.9695Z" fill="black" stroke="black" stroke-width="0.2"/>
<path d="M108.692 48.4526L108.692 48.4526L108.692 48.4526L108.692 48.4526L108.692 48.4525L108.6 48.3704L108.539 48.4782L108.251 48.9872L108.211 49.0588L108.273 49.1124L108.338 49.0364L108.273 49.1124L108.273 49.1125L108.273 49.1126L108.274 49.113L108.275 49.1142L108.28 49.1183C108.284 49.1218 108.29 49.1266 108.298 49.1326C108.314 49.1445 108.336 49.1612 108.365 49.1811C108.422 49.2207 108.506 49.2731 108.612 49.3253C108.824 49.4297 109.127 49.5348 109.489 49.5348C110.449 49.5348 111.075 48.9227 111.418 48.1472L111.418 48.1472L111.418 48.1452L115.092 39.2922L115.15 39.1539H115H114.358H114.291L114.266 39.2158L111.898 44.9703L111.897 44.9703L111.896 44.9732C111.83 45.1508 111.769 45.3226 111.724 45.4502C111.68 45.3226 111.619 45.1508 111.552 44.9732L111.552 44.9732L111.551 44.9703L109.183 39.2158L109.158 39.1539H109.091H108.449H108.299L108.357 39.2925L111.328 46.4023L110.836 47.5581C110.836 47.5582 110.836 47.5583 110.836 47.5584C110.694 47.8859 110.522 48.1943 110.307 48.4196C110.094 48.6432 109.842 48.7815 109.533 48.7815C109.301 48.7815 109.091 48.7005 108.936 48.6165C108.859 48.5748 108.798 48.5331 108.755 48.5021C108.734 48.4866 108.718 48.4738 108.707 48.4651L108.695 48.4553L108.693 48.453L108.692 48.4526Z" fill="black" stroke="black" stroke-width="0.2"/>
<path d="M70.9882 45.586L70.9438 45.5342L70.8794 45.5566C70.374 45.7324 69.7889 45.9052 69.0753 45.9052C66.614 45.9052 64.7488 43.8763 64.7488 41.291C64.7488 38.7521 66.5677 36.8317 69.0089 36.8317C69.8984 36.8317 70.6356 37.0704 71.1553 37.3302L71.2284 37.3667L71.2787 37.3024L71.6771 36.7933L71.7548 36.6941L71.6405 36.641C71.0112 36.3488 70.1336 36.0562 69.0089 36.0562C66.1181 36.0562 63.907 38.339 63.907 41.291C63.907 44.2617 66.0706 46.6806 69.0753 46.6806C69.9994 46.6806 70.7653 46.4552 71.3496 46.2079L71.4756 46.1546L71.3866 46.0508L70.9882 45.586Z" fill="black" stroke="black" stroke-width="0.2"/>
</g>
<defs>
<clipPath id="clip0">
<rect width="115" height="80" fill="white"/>
</clipPath>
</defs>
</svg>
