<svg width="115" height="80" viewBox="0 0 115 80" fill="none" xmlns="http://www.w3.org/2000/svg">
<path d="M115 56.8571H0V24H115V56.8571Z" fill="black"/>
<path d="M40.9177 30.3896C38.2015 30.3896 36.6515 31.4931 36.6515 33.4322C36.6515 34.6343 37.1526 35.5046 38.5814 35.9309L41.1886 36.6958C41.5366 36.7991 41.815 36.9929 41.815 37.3417C41.815 37.7557 41.4588 38.1066 40.9177 38.1066C40.5703 38.1066 40.3489 37.9815 40.2067 37.8006C40.0651 37.6068 40.0035 37.3451 40.0035 37.0867H36.4822C36.4822 39.5167 38.5421 40.2143 40.7823 40.2143C43.4084 40.2143 45.2517 39.2556 45.2517 36.9677C45.2517 35.8432 44.7465 35.011 43.5756 34.5201C42.6357 34.1196 41.3382 33.8599 40.6299 33.6532C40.2432 33.5369 40.0204 33.3941 40.0204 33.0583C40.0204 32.7734 40.2744 32.5144 40.8669 32.5144C41.343 32.5144 41.6667 32.7142 41.6795 33.2962H44.9808C44.9808 31.1246 43.235 30.3896 40.9177 30.3896ZM91.6723 30.4576V51.1777H92.8404V30.4576H91.6723ZM10.9525 30.6446L12.9671 39.9763H16.9625L17.8259 33.9252H17.8428L18.7062 39.9763H22.7016L24.7162 30.6446H21.4149L20.6362 36.5088H20.6023L19.7389 30.6446H15.9298L15.0664 36.5088H15.0494L14.2538 30.6446H10.9525ZM26.9678 30.6446V39.9763H34.1459V37.5456H30.4891V36.4918H33.7565V34.0611H30.4891V33.0753H34.0274V30.6446H26.9678ZM47.3509 30.6446V33.1433H49.6533V39.9763H53.327V33.1433H55.6294V30.6446H47.3509ZM58.1181 30.6446V39.9763H65.3131V37.5456H61.6563V36.4918H64.9237V34.0611H61.6563V33.0753H65.1946V30.6446H58.1181ZM68.0387 30.6446V39.9763H71.6447V36.6448H72.0679C72.6598 36.6448 72.888 36.8256 72.9652 37.2907C73.0939 38.0923 73.2036 39.278 73.4223 39.9763H77.0283C76.6037 38.5669 76.6416 37.2417 76.4358 36.4408C76.2556 35.7296 75.7619 35.3285 74.8613 35.251V35.234C76.2516 34.8974 76.7066 34.0802 76.7066 33.0073C76.7066 31.249 75.5365 30.6446 73.5408 30.6446H68.0387ZM79.6016 30.6446V39.9763H82.5812V34.2821H82.615L84.5788 39.9763H88.9974V30.6446H86.0009V36.2878H85.984L84.0202 30.6446H79.6016ZM100.002 30.6446V51.1437H101.17V30.6446H100.002ZM71.6447 32.7693H71.9833C72.7045 32.7693 73.1684 32.9005 73.1684 33.5852C73.1684 34.2835 72.6578 34.5371 71.9494 34.5371H71.6447V32.7693ZM72.0172 41.5571C68.8114 41.5571 67.2092 43.5614 67.2092 46.4694C67.2092 49.378 68.8114 51.3817 72.0172 51.3817C75.2229 51.3817 76.8082 49.378 76.8082 46.4694C76.8082 43.5614 75.2229 41.5571 72.0172 41.5571ZM36.3467 41.7951V47.9992C36.3467 50.2483 37.9584 51.3817 40.7653 51.3817C43.5716 51.3817 45.1839 50.2483 45.1839 47.9992V41.7951H41.4933V47.8462C41.4933 48.5825 41.1513 48.8661 40.7653 48.8661C40.3793 48.8661 40.0374 48.5825 40.0374 47.8462V41.7951H36.3467ZM48.2312 41.7951V51.1267H51.2278V45.4495H51.2447L53.2085 51.1267H57.6271V41.7951H54.6475V47.4553H54.6137L52.6498 41.7951H48.2312ZM60.7421 41.7951V51.1267H64.4328V41.7951H60.7421ZM79.6016 41.7951V51.1267H82.5812V45.4495H82.615L84.5788 51.1267H88.9974V41.7951H86.0009V47.4553H85.984L84.0202 41.7951H79.6016ZM72.0172 43.9877C72.6097 43.9877 72.9991 44.3631 72.9991 46.4694C72.9991 48.6281 72.5833 48.951 72.0172 48.9511C71.451 48.9511 71.0183 48.6281 71.0183 46.4694C71.0183 44.3631 71.4253 43.9877 72.0172 43.9877Z" fill="#FFDE38"/>
</svg>
