<svg width="115" height="80" viewBox="0 0 115 80" fill="none" xmlns="http://www.w3.org/2000/svg">
<path fill-rule="evenodd" clip-rule="evenodd" d="M52.9203 29.0248C52.9203 29.0248 47.9373 29.1238 46.8649 32.6607V29.0248C46.8649 29.0248 41.1654 28.4023 41.1654 33.4436C41.1654 38.4849 41.2255 60.975 41.2255 60.975C41.2255 60.975 46.8926 61.5645 46.8926 56.3911V47.4309C46.8926 47.4309 48.7739 50.7037 52.3517 50.7037C56.4704 50.7037 60.7646 47.6243 60.7646 39.046C60.7692 28.8927 52.9203 29.0248 52.9203 29.0248ZM50.2346 45.6955C48.5937 45.6955 46.6245 43.3705 46.6245 39.3101C46.6245 35.2497 48.5659 33.4813 50.7709 33.4813C50.7709 33.4813 55.0651 33.6794 55.0651 39.1781C55.0697 44.6768 52.0836 45.6955 50.2346 45.6955ZM8.91443 45.04H18.3027C19.731 45.04 20.9005 46.2378 20.9005 47.6667C20.9005 49.1286 19.731 50.3265 18.3027 50.3265H2.60938C1.92526 50.3595 1.24575 50.0624 0.755773 49.5625C-0.251924 48.5297 -0.251924 46.8367 0.755773 45.8039L16.4814 29.7746C17.4891 28.7418 19.1439 28.7418 20.1516 29.7746C21.1593 30.8074 21.1593 32.5004 20.1516 33.5332L8.91443 45.04ZM7.98069 34.1745H2.65098C1.19491 34.1745 0.00231083 32.9861 0.00231083 31.5713C0.00231083 30.1566 1.19491 29.0012 2.65098 29.0012H13.3104L7.98069 34.1745ZM24.0299 32.0665C25.3103 29.0672 30.9174 29.0012 30.9174 29.0012C39.5984 29.0012 39.8896 34.9385 39.8572 34.9385V45.4597C39.8572 50.3972 34.1531 49.8172 34.1531 49.8172V46.8461C32.3272 50.0105 28.4813 50.3312 28.4813 50.3312C21.5615 50.3312 21.5615 44.4269 21.5615 44.4269C21.5615 35.3582 34.2455 36.8437 34.2455 36.8437C34.2455 36.8437 34.6616 32.972 30.1454 33.0663C27.8712 33.1653 25.6616 33.9057 23.8034 35.1979C23.6462 33.9717 24.0299 32.0665 24.0299 32.0665ZM27.1084 43.1347C27.1084 43.1347 27.1732 46.2331 30.1177 46.134C34.828 46.0067 34.3472 40.8098 34.2825 40.8098C34.2825 40.0364 30.6631 40.4891 30.6631 40.4891C26.6924 40.8758 27.1084 43.1347 27.1084 43.1347ZM67.7723 32.6607C68.8447 29.1238 73.8277 29.0248 73.8277 29.0248C73.8277 29.0248 81.672 28.8927 81.672 39.046C81.672 47.6243 77.3778 50.7037 73.2591 50.7037C69.6814 50.7037 67.8 47.4309 67.8 47.4309V56.3958C67.8 61.5692 62.1329 60.9797 62.1329 60.9797C62.1329 60.9797 62.0728 38.4943 62.0728 33.4483C62.0728 28.407 67.7723 29.0295 67.7723 29.0295V32.6607ZM67.5319 39.3101C67.5319 43.3705 69.5011 45.6955 71.1421 45.6955C72.991 45.6955 75.9771 44.6815 75.9771 39.1781C75.9771 33.6746 71.6829 33.4813 71.6829 33.4813C69.4733 33.4813 67.5319 35.245 67.5319 39.3101ZM97.0833 30.1471C95.7428 29.3926 94.222 29.0012 92.6966 29.0012C87.3068 29.0012 82.9802 33.7784 82.9802 39.6685C82.9802 45.5587 87.3345 50.3359 92.6966 50.3359C92.974 50.3359 93.2051 50.3076 93.4501 50.2793L93.5194 50.2699C94.7675 50.0718 95.9878 49.7134 97.1157 49.1239C97.9385 48.6665 98.7289 48.044 99.3992 47.3224C100.102 46.4736 100.587 45.4597 100.832 44.3467H100.009C100.009 44.3467 98.4886 46.0161 93.7968 46.0161C89.105 46.0161 88.467 40.9796 88.467 40.9796H101.23C101.35 39.4375 101.59 32.8635 97.0833 30.1471ZM96.0202 37.5747H88.467C88.467 37.5747 88.652 32.8965 92.4285 32.8965C96.2004 32.8965 96.0202 37.5747 96.0202 37.5747ZM108.33 40.4702C108.33 36.3674 110.239 34.5848 112.721 34.5848C113.525 34.6508 114.297 34.9149 115 35.3111V29.0248C113.692 29.0248 109.772 29.0248 108.334 32.6607V29.0248C108.334 29.0248 102.589 28.3975 102.589 33.4907C102.589 38.5839 102.621 50.3218 102.621 50.3218C102.621 50.3218 108.367 50.7509 108.367 45.5257C108.33 40.9984 108.33 40.5693 108.33 40.4702Z" fill="#215FAB"/>
</svg>
