<svg width="115" height="80" viewBox="0 0 115 80" fill="none" xmlns="http://www.w3.org/2000/svg">
<path d="M11.1965 21.8775L0.683547 21.7807L0.683536 28.7553H18.1063L0 51.964V57.8662H11.1965V64.6641H17.9143V57.8662H29.3348C29.4307 57.5943 29.4644 56.861 28.8566 56.1892C27.8489 55.0696 27.0475 53.8994 26.3117 52.4279C25.9758 51.7721 25.7207 50.9866 25.6248 50.9226C23.3758 50.8196 10.4377 50.8463 10.4447 50.7644L28.567 27.4134V21.8775H17.9143V14.9996H11.1965V21.8775Z" fill="#5E1BC7"/>
<path d="M59.7093 18.6306C59.5494 18.6946 59.5014 22.2295 59.5014 35.6173C59.5014 53.7076 59.4854 53.4037 60.2851 54.9552C61.0049 56.3468 62.7643 57.5944 64.7317 58.1062C65.8194 58.3941 69.0184 58.4261 70.25 58.1702C71.8335 57.8343 72.1374 57.3545 71.5136 56.1229C71.1137 55.3551 70.5859 53.6756 70.4579 52.7479C70.282 51.6443 70.0581 51.4683 68.7145 51.5003C68.0747 51.5163 67.4669 51.4683 67.3549 51.4043C66.6991 50.9885 66.6991 50.8765 66.6991 34.6736C66.6991 24.2609 66.6511 19.0305 66.5392 18.8226C66.3792 18.5346 66.1713 18.5187 63.1322 18.5346C61.3568 18.5346 59.8053 18.5826 59.7093 18.6306Z" fill="#5E1BC7"/>
<path d="M74.3766 18.6802C74.1687 18.8082 74.1367 20.8555 74.1367 35.5069C74.1367 51.294 74.1527 52.2537 74.4406 53.3573C74.9845 55.5327 76.2161 56.8602 78.5513 57.8359C79.4471 58.2038 79.8469 58.2678 81.6544 58.3158C84.0696 58.3798 85.3012 58.2038 86.5328 57.58C87.7485 56.9882 87.7804 56.5723 86.7408 55.0528C86.3249 54.445 85.6851 53.4053 85.3332 52.7495L84.6934 51.5499L83.5258 51.5339C82.0702 51.5019 81.9263 51.4379 81.6544 50.7502C81.4464 50.2863 81.4144 47.903 81.4144 34.6752C81.4144 24.2625 81.3665 19.0321 81.2545 18.8242C81.0945 18.5363 80.8866 18.5203 77.8476 18.5203C76.0721 18.5203 74.5046 18.6002 74.3766 18.6802Z" fill="#5E1BC7"/>
<path d="M39.5875 28.6788C39.5075 28.7108 38.8837 28.8548 38.2279 28.9987C34.1172 29.9424 30.4864 33.0934 28.9509 37.0922C28.1031 39.2995 27.7992 41.0109 27.7832 43.5541C27.7672 47.121 28.487 49.7442 30.1345 52.2394C31.9899 55.0385 34.709 56.9419 38.2279 57.9016C39.4276 58.2215 39.9554 58.2695 42.7065 58.2695C45.4257 58.2695 45.9855 58.2215 47.1212 57.9176C49.9363 57.1339 52.3355 55.8383 54.2709 53.9989C55.5025 52.8472 55.4865 52.5273 54.2389 51.5676C53.7271 51.1678 52.7994 50.304 52.1916 49.6322C51.4238 48.8165 50.96 48.4326 50.72 48.4326C50.4961 48.4326 49.9843 48.7525 49.4884 49.2324C47.7769 50.7839 45.6176 51.5196 42.7865 51.5037C40.1953 51.4877 38.3079 50.8159 37.1083 49.4403C36.5005 48.7525 35.7327 47.185 35.5728 46.3053L35.4768 45.7135H45.4417C50.928 45.7135 55.5185 45.6495 55.6305 45.5695C56.1583 45.2336 56.2863 42.9143 55.9024 40.3871C54.9907 34.341 51.3758 30.2783 45.6976 28.9187C44.6899 28.6788 43.8582 28.5988 42.0667 28.6148C40.7871 28.6148 39.6835 28.6468 39.5875 28.6788ZM43.8582 34.8529C45.0258 35.0928 46.4654 35.8925 47.1371 36.6603C47.761 37.3641 48.4008 38.6277 48.5607 39.4434L48.6727 39.9553H42.1467H35.6368L35.7487 39.4434C36.2286 37.2841 38.084 35.4767 40.3873 34.9009C41.4109 34.6449 42.7865 34.6289 43.8582 34.8529Z" fill="#5E1BC7"/>
<path d="M97.7295 28.8181C92.0512 30.0817 88.2124 34.0804 87.0128 39.9826C86.293 43.4695 86.6929 47.5322 88.0525 50.4433C89.9079 54.474 93.2829 57.0812 97.8894 58.0249C99.3449 58.3288 99.9208 58.3608 102.208 58.2968C104.143 58.2329 105.183 58.1209 106.079 57.881C108.814 57.1612 111.213 55.8496 113.053 54.0902C114.46 52.7306 114.46 52.6666 112.941 51.403C112.237 50.8272 111.293 49.9155 110.845 49.3876C109.806 48.188 109.534 48.172 108.366 49.2277C106.623 50.8112 104.543 51.515 101.648 51.499C97.5855 51.483 95.2182 49.7395 94.4505 46.2206L94.3385 45.8056H114.604C115.292 45.3097 115.036 40.0626 114.204 37.6313C114.044 37.1515 113.612 36.1918 113.261 35.52C111.389 31.9371 108.398 29.7138 104.239 28.8341C102.912 28.5462 98.9931 28.5462 97.7295 28.8181ZM102.72 34.8482C103.808 35.0881 104.927 35.6479 105.727 36.3677C106.399 36.9915 107.486 38.9589 107.486 39.5667V39.9506H94.4985L94.6104 39.5027C95.4422 36.0798 98.9611 34.0484 102.72 34.8482Z" fill="#5E1BC7"/>
</svg>
