<svg width="120" height="80" viewBox="0 0 120 80" fill="none" xmlns="http://www.w3.org/2000/svg">
<path d="M116 0H4C1.79086 0 0 1.79086 0 4V76C0 78.2091 1.79086 80 4 80H116C118.209 80 120 78.2091 120 76V4C120 1.79086 118.209 0 116 0Z" fill="#FFFFFE"/>
<path fill-rule="evenodd" clip-rule="evenodd" d="M11.2728 48.7332L12.1545 56H43L41.9916 47.6807H27.6102L27.4848 46.648L40.7324 37.2801L39.8482 30H9L10.0097 38.3207H24.4162L24.5428 39.3599L11.2728 48.7346V48.7332Z" fill="#1A0826"/>
<path fill-rule="evenodd" clip-rule="evenodd" d="M44.0026 30L47.1544 56H78L74.8455 30H44H44.0026Z" fill="#AA8FFF"/>
<path fill-rule="evenodd" clip-rule="evenodd" d="M46.8057 26.8667C48.8464 28.6665 51.7926 28.6665 53.3825 26.8667C54.9751 25.0683 54.6096 22.1493 52.5676 20.3508C50.5269 18.5497 47.5819 18.5497 45.9907 20.3508C44.3995 22.1493 44.7636 25.0683 46.8057 26.8667ZM99.3541 43.6448L89.5907 43.6553L88.8251 37.4831L98.6392 37.491C100.946 37.5174 102.128 38.8057 102.32 40.5672C102.44 41.701 101.918 43.6448 99.3541 43.6448ZM110.885 39.5404C110.164 33.758 105.58 30.2549 99.3515 30.28H78.6003L81.7894 56H91.1232L90.4844 50.8557H100.364C108.138 50.8557 111.697 46.055 110.887 39.5404H110.885Z" fill="#1A0826"/>
</svg>
