<svg width="115" height="80" viewBox="0 0 115 80" fill="none" xmlns="http://www.w3.org/2000/svg">
<path fill-rule="evenodd" clip-rule="evenodd" d="M2.58929 52.9192L3.59373 61.0991H38.7341L37.5853 51.7344H21.2015L21.0586 50.572L36.1508 40.0269L35.1434 31.832H0L1.15029 41.1983H17.5627L17.707 42.3681L2.58929 52.9208V52.9192Z" fill="#1A0826"/>
<path fill-rule="evenodd" clip-rule="evenodd" d="M39.2242 31.832L42.8179 61.0976H77.9884L74.3916 31.832H39.2212H39.2242Z" fill="#AA8FFF"/>
<path fill-rule="evenodd" clip-rule="evenodd" d="M42.63 27.9516C44.9306 29.9996 48.2521 29.9996 50.0445 27.9516C51.8399 25.9051 51.4279 22.5836 49.1258 20.5371C46.8252 18.4876 43.5051 18.4876 41.7113 20.5371C39.9174 22.5836 40.3279 25.9051 42.63 27.9516ZM101.871 47.0435L90.8641 47.0555L90.001 40.032L101.065 40.041C103.666 40.0711 104.998 41.5371 105.215 43.5415C105.35 44.8316 104.761 47.0435 101.871 47.0435ZM114.87 42.3731C114.058 35.7932 108.89 31.807 101.868 31.8356H78.474L82.0693 61.1026H92.5918L91.8716 55.2489H103.009C111.774 55.2489 115.786 49.7861 114.873 42.3731H114.87Z" fill="#1A0826"/>
</svg>
