<svg width="115" height="80" viewBox="0 0 115 80" fill="none" xmlns="http://www.w3.org/2000/svg">
<path d="M57 79C78.5391 79 96 61.5391 96 40C96 18.4609 78.5391 1 57 1C35.4609 1 18 18.4609 18 40C18 61.5391 35.4609 79 57 79Z" fill="white"/>
<path d="M96 40.0016V39.9294C96 34.9692 92.3877 30.8484 87.3125 30.8484C82.2405 30.8484 78.6987 34.8958 78.6987 39.8549V39.9289C78.6987 44.8878 82.3121 49.0074 87.3873 49.0074C92.4587 49.0074 96 44.9606 96 40.0016ZM73.3698 30.2341L70.2087 33.3188C68.3884 31.8158 66.3976 30.8482 63.8552 30.8482C58.9652 30.8482 55.4259 34.8587 55.4259 39.8547V39.9287C55.4259 44.924 58.9652 49.0073 63.8552 49.0073C66.4872 49.0073 68.3205 48.1026 70.1364 46.6101L73.1278 49.5334C70.7031 51.7591 67.9328 53.1276 63.7095 53.1276C56.2628 53.1276 50.7154 47.3292 50.7154 40.0009V39.9287C50.7154 32.6699 56.1572 26.7285 63.8928 26.7285C68.2736 26.7287 71.0353 28.1582 73.3698 30.2341ZM48.0342 52.6905H29.5656V49.1554L38.3605 41.6791C41.864 38.7262 43.1443 37.0858 43.1443 34.7867C43.1443 32.2706 41.3543 30.8126 39.0174 30.8126C36.6823 30.8126 35.0748 32.088 33.1051 34.6423L29.9287 32.162C32.375 28.7318 34.7835 26.8021 39.3456 26.8021C44.3479 26.8021 47.7774 29.8652 47.7774 34.4228V34.495C47.7774 38.5048 45.6614 40.6948 41.1357 44.3754L35.8766 48.7539H48.0336V52.6905H48.0342ZM94.366 28.5727C89.4749 12.6097 74.6136 1 57.0383 1C35.4785 1 18 18.4609 18 40.0016C18 61.5409 35.4785 79 57.0383 79C74.7001 79 89.6181 67.2756 94.4297 51.1913C92.4136 52.4104 90.0015 53.1284 87.312 53.1284C79.4648 53.1284 73.9915 47.1852 73.9915 40.0017V39.9295C73.9915 32.7448 79.5382 26.7294 87.3868 26.7294C90.0236 26.7287 92.3816 27.4107 94.366 28.5727Z" fill="#0095C3"/>
</svg>
