<svg width="115" height="80" viewBox="0 0 115 80" fill="none" xmlns="http://www.w3.org/2000/svg">
<g clip-path="url(#clip0)">
<path d="M15.8369 27.1484H15.8669L15.851 27.1243L15.8369 27.1484Z" fill="white"/>
<path d="M31.7008 38.4635C31.7008 47.029 24.6043 53.9727 15.8504 53.9727C7.09648 53.9727 0 47.029 0 38.4635C0 29.8986 7.09648 22.9543 15.8504 22.9543C24.6043 22.9543 31.7008 29.8986 31.7008 38.4635Z" fill="#002670"/>
<path d="M27.3719 38.4473C27.3719 32.2235 22.2259 27.1756 15.8678 27.1483L26.3559 43.0879C27.0086 41.6718 27.3719 40.1017 27.3719 38.4473Z" fill="#DF2739"/>
<path d="M8.85632 47.4648C10.792 48.8958 13.2027 49.7441 15.8161 49.7441C18.4039 49.7441 20.7932 48.913 22.7187 47.5077L15.8161 37.2009L8.85632 47.4648Z" fill="#DF2739"/>
<path d="M15.8161 27.1437C9.43475 27.1437 4.26086 32.2028 4.26086 38.4433C4.26086 40.1536 4.65026 41.7742 5.34522 43.2266L15.8369 27.1443C15.8297 27.1443 15.8232 27.1437 15.8161 27.1437Z" fill="#DF2739"/>
<path d="M26.3555 43.086L15.8674 27.1458H15.8371L5.34546 43.228C6.14862 44.9063 7.35961 46.3604 8.85595 47.465L15.8157 37.2011L22.719 47.5078C24.2843 46.3664 25.5434 44.8463 26.3555 43.086Z" fill="white"/>
<path d="M47.4688 40.9679L46.9849 35.2186H46.9415L44.2282 40.9679H47.4688ZM52.777 46.9004H47.9967L47.7809 44.3167H42.6344L41.4073 46.9004H36.1526L45.0676 31.116H50.2677L52.777 46.9004Z" fill="#002670"/>
<path d="M61.4878 44.2074C62.1191 44.2074 62.6667 43.8109 63.1298 43.0178C63.5923 42.2242 63.8242 41.2248 63.8242 40.0192C63.8242 38.7267 63.3105 38.0805 62.2844 38.0805C61.5377 38.0805 60.9385 38.5097 60.4861 39.3676C60.0343 40.2255 59.8078 41.1713 59.8078 42.2045C59.8078 42.8644 59.9784 43.3638 60.3196 43.7009C60.6597 44.0385 61.0497 44.2074 61.4878 44.2074ZM60.9599 36.2935C61.4622 35.9065 61.942 35.6294 62.3968 35.4642C62.8533 35.2995 63.4258 35.2168 64.1149 35.2168C65.4281 35.2168 66.4209 35.6621 67.0921 36.5521C67.7627 37.442 68.0986 38.5906 68.0986 39.9978C68.0986 41.8068 67.5962 43.4536 66.5909 44.9392C65.5862 46.4249 64.2581 47.168 62.6078 47.168C60.9058 47.168 59.6425 46.454 58.8173 45.026L58.3976 46.8987H54.3164L57.6759 31.1142H62.0579L60.9599 36.2935Z" fill="#002670"/>
<path d="M86.1657 35.4749L85.4981 38.6084H83.2051L82.3645 42.6462C82.3075 42.8181 82.2789 43.0012 82.2789 43.195C82.2789 43.7122 82.6196 43.9708 83.3021 43.9708C83.5173 43.9708 83.9691 43.9018 84.6587 43.7663L84.0012 46.8987C82.6808 47.0788 81.7118 47.168 81.0947 47.168C79.8671 47.168 78.9961 46.8737 78.4837 46.2851C77.97 45.6972 77.7132 45.0551 77.7132 44.3578C77.7132 44.1289 77.8172 43.5142 78.0259 42.5166L78.8445 38.6084H77.2721L77.9183 35.4749H79.5223L79.8992 33.6878L84.7978 31.2438L83.8942 35.4749H86.1657Z" fill="#002670"/>
<path d="M94.9628 41.7842C92.9457 42.1213 91.7614 42.4197 91.4095 42.6783C91.0581 42.9364 90.8822 43.2413 90.8822 43.5933C90.8822 43.9595 91.0076 44.2478 91.2597 44.4595C91.5099 44.6711 91.8328 44.7775 92.2275 44.7775C92.781 44.7775 93.3279 44.5528 93.8695 44.1045C94.4117 43.6557 94.7761 42.8823 94.9628 41.7842ZM87.8568 38.6078C88.1219 37.5241 88.7271 36.6876 89.6712 36.0991C90.6146 35.5105 92.0771 35.2162 94.0585 35.2162C96.3051 35.2162 97.8217 35.498 98.6076 36.0616C99.3935 36.6252 99.7865 37.445 99.7865 38.5216C99.7865 39.2404 99.5891 40.4205 99.1944 42.0636C98.8282 43.6224 98.6451 44.7062 98.6451 45.3155C98.6451 45.8333 98.7384 46.3601 98.9251 46.8987H94.6507C94.5502 46.4468 94.5003 46.0117 94.5003 45.5955C93.3511 46.6436 92.0706 47.168 90.6563 47.168C89.2134 47.168 88.176 46.8303 87.5441 46.1555C86.9127 45.4814 86.597 44.6978 86.597 43.8079C86.597 42.7967 86.8782 42.025 87.4424 41.4941C88.0054 40.9626 88.7004 40.6018 89.5255 40.4115C90.3507 40.2219 91.4778 40.0548 92.9058 39.911C94.1769 39.7742 95.024 39.6417 95.4467 39.5127C95.5335 39.1756 95.5763 38.9164 95.5763 38.7374C95.5763 38.4503 95.4312 38.2202 95.1405 38.0478C94.8498 37.876 94.4634 37.7898 93.9836 37.7898C93.4807 37.7898 93.0729 37.8707 92.7608 38.0318C92.4487 38.1935 92.1746 38.5329 91.9374 39.049L87.8568 38.6078Z" fill="#002670"/>
<path d="M108.389 44.2074C109.021 44.2074 109.568 43.8109 110.031 43.0178C110.494 42.2242 110.726 41.2248 110.726 40.0192C110.726 38.7267 110.212 38.0805 109.186 38.0805C108.44 38.0805 107.84 38.5097 107.388 39.3676C106.936 40.2255 106.71 41.1713 106.71 42.2045C106.71 42.8644 106.88 43.3638 107.221 43.7009C107.562 44.0385 107.951 44.2074 108.389 44.2074ZM107.861 36.2935C108.364 35.9065 108.843 35.6294 109.299 35.4642C109.755 35.2995 110.327 35.2168 111.016 35.2168C112.33 35.2168 113.322 35.6621 113.994 36.5521C114.665 37.442 115 38.5906 115 39.9978C115 41.8068 114.498 43.4536 113.493 44.9392C112.488 46.4249 111.16 47.168 109.509 47.168C107.808 47.168 106.544 46.454 105.719 45.026L105.299 46.8987H101.219L104.578 31.1142H108.959L107.861 36.2935Z" fill="#002670"/>
<path d="M69.1426 46.9004H73.5466L76.0019 35.4766H71.5865L69.1426 46.9004Z" fill="#002670"/>
<path d="M75.3772 33.8208C75.4331 33.6436 75.483 33.4504 75.5246 33.2435C76.0175 33.1133 76.439 32.8987 76.7451 32.6294C76.455 33.1686 75.9687 33.5954 75.3772 33.8208ZM74.4111 33.9979C74.275 33.9979 74.1412 33.9878 74.0099 33.9688C73.9415 33.797 73.8797 33.5871 73.8285 33.3469C74.0164 33.3713 74.2114 33.3844 74.4111 33.3844C74.6466 33.3844 74.8749 33.3666 75.0936 33.3327C75.0425 33.5705 74.9831 33.7791 74.9159 33.9504C74.7518 33.9819 74.5836 33.9979 74.4111 33.9979ZM72.076 32.6282C72.4029 32.9165 72.8625 33.1413 73.3993 33.2691C73.4439 33.4813 73.4956 33.6793 73.5545 33.8594C72.9124 33.6472 72.3839 33.2013 72.076 32.6282ZM73.5414 29.0951C73.476 29.3056 73.4177 29.5398 73.3708 29.7913C72.7947 29.9322 72.3108 30.186 71.9862 30.5088C72.2704 29.8507 72.8381 29.3329 73.5414 29.0951ZM74.4111 28.953C74.5883 28.953 74.7619 28.9703 74.9295 29.003C75.0045 29.2009 75.0693 29.4453 75.1222 29.7247C74.8939 29.6884 74.6567 29.6694 74.4111 29.6694C74.2007 29.6694 73.9968 29.6837 73.8 29.7104C73.8535 29.4286 73.9201 29.1825 73.9962 28.9845C74.1305 28.9643 74.2697 28.953 74.4111 28.953ZM76.8349 30.5082C76.5299 30.2045 76.0835 29.9625 75.5532 29.818C75.508 29.5719 75.4527 29.3424 75.3897 29.135C76.0424 29.387 76.565 29.884 76.8349 30.5082ZM75.6905 31.7252H76.9639C76.785 32.1942 76.279 32.5842 75.6025 32.7982C75.6507 32.4635 75.6816 32.1027 75.6905 31.7252ZM73.6532 31.7252H75.2654C75.2559 32.1502 75.222 32.5497 75.1697 32.9058C74.9295 32.9504 74.6751 32.9754 74.4111 32.9754C74.1829 32.9754 73.9623 32.957 73.7519 32.9231C73.6978 32.5628 73.6627 32.1568 73.6532 31.7252ZM73.2275 31.7252C73.2376 32.114 73.2703 32.4849 73.3208 32.8286C72.5944 32.6223 72.0457 32.2174 71.8578 31.7252H73.2275ZM73.2251 31.328H71.8578C72.0445 30.8406 72.5849 30.4387 73.3012 30.2306C73.2566 30.5742 73.2299 30.9434 73.2251 31.328ZM75.2678 31.328H73.6508C73.6555 30.9 73.6841 30.4963 73.7322 30.1331C73.9486 30.0974 74.1757 30.0778 74.4111 30.0778C74.6822 30.0778 74.9432 30.104 75.1893 30.1509C75.2357 30.5094 75.2637 30.9071 75.2678 31.328ZM75.6941 31.328C75.6887 30.9547 75.6637 30.5962 75.6215 30.2615C76.288 30.4767 76.7862 30.8637 76.9639 31.328H75.6941ZM75.2054 28.6451C75.036 28.6011 74.86 28.5702 74.6805 28.5559C74.5919 28.5482 74.5015 28.5446 74.4111 28.5446C74.3553 28.5446 74.3006 28.5458 74.2453 28.5482C74.0681 28.5577 73.8945 28.5815 73.7263 28.6189C72.3804 28.9168 71.3774 30.0749 71.3774 31.4582C71.3774 32.8416 72.3804 33.9997 73.7263 34.2981C73.8945 34.3356 74.0681 34.3594 74.2453 34.3683C74.3006 34.3713 74.3553 34.373 74.4111 34.373C74.5015 34.373 74.5919 34.3689 74.6805 34.3612C74.86 34.3457 75.036 34.316 75.2054 34.272C76.4954 33.9367 77.4449 32.8042 77.4449 31.4582C77.4449 30.1129 76.4954 28.9804 75.2054 28.6451Z" fill="#DF2739"/>
</g>
<defs>
<clipPath id="clip0">
<rect width="115" height="80" fill="white"/>
</clipPath>
</defs>
</svg>
