<svg width="115" height="80" viewBox="0 0 115 80" fill="none" xmlns="http://www.w3.org/2000/svg">
<g clip-path="url(#clip0)">
<mask id="mask0" mask-type="alpha" maskUnits="userSpaceOnUse" x="0" y="38" width="18" height="21">
<path d="M0 38.6719H17.5751V58.7134H0V38.6719Z" fill="white"/>
</mask>
<g mask="url(#mask0)">
<path fill-rule="evenodd" clip-rule="evenodd" d="M7.54092 54.7607C6.11839 54.7607 5.40968 54.0622 5.40968 52.9073C5.40968 50.771 7.80095 50.0393 12.1654 49.5779C12.1654 52.4357 10.233 54.7607 7.54092 54.7607ZM9.42232 38.6719C6.30449 38.6719 2.71504 40.1428 0.767348 41.6954L2.54678 45.4403C4.10952 44.0102 6.6359 42.789 8.915 42.789C11.0794 42.789 12.275 43.5131 12.275 44.9687C12.275 45.9528 11.4822 46.4473 9.98317 46.6411C4.38994 47.3702 0 48.9125 0 53.226C0 56.6446 2.43461 58.7147 6.23821 58.7147C8.9507 58.7147 11.3675 57.2055 12.5172 55.2145V58.1564H17.5751V45.8304C17.5751 40.7394 14.0366 38.6719 9.42232 38.6719Z" fill="#060809"/>
</g>
<path fill-rule="evenodd" clip-rule="evenodd" d="M60.2155 39.2237V58.1525H65.6302V49.0335C65.6302 44.6971 68.2535 43.425 70.0839 43.425C70.7977 43.425 71.7614 43.6315 72.3987 44.1082L73.3853 39.1039C72.5491 38.747 71.6747 38.668 70.9583 38.668C68.1745 38.668 66.4256 39.9018 65.2708 42.4053V39.2237H60.2155Z" fill="#060809"/>
<path fill-rule="evenodd" clip-rule="evenodd" d="M98.4838 38.668C95.6209 38.668 93.482 40.3607 92.3679 41.9923C91.3329 39.884 89.1405 38.668 86.5172 38.668C83.6543 38.668 81.6735 40.2587 80.7583 42.0866V39.2237H75.5398V58.1525H80.9571V48.409C80.9571 44.9087 82.7875 43.2338 84.4981 43.2338C86.0456 43.2338 87.4681 44.2357 87.4681 46.8182V58.1525H92.8778V48.409C92.8778 44.8705 94.6674 43.2338 96.457 43.2338C97.8872 43.2338 99.3964 44.2739 99.3964 46.7799V58.1525H104.806V45.0693C104.806 40.8145 101.943 38.668 98.4838 38.668Z" fill="#060809"/>
<path fill-rule="evenodd" clip-rule="evenodd" d="M47.037 39.2248H42.1321V37.3001C42.1321 34.7966 43.5623 34.0803 44.7961 34.0803C46.1575 34.0803 47.218 34.6845 47.218 34.6845L48.8878 30.8681C48.8878 30.8681 47.1951 29.7617 44.118 29.7617C40.6586 29.7617 36.7224 31.712 36.7224 37.8329V39.2248H28.511V37.3001C28.511 34.7966 29.9412 34.0803 31.1725 34.0803C31.8736 34.0803 32.8168 34.2434 33.5969 34.6845L35.2667 30.8681C34.27 30.2818 32.669 29.7617 30.497 29.7617C27.0375 29.7617 23.1013 31.712 23.1013 37.8329V39.2248H19.9606V43.4006H23.1013V58.1536H28.511V43.4006H36.7224V58.1536H42.1321V43.4006H47.037V39.2248Z" fill="#060809"/>
<path fill-rule="evenodd" clip-rule="evenodd" d="M50.267 58.1553H55.6715V39.2266H50.267V58.1553Z" fill="#060809"/>
<path fill-rule="evenodd" clip-rule="evenodd" d="M81.7975 12.8242C67.1848 12.8242 54.1603 22.968 50.4637 36.0104H55.7613C58.8485 26.2974 69.3288 17.7725 81.7975 17.7725C96.9533 17.7725 110.052 29.3107 110.052 47.2733C110.052 51.3063 109.529 54.9417 108.54 58.1539H113.679L113.73 57.9779C114.572 54.6638 115 51.0642 115 47.2733C115 27.2407 100.403 12.8242 81.7975 12.8242Z" fill="#0FA0EA"/>
</g>
<defs>
<clipPath id="clip0">
<rect width="115" height="80" fill="white"/>
</clipPath>
</defs>
</svg>
