<svg width="214" height="80" viewBox="0 0 214 80" fill="none" xmlns="http://www.w3.org/2000/svg">
<path d="M32.482 39.0173C32.482 36.0924 30.2607 34.0368 27.5321 34.0368C24.8034 34.0368 22.5821 36.1271 22.5821 39.0173C22.5821 41.8729 24.8034 43.998 27.5321 43.998C30.2634 43.9952 32.482 41.9422 32.482 39.0173ZM32.521 47.7228V45.459C31.1748 47.0269 29.1709 48 26.7712 48C21.7849 48 18 44.1685 18 39.0173C18 33.8981 21.9299 30 26.8827 30C29.2128 30 31.1777 30.9759 32.5238 32.5063V30.312H37V47.7228H32.521Z" fill="black"/>
<path d="M59.0683 44.1126C57.4669 44.1126 57.0224 43.5522 57.0224 42.0831V34.3109H59.9629V30.4933H57.0224V26.2225H52.3323V30.4933H46.2915V29.4289C46.2915 27.9571 46.8871 27.3968 48.5256 27.3968H49.5542V24H47.2974C43.4279 24 41.6043 25.1903 41.6043 28.8311V30.4906H39V34.3083H41.6043V47.9973H46.2945V34.3083H52.3351V42.8873C52.3351 46.4584 53.7855 48 57.5809 48H60V44.1126H59.0683Z" fill="black"/>
<path d="M75.0361 37.4511C74.7068 35.1878 72.7568 33.8308 70.4803 33.8308C68.2009 33.8308 66.3269 35.1531 65.8513 37.4511H75.0361ZM65.8119 40.1677C66.144 42.7429 68.0912 44.2065 70.5535 44.2065C72.5007 44.2065 74.0091 43.3347 74.8897 41.9431H79.6313C78.5282 45.6327 75.0361 48 70.4438 48C64.8945 48 61 44.3104 61 39.0533C61 33.7962 65.1169 30 70.5562 30C76.0323 30 80 33.8309 80 39.0533C80 39.4372 79.9634 39.8185 79.8902 40.1677H65.8119Z" fill="black"/>
<path d="M109.417 39.0582C109.417 36.2245 107.196 34.0551 104.466 34.0551C101.738 34.0551 99.5158 36.1549 99.5158 39.0582C99.5158 41.9268 101.738 44.0615 104.466 44.0615C107.196 44.0588 109.417 41.892 109.417 39.0582ZM95 30.3134H99.4767V32.5873C100.823 30.9776 102.825 30 105.227 30C110.142 30 114 33.8836 114 39.0234C114 44.1659 110.069 48.0843 105.119 48.0843C102.825 48.0843 100.932 47.2086 99.6218 45.7408V55H95V30.3134Z" fill="black"/>
<path d="M130.484 39.0173C130.484 36.0924 128.265 34.0368 125.533 34.0368C122.804 34.0368 120.583 36.1271 120.583 39.0173C120.583 41.8729 122.804 43.998 125.533 43.998C128.265 43.9952 130.484 41.9422 130.484 39.0173ZM130.523 47.7228V45.459C129.177 47.0269 127.172 48 124.772 48C119.785 48 116 44.1685 116 39.0173C116 33.8981 119.93 30 124.881 30C127.211 30 129.177 30.9759 130.523 32.5063V30.312H135V47.7228H130.523Z" fill="black"/>
<path d="M87.316 32.0496C87.316 32.0496 88.4152 30 91.1053 30C92.2555 30 93 30.398 93 30.398V34.9089C93 34.9089 91.3767 33.8989 89.8852 34.102C88.3937 34.3051 87.4504 35.6859 87.4558 37.5325V48H83V30.3195H87.316V32.0496Z" fill="black"/>
<path d="M156 30L144.777 55H140.044L144.451 45.3355L137 30H142.364L146.723 40.2463L151.196 30H156Z" fill="black"/>
<path d="M192.52 29.9207L181.254 23.6481C177.947 21.8069 173.814 24.1077 173.814 27.7929V28.4364C173.814 29.0177 174.136 29.5557 174.657 29.845L176.784 31.0292C177.409 31.378 178.188 30.9427 178.188 30.2479V28.6473C178.188 27.847 179.085 27.3468 179.803 27.7469L189.56 33.1814C190.278 33.5816 190.278 34.5819 189.56 34.9794L179.803 40.4139C179.085 40.814 178.188 40.3138 178.188 39.5135V38.6618C178.188 34.9767 174.055 32.6731 170.746 34.517L159.48 40.7897C156.173 42.631 156.173 47.2381 159.48 49.0793L170.746 55.3519C174.052 57.1931 178.188 54.8923 178.188 51.2071V50.5636C178.188 49.9823 177.866 49.447 177.345 49.155L175.218 47.968C174.593 47.6193 173.814 48.0546 173.814 48.7495V50.3501C173.814 51.1504 172.918 51.6505 172.199 51.2504L162.442 45.8159C161.725 45.4157 161.725 44.4154 162.442 44.0153L172.199 38.5807C172.918 38.1805 173.814 38.6808 173.814 39.4811V40.3328C173.814 44.0179 177.947 46.3215 181.254 44.4776L192.52 38.2049C195.827 36.369 195.827 31.7619 192.52 29.9207Z" fill="black"/>
</svg>
