<svg width="115" height="80" viewBox="0 0 115 80" fill="none" xmlns="http://www.w3.org/2000/svg">
<path d="M54.9998 47.4712C54.5695 47.7748 53.6885 48.0352 52.7313 48.0352C50.9744 48.0352 50.1839 46.6859 50.2166 45.1166C50.2442 43.8161 51.0546 42.3421 53.2493 42.3421L54.9998 42.3413V47.4712ZM53.1932 33.0464C51.108 33.0464 49.2315 33.6359 47.3032 34.5937L46.811 34.8474L47.985 37.467L48.6469 37.1541C50.0123 36.5431 51.467 36.1332 52.7752 36.188C54.3587 36.2539 55.0062 36.9798 55.0062 38.4946V39.3833H52.4174C48.256 39.3833 45.6666 41.5896 45.5916 45.0145C45.5916 48.2694 48.3055 51.0711 52.0782 51.0711C55.1225 51.0711 57.702 50.0836 59.44 48.3425V39.0547C59.44 34.5322 56.2112 33.0464 53.1932 33.0464ZM115 48.0236V50.7704C115 50.7704 114.078 50.9466 113.331 50.9466C109.842 50.9466 107.76 49.3032 107.76 45.4659V29.282L112.14 28.5359V45.7496C112.14 47.0795 112.522 47.8754 114.341 48.017C114.589 48.0352 115 48.0236 115 48.0236ZM95.7881 39.8519C95.8622 38.1664 96.5637 36.4338 98.2891 36.4338C100.231 36.4338 100.517 38.5402 100.517 39.8519H95.7881ZM99.2335 48.0036C98.0357 48.0036 97.2276 47.6108 96.6977 47.0391C95.9113 46.19 95.563 44.4443 95.6577 42.5885H105.078V42.1555C104.994 35.989 102.891 33.18 98.2891 33.18C93.1521 33.18 91.1514 37.9053 91.1137 42.3452C91.0824 45.1541 92.1415 47.9822 94.0783 49.5931C95.2581 50.5729 96.8942 51.1162 98.79 51.1162C99.8228 51.1162 100.903 50.9624 101.887 50.6574C103.777 50.072 105.172 49.0602 105.172 49.0602L103.94 46.525C103.718 46.6923 101.831 48.0036 99.2335 48.0036ZM89.578 48.0394V50.747C89.578 50.747 88.7702 50.9073 87.9126 50.9073C84.3447 50.9073 82.216 49.1846 82.216 45.5423V29.2791L86.6947 28.56V33.3646H89.5767V36.576H86.6947V45.727C86.6947 46.925 87.0645 47.9603 88.9431 48.0263C89.197 48.0352 89.5305 48.0352 89.578 48.0394ZM62.7113 34.0684L67.0809 33.3553V50.7561H62.7113V34.0684ZM64.941 26.4023C65.7009 26.4023 66.4043 26.6985 66.9211 27.2348C67.4315 27.7669 67.7011 28.4635 67.6781 29.1979C67.6781 30.7458 66.4587 31.9631 64.9019 31.9631C63.3478 31.9631 62.127 30.7423 62.127 29.1799C62.127 27.6495 63.3898 26.4023 64.941 26.4023ZM81.0382 33.6195L79.8056 36.3837C79.8056 36.3837 79.1014 36.1584 78.0173 36.2021C76.8446 36.2491 75.6111 36.7454 75.0304 37.3119V50.7686H70.5721L70.575 36.4736C73.2296 33.652 76.175 33.0901 78.0937 33.0901C79.4187 33.0901 80.5593 33.3833 81.0382 33.6195Z" fill="#E20010"/>
<path d="M25.2885 19.6914V19.7398H24.9017V19.7881H24.4665V19.8365H24.0797V19.8848H23.7412V19.9332H23.4994V19.9815H23.2577V20.0299H23.0159V20.0782H22.7741V20.1266H22.5324V20.1749H22.2906V20.2233H22.1456V20.2716H21.9521V20.32H21.7587V20.3683H21.5653V20.4167H21.4203V20.4651H21.2269V20.5134H21.0334V20.5618H20.84V20.6101H20.695V20.6585H20.5499V20.7068H20.4049V20.7552H20.2598V20.8035H20.1147V20.8519H19.9697V20.9002H19.8246V20.9486H19.6796V20.9969H19.5345V21.0453H19.3895V21.0936H19.2444V21.142H19.0993V21.1903H18.9543V21.2387H18.8092V21.287H18.7125V21.3354H18.5675V21.3838H18.4708V21.4321H18.3257V21.4805H18.229V21.5288H18.0839V21.5772H17.9389V21.6255H17.8422V21.6739H17.6971V21.7222H17.6004V21.7706H17.4553V21.8189H17.3586V21.8673H17.2136V21.9156H17.1169V21.964H17.0202V22.0123H16.9235V22.0607H16.7784V22.109H16.6817V22.1574H16.585V22.2057H16.4883V22.2541H16.3916V22.3025H16.2465V22.3508H16.1498V22.3992H16.0531V22.4475H15.9564V22.4959H15.8597V22.5442H15.7146V22.5926H15.6179V22.6409H15.5212V22.6893H15.4245V22.7376H15.3278V22.786H15.2311V22.8343H15.1344V22.8827H15.0377V22.931H14.941V22.9794H14.8443V23.0277H14.7476V23.0761H14.6509V23.1245H14.5542V23.1728H14.4575V23.2212H14.3608V23.2695H14.2641V23.3179H14.1674V23.3662H14.119V23.4146H14.0223V23.4629H13.9256V23.5113H13.8289V23.5596H13.7322V23.608H13.6355V23.6563H13.5388V23.7047H13.4904V23.753H13.3937V23.8014H13.297V23.8497H13.2003V23.8981H13.1519V23.9464H13.0552V23.9948H12.9585V24.0432H12.8618V24.0915H12.8135V24.1399H12.7168V24.1882H12.6201V24.2366H12.5234V24.2849H12.4267V24.3333H12.3783V24.3816H12.2816V24.43H12.1849V24.4783H12.0882V24.5267H12.0398V24.575H11.9431V24.6234H11.8948V24.6717H11.7981V24.7201H11.7497V24.7684H11.653V24.8168H11.5563V24.8652H11.508V24.9135H11.4112V24.9619H11.3629V25.0102H11.2662V25.0586H11.1695V25.1069H11.1211V25.1553H11.0244V25.2036H10.9761V25.252H10.8794V25.3003H10.831V25.3487H10.7343V25.397H10.6376V25.4454H10.5893V25.4937H10.4925V25.5421H10.4442V25.5904H10.3475V25.6388H10.2991V25.6871H10.2024V25.7355H10.1541V25.7839H10.1057V25.8322H10.009V25.8806H9.96067V25.9289H9.86396V25.9773H9.81561V26.0256H9.7189V26.074H9.67055V26.1223H9.6222V26.1707H9.52549V26.219H9.47714V26.2674H9.38043V26.3157H9.33208V26.3641H9.23538V26.4124H9.18702V26.4608H9.13867V26.5091H9.04196V26.5575H8.99361V26.6058H8.89691V26.6542H8.84855V26.7026H8.8002V26.7509H8.70349V26.7993H8.65514V26.8476H8.60679V26.896H8.51008V26.9443H8.46173V26.9927H8.41338V27.041H8.36503V27.0894H8.26832V27.1377H8.21997V27.1861H8.17161V27.2344H8.07491V27.2828H8.02656V27.3311H7.9782V27.3795H7.92985V27.4278H7.83315V27.4762H7.78479V27.5246H7.73644V27.5729H7.63973V27.6213H7.59138V27.6696H7.54303V27.718H7.44632V27.7663H7.39797V27.8147H7.34962V27.863H7.30126V27.9114H7.25291V27.9597H7.20456V28.0081H7.10785V28.0564H7.0595V28.1048H7.01115V28.1531H6.9628V28.2015H6.91444V28.2498H6.86609V28.2982H6.76938V28.3465H6.72103V28.3949H6.67268V28.4433H6.62433V28.4916H6.57597V28.54H6.52762V28.5883H6.43092V28.6367H6.38256V28.685H6.33421V28.7334H6.28586V28.7817H6.2375V28.8301H6.18915V28.8784H6.09245V28.9268H6.04409V28.9751H5.99574V29.0235H5.94739V29.0718H5.89904V29.1202H5.85068V29.1685H5.80233V29.2169H5.75398V29.2652H5.70562V29.3136H5.65727V29.362H5.60892V29.4103H5.56057V29.4587H5.51221V29.507H5.46386V29.5554H5.41551V29.6037H5.36715V29.6521H5.3188V29.7004H5.27045V29.7488H5.2221V29.7971H5.17374V29.8455H5.12539V29.8938H5.02869V29.9422H4.98033V29.9905H4.93198V30.0389H4.88363V30.0872H4.83527V30.1356H4.78692V30.184H4.73857V30.2323H4.69022V30.2807H4.64186V30.329H4.59351V30.3774H4.54516V30.4741H4.49681V30.5224H4.44845V30.5708H4.4001V30.6191H4.35175V30.6675H4.30339V30.7158H4.25504V30.7642H4.20669V30.8125H4.15834V30.8609H4.10998V30.9092H4.06163V31.0059H4.01328V31.0543H3.96493V31.1027H3.91657V31.151H3.86822V31.1994H3.81987V31.2477H3.77151V31.2961H3.72316V31.3444H3.67481V31.3928H3.62646V31.4895H3.5781V31.5378H3.52975V31.5862H3.4814V31.6345H3.43305V31.6829H3.38469V31.7312H3.33634V31.8279H3.28799V31.8763H3.23963V31.9247H3.19128V32.0214H3.14293V32.0697H3.09458V32.1181H3.04622V32.1664H2.99787V32.2631H2.94952V32.3115H2.90116V32.3598H2.85281V32.4565H2.80446V32.5049H2.75611V32.5532H2.70775V32.6016H2.6594V32.6983H2.61105V32.7466H2.5627V32.795H2.51434V32.8917H2.46599V32.9401H2.41764V32.9884H2.36928V33.0851H2.32093V33.1335H2.27258V33.2302H2.22423V33.2785H2.17587V33.3269H2.12752V33.4236H2.07917V33.4719H2.03082V33.5686H1.98246V33.617H1.93411V33.7137H1.88576V33.8104H1.8374V33.8588H1.78905V33.9555H1.7407V34.0038H1.69235V34.1005H1.64399V34.1972H1.59564V34.2456H1.54729V34.3423H1.49894V34.3906H1.45058V34.4873H1.40223V34.5841H1.35388V34.6808H1.30552V34.7775H1.25717V34.8258H1.20882V34.9225H1.16047V35.0192H1.11211V35.1159H1.06376V35.2126H1.01541V35.3093H0.967055V35.406H0.918702V35.5028H0.870349V35.5995H0.821997V35.6962H0.773644V35.8412H0.725291V35.9379H0.676938V36.0346H0.628586V36.1797H0.580233V36.2764H0.53188V36.4215H0.483527V36.5665H0.435175V36.6632H0.386822V36.8566H0.338469V37.0017H0.290116V37.1467H0.241764V37.3402H0.193411V37.5819H0.145058V37.7753H0.0967055V38.1138H0.0483527V38.694H0V39.2259H0.0483527V39.7094H0.0967055V39.9512H0.145058V40.1446H0.193411V40.338H0.241764V40.4831H0.290116V40.6281H0.338469V40.7732H0.386822V40.8699H0.435175V40.9666H0.483527V41.0633H0.53188V41.16H0.580233V41.2567H0.628586V41.3534H0.676938V41.4501H0.725291V41.4985H0.773644V41.5952H0.821997V41.6436H0.870349V41.7403H0.918702V41.7886H0.967055V41.8853H1.01541V41.9337H1.06376V41.982H1.11211V42.0304H1.16047V42.0787H1.20882V42.1271H1.25717V42.1754H1.30552V42.2238H1.35388V42.2721H1.40223V42.3205H1.45058V42.3688H1.49894V42.4172H1.54729V42.4655H1.59564V42.5139H1.64399V42.5623H1.69235V42.6106H1.7407V42.659H1.78905V42.7073H1.8374V42.7557H1.88576V42.804H1.98246V42.8524H2.03082V42.9007H2.12752V42.9491H2.17587V42.9974H2.27258V43.0458H2.32093V43.0941H2.41764V43.1425H2.46599V43.1908H2.5627V43.2392H2.61105V43.2875H2.70775V43.3359H2.75611V43.3843H2.85281V43.4326H2.94952V43.481H3.09458V43.5293H3.19128V43.5777H3.28799V43.626H3.43305V43.6744H3.52975V43.7227H3.62646V43.7711H3.81987V43.8194H4.06163V43.8678H4.30339V43.9161H4.54516V43.9645H5.75398V43.9161H6.09245V43.8678H6.38256V43.8194H6.57597V43.7711H6.76938V43.7227H6.91444V43.6744H7.0595V43.626H7.25291V43.5777H7.39797V43.5293H7.49468V43.481H7.63973V43.4326H7.73644V43.3843H7.83315V43.3359H7.9782V43.2875H8.07491V43.2392H8.17161V43.1908H8.26832V43.1425H8.36503V43.0941H8.46173V43.0458H8.55844V42.9974H8.65514V42.9491H8.75185V42.9007H8.84855V42.8524H8.94526V42.804H9.04196V42.7557H9.13867V42.7073H9.18702V42.659H9.28373V42.6106H9.33208V42.5623H9.42879V42.5139H9.52549V42.4655H9.57384V42.4172H9.67055V42.3688H9.76726V42.3205H9.81561V42.2721H9.91231V42.2238H9.96067V42.1754H10.0574V42.1271H10.1057V42.0787H10.2024V42.0304H10.2508V41.982H10.3475V41.9337H10.3958V41.8853H10.4925V41.837H10.5409V41.7886H10.6376V41.7403H10.686V41.6919H10.7827V41.6436H10.831V41.5952H10.8794V41.5468H10.9761V41.4985H11.0244V41.4501H11.0728V41.4018H11.1695V41.3534H11.2178V41.3051H11.3145V41.2567H11.3629V41.2084H11.4112V41.16H11.508V41.1117H11.5563V41.0633H11.6047V41.015H11.7014V40.9666H11.7497V40.9183H11.7981V40.8699H11.8948V40.8216H11.9431V40.7732H11.9915V40.7249H12.0882V40.6765H12.1365V40.6281H12.1849V40.5798H12.2816V40.5314H12.33V40.4831H12.3783V40.4347H12.4267V40.3864H12.5234V40.338H12.5717V40.2897H12.6201V40.2413H12.7168V40.193H12.7651V40.1446H12.8135V40.0963H12.9102V40.0479H12.9585V39.9996H13.0069V39.9512H13.0552V39.9029H13.1519V39.8545H13.2003V39.8061H13.2487V39.7578H13.3454V39.7094H13.3937V39.6611H13.4421V39.6127H13.5388V39.5644H13.5871V39.516H13.6355V39.4677H13.7322V39.4193H13.7805V39.371H13.8289V39.3226H13.9256V39.2743H13.9739V39.2259H14.0223V39.1776H14.119V39.1292H14.1674V39.0809H14.2641V39.0325H14.3124V38.9842H14.3608V38.9358H14.4575V38.8874H14.5058V38.8391H14.6025V38.7907H14.6509V38.7424H14.7476V38.694H14.7959V38.6457H14.8926V38.5973H14.941V38.549H15.0377V38.5006H15.0861V38.4523H15.1344V38.4039H15.2311V38.3556H15.2795V38.3072H15.3762V38.2589H15.4245V38.2105H15.5212V38.1622H15.5696V38.1138H15.6663V38.0654H15.7146V38.0171H15.8113V37.9687H15.8597V37.9204H15.9564V37.872H16.0048V37.8237H16.1015V37.7753H16.1498V37.727H16.2465V37.6786H16.2949V37.6303H16.3916V37.5819H16.4399V37.5336H16.4883V37.4852H16.585V37.4369H16.6333V37.3885H16.7301V37.3402H16.7784V37.2918H16.8751V37.2435H16.9235V37.1951H17.0202V37.1467H17.0685V37.0984H17.1652V37.05H17.2136V37.0017H17.3103V36.9533H17.3586V36.905H17.4553V36.8566H17.5037V36.8083H17.6004V36.7599H17.6488V36.7116H17.7455V36.6632H17.7938V36.6149H17.8905V36.5665H17.9389V36.5182H18.0356V36.4698H18.0839V36.4215H18.1806V36.3731H18.229V36.3247H18.3257V36.2764H18.374V36.228H18.4708V36.1797H18.5191V36.1313H18.6158V36.083H18.6642V36.0346H18.7609V35.9863H18.8092V35.9379H18.9059V35.8896H18.9543V35.8412H19.051V35.7929H19.0993V35.7445H19.196V35.6962H19.2927V35.6478H19.3411V35.5995H19.4378V35.5511H19.4862V35.5028H19.5829V35.4544H19.6312V35.406H19.7279V35.3577H19.7763V35.3093H19.873V35.261H19.9213V35.2126H20.018V35.1643H20.1147V35.1159H20.1631V35.0676H20.2598V35.0192H20.3082V34.9709H20.4049V34.9225H20.5016V34.8742H20.5499V34.8258H20.6466V34.7775H20.695V34.7291H20.7917V34.6808H20.84V34.6324H20.9367V34.5841H21.0334V34.5357H21.0818V34.4873H21.1785V34.439H21.2752V34.3906H21.3236V34.3423H21.4203V34.2939H21.517V34.2456H21.5653V34.1972H21.662V34.1489H21.7587V34.1005H21.8071V34.0522H21.9038V34.0038H22.0005V33.9555H22.0489V33.9071H22.1456V33.8588H22.2423V33.8104H22.2906V33.7621H22.3873V33.7137H22.484V33.6653H22.5807V33.617H22.6291V33.5686H22.7258V33.5203H22.8225V33.4719H22.9192V33.4236H22.9676V33.3752H23.0643V33.3269H23.161V33.2785H23.2577V33.2302H23.3544V33.1818H23.4027V33.1335H23.4994V33.0851H23.5961V33.0368H23.6928V32.9884H23.7896V32.9401H23.8863V32.8917H23.983V32.8434H24.0797V32.795H24.1764V32.7466H24.2731V32.6983H24.3698V32.6499H24.4665V32.6016H24.5632V32.5532H24.6115V32.5049H24.7566V32.4565H24.8533V32.4082H24.95V32.3598H25.0467V32.3115H25.1434V32.2631H25.2885V32.2148H25.3852V32.1664H25.4819V32.1181H25.5786V32.0697H25.6753V32.0214H25.8204V31.973H25.9171V31.9247H26.0621V31.8763H26.1588V31.8279H26.3039V31.7796H26.449V31.7312H26.5457V31.6829H26.6907V31.6345H26.7874V31.5862H26.9325V31.5378H27.1259V31.4895H27.2709V31.4411H27.4644V31.3928H27.6094V31.3444H27.8028V31.2961H27.9962V31.2477H28.238V31.1994H28.5281V31.151H28.7699V31.1027H29.5919V31.0543H29.6886V31.1027H30.1238V31.151H30.5106V31.1994H30.6556V31.2477H30.8007V31.2961H30.9458V31.3444H31.0425V31.3928H31.1875V31.4411H31.2842V31.4895H31.3809V31.5378H31.4293V31.5862H31.526V31.6345H31.6227V31.6829H31.671V31.7312H31.7678V31.7796H31.8161V31.8279H31.9128V31.8763H31.9612V31.9247H32.0095V31.973H32.0579V32.0214H32.1062V32.0697H32.1546V32.1181H32.2029V32.1664H32.2513V32.2148H32.2996V32.2631H32.348V32.3115H32.3963V32.3598H32.4447V32.4565H32.493V32.5049H32.5414V32.5532H32.5898V32.6499H32.6381V32.6983H32.6865V32.795H32.7348V32.8434H32.7832V32.9401H32.8315V33.0368H32.8799V33.0851H32.9282V33.1818H32.9766V33.2785H33.0249V33.3752H33.0733V33.4719H33.1216V33.617H33.17V33.7137H33.2183V33.8588H33.2667V33.9555H33.315V34.1005H33.3634V34.2456H33.4117V34.439H33.4601V34.5841H33.5085V34.7775H33.5568V35.0676H33.6052V35.3093H33.6535V35.8412H33.7019V37.05H33.6535V37.4369H33.6052V37.872H33.5568V38.1138H33.5085V38.3556H33.4601V38.549H33.4117V38.7907H33.3634V38.9842H33.315V39.1776H33.2667V39.3226H33.2183V39.4677H33.17V39.6127H33.1216V39.8061H33.0733V39.9512H33.0249V40.0963H32.9766V40.2413H32.9282V40.338H32.8799V40.4831H32.8315V40.5798H32.7832V40.7249H32.7348V40.8216H32.6865V40.9666H32.6381V41.0633H32.5898V41.2084H32.5414V41.3051H32.493V41.4018H32.4447V41.4985H32.3963V41.5952H32.348V41.7403H32.2996V41.837H32.2513V41.9337H32.2029V42.0304H32.1546V42.1271H32.1062V42.1754H32.0579V42.2721H32.0095V42.3688H31.9612V42.4655H31.9128V42.5623H31.8645V42.6106H31.8161V42.7073H31.7678V42.804H31.7194V42.8524H31.671V42.9491H31.6227V43.0458H31.5743V43.0941H31.526V43.1908H31.4776V43.2875H31.4293V43.3359H31.3809V43.4326H31.3326V43.481H31.2842V43.5777H31.2359V43.626H31.1875V43.7227H31.1392V43.7711H31.0908V43.8678H31.0425V43.9161H30.9941V44.0128H30.9458V44.0612H30.8974V44.1579H30.8491V44.2062H30.8007V44.2546H30.7523V44.3513H30.704V44.3997H30.6556V44.448H30.6073V44.5447H30.5589V44.5931H30.5106V44.6414H30.4622V44.7381H30.4139V44.7865H30.3655V44.8832H30.3172V44.9315H30.2688V44.9799H30.2205V45.0282H30.1721V45.1249H30.1238V45.1733H30.0754V45.2217H30.0271V45.27H29.9787V45.3667H29.9304V45.4151H29.882V45.4634H29.8336V45.5118H29.7853V45.6085H29.7369V45.6568H29.6886V45.7052H29.6402V45.7535H29.5919V45.8019H29.5435V45.8986H29.4952V45.9469H29.4468V45.9953H29.3985V46.0437H29.3501V46.092H29.3018V46.1887H29.2534V46.2371H29.2051V46.2854H29.1567V46.3338H29.1084V46.3821H29.06V46.4305H29.0116V46.4788H28.9633V46.5272H28.9149V46.6239H28.8666V46.6722H28.8182V46.7206H28.7699V46.7689H28.7215V46.8173H28.6732V46.8656H28.6248V46.914H28.5765V46.9624H28.5281V47.0107H28.4798V47.1074H28.4314V47.1558H28.3831V47.2041H28.3347V47.2525H28.2864V47.3008H28.238V47.3492H28.1897V47.3975H28.1413V47.4459H28.0929V47.4942H28.0446V47.5426H27.9962V47.5909H27.9479V47.6393H27.8995V47.6876H27.8512V47.736H27.8028V47.7844H27.7545V47.8327H27.7061V47.8811H27.6578V47.9294H27.6094V47.9778H27.5611V48.0261H27.5127V48.0745H27.4644V48.1228H27.416V48.1712H27.3677V48.2195H27.3193V48.2679H27.2709V48.3162H27.2226V48.3646H27.1742V48.4129H27.1259V48.4613H27.0775V48.5096H27.0292V48.558H26.9808V48.6063H26.9325V48.6547H26.8841V48.7031H26.8358V48.7514H26.7874V48.7998H26.7391V48.8481H26.6907V48.8965H26.6424V48.9448H26.594V48.9932H26.5457V49.0415H26.4973V49.0899H26.449V49.1382H26.3522V49.1866H26.3039V49.2349H26.2555V49.2833H26.2072V49.3316H26.1588V49.38H26.1105V49.4283H26.0621V49.4767H26.0138V49.525H25.9654V49.5734H25.9171V49.6218H25.8204V49.6701H25.772V49.7185H25.7237V49.7668H25.6753V49.8152H25.627V49.8635H25.5786V49.9119H25.5303V49.9602H25.4819V50.0086H25.3852V50.0569H25.3368V50.1053H25.2885V50.1536H25.2401V50.202H25.1918V50.2503H25.1434V50.2987H25.0951V50.347H24.9984V50.3954H24.95V50.4438H24.9017V50.4921H24.8533V50.5405H24.805V50.5888H24.7083V50.6372H24.6599V50.6855H24.6115V50.7339H24.5632V50.7822H24.5148V50.8306H24.4181V50.8789H24.3698V50.9273H24.3214V50.9756H24.2731V51.024H24.2247V51.0723H24.128V51.1207H24.0797V51.169H24.0313V51.2174H23.983V51.2657H23.8863V51.3141H23.8379V51.3625H23.7896V51.4108H23.7412V51.4592H23.6445V51.5075H23.5961V51.5559H23.5478V51.6042H23.4994V51.6526H23.4027V51.7009H23.3544V51.7493H23.306V51.7976H23.2577V51.846H23.161V51.8943H23.1126V51.9427H23.0643V51.991H22.9676V52.0394H22.9192V52.0877H22.8708V52.1361H22.7741V52.1844H22.7258V52.2328H22.6774V52.2812H22.5807V52.3295H22.5324V52.3779H22.484V52.4262H22.3873V52.4746H22.339V52.5229H22.2906V52.5713H22.1939V52.6196H22.1456V52.668H22.0972V52.7163H22.0005V52.7647H21.9521V52.813H21.8554V52.8614H21.8071V52.9097H21.7587V52.9581H21.662V53.0064H21.6137V53.0548H21.517V53.1032H21.4686V53.1515H21.3719V53.1999H21.3236V53.2482H21.2752V53.2966H21.1785V53.3449H21.1302V53.3933H21.0334V53.4416H20.9851V53.49H20.8884V53.5383H20.84V53.5867H20.7433V53.635H20.695V53.6834H20.5983V53.7317H20.5499V53.7801H20.4532V53.8284H20.4049V53.8768H20.3082V53.9251H20.2598V53.9735H20.1631V54.0219H20.0664V54.0702H20.018V54.1186H19.9213V54.1669H19.873V54.2153H19.7763V54.2636H19.6796V54.312H19.6312V54.3603H19.5345V54.4087H19.4862V54.457H19.3895V54.5054H19.2927V54.5537H19.196V54.6021H19.1477V54.6504H19.051V54.6988H18.9543V54.7471H18.9059V54.7955H18.8092V54.8438H18.7125V54.8922H18.6158V54.9406H18.5675V54.9889H18.4708V55.0373H18.374V55.0856H18.2773V55.134H18.1806V55.1823H18.0839V55.2307H18.0356V55.279H17.9389V55.3274H17.8422V55.3757H17.7455V55.4241H17.6488V55.4724H17.552V55.5208H17.4553V55.5691H17.3586V55.6175H17.2619V55.6658H17.1169V55.7142H17.0202V55.7626H16.9235V55.8109H16.8268V55.8593H16.7301V55.9076H16.585V55.956H16.4883V56.0043H16.3432V56.0527H16.2465V56.101H16.1015V56.1494H15.9564V56.1977H15.8597V56.2461H15.6663V56.2944H15.5212V56.3428H15.3762V56.3911H15.1828V56.4395H14.941V56.4878H14.6025V56.5362H14.119V56.4878H13.9256V56.4395H13.7805V56.3911H13.6838V56.3428H13.5871V56.2944H13.5388V56.2461H13.4904V56.1977H13.4421V56.1494H13.3937V56.0527H13.3454V55.956H13.297V55.8593H13.2487V55.7142H13.2003V55.2307H13.2487V54.9889H13.297V54.8438H13.3454V54.6988H13.3937V54.6021H13.4421V54.5054H13.4904V54.4087H13.5388V54.312H13.5871V54.2153H13.6355V54.1186H13.6838V54.0702H13.7322V53.9735H13.7805V53.8768H13.8289V53.8284H13.8772V53.7317H13.9256V53.6834H13.9739V53.5867H14.0223V53.5383H14.0707V53.4416H14.119V53.3933H14.1674V53.3449H14.2157V53.2482H14.2641V53.1999H14.3124V53.1515H14.3608V53.0548H14.4091V53.0064H14.4575V52.9581H14.5058V52.8614H14.5542V52.813H14.6025V52.7647H14.6509V52.7163H14.6992V52.668H14.7476V52.5713H14.7959V52.5229H14.8443V52.4746H14.8926V52.4262H14.941V52.3779H14.9894V52.3295H15.0377V52.2328H15.0861V52.1844H15.1344V52.1361H15.1828V52.0877H15.2311V52.0394H15.2795V51.991H15.3278V51.9427H15.3762V51.8943H15.4245V51.846H15.4729V51.7976H15.5212V51.7009H15.5696V51.6526H15.6179V51.6042H15.6663V51.5559H15.7146V51.5075H15.763V51.4592H15.8113V51.4108H15.8597V51.3625H15.9081V51.3141H15.9564V51.2657H16.0048V51.2174H16.0531V51.169H16.1015V51.1207H16.1498V51.0723H16.1982V51.024H16.2465V50.9756H16.2949V50.9273H16.3432V50.8789H16.3916V50.8306H16.4399V50.7822H16.4883V50.7339H16.5366V50.6855H16.585V50.6372H16.6333V50.5888H16.6817V50.5405H16.7301V50.4921H16.7784V50.4438H16.8268V50.3954H16.8751V50.347H16.9235V50.2987H16.9718V50.2503H17.0202V50.202H17.0685V50.1536H17.1169V50.1053H17.1652V50.0569H17.2136V50.0086H17.2619V49.9602H17.3103V49.9119H17.3586V49.8635H17.407V49.8152H17.4553V49.7668H17.5037V49.7185H17.552V49.6701H17.6004V49.6218H17.6488V49.5734H17.6971V49.525H17.7455V49.4767H17.7938V49.4283H17.8422V49.38H17.8905V49.3316H17.9389V49.2833H17.9872V49.2349H18.0356V49.1866H18.0839V49.1382H18.1806V49.0899H18.229V48.9932H18.2773V48.9448H18.3257V48.8965H18.374V48.8481H18.4224V48.7998H18.4708V48.7514H18.5191V48.7031H18.5675V48.6547H18.6158V48.6063H18.6642V48.558H18.7125V48.5096H18.7609V48.4129H18.8092V48.3646H18.8576V48.3162H18.9059V48.2679H18.9543V48.2195H19.0026V48.1712H19.051V48.0745H19.0993V48.0261H19.1477V47.9778H19.196V47.8811H19.2444V47.8327H19.2927V47.7844H19.3411V47.736H19.3895V47.6393H19.4378V47.5909H19.4862V47.4942H19.5345V47.4459H19.5829V47.3492H19.6312V47.2525H19.6796V47.2041H19.7279V47.1074H19.7763V47.0107H19.8246V46.9624H19.873V46.8173H19.9213V46.6722H19.9697V46.5272H20.018V46.4305H20.0664V45.7052H20.018V45.5118H19.9697V45.3667H19.9213V45.3184H19.873V45.2217H19.8246V45.1733H19.7763V45.0766H19.7279V45.0282H19.6796V44.9799H19.6312V44.9315H19.5829V44.8832H19.5345V44.8348H19.4862V44.7865H19.4378V44.7381H19.3895V44.6898H19.2927V44.6414H19.2444V44.5931H19.1477V44.5447H19.0993V44.4964H19.0026V44.448H18.9059V44.3997H18.8092V44.3513H18.7125V44.303H18.5675V44.2546H18.4224V44.2062H18.3257V44.1579H18.1806V44.1095H17.9389V44.0612H17.7455V44.0128H17.4553V43.9645H17.0202V43.9161H16.9718V43.9645H16.1015V44.0128H15.8113V44.0612H15.5696V44.1095H15.4245V44.1579H15.2795V44.2062H15.0861V44.2546H14.941V44.303H14.8443V44.3513H14.7476V44.3997H14.6509V44.448H14.5058V44.4964H14.4091V44.5447H14.3124V44.5931H14.2157V44.6414H14.119V44.6898H14.0707V44.7381H13.9739V44.7865H13.9256V44.8348H13.8289V44.8832H13.7805V44.9315H13.6838V44.9799H13.6355V45.0282H13.5871V45.0766H13.4904V45.1249H13.4421V45.1733H13.3454V45.2217H13.297V45.27H13.2487V45.3184H13.2003V45.3667H13.1519V45.4151H13.1036V45.4634H13.0069V45.5118H12.9585V45.5601H12.9102V45.6085H12.8618V45.6568H12.8135V45.7052H12.7651V45.7535H12.7168V45.8019H12.6684V45.8502H12.6201V45.8986H12.5717V45.9469H12.5234V45.9953H12.475V46.0437H12.4267V46.092H12.3783V46.1404H12.33V46.1887H12.2816V46.2854H12.2332V46.3338H12.1849V46.3821H12.1365V46.4305H12.0882V46.4788H12.0398V46.5755H11.9915V46.6239H11.9431V46.6722H11.8948V46.7206H11.8464V46.7689H11.7981V46.8173H11.7497V46.914H11.7014V46.9624H11.653V47.0591H11.6047V47.1074H11.5563V47.2041H11.508V47.2525H11.4596V47.3492H11.4112V47.3975H11.3629V47.4942H11.3145V47.5426H11.2662V47.6393H11.2178V47.6876H11.1695V47.7844H11.1211V47.8327H11.0728V47.9294H11.0244V47.9778H10.9761V48.0745H10.9277V48.1712H10.8794V48.2679H10.831V48.3646H10.7827V48.4613H10.7343V48.558H10.686V48.6547H10.6376V48.7031H10.5893V48.7998H10.5409V48.8965H10.4925V48.9932H10.4442V49.0899H10.3958V49.1866H10.3475V49.2833H10.2991V49.38H10.2508V49.4767H10.2024V49.5734H10.1541V49.7185H10.1057V49.8152H10.0574V49.9119H10.009V50.0569H9.96067V50.1536H9.91231V50.2503H9.86396V50.3954H9.81561V50.4921H9.76726V50.5888H9.7189V50.7339H9.67055V50.8306H9.6222V50.9756H9.57384V51.1207H9.52549V51.2657H9.47714V51.4108H9.42879V51.6042H9.38043V51.7493H9.33208V51.8943H9.28373V52.0877H9.23538V52.4262H9.18702V52.7647H9.13867V53.1515H9.09032V53.1999H9.13867V54.1669H9.18702V54.3603H9.23538V54.5537H9.28373V54.7955H9.33208V54.9889H9.38043V55.0856H9.42879V55.1823H9.47714V55.3274H9.52549V55.4241H9.57384V55.5208H9.6222V55.6175H9.67055V55.7142H9.7189V55.8109H9.76726V55.8593H9.81561V55.956H9.86396V56.0043H9.91231V56.101H9.96067V56.1494H10.009V56.1977H10.0574V56.2944H10.1057V56.3428H10.1541V56.3911H10.2024V56.4878H10.2991V56.5362H10.3475V56.5846H10.3958V56.6329H10.4442V56.6813H10.4925V56.7296H10.5409V56.778H10.5893V56.8263H10.6376V56.8747H10.686V56.923H10.7343V56.9714H10.7827V57.0197H10.8794V57.0681H10.9277V57.1164H11.0244V57.1648H11.0728V57.2131H11.1695V57.2615H11.2178V57.3098H11.3145V57.3582H11.3629V57.4065H11.4596V57.4549H11.5563V57.5033H11.653V57.5516H11.7497V57.6H11.8948V57.6483H12.0398V57.6967H12.1849V57.745H12.4267V57.7934H12.7168V57.8417H13.2003V57.8901H13.9739V57.8417H14.5542V57.7934H14.8926V57.745H15.1828V57.6967H15.4245V57.6483H15.6663V57.6H15.8597V57.5516H16.0531V57.5033H16.2465V57.4549H16.3916V57.4065H16.5366V57.3582H16.7301V57.3098H16.8751V57.2615H17.0202V57.2131H17.1652V57.1648H17.3103V57.1164H17.407V57.0681H17.552V57.0197H17.6971V56.9714H17.7938V56.923H17.9389V56.8747H18.0356V56.8263H18.1806V56.778H18.2773V56.7296H18.4224V56.6813H18.5191V56.6329H18.6158V56.5846H18.7125V56.5362H18.8576V56.4878H18.9543V56.4395H19.051V56.3911H19.1477V56.3428H19.2444V56.2944H19.3411V56.2461H19.4378V56.1977H19.5829V56.1494H19.6796V56.101H19.7763V56.0527H19.873V56.0043H19.9697V55.956H20.018V55.9076H20.1147V55.8593H20.2114V55.8109H20.3082V55.7626H20.4049V55.7142H20.5016V55.6658H20.5983V55.6175H20.695V55.5691H20.7433V55.5208H20.84V55.4724H20.9367V55.4241H21.0334V55.3757H21.1302V55.3274H21.1785V55.279H21.2752V55.2307H21.3719V55.1823H21.4686V55.134H21.517V55.0856H21.6137V55.0373H21.7104V54.9889H21.7587V54.9406H21.8554V54.8922H21.9521V54.8438H22.0005V54.7955H22.0972V54.7471H22.1939V54.6988H22.2423V54.6504H22.339V54.6021H22.3873V54.5537H22.484V54.5054H22.5807V54.457H22.6291V54.4087H22.7258V54.3603H22.7741V54.312H22.8708V54.2636H22.9676V54.2153H23.0159V54.1669H23.1126V54.1186H23.161V54.0702H23.2577V54.0219H23.306V53.9735H23.4027V53.9251H23.4511V53.8768H23.5478V53.8284H23.5961V53.7801H23.6928V53.7317H23.7412V53.6834H23.8379V53.635H23.8863V53.5867H23.983V53.5383H24.0313V53.49H24.0797V53.4416H24.1764V53.3933H24.2247V53.3449H24.3214V53.2966H24.3698V53.2482H24.4665V53.1999H24.5148V53.1515H24.6115V53.1032H24.6599V53.0548H24.7083V53.0064H24.805V52.9581H24.8533V52.9097H24.9017V52.8614H24.9984V52.813H25.0467V52.7647H25.1434V52.7163H25.1918V52.668H25.2401V52.6196H25.3368V52.5713H25.3852V52.5229H25.4335V52.4746H25.5303V52.4262H25.5786V52.3779H25.6753V52.3295H25.7237V52.2812H25.772V52.2328H25.8687V52.1844H25.9171V52.1361H25.9654V52.0877H26.0621V52.0394H26.1105V51.991H26.1588V51.9427H26.2072V51.8943H26.3039V51.846H26.3522V51.7976H26.4006V51.7493H26.4973V51.7009H26.5457V51.6526H26.594V51.6042H26.6907V51.5559H26.7391V51.5075H26.7874V51.4592H26.8358V51.4108H26.9325V51.3625H26.9808V51.3141H27.0292V51.2657H27.1259V51.2174H27.1742V51.169H27.2226V51.1207H27.2709V51.0723H27.3677V51.024H27.416V50.9756H27.4644V50.9273H27.5127V50.8789H27.6094V50.8306H27.6578V50.7822H27.7061V50.7339H27.7545V50.6855H27.8512V50.6372H27.8995V50.5888H27.9479V50.5405H27.9962V50.4921H28.0446V50.4438H28.1413V50.3954H28.1897V50.347H28.238V50.2987H28.2864V50.2503H28.3831V50.202H28.4314V50.1536H28.4798V50.1053H28.5281V50.0569H28.5765V50.0086H28.6732V49.9602H28.7215V49.9119H28.7699V49.8635H28.8182V49.8152H28.8666V49.7668H28.9633V49.7185H29.0116V49.6701H29.06V49.6218H29.1084V49.5734H29.1567V49.525H29.2051V49.4767H29.3018V49.4283H29.3501V49.38H29.3985V49.3316H29.4468V49.2833H29.4952V49.2349H29.5435V49.1866H29.6402V49.1382H29.6886V49.0899H29.7369V49.0415H29.7853V48.9932H29.8336V48.9448H29.882V48.8965H29.9304V48.8481H30.0271V48.7998H30.0754V48.7514H30.1238V48.7031H30.1721V48.6547H30.2205V48.6063H30.2688V48.558H30.3172V48.5096H30.3655V48.4613H30.4139V48.4129H30.5106V48.3646H30.5589V48.3162H30.6073V48.2679H30.6556V48.2195H30.704V48.1712H30.7523V48.1228H30.8007V48.0745H30.8491V48.0261H30.8974V47.9778H30.9458V47.9294H30.9941V47.8811H31.0425V47.8327H31.0908V47.7844H31.1392V47.736H31.1875V47.6876H31.2359V47.6393H31.2842V47.5909H31.3326V47.5426H31.3809V47.4942H31.4293V47.4459H31.4776V47.3975H31.526V47.3492H31.5743V47.3008H31.6227V47.2525H31.671V47.2041H31.7194V47.1558H31.7678V47.1074H31.8161V47.0591H31.8645V47.0107H31.9128V46.9624H31.9612V46.914H32.0095V46.8656H32.0579V46.8173H32.1062V46.7689H32.1546V46.7206H32.2029V46.6722H32.2513V46.5755H32.2996V46.5272H32.348V46.4788H32.3963V46.4305H32.4447V46.3821H32.493V46.3338H32.5414V46.2854H32.5898V46.2371H32.6381V46.1887H32.6865V46.1404H32.7348V46.0437H32.7832V45.9953H32.8315V45.9469H32.8799V45.8986H32.9282V45.8502H32.9766V45.8019H33.0249V45.7052H33.0733V45.6568H33.1216V45.6085H33.17V45.5601H33.2183V45.5118H33.2667V45.4634H33.315V45.3667H33.3634V45.3184H33.4117V45.27H33.4601V45.2217H33.5085V45.1733H33.5568V45.0766H33.6052V45.0282H33.6535V44.9799H33.7019V44.8832H33.7502V44.8348H33.7986V44.7865H33.8469V44.7381H33.8953V44.6414H33.9436V44.5931H33.992V44.5447H34.0403V44.4964H34.0887V44.3997H34.137V44.3513H34.1854V44.303H34.2337V44.2062H34.2821V44.1579H34.3305V44.1095H34.3788V44.0128H34.4272V43.9645H34.4755V43.9161H34.5239V43.8194H34.5722V43.7711H34.6206V43.6744H34.6689V43.626H34.7173V43.5777H34.7656V43.481H34.814V43.4326H34.8623V43.3359H34.9107V43.2875H34.959V43.2392H35.0074V43.1425H35.0557V43.0941H35.1041V42.9974H35.1524V42.9491H35.2008V42.8524H35.2492V42.804H35.2975V42.7073H35.3459V42.659H35.3942V42.5623H35.4426V42.5139H35.4909V42.4172H35.5393V42.3688H35.5876V42.2721H35.636V42.1754H35.6843V42.1271H35.7327V42.0304H35.781V41.982H35.8294V41.8853H35.8777V41.7886H35.9261V41.7403H35.9744V41.6436H36.0228V41.5468H36.0712V41.4985H36.1195V41.4018H36.1679V41.3051H36.2162V41.2567H36.2646V41.16H36.3129V41.0633H36.3613V40.9666H36.4096V40.9183H36.458V40.8216H36.5063V40.7249H36.5547V40.6281H36.603V40.5314H36.6514V40.4347H36.6997V40.338H36.7481V40.2897H36.7964V40.193H36.8448V40.0963H36.8931V39.9996H36.9415V39.9029H36.9899V39.8061H37.0382V39.7094H37.0866V39.6127H37.1349V39.516H37.1833V39.4193H37.2316V39.2743H37.28V39.1776H37.3283V39.0809H37.3767V38.9842H37.425V38.8874H37.4734V38.7907H37.5217V38.694H37.5701V38.549H37.6184V38.4523H37.6668V38.3072H37.7151V38.2105H37.7635V38.0654H37.8118V37.9687H37.8602V37.8237H37.9086V37.727H37.9569V37.5819H38.0053V37.4852H38.0536V37.3402H38.102V37.1951H38.1503V37.05H38.1987V36.905H38.247V36.7599H38.2954V36.6149H38.3437V36.4698H38.3921V36.3247H38.4404V36.1797H38.4888V35.9863H38.5371V35.7929H38.5855V35.6478H38.6338V35.4544H38.6822V35.261H38.7306V35.0676H38.7789V34.8258H38.8273V34.5841H38.8756V34.3423H38.924V34.1005H38.9723V33.8104H39.0207V33.4236H39.069V33.0368H39.1174V32.4082H39.1657V30.9092H39.1174V29.9905H39.069V29.6037H39.0207V29.3136H38.9723V29.0235H38.924V28.7334H38.8756V28.4433H38.8273V28.2015H38.7789V28.0564H38.7306V27.9114H38.6822V27.718H38.6338V27.5729H38.5855V27.4278H38.5371V27.2344H38.4888V27.0894H38.4404V26.9443H38.3921V26.7993H38.3437V26.7026H38.2954V26.6058H38.247V26.4608H38.1987V26.3641H38.1503V26.2674H38.102V26.1707H38.0536V26.0256H38.0053V25.9289H37.9569V25.8322H37.9086V25.7355H37.8602V25.6388H37.8118V25.5421H37.7635V25.4454H37.7151V25.397H37.6668V25.3003H37.6184V25.252H37.5701V25.1553H37.5217V25.0586H37.4734V25.0102H37.425V24.9135H37.3767V24.8168H37.3283V24.7684H37.28V24.6717H37.2316V24.6234H37.1833V24.5267H37.1349V24.4783H37.0866V24.43H37.0382V24.3333H36.9899V24.2849H36.9415V24.2366H36.8931V24.1882H36.8448V24.0915H36.7964V24.0432H36.7481V23.9948H36.6997V23.9464H36.6514V23.8497H36.603V23.8014H36.5547V23.753H36.5063V23.7047H36.458V23.6563H36.4096V23.5596H36.3613V23.5113H36.3129V23.4629H36.2646V23.4146H36.2162V23.3662H36.1679V23.3179H36.1195V23.2695H36.0228V23.2212H35.9744V23.1728H35.9261V23.1245H35.8777V23.0761H35.8294V23.0277H35.781V22.9794H35.7327V22.931H35.6843V22.8827H35.636V22.8343H35.5876V22.786H35.5393V22.7376H35.4909V22.6893H35.4426V22.6409H35.3459V22.5926H35.2975V22.5442H35.2492V22.4959H35.1524V22.4475H35.1041V22.3992H35.0557V22.3508H34.959V22.3025H34.9107V22.2541H34.8623V22.2057H34.7656V22.1574H34.7173V22.109H34.6689V22.0607H34.6206V22.0123H34.5239V21.964H34.4272V21.9156H34.3788V21.8673H34.2821V21.8189H34.1854V21.7706H34.137V21.7222H34.0403V21.6739H33.992V21.6255H33.8953V21.5772H33.7986V21.5288H33.7502V21.4805H33.6535V21.4321H33.5568V21.3838H33.4601V21.3354H33.3634V21.287H33.2667V21.2387H33.17V21.1903H33.0733V21.142H32.9766V21.0936H32.8799V21.0453H32.7832V20.9969H32.6865V20.9486H32.5898V20.9002H32.4447V20.8519H32.348V20.8035H32.2029V20.7552H32.1062V20.7068H31.9612V20.6585H31.8161V20.6101H31.7194V20.5618H31.5743V20.5134H31.4293V20.4651H31.2842V20.4167H31.1392V20.3683H30.9458V20.32H30.8007V20.2716H30.6556V20.2233H30.4622V20.1749H30.2688V20.1266H30.0754V20.0782H29.8336V20.0299H29.6402V19.9815H29.3985V19.9332H29.1084V19.8848H28.8182V19.8365H28.5281V19.7881H28.0929V19.7398H27.6578V19.6914H25.2885Z" fill="#E20010"/>
</svg>
