<svg width="115" height="80" viewBox="0 0 115 80" fill="none" xmlns="http://www.w3.org/2000/svg">
<g clip-path="url(#clip0)">
<path fill-rule="evenodd" clip-rule="evenodd" d="M35.841 41.4238H32.4656C32.4075 41.4238 32.367 41.3665 32.3865 41.3123L34.0937 36.5289C34.1201 36.4544 34.2261 36.4548 34.2521 36.5295L35.9201 41.3129C35.9392 41.3671 35.8987 41.4238 35.841 41.4238ZM41.6081 47.2161L36.1885 32.7359C36.1641 32.6703 36.1013 32.627 36.0312 32.627H32.4207C32.3508 32.627 32.2884 32.6701 32.2638 32.7353L26.7828 47.2155C26.7414 47.3248 26.8226 47.4416 26.9397 47.4416H30.0648C30.1358 47.4416 30.1993 47.3969 30.2229 47.3302L31.2147 44.5441C31.2387 44.4773 31.3021 44.4326 31.3732 44.4326H36.8902C36.9613 44.4326 37.0247 44.4773 37.0488 44.5441L38.0406 47.3302C38.0642 47.3969 38.1276 47.4416 38.1987 47.4416H41.4505C41.5677 47.4416 41.6489 47.3252 41.6081 47.2161Z" fill="#0E0E0C"/>
<path fill-rule="evenodd" clip-rule="evenodd" d="M44.2123 32.0215C45.2626 32.0215 46.1025 32.8573 46.1025 33.8812C46.1025 34.9051 45.2626 35.7409 44.2123 35.7409C43.2042 35.7409 42.3643 34.9051 42.3643 33.8812C42.3643 32.8573 43.2042 32.0215 44.2123 32.0215Z" fill="#0E0E0C"/>
<path fill-rule="evenodd" clip-rule="evenodd" d="M42.6372 47.2744V37.2238C42.6372 37.1315 42.7124 37.0566 42.8052 37.0566H45.6616C45.7543 37.0566 45.8294 37.1315 45.8294 37.2238V47.2744C45.8294 47.3667 45.7543 47.4416 45.6616 47.4416H42.8052C42.7124 47.4416 42.6372 47.3667 42.6372 47.2744Z" fill="#0E0E0C"/>
<path fill-rule="evenodd" clip-rule="evenodd" d="M54.0411 39.9852C54.0411 40.0886 53.947 40.1678 53.8446 40.1498C53.56 40.0994 53.2894 40.0854 53.033 40.0854C51.7519 40.0854 50.5967 40.8377 50.5967 42.9064V47.2735C50.5967 47.3658 50.5216 47.4407 50.4287 47.4407H47.5725C47.4795 47.4407 47.4043 47.3658 47.4043 47.2735V37.2229C47.4043 37.1306 47.4795 37.0557 47.5725 37.0557H50.3237C50.4165 37.0557 50.4917 37.1306 50.4917 37.2229V38.4558C51.0378 37.2856 52.3608 36.9512 53.201 36.9512C53.4558 36.9512 53.7108 36.9787 53.9101 37.0223C53.9868 37.0392 54.0411 37.1073 54.0411 37.1855V39.9852Z" fill="#0E0E0C"/>
<path fill-rule="evenodd" clip-rule="evenodd" d="M65.378 37.1717L67.2912 42.9603C67.317 43.0386 67.4293 43.0363 67.4517 42.9569L69.0857 37.1785C69.1062 37.1065 69.1724 37.0566 69.2476 37.0566H72.0217C72.1349 37.0566 72.2157 37.1657 72.1822 37.2733L69.0519 47.3238C69.0302 47.3937 68.9652 47.4416 68.8916 47.4416H65.9649C65.8926 47.4416 65.8286 47.3957 65.8055 47.3278L63.6562 40.972C63.6306 40.8958 63.522 40.8959 63.4968 40.9724L61.3876 47.3268C61.365 47.3953 61.3008 47.4416 61.2283 47.4416H58.2388C58.1653 47.4416 58.1005 47.3941 58.0785 47.3244L54.9076 37.2739C54.8737 37.1661 54.9544 37.0566 55.0681 37.0566H58.0304C58.1055 37.0566 58.1714 37.1065 58.1919 37.1783L59.8265 42.9384C59.8489 43.0176 59.9606 43.0201 59.9868 42.9419L61.9203 37.1709C61.9434 37.1027 62.0076 37.0566 62.0799 37.0566H65.2185C65.2909 37.0566 65.3553 37.1031 65.378 37.1717Z" fill="#0E0E0C"/>
<path fill-rule="evenodd" clip-rule="evenodd" d="M77.7974 44.9959C76.4742 44.9959 75.4031 43.9511 75.4031 42.2377C75.4031 40.4407 76.4323 39.5005 77.7974 39.5005C79.0996 39.5005 80.1705 40.4407 80.1705 42.2377C80.1705 43.9929 79.0785 44.9959 77.7974 44.9959ZM83.0899 37.0557H80.3385C80.2458 37.0557 80.1705 37.1305 80.1705 37.2229V38.2468C79.9606 37.7663 79.1415 36.7422 77.2724 36.7422C74.1852 36.7422 72.1898 39.1244 72.1898 42.2169C72.1898 45.4138 74.3112 47.7331 77.3774 47.7331C78.6791 47.7331 79.729 47.1065 80.1914 46.1038C80.1894 46.1645 80.1782 46.9247 80.1731 47.2711C80.1717 47.3644 80.2473 47.4407 80.3411 47.4407H83.0899C83.1825 47.4407 83.2577 47.3656 83.2577 47.2735V37.2229C83.2577 37.1305 83.1825 37.0557 83.0899 37.0557Z" fill="#0E0E0C"/>
<path fill-rule="evenodd" clip-rule="evenodd" d="M84.8612 47.2752V32.4815C84.8612 32.3893 84.9364 32.3145 85.029 32.3145H87.8854C87.9781 32.3145 88.0534 32.3893 88.0534 32.4815V47.2752C88.0534 47.3676 87.9781 47.4424 87.8854 47.4424H85.029C84.9364 47.4424 84.8612 47.3676 84.8612 47.2752Z" fill="#0E0E0C"/>
<path fill-rule="evenodd" clip-rule="evenodd" d="M89.5656 47.2752V32.4815C89.5656 32.3893 89.6406 32.3145 89.7335 32.3145H92.5897C92.6827 32.3145 92.7577 32.3893 92.7577 32.4815V47.2752C92.7577 47.3676 92.6827 47.4424 92.5897 47.4424H89.7335C89.6406 47.4424 89.5656 47.3676 89.5656 47.2752Z" fill="#0E0E0C"/>
<path fill-rule="evenodd" clip-rule="evenodd" d="M107.593 42.1644L104.19 37.3196C104.112 37.2089 104.192 37.0566 104.328 37.0566H107.674C107.731 37.0566 107.783 37.0852 107.814 37.1323L109.563 39.7901C109.596 39.841 109.671 39.8406 109.704 39.7896L111.412 37.1336C111.442 37.0858 111.496 37.0566 111.553 37.0566H114.707C114.843 37.0566 114.922 37.2097 114.844 37.3203L111.487 42.0382C111.446 42.0957 111.446 42.1725 111.487 42.2302C112.585 43.7929 113.842 45.5984 114.969 47.1779C115.048 47.2886 114.968 47.4416 114.832 47.4416H111.51C111.453 47.4416 111.4 47.4132 111.369 47.3662L109.556 44.6212C109.523 44.5712 109.45 44.5708 109.416 44.6204C108.874 45.4271 108.164 46.5496 107.625 47.3664C107.594 47.4134 107.542 47.4416 107.485 47.4416H104.388C104.253 47.4416 104.173 47.2903 104.25 47.1795L107.593 42.3551C107.633 42.2976 107.633 42.2215 107.593 42.1644Z" fill="#0E0E0C"/>
<path fill-rule="evenodd" clip-rule="evenodd" d="M99.0583 39.2496C100.512 39.2496 101.073 40.1384 101.151 40.9127C101.156 40.962 101.117 41.0049 101.067 41.0049H97.0734C97.0222 41.0049 96.9826 40.9598 96.9899 40.9094C97.098 40.1535 97.7688 39.2496 99.0583 39.2496ZM97.007 43.0525H104.183C104.204 42.99 104.245 42.5093 104.245 42.0705C104.245 38.7273 102.25 36.7422 99.0162 36.7422C96.3069 36.7422 93.8077 38.8736 93.8077 42.2169C93.8077 45.7062 96.3699 47.754 99.2474 47.754C101.848 47.754 103.496 46.3006 104.03 44.5445C104.033 44.5333 104.05 44.4681 104.071 44.3722C104.092 44.2682 104.013 44.1703 103.906 44.1703H101.247C101.193 44.1703 101.143 44.1957 101.111 44.2394C100.751 44.7459 100.165 45.0585 99.2893 45.0585C98.0831 45.0585 97.0361 44.2666 96.9231 43.1452C96.918 43.0958 96.957 43.0525 97.007 43.0525Z" fill="#0E0E0C"/>
<mask id="mask0" mask-type="alpha" maskUnits="userSpaceOnUse" x="0" y="32" width="24" height="16">
<path d="M0 45.0837V44.5583C0.0228892 44.3036 0.0793185 44.0496 0.170745 43.8027L3.72607 34.2004C4.14752 33.0619 5.1072 32.2584 6.29335 32.051C6.4854 32.0175 6.67708 32.0007 6.86676 32L6.89066 32C7.86326 32.0035 8.78156 32.4311 9.42703 33.2033L14.7359 39.5577L19.619 37.5657C20.7041 37.1231 21.8987 37.3603 22.7369 38.1848C23.5749 39.0092 23.8411 40.209 23.4315 41.3158L21.8895 45.5013C21.4844 46.6008 20.5619 47.4504 19.4213 47.6725C19.2093 47.7137 18.9974 47.734 18.7885 47.734C17.8383 47.734 16.941 47.3175 16.311 46.5634L7.06259 35.4939C6.96196 35.3734 6.76994 35.4068 6.71539 35.5545L3.705 43.6851C3.64257 43.8533 3.808 44.016 3.97303 43.9486L7.66562 42.4421C8.53668 42.0872 9.5324 42.5429 9.83154 43.4577C10.1047 44.2925 9.64583 45.1952 8.83819 45.5247L4.01419 47.4927C3.12108 47.8573 2.09483 47.7923 1.29093 47.2568C0.52579 46.747 0.0766639 45.9378 0 45.0837ZM19.9205 41.3762C19.9823 41.208 19.8169 41.0456 19.6525 41.1129L16.9546 42.2134L18.5728 44.1505C18.6737 44.2712 18.8659 44.2375 18.9206 44.0894L19.9205 41.3762Z" fill="white"/>
</mask>
<g mask="url(#mask0)">
<path d="M0 45.0837V44.5583C0.0228892 44.3036 0.0793185 44.0496 0.170745 43.8027L3.72607 34.2004C4.14752 33.0619 5.1072 32.2584 6.29335 32.051C6.4854 32.0175 6.67708 32.0007 6.86676 32L6.89066 32C7.86326 32.0035 8.78156 32.4311 9.42703 33.2033L14.7359 39.5577L19.619 37.5657C20.7041 37.1231 21.8987 37.3603 22.7369 38.1848C23.5749 39.0092 23.8411 40.209 23.4315 41.3158L21.8895 45.5013C21.4844 46.6008 20.5619 47.4504 19.4213 47.6725C19.2093 47.7137 18.9974 47.734 18.7885 47.734C17.8383 47.734 16.941 47.3175 16.311 46.5634L7.06259 35.4939C6.96196 35.3734 6.76994 35.4068 6.71539 35.5545L3.705 43.6851C3.64257 43.8533 3.808 44.016 3.97303 43.9486L7.66562 42.4421C8.53668 42.0872 9.5324 42.5429 9.83154 43.4577C10.1047 44.2925 9.64583 45.1952 8.83819 45.5247L4.01419 47.4927C3.12108 47.8573 2.09483 47.7923 1.29093 47.2568C0.52579 46.747 0.0766639 45.9378 0 45.0837ZM19.9205 41.3762C19.9823 41.208 19.8169 41.0456 19.6525 41.1129L16.9546 42.2134L18.5728 44.1505C18.6737 44.2712 18.8659 44.2375 18.9206 44.0894L19.9205 41.3762Z" fill="url(#paint0_linear)"/>
</g>
</g>
<defs>
<linearGradient id="paint0_linear" x1="23.6207" y1="42.3192" x2="-6.19673e-08" y2="42.3192" gradientUnits="userSpaceOnUse">
<stop stop-color="#E98547"/>
<stop offset="1" stop-color="#DD4446"/>
</linearGradient>
<clipPath id="clip0">
<rect width="115" height="80" fill="white"/>
</clipPath>
</defs>
</svg>
