<svg width="115" height="80" viewBox="0 0 115 80" fill="none" xmlns="http://www.w3.org/2000/svg">
<path fill-rule="evenodd" clip-rule="evenodd" d="M69.9219 49.5018C71.117 49.5018 72.4451 49.0594 73.2862 48.5725L72.755 52.6C71.6482 53.2195 70.0988 53.6621 68.2839 53.6621C65.0521 53.6621 63.0602 51.6704 63.0602 47.5104V34.1006H59.7402V29.9405H63.0602V23.3018L67.5313 20.9121V29.9405H73.2862V34.1006H67.5313V46.7136C67.5313 48.8823 68.2395 49.5018 69.9219 49.5018ZM56.999 53.1765L50.0047 37.7308L55.8922 29.9418H50.7129L45.8878 36.7129C45.1353 37.8193 43.9398 39.5897 43.3199 40.5191C43.3199 39.9737 43.3299 39.1499 43.3404 38.2833L43.3404 38.2828L43.3404 38.2823C43.352 37.3209 43.3643 36.3071 43.3643 35.5624V20.9134L38.8047 23.3031V53.1765H43.3643V46.3166L46.906 41.6254L52.041 53.1765H56.999ZM33.3577 53.1765L22.0692 22.1967H17.1556L6 53.1765H10.8252L13.3927 45.8298H25.7878L28.3996 53.1765H33.3577ZM24.3713 41.6698H14.8094L17.2883 34.5887C18.0851 32.2872 19.1918 28.7468 19.546 27.419C19.8507 28.5609 20.8099 31.3719 21.5512 33.5441L21.5512 33.5442C21.6719 33.8978 21.7868 34.2346 21.8922 34.5444L24.3713 41.6698ZM84.9246 24.0112C84.9246 22.3738 83.5966 21.046 82.0029 21.046C80.3648 21.046 79.0367 22.3738 79.0367 24.0112C79.0367 25.6046 80.3648 26.9322 82.0029 26.9322C83.5966 26.9322 84.9246 25.6046 84.9246 24.0112ZM84.2608 53.1765V29.9418H79.701V53.1765H84.2608ZM109 37.2428V53.1752H104.529V50.8739C102.935 52.4671 100.678 53.6621 98.1544 53.6621C94.3914 53.6621 90.0976 51.5377 90.0976 45.8285C90.0976 40.6506 94.0818 38.305 99.3495 38.305C101.519 38.305 103.245 38.6147 104.529 39.1901V37.464C104.529 34.9415 102.98 33.5252 100.146 33.5252C97.7558 33.5252 95.8968 33.9678 94.0818 34.9857L92.3112 31.5336C94.5244 30.1617 97.0036 29.4536 100.279 29.4536C105.459 29.4536 109 31.9762 109 37.2428ZM98.9069 49.5461C101.342 49.5461 103.466 48.0414 104.529 46.581V43.2617C103.289 42.6421 101.696 42.2438 99.2168 42.2438C96.2951 42.2438 94.4357 43.5716 94.4357 45.6958C94.4357 47.9971 95.8968 49.5461 98.9069 49.5461Z" fill="#009430"/>
</svg>
