<svg width="115" height="80" viewBox="0 0 115 80" fill="none" xmlns="http://www.w3.org/2000/svg">
<path d="M57 80C79.0914 80 97 62.0914 97 40C97 17.9086 79.0914 0 57 0C34.9086 0 17 17.9086 17 40C17 62.0914 34.9086 80 57 80Z" fill="url(#paint0_radial)"/>
<path fill-rule="evenodd" clip-rule="evenodd" d="M50.8111 48.3255C43.9622 46.8274 39.8197 40.4911 40.9946 33.2581C42.0208 26.9359 47.5056 22.7619 53.7412 22.7242L56.0143 22.9927C61.3488 24.048 65.6994 28.8768 65.9528 35.0985C65.9653 43.5344 59.3355 50.188 50.8111 48.3255ZM36.5752 23.9742C26.05 40.3058 40.4189 59.8849 58.1637 55.8962C59.4813 55.6067 60.7669 55.1858 62.0012 54.6399C62.605 54.3714 63.1964 54.0856 63.7674 53.7731C64.8554 53.1293 65.8916 52.4011 66.8664 51.595C67.4452 51.1239 67.6032 50.6528 68.4308 50.5884C69.0065 50.7297 69.8075 53.4464 72.9237 53.214C74.8385 53.0696 76.2324 51.5746 76.6501 49.8943V48.0696C76.3372 44.6918 76.0431 41.3783 75.4659 38.0319C74.729 33.7684 73.3164 27.809 70.9745 24.3699C67.1824 18.7936 62.9054 16.4255 56.5368 15.1598C48.9964 14.0213 40.7365 17.5153 36.5658 23.9852L36.5752 23.9742ZM77.4683 23.6978C76.8316 20.4409 74.4302 14.3354 73.1302 11.1774C72.5248 9.70602 70.2674 6.1853 72.6844 5.55559C74.7181 5.02481 77.6998 7.18561 78.665 7.95508C80.8035 9.66205 82.9952 15.8288 84.2202 19.3087C85.9582 24.2396 91.4163 46.9248 87.7713 50.5177C85.4826 52.7728 82.8341 51.529 81.775 49.9509C80.9005 47.8293 81.0742 46.6123 80.9631 44.1092L80.0652 36.0564C79.5536 31.8715 78.4882 27.5059 77.4589 23.6978H77.4683Z" fill="url(#paint1_linear)"/>
<defs>
<radialGradient id="paint0_radial" cx="0" cy="0" r="1" gradientUnits="userSpaceOnUse" gradientTransform="translate(95.3567 -0.815002) scale(105.187)">
<stop stop-color="white"/>
<stop offset="0.5" stop-color="#E50013"/>
<stop offset="1" stop-color="#E50013"/>
</radialGradient>
<linearGradient id="paint1_linear" x1="69.8309" y1="26.6956" x2="30.0757" y2="80.9877" gradientUnits="userSpaceOnUse">
<stop stop-color="white"/>
<stop offset="1" stop-color="#E50013"/>
</linearGradient>
</defs>
</svg>
