<svg width="115" height="80" viewBox="0 0 115 80" fill="none" xmlns="http://www.w3.org/2000/svg">
<path d="M21.7451 19.8398C20.1306 19.8398 19.1902 21.0847 19.1902 22.868V24.0203V35.3268V36.5117C19.1902 38.2554 20.1306 39.5188 21.7451 39.5188C23.3288 39.5188 24.3112 38.2554 24.3112 36.5117V35.3268V24.0203V22.868C24.3112 21.0847 23.3287 19.8398 21.7451 19.8398Z" fill="#1756C2"/>
<path d="M33.7514 25.2415H32.5477V24.4931C32.5477 23.6534 33.0368 23.2997 34.3309 23.4466C35.708 23.5747 36.0175 22.6983 36.0175 21.9981C36.0175 21.4565 35.859 21.1815 35.4413 20.6965C34.5491 19.8117 32.2913 19.838 32.2913 19.838C32.2913 19.838 30.2447 19.7435 28.8569 20.8456C27.4747 21.9183 27.5954 23.8715 27.5954 23.8715V25.2412H27.3739C26.4555 25.2412 25.4802 25.8132 25.4802 26.9867C25.4802 28.1687 26.5866 28.7104 27.4746 28.7104H27.5953V36.8532C27.5953 38.2536 28.4539 39.517 30.1469 39.517C31.8747 39.517 32.5475 38.2933 32.5475 36.9321V28.7104H33.7512C34.4167 28.7104 35.7382 28.386 35.7382 27.0552C35.7382 25.6736 34.696 25.2412 33.7512 25.2412" fill="#1756C2"/>
<path d="M48.1932 24.7891C47.3651 24.7891 46.7027 25.1617 46.2691 25.7264C45.4725 25.1732 44.423 24.7891 43.1992 24.7891C37.9845 24.7891 35.6743 28.7093 35.6743 32.4943C35.6743 36.5467 38.4811 39.6818 43.1992 39.6818C44.3171 39.6818 45.3939 39.3091 46.2628 38.7371C46.6879 39.3165 47.3545 39.6818 48.1932 39.6818C49.815 39.6818 50.7396 38.4318 50.7396 36.6674V27.814C50.7396 26.0799 49.8149 24.7891 48.1932 24.7891ZM40.739 32.2988C40.739 29.0743 42.3038 28.5026 43.3544 28.5026C43.3963 28.5026 43.4488 28.5026 43.4856 28.5026C44.6935 28.5971 45.6447 29.4021 45.6447 32.4384C45.6447 35.4258 44.614 36.0242 43.5452 36.0838C43.4822 36.0838 43.4507 36.0838 43.3835 36.0838C42.1838 36.0838 40.7386 35.5117 40.7386 32.2988" fill="#1756C2"/>
<path d="M17.214 35.6411C16.9485 34.8434 12.6396 22.5586 12.4256 21.9792C12.1884 21.3966 11.97 20.9747 11.4494 20.6107C10.5888 19.9578 8.74573 19.9966 8.74573 19.9966C8.74573 19.9966 6.92758 19.9546 6.05115 20.6107C5.53894 20.9749 5.32062 21.3968 5.09495 21.9792C4.87663 22.5585 0.567956 34.8435 0.270914 35.6411C0.0295017 36.4209 -0.179372 37.3762 0.270914 38.1549C0.765283 38.8844 1.58063 39.5172 2.63444 39.5172C3.70306 39.5172 4.65097 39.0533 5.06462 37.7521C5.46767 36.4209 5.67865 35.7703 5.67865 35.7703H8.74573H11.8294C11.8294 35.7703 12.0299 36.421 12.4361 37.7521C12.8423 39.0536 13.8132 39.5172 14.8526 39.5172C15.946 39.5172 16.7817 38.8843 17.2142 38.1549C17.6824 37.3761 17.5008 36.4209 17.2142 35.6411H17.214ZM6.83721 31.5391L8.74573 25.3087L10.66 31.5391H6.83721Z" fill="#1756C2"/>
<path d="M108.297 54.3125H0V56.6501H108.297C111.621 56.6501 114.404 54.2074 114.912 51.043C113.423 53.034 110.999 54.3125 108.297 54.3125Z" fill="#EFCF00"/>
<path d="M114.995 46.0025V44.1289H6.71765C3.02111 44.1289 0 47.1525 0 50.8524V52.7261H108.297C112.001 52.7261 114.995 49.6979 114.995 46.0025Z" fill="#D60F27"/>
<path d="M72.8688 24.6394C70.1291 24.6394 67.4653 28.3078 66.5207 29.7271C66.5627 29.4038 66.633 28.9105 66.7842 28.3466C66.9836 27.4125 67.1568 26.0891 66.5207 25.3093C66.1481 24.8579 65.5992 24.6396 64.8622 24.6396C62.3254 24.6396 59.8189 27.8759 58.7474 29.4596C58.8744 28.9967 59.0255 28.4173 59.1273 28.0826C59.2932 27.3038 59.6206 26.0893 59.0958 25.3817C58.783 24.9451 58.2677 24.7488 57.5373 24.7488C56.3438 24.7488 55.0161 25.3093 54.9604 25.3093L54.6896 25.431L54.9374 25.5769C54.9374 25.5769 55.3026 25.9422 55.0213 27.8756C54.5396 31.274 53.4302 35.3257 52.9978 36.9327C52.749 37.7525 52.7868 38.4219 53.1143 38.8659C53.4596 39.3183 54.0883 39.5775 54.8727 39.5775C55.9662 39.5775 56.9604 39.2123 57.0159 39.1598L57.1776 39.1178L57.0495 38.953C57.0495 38.9425 56.4785 38.0944 57.2311 36.4466C59.7668 30.8058 61.8171 28.5596 62.3898 28.1764C62.5252 28.1134 62.604 28.0379 62.7016 28.0379C62.7646 28.0379 62.796 28.0798 62.796 28.1113C62.859 28.1428 62.8695 28.2814 62.859 28.4084C62.6522 30.3689 61.8241 33.643 61.2912 35.8324C61.1768 36.3331 61.054 36.7403 60.9889 37.0825C60.7937 37.9211 60.8588 38.5718 61.1768 39.0042C61.4938 39.3622 62.006 39.5689 62.7312 39.5689C63.868 39.5689 64.8733 39.1512 64.9144 39.1438L65.1212 39.0599L64.9669 38.9203C64.9669 38.8678 64.4179 38.152 65.1883 36.4076C67.0626 32.0686 69.5943 28.6783 70.2526 28.1851C70.4751 28.0287 70.5885 28.0088 70.6557 28.0088C70.6767 28.0088 70.6872 28.0088 70.7292 28.0718C70.7816 28.1242 70.8026 28.31 70.7816 28.5346C70.7711 28.6186 70.6977 28.8884 70.6389 29.2904C70.2631 30.7922 69.5966 33.897 69.2313 36.0572C69.013 37.3472 69.119 38.3137 69.5966 38.8639C69.9839 39.3079 70.5906 39.5672 71.3276 39.5672C72.6144 39.5672 73.8037 38.7653 73.856 38.7359L74.0438 38.6078L73.8717 38.4913C73.8717 38.4913 72.9606 37.6327 73.4078 35.101C73.7248 33.4037 74.1341 31.4515 74.4427 30.0322C74.5896 29.3206 74.6841 28.7297 74.7628 28.4064L74.7838 28.2794C74.9486 27.5006 75.1974 26.0784 74.5235 25.2723C74.1666 24.8063 73.6282 24.6289 72.8799 24.6289" fill="#D60F27"/>
<path d="M88.8787 24.7918C88.1009 24.7918 87.468 24.9996 87.0354 25.4194C86.7185 25.2242 85.6384 24.6406 84.2206 24.6406C83.4113 24.6406 82.2218 24.7918 80.8869 25.6378C79.4047 26.5562 78.1546 28.0234 77.1356 30.0326C74.8295 34.5293 75.9348 37.8133 76.5142 38.6194C77.0191 39.3195 77.718 39.6355 78.7266 39.6355C80.1529 39.6355 82.0496 39.075 84.9425 34.5293C84.8585 35.1695 84.763 36.069 84.763 36.8361C84.763 39.3122 86.5074 39.5788 87.2265 39.5788C89.0894 39.5788 89.7393 38.7097 89.7444 38.6803L89.8179 38.5858L89.7444 38.4914C89.7234 38.4599 88.8764 37.595 89.4337 32.9894C89.9711 28.6019 91.494 25.5771 91.494 25.54L91.5675 25.4183L91.4384 25.3343C91.3859 25.3133 90.1295 24.7927 88.8805 24.7927L88.8787 24.7918ZM80.8303 36.2639C80.4504 36.2639 80.2478 35.6131 80.2478 34.9319C80.2478 34.194 80.6162 29.9461 82.4143 27.7673C82.8131 27.3433 83.2876 27.0756 83.7611 27.0756C84.9126 27.0756 85.9894 28.3086 86.256 28.6259C84.86 31.463 82.8993 34.402 81.5042 35.842C81.2481 36.1286 81.0004 36.264 80.8303 36.264" fill="#D60F27"/>
<path d="M103.173 24.6406C101.159 24.6406 98.7408 27.9743 97.7173 29.5206C97.8863 28.852 98.135 27.8662 98.3261 26.9583C98.4583 26.2781 98.3681 25.747 98.1046 25.3902C97.7582 24.9997 97.1872 24.7919 96.3887 24.7919C95.2457 24.7919 93.8652 25.2915 93.816 25.3104L93.6155 25.3944L93.7929 25.5455C93.7929 25.5665 94.1655 26.0944 93.9356 27.9493C93.6155 29.9699 92.3297 35.008 91.7873 37.0475C91.5385 37.8673 91.5994 38.4653 91.9006 38.8904C92.3593 39.5118 93.2514 39.5832 93.8653 39.5832C94.9097 39.5832 95.9489 39.2179 95.994 39.1654L96.1935 39.1234L96.0738 38.9587C96.0663 38.9482 95.5763 38.1672 96.1473 36.6588C97.6858 32.7754 99.3958 30.507 100.422 29.7283C100.659 29.5625 100.901 29.4607 101.138 29.4607C101.702 29.4607 102.06 30.0936 102.06 30.0936L102.144 30.2521L102.269 30.124C102.806 29.5898 103.765 28.4559 104.115 27.4328C104.356 26.8198 104.669 25.7292 104.199 25.0964C104.004 24.7804 103.654 24.6408 103.172 24.6408" fill="#D60F27"/>
<path d="M114.803 26.4657C114.238 26.6609 112.851 26.7889 110.988 26.7889C110.778 26.7889 110.605 26.7889 110.488 26.7889C110.572 26.3072 110.909 24.9457 111.274 23.6549C111.504 22.8761 111.478 22.2367 111.149 21.8231C110.826 21.4274 110.296 21.25 109.491 21.25C108.362 21.25 106.736 21.7549 106.673 21.7843L106.431 21.8577L106.639 22.0467C107.263 22.6848 106.587 25.7602 106.296 26.9033C106.264 26.9663 104.678 33.0667 104.678 35.9822C104.678 38.4279 106.018 39.6402 108.584 39.6402C109.781 39.6402 111.526 39.3169 112.7 38.2999C113.212 37.8569 113.437 37.2241 113.302 36.5544C113.229 36.0736 112.99 35.6968 112.99 35.6779L112.906 35.5005L112.756 35.6401C112.735 35.6401 112.207 36.1597 111.152 36.5166C110.754 36.6331 110.442 36.7128 110.118 36.7128C109.779 36.7128 109.494 36.5733 109.226 36.3476C108.632 35.7378 109.015 33.5598 109.142 32.8596C109.342 31.7535 109.83 29.6951 109.936 29.1797C110.12 29.1797 110.508 29.1723 111.004 29.1723C111.43 29.1723 111.795 29.1797 112.151 29.1797C114.36 29.2217 114.978 27.5056 115 26.5988V26.3721L114.803 26.4657Z" fill="#D60F27"/>
</svg>
