<svg width="115" height="80" viewBox="0 0 115 80" fill="none" xmlns="http://www.w3.org/2000/svg">
<path d="M20.7244 28.0084H3.95509C3.4361 28.0073 2.92198 28.1086 2.44217 28.3064C1.96237 28.5043 1.5263 28.7948 1.15892 29.1614C0.791549 29.528 0.500089 29.9634 0.301224 30.4428C0.102359 30.9222 -1.17472e-06 31.4361 0 31.9551V48.6992C0 50.8825 1.76342 52.6459 3.94669 52.6459H20.7244C22.9076 52.6459 24.6711 50.8825 24.6711 48.6992V48.5312C24.6711 48.5312 18.2556 45.8609 15.0142 44.3074C12.8394 46.9777 10.0347 48.5984 7.12085 48.5984C2.20007 48.5984 0.529022 44.299 2.86345 41.4608C3.57947 40.6727 4.53072 40.1367 5.57576 39.9325C7.67507 39.4118 11.0172 40.2516 14.1409 41.276C14.7287 40.2012 15.199 39.0676 15.5349 37.8919H5.88645V36.9179H10.866V35.1628H4.8368V34.1888H10.866V31.6948C10.866 31.6948 10.866 31.2749 11.2859 31.2749H13.7211V34.1888H19.6831V35.1628H13.7211V36.9179H18.5915C18.1513 38.7365 17.4559 40.4837 16.5257 42.1073C18.0037 42.6448 19.3304 43.1486 20.3129 43.4761C23.8649 44.6685 24.6795 44.7357 24.6795 44.7357V31.9467C24.6795 31.4277 24.5771 30.9138 24.3782 30.4344C24.1794 29.955 23.8879 29.5196 23.5205 29.153C23.1531 28.7864 22.7171 28.4959 22.2373 28.298C21.7575 28.1002 21.2433 27.9989 20.7244 28" fill="#00A1E9"/>
<path d="M35.0416 37.4374L32.1613 43.2567H37.7959L35.0416 37.4374ZM39.2738 46.54L38.2157 44.3399H31.7331L30.5994 46.54H28.3406L34.6973 33.5075C34.7616 33.3707 34.8638 33.2552 34.9919 33.1748C35.1199 33.0945 35.2683 33.0525 35.4194 33.054H36.3431L42.6495 46.54H39.2738ZM114.597 35.2541V33.4487L113.976 34.7587H113.673L113.043 33.4487V35.2541H112.632V32.5586H113.043L113.824 34.238L114.597 32.5586H115V35.2457L114.597 35.2541ZM111.431 32.9281V35.2541H111.028V32.9281H110.289V32.5586H112.17V32.9281H111.431Z" fill="#3F3B3A"/>
<path d="M13.2213 43.0053C10.7274 41.7877 8.61126 40.9227 6.33561 41.1495C5.46682 41.2239 4.63421 41.5314 3.9256 42.0396C2.02783 43.6938 3.16985 46.7168 7.00738 46.7168C9.23265 46.7168 11.4579 45.2893 13.2213 43.0053Z" fill="#00A1E9"/>
<path d="M46.9909 46.5328H43.9343V33.6263C43.9343 33.4835 43.9931 33.3324 44.1023 33.2148C44.2198 33.1057 44.3794 33.0469 44.5221 33.0469H46.9909V46.516" fill="#3F3B3A"/>
<path d="M49.6781 37.1693C49.6781 37.0182 49.7369 36.8754 49.846 36.7579C49.9015 36.7035 49.9671 36.6607 50.0392 36.6319C50.1112 36.6031 50.1883 36.5888 50.2659 36.5899H52.7515V46.5238H49.6781V37.1693Z" fill="#3F3B3A"/>
<path d="M58.4111 43.761C58.4105 43.9932 58.457 44.2231 58.548 44.4368C58.6389 44.6504 58.7723 44.8433 58.9401 45.0038C59.1081 45.155 59.3096 45.2809 59.5447 45.3733C59.7799 45.4573 60.0402 45.5077 60.3257 45.5077C60.586 45.5077 60.8295 45.4237 61.073 45.2474C61.3082 45.0794 61.5097 44.8359 61.6776 44.5252C61.854 44.2229 61.9883 43.8534 62.0975 43.4335C62.1983 43.0053 62.2486 42.5434 62.2486 42.0396C62.2486 41.4014 62.2067 40.8304 62.1143 40.3518C62.046 39.9275 61.9188 39.5149 61.7364 39.1258C61.5685 38.7983 61.3753 38.5548 61.1486 38.3952C60.9306 38.2317 60.6654 38.1433 60.3929 38.1433C60.1997 38.1433 60.015 38.1769 59.8302 38.2441C59.6455 38.3112 59.4776 38.3952 59.3096 38.5044C58.9728 38.7545 58.6707 39.0481 58.4111 39.3777V43.761ZM55.3209 37.1692C55.3209 37.0265 55.3797 36.8753 55.4889 36.7578C55.6148 36.6486 55.766 36.5898 55.9087 36.5898H58.4111V37.3707C59.2001 36.7098 60.2037 36.3603 61.2326 36.3883C61.8238 36.3791 62.41 36.4982 62.9507 36.7373C63.4914 36.9765 63.9739 37.3302 64.3647 37.7738C64.7482 38.2089 65.0447 38.7134 65.2381 39.2601C65.4396 39.8479 65.5488 40.4525 65.5404 41.0655C65.5404 41.8801 65.4228 42.6274 65.1793 43.316C64.9358 44.0046 64.5915 44.6008 64.138 45.1046C63.6794 45.6092 63.1183 46.01 62.4922 46.2802C61.8456 46.5657 61.1234 46.7085 60.3257 46.7085C59.9226 46.7085 59.5699 46.6917 59.276 46.6665C58.9821 46.6329 58.6882 46.5657 58.4111 46.4482V50.4368H55.3209V37.1692Z" fill="#3F3B3A"/>
<path d="M69.1174 43.2398C69.1174 42.0893 70.0831 41.2076 71.2587 41.1152C72.0061 41.0649 72.4511 41.1992 72.7198 41.3672V44.768C72.4158 45.047 72.038 45.2326 71.6314 45.3026C71.2248 45.3727 70.8067 45.3243 70.4268 45.1631C70.047 45.002 69.7216 44.735 69.4894 44.3939C69.2572 44.0529 69.1281 43.6522 69.1174 43.2398ZM73.5176 36.7067C72.0397 36.2868 70.1755 36.2197 67.6227 36.8747C67.7067 37.1182 67.8159 37.5632 67.8998 37.8151C71.9305 37.1182 72.7114 37.664 72.7114 39.3686V39.906C71.9725 39.8557 71.1076 39.7297 70.3938 39.7213C69.9154 39.6856 69.4347 39.7487 68.9816 39.9065C68.5285 40.0643 68.1127 40.3135 67.76 40.6387C67.4072 40.9639 67.1251 41.3581 66.931 41.7969C66.7369 42.2356 66.6351 42.7096 66.6318 43.1894C66.6318 45.5658 68.9411 47.7743 72.7114 46.1452V46.5231H75.8604V39.2763C75.8604 37.8655 74.626 37.009 73.5092 36.7067" fill="#3F3B3A"/>
<path d="M76.7002 36.4062H79.9583L83.166 42.5362L85.8196 36.8009C85.8741 36.6811 85.9614 36.5792 86.0715 36.507C86.1806 36.4398 86.315 36.4062 86.441 36.4062H88.1792L83.0569 47.457C81.8309 50.4716 78.8415 50.0434 78.2956 50.0434V48.3807C78.7155 48.3807 80.0843 48.3975 80.6805 47.7341C80.8148 47.5914 80.9576 47.3142 81.0499 47.1211L81.2851 46.6173L81.6461 45.8195L76.6918 36.4146" fill="#3F3B3A"/>
<path d="M52.8605 33.6531C52.8605 34.4592 52.1215 35.1226 51.2062 35.1226C50.2825 35.1226 49.5436 34.4592 49.5436 33.6531C49.5436 32.8386 50.2825 32.1836 51.2062 32.1836C52.1215 32.1836 52.8605 32.8386 52.8605 33.6531Z" fill="#00A1E9"/>
<path d="M109.928 46.6351H107.669C107.635 46.6332 107.602 46.623 107.573 46.6055C107.544 46.5879 107.519 46.5635 107.501 46.5343L104.865 41.9998L103.521 43.5701V46.6351H101.682C101.628 46.6329 101.577 46.6098 101.539 46.5707C101.501 46.5315 101.48 46.4794 101.481 46.4251V36.6591C101.481 36.5416 101.564 36.4492 101.682 36.4492H103.521V40.5975C103.521 40.618 103.527 40.638 103.539 40.6549C103.55 40.6719 103.567 40.6848 103.586 40.6921C103.605 40.6994 103.626 40.7007 103.646 40.6958C103.666 40.6909 103.684 40.68 103.697 40.6646L107.14 36.5248C107.16 36.5014 107.184 36.4825 107.212 36.4694C107.239 36.4564 107.269 36.4495 107.3 36.4492H109.685L106.217 40.4967L109.928 46.6351ZM99.0117 46.6351H97.1643C97.1087 46.6351 97.0553 46.6129 97.0159 46.5736C96.9765 46.5342 96.9544 46.4808 96.9544 46.4251V42.5876C96.9544 42.5319 96.9323 42.4785 96.8929 42.4391C96.8536 42.3998 96.8001 42.3777 96.7445 42.3777H93.3604V46.6435H91.5046C91.4489 46.6435 91.3955 46.6213 91.3562 46.582C91.3168 46.5426 91.2947 46.4892 91.2947 46.4335V36.6591C91.2947 36.5416 91.387 36.4492 91.5046 36.4492H93.3604V40.6142H96.7445C96.862 40.6142 96.9544 40.5219 96.9544 40.4043V36.6591C96.9544 36.5416 97.0384 36.4492 97.1559 36.4492H99.0201V46.6351H99.0117Z" fill="#00A1E9"/>
</svg>
