<svg width="115" height="80" viewBox="0 0 115 80" fill="none" xmlns="http://www.w3.org/2000/svg">
<path fill-rule="evenodd" clip-rule="evenodd" d="M45.3785 46.2579C41.1288 49.3943 34.9675 51.0621 29.6617 51.0621C22.2261 51.0621 15.5299 48.3134 10.4625 43.7379C10.0651 43.3783 10.4195 42.8877 10.8977 43.1659C16.3645 46.3472 23.1258 48.2633 30.108 48.2633C34.8183 48.2633 39.9965 47.2854 44.7609 45.2644C45.4795 44.9601 46.0822 45.738 45.3785 46.2579Z" fill="#F79C34"/>
<path fill-rule="evenodd" clip-rule="evenodd" d="M47.1474 44.2381C46.6034 43.5423 43.5543 43.9085 42.1842 44.0726C41.7692 44.1228 41.7047 43.7599 42.0787 43.4974C44.5114 41.7885 48.4979 42.2817 48.9611 42.8543C49.4276 43.4309 48.838 47.4279 46.5591 49.3348C46.2079 49.628 45.8743 49.4717 46.03 49.0847C46.5434 47.8032 47.6914 44.9352 47.1474 44.2381Z" fill="#F79C34"/>
<path fill-rule="evenodd" clip-rule="evenodd" d="M42.2806 31.4266V29.7666C42.2819 29.5138 42.4721 29.3457 42.7014 29.3464L50.1429 29.3457C50.3807 29.3457 50.5723 29.5184 50.5723 29.7646V31.1882C50.5696 31.4273 50.3683 31.7387 50.012 32.2332L46.157 37.7371C47.5877 37.7038 49.1012 37.9182 50.4016 38.6485C50.6947 38.8133 50.7736 39.0577 50.7964 39.2968V41.0682C50.7964 41.3125 50.5293 41.5946 50.2478 41.448C47.9578 40.248 44.9185 40.117 42.3855 41.4624C42.1268 41.6005 41.8564 41.3216 41.8564 41.0773V39.3932C41.8564 39.1241 41.8617 38.6628 42.1333 38.2524L46.5987 31.8455L42.7106 31.8449C42.4728 31.8449 42.2819 31.6755 42.2806 31.4266Z" fill="#333E47"/>
<path fill-rule="evenodd" clip-rule="evenodd" d="M15.1364 41.7961H12.8724C12.6568 41.7824 12.4848 41.6208 12.4672 41.4136L12.4691 29.7941C12.4691 29.5622 12.6646 29.3765 12.9063 29.3765L15.0145 29.3758C15.2347 29.3869 15.412 29.5537 15.4256 29.7661V31.2828H15.4686C16.0179 29.8156 17.0531 29.1309 18.448 29.1309C19.8637 29.1309 20.7517 29.8156 21.3856 31.2828C21.9348 29.8156 23.1818 29.1309 24.5128 29.1309C25.464 29.1309 26.4992 29.5224 27.1331 30.4026C27.8518 31.3812 27.7045 32.7988 27.7045 34.0458L27.7019 41.3785C27.7019 41.6097 27.5071 41.7961 27.2654 41.7961H25.0047C24.7767 41.7817 24.5982 41.6019 24.5982 41.3791L24.5975 35.2192C24.5975 34.7305 24.6398 33.5083 24.5337 33.0438C24.3649 32.2607 23.858 32.0405 23.2033 32.0405C22.6534 32.0405 22.0827 32.4073 21.8501 32.9936C21.6175 33.5813 21.639 34.5585 21.639 35.2192V41.3785C21.639 41.6097 21.4436 41.7961 21.2025 41.7961H18.9411C18.7138 41.7817 18.5346 41.6019 18.5346 41.3791L18.532 35.2192C18.532 33.9233 18.7437 32.017 17.1378 32.017C15.5103 32.017 15.5742 33.8745 15.5742 35.2192L15.5729 41.3785C15.5729 41.6097 15.3774 41.7961 15.1364 41.7961Z" fill="#333E47"/>
<path fill-rule="evenodd" clip-rule="evenodd" d="M56.9987 31.503C55.3295 31.503 55.224 33.7761 55.224 35.1944C55.224 36.6127 55.2031 39.6448 56.9785 39.6448C58.7323 39.6448 58.817 37.1997 58.817 35.7084C58.817 34.7305 58.774 33.5565 58.4782 32.6275C58.2248 31.8203 57.7173 31.503 56.9987 31.503ZM56.9785 29.1309C60.3383 29.1309 62.1553 32.017 62.1553 35.6843C62.1553 39.2285 60.148 42.041 56.9785 42.041C53.6812 42.041 51.885 39.1555 51.885 35.5618C51.885 31.9427 53.7021 29.1309 56.9785 29.1309Z" fill="#333E47"/>
<path fill-rule="evenodd" clip-rule="evenodd" d="M66.5131 41.7961H64.257C64.0309 41.7817 63.8511 41.6019 63.8511 41.3791L63.8472 29.7557C63.8667 29.5426 64.0543 29.3765 64.2824 29.3765L66.3822 29.3758C66.5802 29.3862 66.7431 29.5205 66.7848 29.7009V31.4782H66.8271C67.4617 29.8886 68.3484 29.1309 69.912 29.1309C70.9264 29.1309 71.9199 29.4977 72.5539 30.5003C73.1454 31.4294 73.1454 32.9936 73.1454 34.1188V41.4306C73.1207 41.6365 72.9356 41.7961 72.7115 41.7961H70.4423C70.2325 41.783 70.0638 41.6286 70.0391 41.4306V35.1221C70.0391 33.8503 70.1876 31.9916 68.6233 31.9916C68.0741 31.9916 67.5666 32.3584 67.3132 32.9207C66.9959 33.6301 66.9535 34.339 66.9535 35.1221V41.3785C66.9496 41.6097 66.7542 41.7961 66.5131 41.7961Z" fill="#333E47"/>
<path fill-rule="evenodd" clip-rule="evenodd" d="M38.6302 41.7675C38.481 41.9017 38.2654 41.9108 38.096 41.8203C37.3441 41.1955 37.2093 40.9069 36.7982 40.3114C35.5558 41.5773 34.6756 41.9571 33.0657 41.9571C31.1601 41.9571 29.6772 40.7805 29.6772 38.4285C29.6772 36.5906 30.6734 35.3411 32.0917 34.7287C33.3198 34.1892 35.0352 34.0915 36.3486 33.9442V33.6504C36.3486 33.1103 36.391 32.4745 36.0731 32.0086C35.7975 31.5917 35.2684 31.4203 34.8026 31.4203C33.9387 31.4203 33.1719 31.8627 32.983 32.7794C32.9432 32.9833 32.7947 33.1859 32.5901 33.1963L30.3952 32.9585C30.2102 32.9162 30.0043 32.7676 30.0571 32.4849C30.5555 29.86 32.8996 29.0417 35.03 29.0195H35.1981C36.2887 29.0332 37.6816 29.3323 38.5299 30.146C39.6316 31.1754 39.5247 32.5474 39.5247 34.0426V37.5692C39.5247 38.6305 39.9658 39.0957 40.3795 39.667C40.5248 39.8736 40.5567 40.1179 40.3723 40.269C39.9098 40.6567 39.0882 41.3701 38.6367 41.7727L38.6302 41.7675ZM36.3486 36.248C36.3486 37.1301 36.3695 37.865 35.9252 38.6494C35.5649 39.2859 34.9929 39.6781 34.3576 39.6781C33.4898 39.6781 32.9817 39.0168 32.9817 38.0363C32.9817 36.1079 34.7108 35.7574 36.3486 35.7574V36.248Z" fill="#333E47"/>
<path fill-rule="evenodd" clip-rule="evenodd" d="M8.95361 41.7675C8.80376 41.9017 8.58746 41.9108 8.41872 41.8203C7.66624 41.1955 7.53137 40.9069 7.12093 40.3114C5.87786 41.5773 4.99833 41.9571 3.38847 41.9571C1.48282 41.9571 0 40.7805 0 38.4285C0 36.5906 0.994845 35.3411 2.41447 34.7287C3.64255 34.1892 5.35796 34.0915 6.67074 33.9442V33.6504C6.67074 33.1103 6.71374 32.4745 6.3958 32.0086C6.12022 31.5917 5.59055 31.4203 5.12537 31.4203C4.26148 31.4203 3.49336 31.8627 3.30573 32.7794C3.26664 32.9833 3.11744 33.1859 2.91222 33.1963L0.717956 32.9585C0.532278 32.9162 0.326403 32.7676 0.379826 32.4849C0.876923 29.86 3.22168 29.0417 5.35275 29.0195H5.52084C6.61145 29.0332 8.00437 29.3323 8.85262 30.146C9.95366 31.1754 9.84747 32.5474 9.84747 34.0426V37.5692C9.84747 38.6305 10.2885 39.0957 10.7022 39.667C10.8462 39.8736 10.8794 40.1179 10.6951 40.269C10.2325 40.6567 9.41031 41.3701 8.95882 41.7727L8.95361 41.7675ZM6.67074 36.248C6.67074 37.1301 6.69224 37.865 6.24726 38.6494C5.88763 39.2859 5.31561 39.6781 4.67975 39.6781C3.81194 39.6781 3.30377 39.0168 3.30377 38.0363C3.30377 36.1079 5.03351 35.7574 6.67074 35.7574V36.248Z" fill="#333E47"/>
<path fill-rule="evenodd" clip-rule="evenodd" d="M104.093 45.9649C104.093 45.6704 104.093 45.4059 104.093 45.1114C104.093 44.8684 104.212 44.701 104.465 44.7159C104.938 44.7831 105.607 44.8502 106.082 44.7524C106.702 44.6234 107.147 44.1837 107.411 43.581C107.781 42.7328 108.027 42.0487 108.182 41.5998L103.472 29.9327C103.393 29.7346 103.369 29.3672 103.765 29.3672H105.411C105.725 29.3672 105.853 29.5665 105.923 29.762L109.338 39.2388L112.597 29.762C112.664 29.5679 112.797 29.3672 113.109 29.3672H114.661C115.054 29.3672 115.032 29.734 114.954 29.9327L110.282 41.964C109.677 43.5654 108.872 46.116 107.058 46.559C106.149 46.7968 105.001 46.7108 104.328 46.4287C104.158 46.3434 104.093 46.1154 104.093 45.9649Z" fill="#333E47"/>
<path fill-rule="evenodd" clip-rule="evenodd" d="M101.896 41.0854C101.896 41.3023 101.719 41.4802 101.5 41.4802H100.339C100.088 41.4802 99.9171 41.2991 99.8852 41.0854L99.7686 40.2951C99.235 40.7466 98.5802 41.1434 97.8701 41.4196C96.5045 41.9499 94.9305 42.0379 93.5962 41.2183C92.6313 40.6261 92.1193 39.4684 92.1193 38.2741C92.1193 37.3503 92.404 36.4343 93.0353 35.7691C93.8777 34.8603 95.0986 34.414 96.5729 34.414C97.4635 34.414 98.7379 34.5189 99.665 34.8218V33.2315C99.665 31.6145 98.9841 30.9148 97.1893 30.9148C95.8172 30.9148 94.7676 31.1219 93.307 31.576C93.0731 31.5839 92.9362 31.406 92.9362 31.1891V30.2822C92.9362 30.0646 93.1219 29.8541 93.3232 29.7903C94.3663 29.3355 95.8439 29.0521 97.4147 29C99.4623 29 101.896 29.4619 101.896 32.6113V41.0854ZM99.665 38.7634V36.3639C98.8858 36.1509 97.5964 36.0623 97.0974 36.0623C96.3091 36.0623 95.4458 36.2486 94.995 36.734C94.6582 37.0897 94.5057 37.6005 94.5057 38.0943C94.5057 38.7328 94.7266 39.3732 95.2426 39.6899C95.8419 40.0971 96.7716 40.0475 97.6453 39.7993C98.4851 39.5609 99.2734 39.1393 99.665 38.7634Z" fill="#333E47"/>
<path fill-rule="evenodd" clip-rule="evenodd" d="M84.778 30.9503C87.3541 30.9503 88.0557 32.9758 88.0557 35.2951C88.0701 36.8588 87.7828 38.253 86.9729 39.0511C86.367 39.6485 85.6901 39.8114 84.6712 39.8114C83.7643 39.8114 82.5714 39.3384 81.6801 38.6797V32.0481C82.6079 31.3353 83.7916 30.9503 84.778 30.9503ZM81.2853 46.3805H79.7302C79.5126 46.3805 79.3347 46.2026 79.3347 45.9857C79.3347 40.5847 79.3347 35.1831 79.3347 29.7821C79.3347 29.5652 79.5126 29.3873 79.7302 29.3873H80.9205C81.1707 29.3873 81.342 29.5684 81.3739 29.7821L81.499 30.631C82.6137 29.6414 84.049 29.0068 85.4165 29.0068C89.2467 29.0068 90.506 32.1627 90.506 35.4443C90.506 38.9553 88.5795 41.7763 85.3214 41.7763C83.9493 41.7763 82.6665 41.2701 81.6801 40.3905V45.9857C81.6801 46.2026 81.5023 46.3805 81.2853 46.3805Z" fill="#333E47"/>
</svg>