<svg width="115" height="80" viewBox="0 0 115 80" fill="none" xmlns="http://www.w3.org/2000/svg">
<g clip-path="url(#clip0)">
<path d="M0 -18H114V96H0V-18Z" fill="white"/>
<path d="M114.299 44.0832H108.344C106.566 44.0832 105.233 44.4945 104.314 45.1545V44.0832H95.5338C94.1418 44.0832 92.4631 44.4177 91.6852 45.1545V44.0832H75.9949V45.1545C74.7393 44.273 72.6376 44.0832 71.6458 44.0832H61.2872V45.1545C60.2955 44.2052 58.121 44.0832 56.788 44.0832H45.1739L42.5171 46.9401L40.0469 44.0832H22.728V62.7163H39.7239L42.4489 59.8142L45.0283 62.7072L55.4915 62.7163V58.3224H56.5333C57.9162 58.3224 59.554 58.2908 60.9824 57.6806V62.7163H69.6487V57.8388H70.0718C70.5995 57.8342 70.6404 57.8795 70.6404 58.3767V62.7163H96.8759C98.5272 62.7163 100.306 62.2914 101.266 61.5365V62.7163H109.582C111.306 62.7163 113.012 62.4677 114.299 61.8619V96H0V39.7346H5.48637L6.72376 36.7466H9.48969L10.7316 39.7346H21.5315V37.4608L22.5005 39.7391H28.0915L29.065 37.4246V39.7346H55.8918L55.8873 34.8571H56.4105C56.7971 34.8571 56.8881 34.9023 56.8881 35.4944V39.7346H70.7678L70.7633 38.5773C71.8687 39.174 73.6066 39.7346 75.9176 39.7346H81.7542L83.0144 36.7466H85.7803L87.0222 39.7346H98.2406V36.9048L99.9648 39.7346H108.977V21.1015H100.065V23.2984L98.7865 21.1015H89.6289V23.2984L88.5053 21.1015H76.1359C74.0524 21.1015 72.219 21.3772 70.7633 22.1728V21.1015H62.238V22.1728C61.269 21.3591 60.0089 21.1015 58.5986 21.1015H27.4137L25.3028 25.9067L23.1692 21.1015H13.3565V23.2984L12.2465 21.1015H3.8714L0 29.9389V-18H114.299V44.0832ZM106.129 37.1037H101.552L95.4702 27.082L95.4747 37.1037H88.9375L87.7001 34.1112H81.0127L79.7799 37.1037H76.0404C74.4618 37.1037 72.4874 36.7421 71.3683 35.6165C70.2401 34.4728 69.6669 32.9494 69.6669 30.5175C69.6669 28.533 70.0218 26.7203 71.3911 25.2964C72.4237 24.2341 74.066 23.7323 76.2815 23.7323H79.3522V26.5983L76.3452 26.5938C75.1578 26.5938 74.4891 26.7701 73.8613 27.3939C73.2972 27.9499 72.9196 29.0167 72.9196 30.4225C72.9196 31.8465 73.2017 32.8681 73.834 33.5552C74.3071 34.075 75.1988 34.2378 76.0631 34.2378H77.5052L82.0317 23.7323H86.8175L92.2629 36.3759V23.7323H97.1716L102.822 33.0398L102.817 23.7323H106.129V37.1037ZM64.8083 37.1037H68.0974V23.7278H64.8083V37.1037ZM61.3054 24.3788C60.2682 23.7911 59.0627 23.7323 57.434 23.7323H50.0324V37.1037H53.2442V32.2352H56.6925C57.8617 32.2352 58.5668 32.3392 59.0263 32.8229C59.6222 33.4512 59.554 34.6175 59.554 35.4131V37.1037H62.7885V34.4502C62.7885 33.2885 62.7066 32.6737 62.2562 32.0273C61.9833 31.6385 61.3782 31.1594 60.6731 30.8927C61.5192 30.5627 62.9613 29.4642 62.9613 27.3441C62.9613 25.8479 62.3381 24.9709 61.3054 24.3788ZM47.8079 34.3101L40.288 34.3191V31.6702L47.6259 31.6747V28.9263H40.288V26.5169H47.8079V23.7323H37.0762V37.1037H47.8079V34.3101ZM34.6788 23.7323H29.3289L25.462 32.8003L21.2722 23.7323H16.0133L16.0178 36.3804L10.5679 23.7323H5.78207L0.0272939 37.1037H3.5302L4.76304 34.1112H11.4504L12.6878 37.1037H19.225V26.6209L23.8971 37.1037H26.7222L31.3806 26.6344V37.1037H34.6788V23.7323ZM86.5446 31.3266L84.3518 26.0151L82.1637 31.3266H86.5446ZM58.7351 29.2156C58.3029 29.4732 57.7798 29.4913 57.1611 29.4913H53.2442V26.5169H57.2066C57.7752 26.5169 58.353 26.535 58.7351 26.7475C59.1354 26.969 59.3948 27.3803 59.3948 27.9454C59.3948 28.5194 59.1445 28.9805 58.7351 29.2156ZM5.914 31.3266L8.10218 26.0151L10.2949 31.3266H5.914ZM115 55.8724C115 58.7157 113.203 60.0809 109.95 60.0809H103.745V57.215H109.928C110.524 57.215 110.951 57.1336 111.22 56.8895C111.433 56.6906 111.597 56.3922 111.597 56.0171C111.597 55.6193 111.433 55.3209 111.206 55.1311C110.965 54.9276 110.637 54.8463 110.087 54.8327C107.084 54.7513 103.308 54.9276 103.308 50.6875C103.308 48.7708 104.532 46.7095 107.912 46.7095H114.318V49.58H108.454C107.876 49.58 107.489 49.5981 107.175 49.806C106.834 50.0275 106.698 50.3439 106.698 50.7734C106.698 51.2706 106.989 51.6187 107.403 51.7634C107.73 51.8764 108.099 51.9035 108.636 51.9125L110.36 51.9577C112.143 51.9984 113.308 52.2922 114.031 53.0336C114.668 53.6981 115 54.4801 115 55.8724ZM101.475 53.0336C100.752 52.2968 99.5781 51.9984 97.7948 51.9577L96.0752 51.9125C95.5384 51.9035 95.1745 51.8764 94.8424 51.7634C94.4329 51.6187 94.1418 51.2706 94.1418 50.7734C94.1418 50.3439 94.2783 50.0275 94.6149 49.806C94.9288 49.5981 95.32 49.58 95.9023 49.58H101.794V46.7095H95.3564C91.9763 46.7095 90.7526 48.7663 90.7526 50.6875C90.7526 54.9322 94.5285 54.7513 97.5264 54.8327C98.0769 54.8463 98.409 54.9276 98.6455 55.1311C98.873 55.3209 99.0413 55.6193 99.0413 56.0171C99.0413 56.3922 98.873 56.6906 98.6592 56.8895C98.3908 57.1336 97.9677 57.215 97.3672 57.215H91.1302V60.0809H97.3899C100.643 60.0809 102.44 58.7157 102.44 55.8724C102.44 54.4801 102.112 53.6981 101.475 53.0336ZM89.2195 57.3008L81.6996 57.2963V54.6564H89.0421V51.9035L81.6996 51.908V49.4986H89.2195V46.7095H78.4879V60.0809H89.2195V57.3008ZM75.0532 47.3605C74.0114 46.7683 72.8104 46.7095 71.1864 46.7095H63.7802V60.0809H66.9874V55.2215L70.4448 55.2169C71.614 55.2169 72.3146 55.3209 72.7786 55.8001C73.3745 56.4329 73.3018 57.5947 73.3018 58.3903V60.0809H76.5408V57.4319C76.5363 56.2702 76.4589 55.6554 76.004 55.009C75.7356 54.6157 75.1305 54.1366 74.43 53.8699C75.267 53.5399 76.7091 52.4459 76.7091 50.3213C76.7091 48.8296 76.0859 47.9527 75.0532 47.3605ZM56.8654 46.7095H46.5932L42.4944 51.0988L38.5547 46.7095H25.6167V60.0809H38.3546L42.4625 55.6735L46.4158 60.0809H52.671V55.6057H56.6652C59.4721 55.6057 62.2562 54.8327 62.2562 51.1305C62.2562 47.4328 59.3993 46.7095 56.8654 46.7095ZM72.4874 52.2018C72.0507 52.4504 71.5276 52.4685 70.9089 52.4685L66.9874 52.4731V49.4986H70.9544C71.523 49.4986 72.1008 49.5167 72.4874 49.7246C72.8878 49.9507 73.1425 50.362 73.1425 50.9271C73.1425 51.5012 72.8923 51.9622 72.4874 52.2018ZM56.829 52.8618H52.671V49.4986H56.8654C58.0163 49.4986 58.8079 49.9733 58.8079 51.1305C58.8079 52.2787 58.0527 52.8618 56.829 52.8618ZM44.537 53.4269L49.4592 48.1606V58.8604L44.537 53.4269ZM36.7259 57.2963H28.833V54.6564H35.8707V51.9035L28.833 51.908V49.4986H36.867L40.3926 53.3862L36.7259 57.2963Z" fill="url(#paint0_radial)"/>
</g>
<defs>
<radialGradient id="paint0_radial" cx="0" cy="0" r="1" gradientUnits="userSpaceOnUse" gradientTransform="translate(18.7086 -1.02469) rotate(46.8025) scale(127.162 116.897)">
<stop stop-color="#7FD3F3"/>
<stop offset="1" stop-color="#017CC2"/>
</radialGradient>
<clipPath id="clip0">
<rect width="115" height="80" fill="white"/>
</clipPath>
</defs>
</svg>