<svg width="113" height="80" viewBox="0 0 113 80" fill="none" xmlns="http://www.w3.org/2000/svg">
<path d="M87.5365 24.5801H83.9544H67.3792H63.797L61.3684 27.3166L53.5362 36.1647L51.1076 38.9012H47.5254H31.2538H27.6716L30.0395 36.1343L31.1627 34.8268L33.5306 32.0599H29.9484H25.3341H22.7537C20.7805 32.0599 19.1715 33.7322 19.1715 35.739V42.854V43.5229C19.1715 45.5601 20.7805 47.202 22.7537 47.202H23.7555H61.3987H64.1006C66.0738 47.202 68.7756 45.9554 70.081 44.4655L76.3346 37.3505L87.5365 24.5801Z" fill="#004E91"/>
<path d="M92.3027 16.2804C94.276 16.2804 95.8849 17.9527 95.8849 19.9595V27.7434C95.8849 29.7806 94.276 31.4225 92.3027 31.4225H90.3599H85.108H81.5258L83.9241 28.686L85.108 27.3177L87.5063 24.5812H63.7667L51.1077 38.8719H27.5199L44.429 19.7163L45.0665 18.9865C46.4022 17.4966 49.1041 16.25 51.0773 16.25H51.8969H92.3027V16.2804Z" fill="#FFDD00"/>
<path d="M95.885 63.5008V62.3758C95.885 62.2238 95.7939 62.1326 95.5814 62.1326H94.8528C94.6403 62.1326 94.4885 62.1022 94.4582 62.011C94.3974 61.9197 94.3974 61.7373 94.3974 61.4332V57.1764H95.5814C95.6725 57.1764 95.7332 57.146 95.7939 57.0852C95.8546 57.0244 95.885 56.9636 95.885 56.8724V55.6865C95.885 55.5953 95.8546 55.5345 95.7939 55.4737C95.7332 55.4129 95.6725 55.3825 95.5814 55.3825H94.3974V53.8318C94.3974 53.7406 94.3671 53.6798 94.3367 53.6493C94.276 53.6189 94.2153 53.5885 94.1546 53.5885H94.1242L92.3635 53.8926C92.2724 53.923 92.2117 53.9534 92.151 53.9838C92.0903 54.0446 92.0599 54.1054 92.0599 54.1662V55.3521H90.876C90.7849 55.3521 90.7242 55.3825 90.6635 55.4433C90.6028 55.5041 90.5724 55.5649 90.5724 55.6561V56.6291C90.5724 56.7203 90.6028 56.7811 90.6635 56.8116C90.7242 56.8724 90.7849 56.9028 90.876 56.9332L92.0599 57.1156V61.3724C92.0599 61.8893 92.1206 62.315 92.2117 62.6495C92.3331 62.9839 92.4849 63.2272 92.6671 63.4096C92.8796 63.5921 93.1224 63.7137 93.426 63.7745C93.7296 63.8353 94.0939 63.8657 94.4885 63.8657C94.701 63.8657 94.8832 63.8657 95.0653 63.8353C95.2171 63.8049 95.4296 63.7745 95.6421 63.7441C95.7939 63.7441 95.885 63.6529 95.885 63.5008ZM89.5706 63.3488V62.0414C89.5706 61.9501 89.5402 61.8893 89.4795 61.8589C89.4188 61.8285 89.3581 61.7981 89.2974 61.7981H89.267C88.9938 61.8285 88.7206 61.8589 88.4777 61.8589C88.2349 61.8893 87.9009 61.8893 87.4759 61.8893C87.3241 61.8893 87.142 61.8589 87.0206 61.7981C86.8688 61.7373 86.7474 61.6461 86.6259 61.5245C86.5045 61.4028 86.4438 61.2204 86.3831 61.0076C86.3224 60.7947 86.292 60.5211 86.292 60.1866V58.9704C86.292 58.6359 86.3224 58.3623 86.3831 58.1494C86.4438 57.9366 86.5349 57.7541 86.6259 57.6325C86.7474 57.5109 86.8688 57.4197 87.0206 57.3589C87.1724 57.298 87.3241 57.2676 87.4759 57.2676C87.9009 57.2676 88.2349 57.2676 88.4777 57.298C88.7206 57.3285 88.9938 57.3285 89.267 57.3589H89.2974C89.3885 57.3589 89.4492 57.3285 89.4795 57.298C89.5402 57.2676 89.5706 57.2068 89.5706 57.1156V55.8082C89.5706 55.6865 89.5402 55.6257 89.5099 55.5953C89.4492 55.5649 89.3885 55.5041 89.267 55.4737C89.0545 55.4129 88.8117 55.3825 88.4777 55.3217C88.1438 55.2609 87.7795 55.2609 87.3241 55.2609C86.292 55.2609 85.4723 55.5649 84.8348 56.2034C84.2277 56.842 83.8938 57.7541 83.8938 58.9704V60.1866C83.8938 61.3724 84.1973 62.315 84.8348 62.9535C85.442 63.5921 86.292 63.8961 87.3241 63.8961C87.7492 63.8961 88.1438 63.8657 88.4777 63.8353C88.8117 63.7745 89.0849 63.7441 89.267 63.6833C89.3885 63.6529 89.4492 63.6225 89.5099 63.5617C89.5706 63.5312 89.5706 63.44 89.5706 63.3488ZM80.0687 61.7981C79.8866 61.8893 79.7044 61.9501 79.4919 62.011C79.2794 62.0718 79.0669 62.1022 78.8544 62.1022C78.5508 62.1022 78.308 62.0718 78.1562 61.9805C78.0044 61.8893 77.9437 61.7069 77.9437 61.3724V61.2508C77.9437 61.0684 77.9741 60.9163 78.0044 60.7947C78.0348 60.6731 78.1258 60.5515 78.2169 60.4603C78.308 60.369 78.4598 60.3082 78.6116 60.2474C78.7633 60.217 78.9758 60.1866 79.2491 60.1866H80.0687V61.7981ZM82.3759 58.2406C82.3759 57.6933 82.2848 57.2372 82.133 56.8724C81.9812 56.5075 81.7384 56.2034 81.4652 55.9602C81.1616 55.7169 80.8277 55.5345 80.4026 55.4433C79.9776 55.3217 79.4919 55.2609 78.9758 55.2609C78.4901 55.2609 78.0044 55.2913 77.549 55.3521C77.0937 55.4129 76.7294 55.4737 76.4562 55.5649C76.274 55.6257 76.183 55.7169 76.183 55.8994V57.0852C76.183 57.1764 76.2133 57.2372 76.2437 57.298C76.3044 57.3285 76.3651 57.3589 76.4258 57.3589H76.4865C76.608 57.3589 76.7598 57.3285 76.9115 57.3285C77.0937 57.3285 77.2758 57.298 77.4883 57.298C77.7008 57.298 77.9437 57.2676 78.1866 57.2676C78.4294 57.2676 78.6723 57.2676 78.8848 57.2676C79.2187 57.2676 79.4919 57.3285 79.6741 57.4501C79.8562 57.5717 79.9776 57.8454 79.9776 58.271V58.7879H79.1884C77.9437 58.7879 77.0026 58.9704 76.4562 59.3656C75.8794 59.7609 75.6062 60.3994 75.6062 61.2508V61.3724C75.6062 61.8589 75.6669 62.2542 75.8187 62.5583C75.9705 62.8927 76.1526 63.136 76.3955 63.3488C76.6383 63.5312 76.8812 63.6833 77.1848 63.7745C77.4883 63.8657 77.7919 63.8961 78.1258 63.8961C78.5508 63.8961 78.9455 63.8353 79.2491 63.7137C79.5526 63.5921 79.8562 63.44 80.1598 63.2272V63.4704C80.1598 63.5616 80.1901 63.6225 80.2509 63.6833C80.3116 63.7441 80.3723 63.7745 80.4634 63.7745H82.1027C82.1937 63.7745 82.2545 63.7441 82.3152 63.6833C82.3759 63.6225 82.4062 63.5616 82.4062 63.4704V58.2406H82.3759ZM74.574 63.5008V62.3758C74.574 62.2238 74.4829 62.1326 74.2704 62.1326H73.5722C73.3597 62.1326 73.2079 62.1022 73.1776 62.011C73.1169 61.9197 73.1169 61.7373 73.1169 61.4332V57.1764H74.3008C74.3919 57.1764 74.4526 57.146 74.5133 57.0852C74.574 57.0244 74.6044 56.9636 74.6044 56.8724V55.6865C74.6044 55.5953 74.574 55.5345 74.5133 55.4737C74.4526 55.4129 74.3919 55.3825 74.3008 55.3825H73.1169V53.8318C73.1169 53.7406 73.0865 53.6798 73.0561 53.6493C72.9954 53.6189 72.9347 53.5885 72.874 53.5885H72.8436L71.0829 53.8926C70.9918 53.923 70.9311 53.9534 70.8704 53.9838C70.8097 54.0446 70.7793 54.1054 70.7793 54.1662V55.3521H69.5954C69.5043 55.3521 69.4436 55.3825 69.3829 55.4433C69.3222 55.5041 69.2918 55.5649 69.2918 55.6561V56.6291C69.2918 56.7203 69.3222 56.7811 69.3829 56.8116C69.4436 56.8724 69.5043 56.9028 69.5954 56.9332L70.7793 57.1156V61.3724C70.7793 61.8893 70.84 62.315 70.9311 62.6495C71.0525 62.9839 71.2043 63.2272 71.3865 63.4096C71.5686 63.5921 71.8418 63.7137 72.1454 63.7745C72.449 63.8353 72.8133 63.8657 73.2079 63.8657C73.4204 63.8657 73.6026 63.8657 73.7847 63.8353C73.9365 63.8049 74.149 63.7745 74.3615 63.7441C74.4829 63.7441 74.574 63.6529 74.574 63.5008ZM68.1989 63.4704V58.6055C68.1989 58.1494 68.1686 57.7237 68.0775 57.298C68.0168 56.9028 67.865 56.5379 67.6829 56.2338C67.5007 55.9298 67.2275 55.6865 66.8936 55.5345C66.5596 55.3521 66.1346 55.2609 65.5882 55.2609C65.1328 55.2609 64.7078 55.3217 64.3435 55.4433C63.9793 55.5649 63.615 55.7473 63.19 56.0514V55.6865C63.19 55.5953 63.1596 55.5345 63.0989 55.4737C63.0382 55.4129 62.9775 55.3825 62.8864 55.3825H61.2471C61.156 55.3825 61.0953 55.4129 61.0346 55.4737C60.9739 55.5345 60.9435 55.5953 60.9435 55.6865V63.4704C60.9435 63.5616 60.9739 63.6225 61.0346 63.6833C61.0953 63.7441 61.156 63.7745 61.2471 63.7745H63.0078C63.0989 63.7745 63.1596 63.7441 63.2203 63.6833C63.281 63.6225 63.3114 63.5616 63.3114 63.4704V57.7237C63.5543 57.6021 63.7971 57.4805 64.04 57.3893C64.2525 57.298 64.4953 57.2676 64.7078 57.2676C64.9203 57.2676 65.1025 57.298 65.2543 57.3285C65.4061 57.3589 65.4971 57.4501 65.5882 57.5413C65.6793 57.6629 65.7096 57.7845 65.74 57.967C65.7703 58.1494 65.7703 58.3623 65.7703 58.6055V63.4704C65.7703 63.5616 65.8007 63.6225 65.8614 63.6833C65.9221 63.7441 65.9829 63.7745 66.0739 63.7745H67.8347C67.9257 63.7745 67.9864 63.7441 68.0472 63.6833C68.1686 63.6225 68.1989 63.5312 68.1989 63.4704ZM57.1488 60.0954C57.1488 61.2812 56.7238 61.8893 55.8435 61.8893C55.4185 61.8893 55.0845 61.7373 54.872 61.4332C54.6595 61.1292 54.5381 60.6731 54.5381 60.0954V59.0616C54.5381 58.4535 54.6595 58.0278 54.872 57.7237C55.0845 57.4197 55.4185 57.2676 55.8435 57.2676C56.6935 57.2676 57.1488 57.8758 57.1488 59.0616V60.0954ZM59.5167 59.0616C59.5167 58.4839 59.4256 57.9366 59.2738 57.4805C59.1221 57.0244 58.8792 56.6291 58.5756 56.2947C58.2721 55.9602 57.8774 55.7169 57.422 55.5345C56.9667 55.3521 56.4506 55.2609 55.8435 55.2609C55.2363 55.2609 54.7202 55.3521 54.2649 55.5345C53.8095 55.7169 53.4149 55.9602 53.1113 56.2947C52.8077 56.6291 52.5648 57.0244 52.4131 57.4805C52.2613 57.9366 52.1702 58.4839 52.1702 59.0616V60.0954C52.1702 60.6731 52.2613 61.2204 52.4131 61.6765C52.5648 62.1326 52.8077 62.5279 53.1113 62.8623C53.4149 63.1968 53.8095 63.44 54.2649 63.6225C54.7202 63.8049 55.2363 63.8961 55.8435 63.8961C56.4506 63.8961 56.9667 63.8049 57.422 63.6225C57.8774 63.44 58.2721 63.1968 58.5756 62.8623C58.8792 62.5279 59.1221 62.1326 59.2738 61.6765C59.4256 61.2204 59.5167 60.6731 59.5167 60.0954V59.0616ZM51.3809 63.3488V62.0414C51.3809 61.9501 51.3506 61.8893 51.2898 61.8589C51.2291 61.8285 51.1684 61.7981 51.0773 61.7981H51.047C50.7738 61.8285 50.5005 61.8589 50.2577 61.8589C50.0148 61.8589 49.6809 61.8893 49.2559 61.8893C49.1041 61.8893 48.9219 61.8589 48.8005 61.7981C48.6487 61.7373 48.5273 61.6461 48.4059 61.5245C48.2844 61.4028 48.2237 61.2204 48.163 61.0076C48.1023 60.7947 48.0719 60.5211 48.0719 60.1866V58.9704C48.0719 58.6359 48.1023 58.3623 48.163 58.1494C48.2237 57.9366 48.3148 57.7541 48.4059 57.6325C48.5273 57.5109 48.6487 57.4197 48.8005 57.3589C48.9523 57.298 49.1041 57.2676 49.2559 57.2676C49.6809 57.2676 50.0148 57.2676 50.2577 57.298C50.5005 57.3285 50.7738 57.3285 51.047 57.3589H51.0773C51.1684 57.3589 51.2291 57.3285 51.2898 57.298C51.3506 57.2676 51.3809 57.2068 51.3809 57.1156V55.8082C51.3809 55.6865 51.3505 55.6257 51.3202 55.5953C51.2595 55.5649 51.1988 55.5041 51.0773 55.4737C50.8648 55.4129 50.622 55.3825 50.288 55.3217C49.9541 55.2609 49.5898 55.2609 49.1345 55.2609C48.1023 55.2609 47.2826 55.5649 46.6451 56.2034C46.038 56.842 45.7041 57.7541 45.7041 58.9704V60.1866C45.7041 61.3724 46.0076 62.315 46.6451 62.9535C47.2523 63.5921 48.1023 63.8961 49.1345 63.8961C49.5595 63.8961 49.9541 63.8657 50.288 63.8353C50.622 63.7745 50.8648 63.7441 51.0773 63.6833C51.1988 63.6529 51.2595 63.6225 51.3202 63.5617C51.3809 63.5312 51.3809 63.44 51.3809 63.3488ZM44.2165 63.4704V58.6055C44.2165 58.1494 44.1862 57.7237 44.0951 57.298C44.0344 56.9028 43.8826 56.5379 43.7005 56.2338C43.5183 55.9298 43.2451 55.6865 42.9112 55.5345C42.5772 55.3521 42.1522 55.2609 41.6058 55.2609C41.1504 55.2609 40.7254 55.3217 40.3611 55.4433C39.9969 55.5649 39.6326 55.7473 39.2076 56.0514V55.6865C39.2076 55.5953 39.1772 55.5345 39.1165 55.4737C39.0558 55.4129 38.9951 55.3825 38.904 55.3825H37.2647C37.1736 55.3825 37.1129 55.4129 37.0522 55.4737C36.9915 55.5345 36.9611 55.5953 36.9611 55.6865V63.4704C36.9611 63.5616 36.9915 63.6225 37.0522 63.6833C37.1129 63.7441 37.1736 63.7745 37.2647 63.7745H39.0254C39.1165 63.7745 39.1772 63.7441 39.2379 63.6833C39.2986 63.6225 39.329 63.5616 39.329 63.4704V57.7237C39.5718 57.6021 39.8147 57.4805 40.0576 57.3893C40.2701 57.298 40.5129 57.2676 40.7254 57.2676C40.9379 57.2676 41.1201 57.298 41.2719 57.3285C41.4237 57.3589 41.5147 57.4501 41.6058 57.5413C41.6969 57.6629 41.7272 57.7845 41.7576 57.967C41.7879 58.1494 41.7879 58.3623 41.7879 58.6055V63.4704C41.7879 63.5616 41.8183 63.6225 41.879 63.6833C41.9397 63.7441 42.0004 63.7745 42.0915 63.7745H43.8523C43.9433 63.7745 44.004 63.7441 44.0648 63.6833C44.1558 63.6225 44.2165 63.5312 44.2165 63.4704ZM32.9236 61.7981C32.7414 61.8893 32.5593 61.9501 32.3468 62.011C32.1343 62.0718 31.9218 62.1022 31.7093 62.1022C31.4057 62.1022 31.1628 62.0718 31.011 61.9805C30.8593 61.8893 30.7985 61.7069 30.7985 61.3724V61.2508C30.7985 61.0684 30.8289 60.9163 30.8593 60.7947C30.8896 60.6731 30.9807 60.5515 31.0718 60.4603C31.1628 60.369 31.3146 60.3082 31.4664 60.2474C31.6182 60.217 31.8307 60.1866 32.1039 60.1866H32.9236V61.7981ZM35.2611 58.2406C35.2611 57.6933 35.17 57.2372 35.0182 56.8724C34.8664 56.5075 34.6236 56.2034 34.3504 55.9602C34.0468 55.7169 33.7129 55.5345 33.2879 55.4433C32.8629 55.3217 32.3771 55.2609 31.8611 55.2609C31.3753 55.2609 30.8896 55.2913 30.4343 55.3521C29.9789 55.4129 29.6146 55.4737 29.3414 55.5649C29.1592 55.6257 29.0682 55.7169 29.0682 55.8994V57.0852C29.0682 57.1764 29.0985 57.2372 29.1289 57.298C29.1896 57.3285 29.2503 57.3589 29.311 57.3589H29.3717C29.4932 57.3589 29.645 57.3285 29.7967 57.3285C29.9789 57.3285 30.161 57.298 30.4039 57.298C30.6164 57.298 30.8593 57.2676 31.1021 57.2676C31.345 57.2676 31.5878 57.2676 31.8003 57.2676C32.1343 57.2676 32.4075 57.3285 32.5896 57.4501C32.7718 57.5717 32.8932 57.8454 32.8932 58.271V58.7879H32.1039C30.8593 58.7879 29.9182 58.9704 29.3717 59.3656C28.8253 59.7609 28.5217 60.3994 28.5217 61.2508V61.3724C28.5217 61.8589 28.5824 62.2542 28.7342 62.5583C28.886 62.8927 29.0682 63.136 29.311 63.3488C29.5539 63.5312 29.7967 63.6833 30.1003 63.7745C30.4039 63.8657 30.7075 63.8961 31.0414 63.8961C31.4664 63.8961 31.8611 63.8353 32.1646 63.7137C32.4682 63.5921 32.7718 63.44 33.0754 63.2272V63.4704C33.0754 63.5616 33.1057 63.6225 33.1664 63.6833C33.2271 63.7441 33.2879 63.7745 33.3789 63.7745H35.0182C35.1093 63.7745 35.17 63.7441 35.2307 63.6833C35.2914 63.6225 35.3218 63.5616 35.3218 63.4704V58.2406H35.2611ZM24.8181 60.5515C24.8181 60.9467 24.6663 61.2812 24.3931 61.4941C24.1199 61.7069 23.5735 61.8285 22.8449 61.8285H22.602C22.4806 61.8285 22.3592 61.8285 22.2377 61.8285C22.1163 61.8285 21.9949 61.8285 21.8734 61.8285H21.6306V59.092H23.2699C23.8467 59.092 24.2717 59.2136 24.4842 59.4873C24.6967 59.7609 24.8181 60.065 24.8181 60.3994V60.5515ZM24.7574 56.2034C24.7574 56.3555 24.727 56.5075 24.6967 56.6595C24.636 56.8116 24.5753 56.9332 24.4538 57.0244C24.3324 57.1156 24.1806 57.2068 23.9985 57.2676C23.8163 57.3285 23.5735 57.3589 23.2699 57.3589H21.6306V54.8352C21.6913 54.8352 21.752 54.8352 21.8431 54.8352C21.9342 54.8352 22.0556 54.8352 22.177 54.8352H22.511H22.7538C23.5127 54.8352 24.0288 54.9264 24.3324 55.1088C24.636 55.2913 24.7878 55.5953 24.7878 55.9906V56.2034H24.7574ZM27.2467 60.3994C27.2467 59.8825 27.1253 59.4569 26.8824 59.092C26.6396 58.7271 26.336 58.4231 25.9413 58.2406C26.336 58.0582 26.6396 57.7541 26.8521 57.3893C27.0646 56.994 27.186 56.5683 27.186 56.1122V55.8386C27.186 55.2609 27.0646 54.7744 26.8521 54.3791C26.6396 53.9838 26.3056 53.6798 25.911 53.4365C25.5163 53.1933 25.0306 53.0412 24.4538 52.9196C23.877 52.8284 23.2699 52.7676 22.5717 52.7676C22.3288 52.7676 22.0859 52.7676 21.8431 52.7676C21.6002 52.7676 21.3574 52.798 21.1145 52.798C20.8716 52.798 20.6591 52.8284 20.4466 52.8588C20.2341 52.8892 20.0824 52.8892 19.9609 52.9196C19.6877 52.9804 19.4752 53.0412 19.3538 53.1933C19.2323 53.3149 19.1716 53.5581 19.1716 53.8926V62.7711C19.1716 63.1056 19.2323 63.3184 19.3538 63.4704C19.4752 63.5921 19.6877 63.6833 19.9609 63.7441C20.1127 63.7745 20.2949 63.8049 20.477 63.8049C20.6895 63.8353 20.902 63.8353 21.1449 63.8657C21.3877 63.8657 21.6306 63.8961 21.8734 63.8961C22.1163 63.8961 22.3895 63.8961 22.6324 63.8961C23.2699 63.8961 23.877 63.8353 24.4235 63.7441C24.9699 63.6529 25.486 63.4704 25.8806 63.2272C26.3056 62.9839 26.6092 62.6495 26.8824 62.2238C27.1253 61.7981 27.2467 61.2508 27.2467 60.6123V60.3994Z" fill="#004E91"/>
</svg>
