<svg width="97" height="80" viewBox="0 0 97 80" fill="none" xmlns="http://www.w3.org/2000/svg">
<path d="M63.5923 16H34.4077C29.212 16 25 20.2178 25 25.4207V54.5793C25 59.7822 29.212 64 34.4077 64H63.5923C68.788 64 73 59.7822 73 54.5793V25.4207C73 20.2178 68.788 16 63.5923 16Z" fill="#00353B" stroke="#00353B" stroke-width="0.378"/>
<path d="M59.0379 47.6261C58.0627 49.2087 56.5276 50 54.4323 50C53.0838 50 51.9428 49.6637 51.0092 48.9911C50.0757 48.3185 49.4533 47.2898 49.1421 45.9051C48.333 47.2304 47.0364 48.2394 45.2523 48.9317C43.4682 49.6241 41.4869 49.9703 39.3087 49.9703C33.7696 49.9703 31 47.4975 31 42.5519V31.4837C31 31.0682 31.1452 30.7221 31.4357 30.4451C31.7468 30.1484 32.1203 30 32.5559 30C32.9916 30 33.3546 30.1484 33.6451 30.4451C33.9563 30.7221 34.1119 31.0682 34.1119 31.4837V37.2403C35.2114 36.1721 36.5806 35.638 38.2195 35.638C39.5057 35.638 40.6467 35.9347 41.6425 36.5282C42.6591 37.1019 43.4474 37.9031 44.0076 38.9318C44.5885 39.9604 44.8788 41.1276 44.8788 42.4332C44.8788 43.363 44.7337 44.2334 44.4432 45.0445C44.1528 45.8556 43.7275 46.5677 43.1674 47.181C44.8062 46.7656 46.1236 45.9841 47.1194 44.8368C48.1152 43.6894 48.6131 42.3145 48.6131 40.7121V37.1217C48.6131 36.7062 48.7583 36.36 49.0488 36.0831C49.36 35.7864 49.7333 35.638 50.169 35.638C50.6047 35.638 50.9677 35.7864 51.2582 36.0831C51.5694 36.36 51.725 36.7062 51.725 37.1217V43.4125C51.725 44.7774 51.9532 45.7863 52.4096 46.4391C52.866 47.092 53.5817 47.4184 54.5567 47.4184C55.677 47.4184 56.538 47.0425 57.1396 46.2908C57.762 45.5193 58.0732 44.4214 58.0732 42.9971V38.4866H56.0816C55.6459 38.4866 55.2725 38.3482 54.9613 38.0712C54.6708 37.7943 54.5256 37.4579 54.5256 37.0623C54.5256 36.6667 54.6708 36.3304 54.9613 36.0534C55.2725 35.7764 55.6459 35.638 56.0816 35.638H58.0732V31.5134C58.0732 31.0979 58.2183 30.7517 58.5088 30.4748C58.82 30.178 59.1934 30.0297 59.6291 30.0297C60.0647 30.0297 60.4278 30.178 60.7182 30.4748C61.0294 30.7517 61.185 31.0979 61.185 31.5134V35.638H65.2304C65.6661 35.638 66.0291 35.7764 66.3196 36.0534C66.6308 36.3304 66.7864 36.6667 66.7864 37.0623C66.7864 37.4579 66.6308 37.7943 66.3196 38.0712C66.0291 38.3482 65.6661 38.4866 65.2304 38.4866H61.185V43.3828C61.185 45.816 61.9007 47.0326 63.3322 47.0326C64.0375 47.0326 64.6184 46.7755 65.0748 46.2611C65.3238 45.9841 65.552 45.7765 65.7594 45.638C65.9669 45.4797 66.2055 45.4006 66.4752 45.4006C66.9108 45.4006 67.2738 45.5391 67.5643 45.816C67.8547 46.0732 68 46.4095 68 46.8249C68 47.3392 67.7821 47.8437 67.3465 48.3383C66.9108 48.8329 66.33 49.2285 65.6038 49.5252C64.8777 49.8417 64.1101 50 63.301 50C62.3468 50 61.5066 49.7923 60.7805 49.3769C60.0751 48.9812 59.4942 48.3976 59.0379 47.6261ZM51.3827 32.7893C51.0507 33.1058 50.6462 33.2641 50.169 33.2641C49.6919 33.2641 49.2874 33.1058 48.9554 32.7893C48.6235 32.4728 48.4575 32.0969 48.4575 31.6617C48.4575 31.2067 48.6235 30.821 48.9554 30.5044C49.3081 30.1879 49.7127 30.0297 50.169 30.0297C50.6462 30.0297 51.0507 30.1879 51.3827 30.5044C51.7146 30.821 51.8806 31.2067 51.8806 31.6617C51.8806 32.0969 51.7146 32.4728 51.3827 32.7893ZM35.2321 45.8753C35.9789 46.6469 36.9125 47.0326 38.0328 47.0326C39.0908 47.0326 39.9725 46.6469 40.6778 45.8753C41.3832 45.1038 41.7359 44.085 41.7359 42.819C41.7359 41.5727 41.3728 40.5539 40.6467 39.7626C39.9207 38.9713 39.0182 38.5756 37.9394 38.5756C36.8606 38.5756 35.9582 38.9614 35.2321 39.7329C34.506 40.5045 34.143 41.5134 34.143 42.7596C34.143 44.0455 34.506 45.084 35.2321 45.8753Z" fill="#39EDF6"/>
</svg>
