<svg width="125" height="80" viewBox="0 0 125 80" fill="none" xmlns="http://www.w3.org/2000/svg">
<path fill-rule="evenodd" clip-rule="evenodd" d="M7 24.6123C7 19.8562 10.8886 16 15.683 16H110.313C115.11 16 118.996 19.8562 118.996 24.6123V55.3897C118.996 60.1431 115.11 64 110.313 64H15.683C10.8886 64 7 60.1431 7 55.3897V24.6123Z" fill="#000268"/>
<path fill-rule="evenodd" clip-rule="evenodd" d="M10.5637 24.909V55.0998C10.5637 58.0713 12.9944 60.4814 15.9926 60.4814H65.5702V19.5273H15.9926C12.9944 19.5273 10.5637 21.9374 10.5637 24.909ZM78.3801 39.8536C78.3801 41.7758 77.4262 43.0968 75.847 43.0968C74.4518 43.0968 73.2887 41.7758 73.2887 40.0155C73.2887 38.2086 74.3116 36.8653 75.847 36.8653C77.4751 36.8653 78.3801 38.2552 78.3801 39.8536ZM69.1072 50.878H73.2887V44.3227H73.3354C74.1275 45.7591 75.7089 46.2914 77.1725 46.2914C80.7738 46.2914 82.7024 43.3275 82.7024 39.7604C82.7024 36.8431 80.8673 33.6679 77.5197 33.6679C75.6155 33.6679 73.8493 34.4331 73.0105 36.1245H72.9638V33.948H69.1072V50.878ZM88.4137 42.192C88.4137 41.0349 89.5279 40.5964 90.9475 40.5964C91.5744 40.5964 92.1796 40.6402 92.7137 40.6652C92.7137 42.0774 91.7145 43.5138 90.1331 43.5138C89.157 43.5138 88.4137 43.028 88.4137 42.192ZM96.8484 46.0142C96.6637 45.0656 96.6169 44.1142 96.6169 43.1656V38.6721C96.6169 34.9897 93.9457 33.6679 90.8541 33.6679C89.0656 33.6679 87.5086 33.9229 86.0207 34.5262L86.0918 37.3532C87.2499 36.7034 88.6005 36.4484 89.9483 36.4484C91.4565 36.4484 92.6886 36.8897 92.7137 38.5346C92.1796 38.4414 91.4342 38.3705 90.7606 38.3705C88.5315 38.3705 84.5104 38.8119 84.5104 42.4936C84.5104 45.1122 86.6475 46.2914 89.0412 46.2914C90.7606 46.2914 91.9237 45.6222 92.8761 44.1142H92.9229C92.9229 44.7418 92.9912 45.3644 93.0163 46.0142H96.8484ZM98.7303 50.878C99.5907 51.0643 100.45 51.1581 101.332 51.1581C105.167 51.1581 106.072 48.2157 107.258 45.1809L111.698 33.948H107.514L105.027 41.8223H104.981L102.378 33.948H97.8713L102.774 46.2914C102.471 47.3575 101.682 47.9607 100.658 47.9607C100.075 47.9607 99.5663 47.8898 99.0078 47.7057L98.7303 50.878Z" fill="white"/>
<path fill-rule="evenodd" clip-rule="evenodd" d="M20.7793 39.8737C20.7793 38.2287 21.5937 36.8611 23.1506 36.8611C25.0326 36.8611 25.8219 38.3663 25.8219 39.7096C25.8219 41.5631 24.6365 42.8132 23.1506 42.8132C21.8963 42.8132 20.7793 41.7493 20.7793 39.8737ZM29.866 33.9438H26.0778V36.1203H26.0338C25.1483 34.6373 23.7064 33.6637 21.9186 33.6637C18.1547 33.6637 16.4576 36.3531 16.4576 39.9424C16.4576 43.5095 18.5264 46.0099 21.8468 46.0099C23.5223 46.0099 24.9168 45.3602 25.9153 43.9481H25.962V44.5978C25.962 46.9592 24.6609 48.0941 22.2456 48.0941C20.5017 48.0941 19.4315 47.7237 18.1547 47.0989L17.9456 50.3887C18.9197 50.7369 20.5701 51.1539 22.5705 51.1539C27.4507 51.1539 29.866 49.5548 29.866 44.5978V33.9438ZM36.9355 28.918H32.7519V31.975H36.9355V28.918ZM32.754 46.0099H36.9355V33.9438H32.754V46.0099ZM48.5826 33.8034C48.1642 33.7353 47.6524 33.6637 47.1657 33.6637C45.3529 33.6637 44.3077 34.6373 43.5867 36.1669H43.5399V33.9438H39.7294V46.0099H43.9116V40.916C43.9116 38.5526 45.0056 37.1405 46.9566 37.1405C47.446 37.1405 47.9083 37.1405 48.3734 37.2774L48.5826 33.8034ZM55.7846 43.3699C53.856 43.3699 53.0667 41.7715 53.0667 39.989C53.0667 38.1822 53.856 36.5838 55.7846 36.5838C57.7154 36.5838 58.5053 38.1822 58.5053 39.989C58.5053 41.7715 57.7154 43.3699 55.7846 43.3699ZM55.7846 46.2872C59.782 46.2872 62.827 43.9731 62.827 39.989C62.827 35.9806 59.782 33.6637 55.7846 33.6637C51.7879 33.6637 48.7451 35.9806 48.7451 39.989C48.7451 43.9731 51.7879 46.2872 55.7846 46.2872Z" fill="#FF0007"/>
</svg>
