<svg width="115" height="80" viewBox="0 0 115 80" fill="none" xmlns="http://www.w3.org/2000/svg">
<path d="M62.0308 67.8133C61.9083 67.8871 61.7857 67.9609 61.6387 68.0347C61.2467 68.2069 60.8546 68.2561 60.5116 68.2561C60.144 68.2561 59.5559 68.2315 58.9678 67.7887C58.1347 67.1984 57.7672 66.1899 57.7672 65.3044C57.7672 63.4841 59.2374 62.5986 60.438 62.5986C60.8546 62.5986 61.2957 62.697 61.6387 62.9184C62.2268 63.312 62.3738 63.8039 62.4473 64.0745L59.7029 65.1814L58.7963 65.2552C59.0903 66.7556 60.095 67.6166 61.1977 67.6166C61.7857 67.6166 62.2268 67.3952 62.6189 67.1984L62.0308 67.8133ZM60.9281 64.3205C61.1486 64.2467 61.2712 64.1729 61.2712 64.0007C61.2712 63.5333 60.7566 62.9922 60.1195 62.9922C59.6539 62.9922 58.7718 63.3612 58.7718 64.6156C58.7718 64.8124 58.7963 65.0338 58.7963 65.2306L60.9281 64.3205Z" fill="#1476C6"/>
<path d="M57.4977 68.0589H55.4394C55.7089 67.7146 55.7579 67.6654 55.7579 67.444V65.5254C55.7579 64.6153 55.7824 63.3116 55.8069 62.0817C55.8069 61.4914 55.8559 60.7288 55.8804 60.1877H54.9738L55.8559 59.7695H57.5222C57.1546 59.9909 57.0321 60.0401 57.0076 60.4583C56.9096 61.3684 56.9096 62.795 56.9096 64.4677V67.1734C56.9096 67.6408 56.9831 67.7146 57.3751 67.7392C57.5712 67.7638 57.7672 67.7884 57.9632 67.7884L57.4977 68.0589Z" fill="#1476C6"/>
<path d="M53.6507 63.1643C53.9203 63.3856 54.4838 63.853 54.4838 64.7631C54.4838 65.624 53.9938 66.0422 53.5037 66.4357C53.3567 66.5833 53.1851 66.7555 53.1851 67.0015C53.1851 67.2475 53.3567 67.395 53.4792 67.4934L53.8957 67.8132C54.4103 68.256 54.8759 68.6495 54.8759 69.4612C54.8759 70.5681 53.8222 71.675 51.7884 71.675C50.0977 71.675 49.2646 70.8633 49.2646 70.0024C49.2646 69.5842 49.4851 68.9693 50.1712 68.5757C50.9063 68.133 51.8865 68.0592 52.401 68.0346C52.2295 67.8132 52.058 67.5918 52.058 67.2475C52.058 67.0507 52.107 66.9277 52.1805 66.7801C52.058 66.7801 51.911 66.8047 51.8129 66.8047C50.5633 66.8047 49.8772 65.87 49.8772 64.9599C49.8772 64.4187 50.1222 63.8284 50.6368 63.3856C51.2984 62.8445 52.107 62.7461 52.7196 62.7461H55.1209L54.3613 63.1643H53.6507ZM52.8176 68.379C52.7196 68.379 52.6706 68.379 52.5481 68.379C52.45 68.379 51.8129 68.4035 51.3229 68.5757C51.0533 68.6741 50.3182 68.9447 50.3182 69.781C50.3182 70.6173 51.1268 71.2077 52.3765 71.2077C53.5037 71.2077 54.0918 70.6665 54.0918 69.9286C54.0918 69.3383 53.6997 69.0185 52.8176 68.379ZM53.1606 66.1652C53.4302 65.8946 53.4547 65.5256 53.4547 65.3042C53.4547 64.4679 52.9401 63.1397 51.9845 63.1397C51.6904 63.1397 51.3474 63.2872 51.1759 63.5332C50.9798 63.7792 50.9063 64.099 50.9063 64.3941C50.9063 65.1813 51.3719 66.4849 52.3765 66.4849C52.6461 66.4849 52.9646 66.3373 53.1606 66.1652Z" fill="#1476C6"/>
<path d="M46.422 68.2315C44.5598 68.2315 43.5796 66.7802 43.5796 65.452C43.5796 63.9023 44.8293 62.5986 46.6181 62.5986C48.3333 62.5986 49.4115 63.9515 49.4115 65.3782C49.387 66.7556 48.3088 68.2315 46.422 68.2315ZM47.8677 67.2722C48.1373 66.9032 48.2108 66.4359 48.2108 65.9685C48.2108 64.9354 47.7207 62.9676 46.275 62.9676C45.883 62.9676 45.5154 63.1152 45.2214 63.3612C44.7558 63.7793 44.6823 64.2959 44.6823 64.7878C44.6823 65.9439 45.2459 67.8625 46.6671 67.8625C47.1326 67.8625 47.5982 67.6412 47.8677 67.2722Z" fill="#1476C6"/>
<path d="M40.1981 68.2315C38.3358 68.2315 37.3557 66.7802 37.3557 65.452C37.3557 63.9023 38.6053 62.5986 40.3941 62.5986C42.1093 62.5986 43.1875 63.9515 43.1875 65.3782C43.163 66.7556 42.0848 68.2315 40.1981 68.2315ZM41.6438 67.2722C41.9133 66.9032 41.9868 66.4359 41.9868 65.9685C41.9868 64.9354 41.4968 62.9676 40.051 62.9676C39.659 62.9676 39.2669 63.1152 38.9974 63.3612C38.5318 63.7793 38.4583 64.2959 38.4583 64.7878C38.4583 65.9439 39.0219 67.8625 40.4431 67.8625C40.9087 67.8625 41.3742 67.6412 41.6438 67.2722Z" fill="#1476C6"/>
<path d="M36.5716 67.813L35.0034 68.182C34.3663 68.2804 33.8027 68.3788 33.1901 68.3788C30.1517 68.3788 29 66.1404 29 64.3939C29 62.2539 30.6417 60.2861 33.4351 60.2861C34.0232 60.2861 34.5868 60.3845 35.1014 60.5075C35.9345 60.7289 36.3021 61.0241 36.5471 61.1962L35.6405 62.0572L35.2484 62.1556L35.518 61.7128C35.1504 61.3438 34.4643 60.6797 33.1656 60.6797C31.4259 60.6797 30.1272 62.008 30.1272 63.9266C30.1272 65.9928 31.6219 67.936 33.9987 67.936C34.7093 67.936 35.0524 67.7884 35.3954 67.6654V65.8944L33.7292 65.9928L34.6113 65.5254H36.9392L36.6451 65.796C36.5716 65.8698 36.5471 65.8944 36.5471 65.9682C36.5471 66.0666 36.5226 66.3864 36.5226 66.4847V67.813" fill="#1476C6"/>
<path d="M67.0541 68.0592H66.221L64.9958 62.7461H65.6574L66.662 67.518L67.6912 62.7461H68.5243L69.6025 67.518L70.5826 62.7461H71.2197L70.019 68.0592H69.1859L68.1323 63.3364L67.0541 68.0592Z" fill="#1476C6"/>
<path d="M75.0913 64.3695C75.0913 63.5086 74.6992 63.1642 73.8416 63.1642C73.1555 63.1642 72.7634 63.5332 72.6654 64.1481L72.0528 64.0743C72.1753 63.2134 72.8614 62.623 73.8416 62.623C75.0178 62.623 75.6794 63.1396 75.6794 64.2957V67.0014C75.6794 67.4688 75.7039 67.7886 75.7774 68.0345H75.1648C75.1158 67.8869 75.0913 67.6164 75.0913 67.4688C74.8462 67.8377 74.2582 68.1575 73.6946 68.1575C72.7144 68.1575 71.9548 67.5672 71.9548 66.3865C71.9548 65.3042 72.7389 64.6892 73.8416 64.6892C74.3807 64.6892 74.8217 64.7876 75.0913 64.9106V64.3695ZM75.0913 65.5256C74.7972 65.378 74.3807 65.255 73.8171 65.255C73.082 65.255 72.5429 65.624 72.5429 66.4111C72.5429 67.2228 73.033 67.641 73.7191 67.641C74.3317 67.641 74.8707 67.1982 75.0913 66.7308V65.5256Z" fill="#1476C6"/>
<path d="M76.88 68.0585H77.4926V60.4824H76.88V68.0585Z" fill="#1476C6"/>
<path d="M78.7668 68.0585H79.3794V60.4824H78.7668V68.0585Z" fill="#1476C6"/>
<path d="M82.3444 67.6162C82.9815 67.6162 83.4715 67.2226 83.5696 66.2387L84.1821 66.3371C84.0351 67.6162 83.3 68.2065 82.3444 68.2065C81.0947 68.2065 80.3351 67.2718 80.3351 65.3778C80.3351 63.6806 80.9722 62.6475 82.2709 62.6475C83.6431 62.6475 84.1821 63.779 84.1821 65.3286V65.5254H80.9477C80.9722 66.9766 81.5113 67.6162 82.3444 67.6162ZM83.545 64.9842C83.5205 63.9757 83.1285 63.2132 82.2709 63.2132C81.4377 63.2132 80.9967 63.9019 80.9477 64.9842H83.545Z" fill="#1476C6"/>
<path d="M87 68.0346C86.8775 68.0838 86.6324 68.133 86.3629 68.133C85.5788 68.133 85.3337 67.7394 85.3337 66.9769V63.2873H84.6476V62.7461H85.3337V61.0243L85.9463 60.7783V62.7461H87V63.2873H85.9463V66.8785C85.9463 67.3951 86.0443 67.5181 86.4609 67.5181C86.6814 67.5181 86.853 67.4689 87 67.3951V68.0346Z" fill="#1476C6"/>
<path d="M51.0041 29.5392C48.4067 25.948 44.8047 22.7995 40.7126 20.6103C40.1 20.2659 39.3894 20.0938 38.6788 20.0938C37.0861 20.0938 35.6404 20.9547 34.8808 22.3813C33.7536 24.4721 34.5622 27.1041 36.645 28.211C42.9425 31.6054 47.01 38.05 47.5001 45.5277V45.5031C47.4266 44.6668 47.5736 43.8551 47.9412 43.0925C47.9902 42.9942 48.0637 42.8712 48.1372 42.7482C50.0975 39.5013 51.1511 35.7624 51.1511 31.9252C51.1511 31.1135 51.0776 30.3264 51.0041 29.5392Z" fill="#1476C6"/>
<path d="M75.9487 21.4218C75.189 18.0765 74.0619 14.8296 72.5917 11.7303C71.8075 10.0823 70.1168 9 68.3035 9C67.5929 9 66.9068 9.14759 66.2697 9.46736C63.8929 10.5988 62.8882 13.4522 64.0154 15.8135C66.4168 20.9299 67.6174 26.3167 67.6174 31.925C67.6174 37.5333 66.4168 42.9201 64.0644 47.9381C64.0399 48.0119 63.6234 48.8974 63.6234 49.9305C63.6234 50.2256 63.6479 50.6438 63.7459 51.0374C64.0644 52.3902 64.922 53.6201 66.3433 54.2843C66.9803 54.5794 67.6664 54.7516 68.377 54.7516C70.1168 54.7516 71.7095 53.7923 72.5427 52.2673C73.4983 50.4716 74.4539 48.1348 75.2871 45.1093C75.5566 44.1992 75.7771 43.3383 75.9732 42.4282C76.7328 39.0091 77.1493 35.5163 77.1493 31.925C77.1248 28.3829 76.7083 24.8163 75.9487 21.4218Z" fill="#47AE33"/>
<path d="M55.8804 16.4283C55.8068 16.2807 55.7088 16.1577 55.6108 16.0347C55.2923 15.6165 54.9247 15.2722 54.4837 15.0016C53.773 14.5342 52.9154 14.2637 52.0333 14.2637C51.2982 14.2637 50.9306 14.3621 50.4161 14.5588C49.877 14.7802 49.3134 15.0754 48.7988 15.6165C48.2842 16.1577 47.9902 16.6988 47.7697 17.2892C47.3286 18.4453 47.4021 19.9457 48.1372 21.1756C49.7055 23.7092 50.6366 26.6117 50.9796 29.588C51.0777 30.3751 51.1267 31.1869 51.1267 31.974C51.1267 35.8112 50.0975 39.5501 48.1127 42.7969C48.0392 42.9199 47.9902 43.0183 47.9167 43.1413C47.5246 43.9038 47.4021 44.7648 47.4756 45.5765C47.5981 46.9539 48.3578 48.2576 49.6319 49.0447C49.9505 49.2415 50.318 49.3891 50.6611 49.5121C51.0777 49.6351 51.5187 49.7089 51.9598 49.7089C53.5525 49.7089 54.9982 48.8972 55.8313 47.5197C58.3307 43.4119 59.7764 38.7383 60.095 33.9418C60.144 33.3022 60.1685 32.6381 60.1685 31.9986C60.193 26.4395 58.6983 21.0772 55.8804 16.4283Z" fill="#ED114C"/>
<path d="M64.04 47.9384C66.4168 42.9205 67.6175 37.5336 67.6175 31.9253C67.6175 30.0067 67.495 28.6046 67.397 27.6945C64.285 22.7012 59.7764 18.2244 54.4836 14.9775C54.4836 14.9775 54.6061 15.0513 54.6061 15.0759C54.9737 15.3465 55.2677 15.6171 55.6108 16.0352C55.6843 16.1336 55.8068 16.2812 55.8803 16.4288C58.6982 21.1024 60.1684 26.44 60.1684 31.9253C60.1684 32.5895 60.1439 33.229 60.0949 33.8685C62.3492 38.1731 63.5744 43.0681 63.5744 48.209C63.5744 48.6271 63.5744 49.2667 63.5744 49.7586C63.5989 49.2175 63.7214 48.6517 63.9175 48.1598C63.991 48.086 64.0155 48.0122 64.04 47.9384Z" fill="#FBBF16"/>
</svg>