<svg width="115" height="80" viewBox="0 0 115 80" fill="none" xmlns="http://www.w3.org/2000/svg">
<path d="M47.8125 36.8739C43.7817 31.3008 38.1919 26.4147 31.8415 23.0174C30.8909 22.483 29.7881 22.2158 28.6854 22.2158C26.2137 22.2158 23.9701 23.5518 22.7913 25.7658C21.0421 29.0104 22.297 33.0949 25.5292 34.8126C35.3019 40.0803 41.6142 50.0814 42.3748 61.6857V61.6475C42.2607 60.3497 42.4888 59.09 43.0592 57.9067C43.1353 57.754 43.2494 57.5631 43.3634 57.3723C46.4055 52.3336 48.0406 46.5314 48.0406 40.5766C48.0406 39.3169 47.9266 38.0954 47.8125 36.8739Z" fill="#1476C6"/>
<path d="M86.5229 24.2769C85.3441 19.0855 83.5949 14.0468 81.3133 9.2371C80.0965 6.67957 77.4727 5 74.6588 5C73.556 5 72.4913 5.22903 71.5026 5.72527C67.8141 7.48118 66.255 11.9091 68.0042 15.5737C71.7308 23.5134 73.594 31.8731 73.594 40.5763C73.594 49.2796 71.7308 57.6392 68.0803 65.4263C68.0422 65.5409 67.3958 66.9151 67.3958 68.5183C67.3958 68.9763 67.4338 69.6253 67.5859 70.236C68.0803 72.3355 69.4112 74.2441 71.6167 75.2747C72.6054 75.7328 73.6701 76 74.7729 76C77.4727 76 79.9444 74.5113 81.2373 72.1446C82.7203 69.3581 84.2033 65.7317 85.4962 61.0366C85.9145 59.6242 86.2567 58.2882 86.5609 56.8758C87.7397 51.5699 88.3862 46.1495 88.3862 40.5763C88.3482 35.0796 87.7017 29.5446 86.5229 24.2769Z" fill="#47AE33"/>
<path d="M55.3797 16.5281C55.2657 16.2991 55.1136 16.1082 54.9614 15.9173C54.4671 15.2684 53.8967 14.734 53.2123 14.3141C52.1095 13.5888 50.7786 13.1689 49.4096 13.1689C48.2689 13.1689 47.6985 13.3216 46.8999 13.627C46.0634 13.9706 45.1888 14.4286 44.3902 15.2684C43.5917 16.1082 43.1353 16.948 42.7931 17.8641C42.1086 19.6582 42.2227 21.9867 43.3635 23.8953C45.7972 27.827 47.2422 32.3313 47.7745 36.9501C47.9266 38.1716 48.0027 39.4313 48.0027 40.6528C48.0027 46.6077 46.4056 52.4098 43.3255 57.4485C43.2114 57.6394 43.1353 57.7921 43.0213 57.9829C42.4129 59.1663 42.2227 60.5023 42.3368 61.762C42.5269 63.8996 43.7057 65.9227 45.6831 67.1442C46.1774 67.4496 46.7478 67.6786 47.2802 67.8695C47.9266 68.0603 48.6111 68.1749 49.2956 68.1749C51.7673 68.1749 54.0108 66.9152 55.3037 64.7775C59.1823 58.4028 61.4259 51.1501 61.9202 43.7066C61.9963 42.7141 62.0343 41.6835 62.0343 40.691C62.0723 32.0641 59.7527 23.7426 55.3797 16.5281Z" fill="#ED114C"/>
<path d="M68.0424 65.4269C71.7309 57.6398 73.5942 49.2801 73.5942 40.5769C73.5942 37.5995 73.404 35.4237 73.2519 34.0113C68.4226 26.2624 61.4258 19.3151 53.2122 14.2764C53.2122 14.2764 53.4023 14.3909 53.4023 14.4291C53.9727 14.8489 54.429 15.2688 54.9614 15.9178C55.0755 16.0705 55.2656 16.2995 55.3797 16.5285C59.7527 23.7812 62.0342 32.0645 62.0342 40.5769C62.0342 41.6076 61.9962 42.6 61.9202 43.5925C65.4186 50.2726 67.3199 57.8689 67.3199 65.8468C67.3199 66.4957 67.3199 67.4882 67.3199 68.2516C67.3579 67.4119 67.548 66.5339 67.8522 65.7705C67.9663 65.6559 68.0043 65.5414 68.0424 65.4269Z" fill="#FBBF16"/>
</svg>