<svg width="115" height="80" viewBox="0 0 115 80" fill="none" xmlns="http://www.w3.org/2000/svg">
<path d="M14.8736 40.9079C14.8601 40.9079 14.8736 47.9174 14.8736 47.9174C14.8736 48.7991 14.1163 49.5717 13.1246 49.5717H12.1744V49.9287H20.2171V49.5717H19.2668C18.2887 49.5717 17.5179 48.7865 17.5179 47.9174V40.7979V32.3009C17.5179 31.4462 18.2751 30.6483 19.2668 30.6483H20.2171V30.2895H12.1744V30.6483H13.1246C14.1299 30.6483 14.8736 31.4462 14.8736 32.3009V39.9162H5.34434V32.3009C5.34434 31.4462 6.11516 30.6483 7.09333 30.6483H8.04265V30.2895H0V30.6483H0.951126C1.94192 30.6483 2.70012 31.4462 2.70012 32.3009V40.7979V47.9174C2.70012 48.7865 1.94192 49.5717 0.951126 49.5717H0V49.9287H8.04265V49.5717H7.09333C6.11516 49.5717 5.34434 48.7865 5.34434 47.9174C5.34434 47.9174 5.35696 40.9079 5.34434 40.9079H14.8736Z" fill="#1A1818"/>
<path d="M33.9999 44.7912C34.0693 45.9451 33.3535 47.6968 32.3609 48.5912C31.4071 49.453 30.0476 50.2031 28.2301 50.2031C26.1646 50.2031 24.3877 49.1014 23.7404 48.8535C23.3482 48.703 22.8343 48.7192 22.5278 48.9085C22.1699 49.1294 21.9499 49.4864 21.867 50.1481H21.5641V43.3442H21.867C22.1428 45.4376 23.1201 46.6673 23.7269 47.366C24.7185 48.5091 26.5911 49.1564 28.395 48.867C29.8285 48.6371 31.3972 47.082 31.225 45.1554C31.1637 44.4603 31.0113 43.4488 29.5661 42.5049C28.6592 41.9116 27.3709 41.0705 26.1502 40.26C24.6095 39.2386 23.2112 38.1324 22.8181 37.6843C22.3024 37.0974 21.6605 36.2527 21.6605 34.9022C21.6605 33.7455 22.1014 32.4238 23.0381 31.5421C23.9748 30.6613 25.2414 30.0005 27.059 30.0005C28.8774 30.0005 30.2549 30.9642 30.7228 31.1842C31.1907 31.4042 31.7082 31.3528 32.003 31.1842C32.2924 31.0183 32.4853 30.7704 32.5683 30.1096H32.8712V36.5556H32.5683C32.2924 34.4613 31.3836 32.8926 30.7499 32.3138C30.117 31.735 28.8774 30.9363 27.0319 31.2942C25.2613 31.6377 24.3994 32.4382 24.2362 33.8555C24.1118 34.9355 24.6978 35.6 25.035 36.0038C25.7238 36.8297 30.0935 39.3062 32.0724 41.0173C33.0921 41.8981 33.8908 42.9457 33.9999 44.7912Z" fill="#1A1818"/>
<path d="M40.4022 48.8181C41.7626 49.2391 44.3527 49.5628 46.1576 48.269C48.3231 46.7193 48.7793 42.9319 45.7231 40.9584C44.4925 40.1633 41.4218 40.2183 40.4022 40.4581V48.8181ZM40.4022 39.351C41.3659 39.598 44.204 39.6647 45.3048 38.9651C47.0303 37.8698 47.6289 36.1118 47.3107 34.5575C47.1196 33.6235 46.6255 32.7616 45.7727 32.1621C44.0931 30.9775 41.6698 31.1695 40.4022 31.5554V39.351ZM46.7373 39.9009C50.238 41.1027 51.236 43.5738 50.586 46.1198C49.8233 49.1129 46.4479 49.7214 45.3535 49.8666C44.8594 49.9306 43.5982 49.9252 42.3513 49.9252C40.1263 49.9279 37.3117 49.9207 35.0515 49.9207V49.5628H36.2091C36.9448 49.5628 37.785 48.9425 37.785 48.0067V32.3271C37.785 31.3904 36.9448 30.7575 36.2154 30.7575H35.0588V30.3987C37.0548 30.3987 39.9622 30.3978 42.0412 30.3987C43.7208 30.3987 44.6331 30.5601 45.2227 30.6746C46.2135 30.8666 49.1066 31.7212 49.7945 34.4196C50.3273 36.5093 49.2851 39.1436 46.7373 39.9009Z" fill="#1A1818"/>
<path d="M68.9951 30.6339L69.2781 37.2854L68.8788 37.2999C68.6858 35.6185 68.052 34.4348 67.2533 33.663C67.0234 33.4413 66.587 32.9923 65.9578 32.5956C64.9093 31.9348 63.3496 31.3506 61.4969 31.6806C58.7148 32.1764 57.2822 34.0146 56.5664 35.7844C55.6847 37.9598 55.1266 41.6805 56.6223 44.8196C57.8349 47.3674 60.1663 48.4285 61.9648 48.7026C63.4975 48.9361 66.8954 48.8639 69.4846 45.3705L69.8975 45.6454C67.8862 48.4826 65.2149 50.3001 62.1578 50.2721C58.2469 50.2379 55.7893 48.0823 54.666 46.8021C53.4813 45.4525 52.5726 42.8912 52.5609 40.6599C52.5518 38.6765 52.9891 36.4695 53.7013 35.1785C54.9274 32.9616 57.4887 30.7583 60.8622 30.4274C63.3893 30.1804 65.0499 30.6753 66.4689 31.4876C67.1775 31.8942 67.576 31.9411 67.9619 31.777C68.3468 31.6111 68.6579 31.2812 68.6579 30.6339H68.9951Z" fill="#1A1818"/>
<path d="M105.187 49.9277H85.5661V30.3111H105.187V49.9277Z" fill="white"/>
<path d="M75.7529 40.1181L85.5644 49.9287V30.3067L75.7529 40.1181Z" fill="#E71D1C"/>
<path d="M85.5658 49.9287H105.188L95.3764 40.1181L85.5658 49.9287Z" fill="#E71D1C"/>
<path d="M95.3767 40.1191L105.188 30.3077H85.5661L95.3767 40.1191Z" fill="#E71D1C"/>
<path d="M105.188 30.3067V49.9287L115 40.1181L105.188 30.3067Z" fill="#E71D1C"/>
</svg>