<svg width="80" height="80" viewBox="0 0 80 80" fill="none" xmlns="http://www.w3.org/2000/svg">
<g clip-path="url(#clip0_125_1209)">
<mask id="mask0_125_1209" style="mask-type:luminance" maskUnits="userSpaceOnUse" x="-1" y="0" width="81" height="80">
<path d="M79.9995 0H-0.000488281V80H79.9995V0Z" fill="white"/>
</mask>
<g mask="url(#mask0_125_1209)">
<path d="M7.80218 1.36328H72.1971C73.9051 1.36328 75.5431 2.04178 76.7509 3.24951C77.9586 4.45724 78.6371 6.09527 78.6371 7.80325V72.1979C78.6371 73.9058 77.9587 75.5437 76.751 76.7514C75.5434 77.959 73.9054 78.6374 72.1975 78.6374H7.80126C6.0936 78.6374 4.45589 77.9591 3.2484 76.7516C2.04091 75.5442 1.36255 73.9065 1.36255 72.1989V7.8028C1.36255 6.95715 1.52911 6.11978 1.85274 5.3385C2.17636 4.55722 2.6507 3.84733 3.24867 3.24937C3.84665 2.6514 4.55655 2.17707 5.33784 1.85346C6.11913 1.52984 6.95652 1.36328 7.80218 1.36328Z" fill="#FDB913"/>
<path d="M72.1984 1.36291C73.9061 1.36343 75.5437 2.04214 76.7511 3.24979C77.9585 4.45745 78.6369 6.09518 78.6371 7.80288V72.1976C78.637 73.9052 77.9586 75.543 76.7512 76.7506C75.5437 77.9582 73.9061 78.6367 72.1984 78.6371H7.80256C6.95684 78.6373 6.11936 78.4708 5.33798 78.1473C4.5566 77.8238 3.84663 77.3494 3.24861 76.7514C2.6506 76.1534 2.17627 75.4435 1.85272 74.6621C1.52916 73.8807 1.36273 73.0433 1.36293 72.1976V7.80288C1.36276 6.95717 1.52921 6.1197 1.85277 5.33832C2.17632 4.55694 2.65065 3.84696 3.24865 3.24892C3.84665 2.65089 4.55662 2.17652 5.33798 1.85292C6.11935 1.52931 6.95682 1.3628 7.80256 1.36291H72.1984ZM72.1984 0H7.80256C5.7338 0.00224084 3.75042 0.825063 2.28763 2.28791C0.824836 3.75077 0.00211795 5.73416 0 7.80288V72.1976C0.00228917 74.2662 0.825077 76.2494 2.28785 77.7122C3.75061 79.1749 5.7339 79.9977 7.80256 80H72.1984C74.2669 79.9976 76.25 79.1748 77.7126 77.712C79.1752 76.2493 79.9978 74.2661 80 72.1976V7.80288C79.998 5.73428 79.1755 3.75095 77.7128 2.28809C76.2502 0.825239 74.267 0.00235283 72.1984 0Z" fill="white"/>
<path d="M44.5094 40.8336L44.5029 26.9983L48.1143 26.1413V27.955C48.1143 27.955 49.0499 25.5698 51.2207 25.0162C51.545 24.9117 51.8899 24.8885 52.2252 24.9487V28.4788C51.575 28.4872 50.9325 28.621 50.3329 28.8726C48.9985 29.3996 48.3269 30.5495 48.3269 32.3049L48.3292 39.9444L44.5094 40.8336Z" fill="#231F20"/>
<path d="M25.4715 45.3335C25.4715 45.3335 24.8844 44.4531 24.8844 41.3403V34.4514L23.0261 34.8934V32.0556L24.8885 31.6158V28.5223L28.7285 27.6152V30.7088L31.442 30.0643V32.8989L28.7285 33.5429C28.7285 33.5429 28.7244 39.1869 28.7285 40.5576C28.7285 43.7471 29.575 44.3594 29.575 44.3594L25.4715 45.3335Z" fill="#231F20"/>
<path d="M31.8433 37.102C31.8433 34.6425 32.1935 32.8481 32.9455 31.4709C33.8402 29.8367 35.3073 28.7717 37.4447 28.2851C41.6574 27.3271 43.1778 29.8206 43.119 33.1643C43.0965 34.3602 43.102 34.9427 43.102 34.9427L35.68 36.6871V36.8069C35.68 39.143 36.1699 40.2516 37.6503 39.9376C38.9292 39.6677 39.285 38.8666 39.386 37.876C39.4025 37.7162 39.4103 37.31 39.4103 37.31L42.8872 36.4768C42.8872 36.4768 42.8955 36.7614 42.8904 37.0809C42.8601 38.4085 42.4741 41.7017 37.6416 42.8443C33.0639 43.9308 31.8433 41.1352 31.8433 37.102ZM37.5989 30.8622C36.3691 31.1413 35.7241 32.3477 35.6961 34.3464L39.4296 33.4572C39.436 33.3668 39.437 33.1676 39.436 32.8554C39.4296 31.3465 38.9632 30.5501 37.5989 30.8622Z" fill="#231F20"/>
<path d="M65.2223 29.011C65.0786 24.7974 66.1716 21.4533 70.8728 20.3883C73.8691 19.7075 75.0071 20.487 75.5832 21.2403C76.1373 21.9591 76.3512 22.9286 76.3512 24.2865L76.3544 24.5358L72.6764 25.4098C72.6764 25.4098 72.6737 24.914 72.6737 24.898C72.6764 23.2876 72.2289 22.6753 71.0592 22.9681C69.6683 23.3175 69.1064 24.6377 69.1064 27.2625C69.1064 28.1944 69.1105 28.3615 69.1105 28.4872C69.1105 31.1548 69.475 32.3758 71.078 32.0403C72.4685 31.7529 72.659 30.5318 72.6815 29.4613C72.6842 29.2933 72.6911 28.7553 72.6911 28.7553L76.3636 27.8877C76.3636 27.8877 76.3672 28.159 76.3672 28.4606C76.3581 31.9586 74.5145 34.1629 71.0606 34.9667C66.302 36.0822 65.3701 33.3325 65.2223 29.011Z" fill="#231F20"/>
<path d="M52.5081 34.9102C52.5081 31.7051 54.3856 30.6915 57.2115 29.5223C59.7529 28.4711 59.808 27.9492 59.8185 27.0357C59.8327 26.2668 59.4761 25.609 58.2109 25.9317C57.789 26.0167 57.4082 26.2417 57.1302 26.5702C56.8523 26.8988 56.6934 27.3116 56.6795 27.7417C56.6588 27.9778 56.6508 28.2149 56.6556 28.4518L53.0924 29.2933C53.0685 28.5832 53.1514 27.8735 53.3385 27.1881C53.9082 25.2716 55.5984 23.9821 58.5162 23.3068C62.3071 22.4333 63.5708 24.0969 63.5754 26.6845V32.8123C63.5754 35.7759 64.1254 36.2102 64.1254 36.2102L60.6274 37.0379C60.4344 36.6337 60.2776 36.2132 60.1587 35.7814C60.1587 35.7814 59.3925 37.7113 56.7511 38.3319C53.977 38.9861 52.5081 37.2669 52.5081 34.9102ZM59.7942 30.5336C59.2046 30.947 58.5822 31.3115 57.9332 31.6234C56.7672 32.1931 56.2402 32.8959 56.2402 33.9783C56.2402 34.9157 56.8209 35.5313 57.8762 35.2705C59.0083 34.985 59.7942 33.9287 59.7942 32.4612V30.5336Z" fill="#231F20"/>
<path d="M5.39324 55.0324C4.994 55.0319 4.60229 54.9238 4.25933 54.7194C3.91638 54.5151 3.63486 54.222 3.44443 53.8711C3.254 53.5202 3.16169 53.1245 3.17722 52.7256C3.19275 52.3267 3.31555 51.9393 3.53269 51.6043L3.55748 51.5721L3.59925 51.5611L8.82238 50.3281V54.2948L8.74113 54.3136C7.5563 54.5986 6.14012 54.9232 5.84862 54.9852C5.6989 55.0168 5.54627 55.0327 5.39324 55.0324Z" fill="#231F20"/>
<path d="M5.39324 60.1054C4.8055 60.1055 4.24176 59.8723 3.82591 59.457C3.41006 59.0417 3.17613 58.4782 3.17555 57.8905C3.17434 57.4623 3.2985 57.0431 3.53269 56.6846L3.55748 56.6474L3.59925 56.6368L8.82238 55.4043V59.3709L8.74113 59.392C7.55631 59.6762 6.14012 60.0044 5.84862 60.0627C5.69858 60.0917 5.54606 60.106 5.39324 60.1054Z" fill="#231F20"/>
<path d="M5.39325 65.1897C4.80535 65.1894 4.24161 64.9557 3.82581 64.5401C3.41002 64.1245 3.17615 63.5609 3.17555 62.973C3.17389 62.5447 3.29808 62.1254 3.5327 61.7671L3.55749 61.7271L8.82239 60.4863V64.453L8.74114 64.4741C7.48975 64.7752 6.10019 65.0892 5.84863 65.1447C5.6987 65.1747 5.54616 65.1898 5.39325 65.1897Z" fill="#231F20"/>
<path d="M4.77701 50.1702L4.77563 27.9757L8.82221 27.0195V49.2135L4.77701 50.1702Z" fill="#231F20"/>
<path d="M14.8559 48.2836C14.8559 47.6215 14.5929 46.9865 14.1247 46.5183C13.6565 46.0501 13.0215 45.7871 12.3594 45.7871C11.6972 45.7871 11.0622 46.0501 10.594 46.5183C10.1258 46.9865 9.86279 47.6215 9.86279 48.2836L9.86692 69.0275C9.86915 70.8189 10.5814 72.5363 11.8477 73.8034C13.114 75.0706 14.831 75.784 16.6224 75.7875C18.5123 75.7875 23.6895 75.7783 23.6895 75.7783L23.6918 67.1243C23.6932 62.3961 23.6941 57.5835 23.6941 57.4738C23.6948 56.9358 23.5626 56.406 23.3093 55.9313C23.056 55.4567 22.6894 55.0519 22.2421 54.753L15.9434 50.4751C15.9434 50.4751 15.9421 59.7626 15.9421 60.1895C15.9421 60.3319 15.8855 60.4685 15.7847 60.5693C15.684 60.67 15.5474 60.7266 15.405 60.7266C15.2625 60.7266 15.1259 60.67 15.0252 60.5693C14.9245 60.4685 14.8679 60.3319 14.8679 60.1895C14.8679 60.0853 14.8559 49.5667 14.8559 48.2836Z" fill="#231F20"/>
<path d="M18.2277 32.8069C17.4623 32.9845 16.7443 33.3252 16.1227 33.8058C15.5011 34.2863 14.9905 34.8954 14.6259 35.5914V34.0316L10.9824 34.8937L10.9866 44.855C11.6257 44.6023 12.3222 44.5311 12.9993 44.6495C13.6763 44.7678 14.3074 45.0711 14.8229 45.5257V39.094C14.8229 37.5534 15.5895 36.3227 16.6848 36.0812C17.5088 35.9004 18.1969 36.1951 18.1969 37.6626L18.1997 47.0465L22.0374 46.1468V36.2199C22.0374 33.8131 21.1106 32.1307 18.2277 32.8069Z" fill="#231F20"/>
<path d="M73.9873 18.6017C73.518 18.6021 73.0591 18.4633 72.6687 18.2028C72.2783 17.9424 71.9739 17.572 71.7941 17.1385C71.6143 16.705 71.5671 16.2279 71.6585 15.7676C71.7498 15.3073 71.9757 14.8844 72.3075 14.5525C72.6393 14.2206 73.0621 13.9946 73.5224 13.903C73.9827 13.8114 74.4598 13.8585 74.8933 14.0381C75.3269 14.2178 75.6974 14.522 75.958 14.9123C76.2186 15.3026 76.3576 15.7614 76.3574 16.2307C76.3568 16.8592 76.1069 17.4618 75.6626 17.9062C75.2183 18.3507 74.6158 18.6008 73.9873 18.6017ZM73.9873 14.1558C73.577 14.1557 73.1759 14.2773 72.8347 14.5052C72.4935 14.733 72.2275 15.057 72.0704 15.436C71.9133 15.815 71.8722 16.2321 71.9521 16.6345C72.0321 17.0369 72.2296 17.4066 72.5196 17.6968C72.8097 17.9869 73.1793 18.1846 73.5817 18.2647C73.9841 18.3449 74.4012 18.3039 74.7803 18.1469C75.1594 17.99 75.4834 17.7242 75.7114 17.3831C75.9394 17.042 76.0612 16.641 76.0613 16.2307C76.0608 15.6807 75.8422 15.1533 75.4534 14.7643C75.0646 14.3754 74.5373 14.1565 73.9873 14.1558Z" fill="#231F20"/>
<path d="M73.1235 14.8163H74.1459C74.2458 14.8056 74.3469 14.8176 74.4415 14.8513C74.5362 14.8851 74.622 14.9397 74.6927 15.0112C74.7633 15.0827 74.8169 15.1693 74.8495 15.2643C74.882 15.3594 74.8927 15.4606 74.8808 15.5604C74.8808 15.9359 74.7142 16.2247 74.3983 16.2738V16.2793C74.6857 16.3087 74.8367 16.467 74.8514 16.8742C74.8569 17.0578 74.8597 17.2855 74.8684 17.4627C74.8685 17.5126 74.8812 17.5616 74.9051 17.6053C74.9291 17.649 74.9637 17.686 75.0057 17.7129H74.4833C74.4334 17.6363 74.4064 17.5472 74.4052 17.4558C74.3892 17.2828 74.3933 17.1193 74.3855 16.9091C74.3777 16.5933 74.2808 16.4551 73.9636 16.4551H73.5854V17.7129H73.1235V14.8163ZM73.9553 16.1062C74.0181 16.112 74.0814 16.1037 74.1406 16.0821C74.1998 16.0604 74.2535 16.0258 74.2977 15.9809C74.3419 15.936 74.3756 15.8818 74.3964 15.8222C74.4171 15.7627 74.4244 15.6993 74.4176 15.6366C74.4176 15.3277 74.284 15.1652 73.9797 15.1652H73.5854V16.1062H73.9553Z" fill="#231F20"/>
</g>
</g>
<defs>
<clipPath id="clip0_125_1209">
<rect width="80" height="80" fill="white"/>
</clipPath>
</defs>
</svg>
