<svg width="143" height="80" viewBox="0 0 143 80" fill="none" xmlns="http://www.w3.org/2000/svg">
<g clip-path="url(#clip0_125_1047)">
<path d="M129.247 0.0546875H13.7664C6.18661 0.0546875 0.0419922 6.23803 0.0419922 13.8656V66.1494C0.0419922 73.7769 6.18661 79.9603 13.7664 79.9603H129.247C136.827 79.9603 142.971 73.7769 142.971 66.1494V13.8656C142.971 6.23803 136.827 0.0546875 129.247 0.0546875Z" fill="#FFB3C7"/>
<path fill-rule="evenodd" clip-rule="evenodd" d="M129.59 46.9565C127.72 46.9565 126.204 48.4957 126.204 50.3947C126.204 52.2932 127.72 53.8328 129.59 53.8328C131.46 53.8328 132.976 52.2933 132.976 50.3947C132.976 48.4956 131.46 46.9565 129.59 46.9565ZM118.45 44.2983C118.45 41.6986 116.261 39.5916 113.562 39.5916C110.862 39.5916 108.674 41.6987 108.674 44.2983C108.674 46.8981 110.862 49.0057 113.562 49.0057C116.262 49.0057 118.45 46.8981 118.45 44.2983ZM118.468 35.1501H123.862V53.4459H118.468V52.2766C116.944 53.332 115.104 53.9524 113.12 53.9524C107.869 53.9524 103.613 49.6302 103.613 44.2982C103.613 38.9663 107.869 34.6444 113.12 34.6444C115.104 34.6444 116.944 35.2647 118.468 36.3205V35.1501ZM75.2967 37.5333V35.1504H69.7736V53.4459H75.3091V44.9039C75.3091 42.022 78.3852 40.473 80.5197 40.473C80.5416 40.473 80.562 40.4752 80.5838 40.4754V35.1518C78.3931 35.1518 76.3782 36.1039 75.2967 37.5333ZM61.5387 44.2984C61.5387 41.6986 59.3501 39.5916 56.6505 39.5916C53.951 39.5916 51.7623 41.6987 51.7623 44.2984C51.7623 46.8982 53.9508 49.0058 56.6505 49.0058C59.3502 49.0058 61.5387 46.8982 61.5387 44.2984ZM61.5564 35.1502H66.9512V53.446H61.5564V52.2767C60.0324 53.3321 58.1928 53.9525 56.209 53.9525C50.9581 53.9525 46.7013 49.6302 46.7013 44.2983C46.7013 38.9664 50.9581 34.6444 56.209 34.6444C58.193 34.6444 60.0325 35.2648 61.5564 36.3205V35.1502ZM94.0268 34.6581C91.8719 34.6581 89.8323 35.3374 88.4688 37.2117V35.1512H83.0975V53.4461H88.5348V43.8315C88.5348 41.0494 90.3722 39.687 92.5845 39.687C94.9554 39.687 96.3185 41.1252 96.3185 43.7938V53.4461H101.707V41.8115C101.707 37.5538 98.3728 34.6581 94.0268 34.6581ZM38.8434 53.4461H44.4897V26.997H38.8434V53.4461ZM14.04 53.4535H20.0189V26.9923H14.04V53.4535ZM34.9522 26.9923C34.9522 32.7208 32.7537 38.0499 28.8361 42.011L37.1006 53.4544H29.7159L20.7342 41.0179L23.0522 39.2551C26.8964 36.3311 29.1013 31.8616 29.1013 26.9922L34.9522 26.9923Z" fill="#0A0B09"/>
</g>
<defs>
<clipPath id="clip0_125_1047">
<rect width="143" height="80" fill="white"/>
</clipPath>
</defs>
</svg>
