<svg width="103" height="80" viewBox="0 0 103 80" fill="none" xmlns="http://www.w3.org/2000/svg">
<g clip-path="url(#clip0_125_1052)">
<path d="M102.021 51.4644V50.2305H101.712L101.352 51.0531L100.991 50.2305H100.682V51.4644H100.888V50.539L101.249 51.3616H101.506L101.867 50.539V51.4644H102.021ZM99.9613 51.4644V50.4361H100.373V50.2305H99.3433V50.4361H99.7553V51.4644H99.9613Z" fill="#00A2E5"/>
<path d="M65.405 56.7614H37.5435V6.78711H65.405V56.7614Z" fill="#7375CF"/>
<path d="M39.346 31.7738C39.346 21.6452 44.084 12.5964 51.5 6.78663C46.0925 2.51928 39.243 0 31.827 0C14.2655 0 0 14.2416 0 31.7738C0 49.3059 14.2655 63.5476 31.827 63.5476C39.243 63.5476 46.0925 61.0283 51.5 56.7609C44.084 50.9512 39.346 41.9023 39.346 31.7738Z" fill="#EB001B"/>
<path d="M103 31.7738C103 49.3059 88.7345 63.5476 71.173 63.5476C63.757 63.5476 56.9075 61.0283 51.5 56.7609C58.916 50.9512 63.654 41.9023 63.654 31.7738C63.654 21.6452 58.916 12.5964 51.5 6.78663C56.9075 2.51928 63.757 0 71.173 0C88.7345 0 103 14.2416 103 31.7738Z" fill="#00A2E5"/>
<path d="M74.7781 70.8989C75.1386 70.8989 75.7051 70.9503 76.0656 71.1045L75.4991 72.8526C75.0871 72.6984 74.7266 72.6469 74.3661 72.6469C73.1816 72.6469 72.5636 73.4182 72.5636 74.8063V79.5364H70.7096V71.1045H72.5121V72.1328C73.0271 71.3616 73.7481 70.8989 74.7781 70.8989ZM67.9801 72.7498H64.9931V76.5544C64.9931 77.377 65.3021 77.9426 66.2291 77.9426C66.6926 77.9426 67.3106 77.7883 67.8771 77.4799L68.3921 79.0737C67.8256 79.485 66.8986 79.7421 66.0746 79.7421C63.9116 79.7421 63.1391 78.5595 63.1391 76.6058V72.7498H61.4396V71.0531H63.1391V68.4824H64.9931V71.0531H67.9801V72.7498ZM44.4446 74.5493C44.6506 73.3153 45.3716 72.4927 46.7106 72.4927C47.8951 72.4927 48.6676 73.2125 48.8736 74.5493H44.4446ZM50.7791 75.3205C50.7791 72.6984 49.1311 70.8989 46.7621 70.8989C44.2901 70.8989 42.5391 72.6984 42.5391 75.3205C42.5391 77.994 44.3416 79.7421 46.8651 79.7421C48.1526 79.7421 49.2856 79.4336 50.3156 78.5595L49.3886 77.2228C48.6676 77.7883 47.7921 78.0968 46.9166 78.0968C45.7321 78.0968 44.6506 77.5313 44.3931 76.0403H50.6761C50.7276 75.7832 50.7791 75.5775 50.7791 75.3205ZM58.8646 73.2639C58.3496 72.9554 57.3196 72.5441 56.2381 72.5441C55.2081 72.5441 54.6416 72.904 54.6416 73.521C54.6416 74.0865 55.2596 74.2408 56.0836 74.3436L56.9591 74.4464C58.8131 74.7035 59.8946 75.4747 59.8946 76.9657C59.8946 78.5595 58.5041 79.7421 56.0321 79.7421C54.6416 79.7421 53.3541 79.3822 52.3756 78.6624L53.2511 77.2228C53.8691 77.6855 54.7961 78.0968 56.0836 78.0968C57.3196 78.0968 57.9891 77.7369 57.9891 77.0685C57.9891 76.6058 57.5256 76.3487 56.4956 76.1945L55.6201 76.0917C53.7146 75.8346 52.6846 74.9606 52.6846 73.6238C52.6846 71.9272 54.0751 70.8989 56.1866 70.8989C57.5256 70.8989 58.7616 71.2074 59.6371 71.7729L58.8646 73.2639ZM81.5246 72.5955C81.1641 72.5955 80.8036 72.647 80.4946 72.8012C80.1856 72.9554 79.8766 73.1097 79.6706 73.3667C79.4646 73.6238 79.2586 73.8809 79.1041 74.2408C78.9496 74.5493 78.8981 74.9606 78.8981 75.3205C78.8981 75.7318 78.9496 76.0917 79.1041 76.4002C79.2586 76.7086 79.4131 77.0171 79.6706 77.2742C79.9281 77.5313 80.1856 77.6855 80.4946 77.8397C80.8036 77.994 81.1641 78.0454 81.5246 78.0454C81.8851 78.0454 82.2456 77.994 82.5546 77.8397C82.8636 77.6855 83.1726 77.5313 83.3786 77.2742C83.6361 77.0171 83.7906 76.7601 83.9451 76.4002C84.0996 76.0917 84.1511 75.6804 84.1511 75.3205C84.1511 74.9092 84.0996 74.5493 83.9451 74.2408C83.7906 73.9323 83.6361 73.6238 83.3786 73.3667C83.1211 73.1097 82.8636 72.9554 82.5546 72.8012C82.2456 72.6984 81.8851 72.5955 81.5246 72.5955ZM81.5246 70.8989C82.1941 70.8989 82.8121 71.0017 83.3271 71.2588C83.8936 71.4644 84.3571 71.7729 84.7691 72.1842C85.1811 72.5955 85.4901 73.0583 85.7476 73.5724C85.9536 74.138 86.1081 74.7035 86.1081 75.3205C86.1081 75.9374 86.0051 76.5544 85.7476 77.0685C85.5416 77.6341 85.1811 78.0968 84.7691 78.4567C84.3571 78.868 83.8936 79.1765 83.3271 79.3822C82.7606 79.5878 82.1426 79.7421 81.5246 79.7421C80.8551 79.7421 80.2371 79.6392 79.7221 79.3822C79.1556 79.1765 78.6921 78.868 78.2801 78.4567C77.8681 78.0454 77.5591 77.5827 77.3016 77.0685C77.0956 76.503 76.9411 75.9374 76.9411 75.3205C76.9411 74.7035 77.0441 74.0865 77.3016 73.5724C77.5076 73.0068 77.8681 72.5441 78.2801 72.1842C78.6921 71.7729 79.1556 71.4644 79.7221 71.2588C80.2371 71.0017 80.8551 70.8989 81.5246 70.8989ZM33.7326 75.3205C33.7326 73.8295 34.7111 72.5955 36.3076 72.5955C37.8526 72.5955 38.8311 73.7781 38.8311 75.3205C38.8311 76.8629 37.8011 77.994 36.3076 77.994C34.7111 77.994 33.7326 76.8115 33.7326 75.3205ZM40.5821 75.3205V71.1045H38.7281V72.1328C38.1616 71.3616 37.2861 70.8989 36.0501 70.8989C33.6811 70.8989 31.8271 72.7498 31.8271 75.3205C31.8271 77.8912 33.6811 79.7421 36.0501 79.7421C37.2346 79.7421 38.1101 79.2793 38.7281 78.5081V79.5364H40.5821V75.3205ZM30.2306 79.5364V74.2408C30.2306 72.2356 28.9431 70.8989 26.8831 70.8989C25.8016 70.8989 24.6686 71.2074 23.8961 72.3899C23.3296 71.4644 22.4026 70.8989 21.1151 70.8989C20.2396 70.8989 19.3126 71.1559 18.6431 72.1328V71.1045H16.7891V79.5364H18.6431V74.8577C18.6431 73.4182 19.4671 72.5955 20.7031 72.5955C21.9391 72.5955 22.5571 73.3667 22.5571 74.8063V79.485H24.4111V74.8063C24.4111 73.3667 25.2866 72.5441 26.4711 72.5441C27.7071 72.5441 28.3251 73.3153 28.3251 74.7549V79.4336H30.2306V79.5364Z" fill="black"/>
<path d="M88.0652 78.8683V79.0739H88.2712C88.3227 79.0739 88.3742 79.0739 88.3742 79.0225C88.4257 79.0225 88.4257 78.9711 88.4257 78.9197C88.4257 78.8683 88.4257 78.8683 88.3742 78.8683C88.3742 78.8683 88.3227 78.8169 88.2712 78.8169H88.0652V78.8683ZM88.2712 78.7655C88.3742 78.7655 88.4257 78.7655 88.4772 78.8169C88.5287 78.8683 88.5802 78.9197 88.5802 79.0225C88.5802 79.0739 88.5802 79.1254 88.5287 79.1768C88.4772 79.2282 88.4257 79.2282 88.3227 79.2282L88.5802 79.5367H88.3742L88.1167 79.2282H88.0652V79.5367H87.9107V78.7655H88.2712ZM88.2197 79.7937C88.3227 79.7937 88.3742 79.7937 88.4772 79.7423C88.5802 79.6909 88.6317 79.6395 88.6832 79.5881C88.7347 79.5367 88.7862 79.4852 88.8377 79.3824C88.8892 79.2796 88.8892 79.2282 88.8892 79.1254C88.8892 79.0225 88.8892 78.9711 88.8377 78.8683C88.7862 78.7655 88.7347 78.714 88.6832 78.6626C88.6317 78.6112 88.5802 78.5598 88.4772 78.5084C88.4257 78.457 88.3227 78.457 88.2197 78.457C88.1167 78.457 88.0652 78.457 87.9622 78.5084C87.8592 78.5598 87.8077 78.6112 87.7562 78.6626C87.7047 78.714 87.6532 78.8169 87.6017 78.8683C87.5502 78.9711 87.5502 79.0225 87.5502 79.1254C87.5502 79.2282 87.5502 79.2796 87.6017 79.3824C87.6532 79.4852 87.7047 79.5367 87.7562 79.5881C87.8077 79.6395 87.9107 79.6909 87.9622 79.7423C88.0652 79.7937 88.1167 79.7937 88.2197 79.7937ZM88.2197 78.3027C88.3227 78.3027 88.4257 78.3027 88.5287 78.3541C88.6317 78.4056 88.7347 78.457 88.7862 78.5084C88.8377 78.5598 88.9407 78.6626 88.9922 78.7655C89.0437 78.8683 89.0437 78.9711 89.0437 79.0739C89.0437 79.1768 89.0437 79.2796 88.9922 79.3824C88.9407 79.4852 88.8892 79.5881 88.7862 79.6395C88.6832 79.6909 88.6317 79.7937 88.5287 79.8452C88.4257 79.8966 88.3227 79.8966 88.2197 79.8966C88.1167 79.8966 87.9622 79.8966 87.8592 79.8452C87.7562 79.7937 87.6532 79.7423 87.6017 79.6395C87.5502 79.5881 87.4472 79.4852 87.3957 79.3824C87.3442 79.2796 87.3442 79.1768 87.3442 79.0739C87.3442 78.9711 87.3442 78.8683 87.3957 78.7655C87.4472 78.6626 87.4987 78.5598 87.6017 78.5084C87.6532 78.457 87.7562 78.3541 87.8592 78.3541C87.9622 78.3027 88.1167 78.3027 88.2197 78.3027Z" fill="black"/>
</g>
<defs>
<clipPath id="clip0_125_1052">
<rect width="103" height="80" fill="white"/>
</clipPath>
</defs>
</svg>
