<svg width="115" height="80" viewBox="0 0 115 80" fill="none" xmlns="http://www.w3.org/2000/svg">
<path fill-rule="evenodd" clip-rule="evenodd" d="M57 40.2848C57 34.6541 52.5154 30 47.0772 30C41.5198 30 37 34.7317 37 40.5984C37 46.3855 41.4824 51 47.1145 51C51.2513 51 55.1211 48.1055 56.3084 44.1563H51.2513C50.218 45.8774 48.8395 46.698 46.9602 46.698C44.6233 46.698 42.4781 44.978 41.8658 42.6309H56.7315C56.9605 41.4966 57 40.9885 57 40.2848ZM41.7114 38.8773C42.3259 36.1008 44.5088 34.3009 47.1521 34.3009C49.7974 34.3009 51.8658 36.0616 52.5154 38.8773H41.7114Z" fill="#332E32"/>
<path d="M9.88614 30C11.6855 30 13.377 30.4711 14.9599 31.4133C16.5435 32.3556 17.7796 33.6342 18.6673 35.25C19.5557 36.865 20 38.6089 20 40.4816C20 42.366 19.5526 44.1283 18.6585 45.7684C17.7644 47.4085 16.5467 48.6905 15.0038 49.6143C13.4617 50.5381 11.7614 51 9.90292 51C7.16871 51 4.8348 49.9816 2.9004 47.9441C0.966801 45.9065 0 43.4313 0 40.5184C0 37.3972 1.09225 34.7973 3.27754 32.7162C5.19356 30.9054 7.39643 30 9.88614 30ZM9.96444 34.7178C8.47829 34.7178 7.23982 35.2592 6.25145 36.342C5.26148 37.4248 4.76769 38.8114 4.76769 40.5C4.76769 42.238 5.25588 43.6455 6.23387 44.7224C7.21106 45.7994 8.44872 46.3374 9.94687 46.3374C11.445 46.3374 12.6923 45.7935 13.687 44.704C14.6818 43.6145 15.1796 42.2137 15.1796 40.5C15.1796 38.7871 14.6906 37.3947 13.7134 36.3236C12.7354 35.2533 11.4866 34.7178 9.96444 34.7178Z" fill="#332E32"/>
<path d="M20 30.5016H24.8093V32.4998C25.8998 31.5644 26.8883 30.9141 27.7733 30.5482C28.659 30.1822 29.5648 30 30.4915 30C32.3915 30 34.0039 30.6748 35.3289 32.0252C36.4427 33.1721 37 34.8681 37 37.1146V50H32.2437V41.4615C32.2437 39.1341 32.1409 37.5893 31.9361 36.8254C31.7306 36.0616 31.374 35.4799 30.8641 35.0797C30.3542 34.6802 29.7246 34.48 28.9746 34.48C28.0021 34.48 27.1678 34.8117 26.4708 35.4734C25.7729 36.1359 25.2895 37.0517 25.0205 38.2216C24.88 38.8302 24.8093 40.1487 24.8093 42.1771V50H20V30.5016Z" fill="#332E32"/>
<path fill-rule="evenodd" clip-rule="evenodd" d="M60.8115 57V48.5794C62.8549 50.4767 64.3378 51.1087 66.9423 51.1087C72.552 51.1087 77 46.4055 77 40.4762C77 34.5459 72.6327 30 66.9823 30C64.2174 30 62.0135 31.0276 60.4081 33.0043V30.6722H56V57H60.8115ZM66.3812 34.3482C69.5872 34.3482 72.1916 37.115 72.1916 40.5551C72.1916 43.9941 69.5872 46.7613 66.3412 46.7613C63.0953 46.7613 60.4908 44.0336 60.4908 40.5551C60.4908 37.0756 63.0953 34.3482 66.3812 34.3482Z" fill="#FAAB3E"/>
<path fill-rule="evenodd" clip-rule="evenodd" d="M91.6256 30.6688V33.1462C90.1545 31.2978 87.4494 30 84.9416 30C79.2942 30 75 34.4828 75 40.3815C75 46.4783 79.0953 51 84.6634 51C87.1319 51 90.1545 49.6634 91.6256 47.9331V50.332H96V30.6688H91.6256ZM85.6599 46.6749C82.3568 46.6749 79.7719 44.0009 79.7719 40.6189C79.7719 37.0392 82.3167 34.3258 85.6599 34.3258C89.0401 34.3258 91.5062 36.921 91.5062 40.4223C91.5062 44.0401 89.0401 46.6749 85.6599 46.6749Z" fill="#FAAB3E"/>
<path fill-rule="evenodd" clip-rule="evenodd" d="M103.662 57L115 31H109.607L104.844 43.5119L100.393 31H95L102.204 48.6574L98.5817 57H103.662Z" fill="#FAAB3E"/>
</svg>