<svg width="154" height="80" viewBox="0 0 154 80" fill="none" xmlns="http://www.w3.org/2000/svg">
<path d="M35.171 22C38.1473 22 40.5814 24.3949 40.5814 27.3234V52.6702C40.5814 55.5987 38.1473 57.9936 35.171 57.9936H9.4104C6.43399 57.9936 4 55.5987 4 52.6702V33.2631L4.01295 27.0376C4.16789 24.2424 6.53084 22 9.4104 22H35.171Z" fill="white"/>
<path d="M107.908 28.7266H101.425C100.832 28.7266 100.354 29.1967 100.354 29.7811V49.8679H104.918V42.6831H107.908C112.324 42.6831 116.327 39.9706 116.327 35.3777C116.327 30.7848 112.324 28.7266 107.908 28.7266ZM104.918 40.5232V30.8864C104.918 30.8864 106.326 30.8927 107.908 30.8927C110.148 30.8927 112.615 32.5635 112.615 35.4285C112.615 38.2935 110.142 40.5232 107.908 40.5232H104.918ZM124.1 34.0373C120.646 34.0373 118.871 34.8695 118.871 34.8695L119.29 36.1273C119.29 36.1273 120.594 35.5365 123.138 35.5365C125.973 35.5365 126.547 36.8895 126.547 38.7382L126.508 39.564C125.901 39.3862 124.481 39.1575 123.028 39.1575C120.866 39.1575 117.302 40.4661 117.302 44.7477C117.302 48.8197 120.446 50.1474 122.673 50.1474C124.513 50.1474 125.637 49.5884 126.54 49.0357V49.8742H131.099V38.7382C131.118 35.2189 127.561 34.0373 124.1 34.0373ZM124.294 48.1591C122.312 48.1591 120.891 46.7234 120.891 44.5953C120.891 42.4671 122.796 41.2221 124.526 41.2221C125.398 41.2221 126.231 41.4571 126.554 41.7303V47.1744C125.998 47.6572 125.346 48.1591 124.294 48.1591ZM141.777 51.7864C140.39 54.8038 138.111 55.1913 137.09 55.312C136.019 55.4327 134.869 55.3819 134.869 55.3819V52.9171C136.903 52.9171 138.007 53.076 139.208 50.7319L140.021 48.699L132.526 34.0309H137.31L142.223 43.7821L146.568 34.0309H149.68C149.687 34.0373 143.166 48.7752 141.777 51.7864ZM55.7087 28.7266H49.2266C48.6326 28.7266 48.1548 29.1967 48.1548 29.7811V49.8679H52.7194V42.6831H55.7087C60.1248 42.6831 64.1277 39.9706 64.1277 35.3777C64.1341 30.7848 60.1312 28.7266 55.7087 28.7266ZM52.7258 40.5232V30.8864C52.7258 30.8864 54.1333 30.8927 55.7151 30.8927C57.9555 30.8927 60.4217 32.5635 60.4217 35.4285C60.4217 38.2935 57.949 40.5232 55.7151 40.5232H52.7258ZM71.9075 34.0373C68.4534 34.0373 66.6779 34.8695 66.6779 34.8695L67.0976 36.1273C67.0976 36.1273 68.3953 35.5365 70.9455 35.5365C73.7798 35.5365 74.3545 36.8895 74.3545 38.7382L74.3157 39.564C73.7088 39.3862 72.2884 39.1575 70.8357 39.1575C68.6793 39.1575 65.1091 40.4661 65.1091 44.7477C65.1091 48.8197 68.2533 50.1474 70.4807 50.1474C72.3207 50.1474 73.4377 49.5884 74.348 49.0357V49.8742H78.9061V38.7382C78.919 35.2189 75.3616 34.0373 71.9075 34.0373ZM72.1012 48.1591C70.1191 48.1591 68.6988 46.7234 68.6988 44.5953C68.6988 42.4671 70.6034 41.2221 72.3336 41.2221C73.2052 41.2221 74.0381 41.4571 74.3609 41.7303V47.1744C73.7992 47.6572 73.1471 48.1591 72.1012 48.1591ZM89.5787 51.7864C88.1902 54.8038 85.9112 55.1913 84.8911 55.312C83.8194 55.4327 82.6701 55.3819 82.6701 55.3819V52.9171C84.7039 52.9171 85.8079 53.076 87.0085 50.7319L87.8226 48.699L80.3265 34.0309H85.1106L90.0235 43.7821L94.3688 34.0309H97.4809C97.4875 34.0373 90.9662 48.7752 89.5787 51.7864Z" fill="#3F3A39"/>
<path d="M11.1213 57.9936H9.4104C6.43399 57.9936 4 55.5987 4 52.6702V33.2631C8.85511 32.7803 13.381 32.793 17.3516 33.1678L11.1213 57.9936ZM33.1243 41.2165C33.983 37.7798 28.3467 34.5971 19.3273 33.3965L16.0539 46.8004C23.6142 47.1562 32.201 44.9137 33.1243 41.2165ZM35.171 22H9.4104C6.53084 22 4.16789 24.2424 4.01295 27.0376C25.5834 26.4405 36.0748 33.8222 34.4285 41.1847C32.9435 47.8105 26.0998 50.3515 14.9821 51.1901L13.3164 58H35.171C38.1473 58 40.5814 55.6051 40.5814 52.6766V27.3234C40.5814 24.3949 38.1473 22 35.171 22Z" fill="#FF0033"/>
</svg>
