<svg width="120" height="80" viewBox="0 0 120 80" fill="none" xmlns="http://www.w3.org/2000/svg">
<path d="M116 0H4C1.79086 0 0 1.79086 0 4V76C0 78.2091 1.79086 80 4 80H116C118.209 80 120 78.2091 120 76V4C120 1.79086 118.209 0 116 0Z" fill="#FFFFFE"/>
<path d="M13 55V26.0065H20.2064C22.8737 26.0065 25.3545 25.9472 26.6376 26.1869C27.9696 26.4528 29.2518 26.9393 30.4352 27.6277C31.6265 28.4024 32.5525 29.5473 33.0819 30.8998C33.7233 32.5442 34.0346 34.3074 33.9969 36.0812C33.9969 39.391 33.3022 41.9629 31.6251 43.6972C29.9479 45.4315 26.2307 46.1452 22.9774 46.1452H21.1344V55H13ZM21.0929 40.8237C21.2168 40.8484 21.3426 40.861 21.4688 40.8614C23.991 40.9584 24.6598 40.3228 25.0408 39.7842C25.637 39.014 25.6578 37.3093 25.6578 35.7257C25.6578 34.4088 25.7044 33.3289 24.7842 32.2975C24.1802 31.6188 22.7234 31.3899 21.0825 31.3899V31.8693L21.0929 40.8237Z" fill="black"/>
<path d="M89 55H70V26H79.3709V46.2906H88.9892L89 55Z" fill="black"/>
<path d="M99 36H90V55H99V36Z" fill="black"/>
<path d="M99 26H90V34H99V26Z" fill="black"/>
<path d="M103 52H101V52.6206H101.749V55H102.265V52.6206H103V52Z" fill="black"/>
<path fill-rule="evenodd" clip-rule="evenodd" d="M58.0904 52.6615C59.3332 52.1311 60.4663 51.3702 61.4309 50.4182C64.2456 47.8292 67.2172 43.4271 66.9897 38.0722C66.749 32.4376 63.7538 28.8352 59.7594 26.5734C60.9104 26.8373 61.8364 27.6291 62.7493 28.3232C65.305 30.4213 67.2539 33.6543 67.3376 38.2121C67.4448 44.2822 64.2508 48.4072 61.1039 51.2574C62.0833 50.6655 62.9332 49.879 63.6021 48.9455C66.1416 45.9823 67.5603 42.2083 67.607 38.2913C67.607 31.9309 64.0494 28.2625 59.8928 25.8872C61.2385 26.3173 62.4781 27.0317 63.5289 27.9827C65.0626 29.3317 66.2622 31.0241 67.0317 32.9245C67.8011 34.825 68.1191 36.8807 67.9602 38.9273C67.7087 43.3887 65.7673 47.582 62.5374 50.6399C59.3553 53.7019 55.2355 55.5809 50.8549 55.9683C50.2776 56.0106 49.6979 56.0106 49.1206 55.9683C41.8484 55.3613 36.601 50.69 36.0412 43.4851C35.9863 42.7384 35.9863 41.9886 36.0412 41.2418C36.3629 37.1087 38.1387 33.2278 41.048 30.2999C43.9568 27.2543 47.6191 24.9794 52.7305 24.6099C52.8561 24.0477 53.0052 23.4038 53.0837 23C54.7657 24.8025 56.8139 26.7634 58.9223 28.8853C56.377 30.2049 53.8998 31.5852 51.4173 32.9575C51.467 32.4297 51.5874 31.857 51.624 31.4849C47.3496 32.245 43.7554 35.3671 43.0282 39.7586C42.0917 45.1056 45.6258 49.1989 50.7215 49.2227C55.8172 49.2464 60.225 45.2454 61.0045 40.6718C61.6376 36.977 60.0236 34.3827 57.9466 32.6751C59.8823 33.9631 61.9724 36.2908 61.7004 39.7586C61.274 45.1715 56.2253 49.6739 50.9282 49.7162C49.5408 49.7173 48.1702 49.4106 46.9134 48.8177C45.6567 48.2248 44.5446 47.3602 43.656 46.2853C45.3851 48.8294 48.4143 50.1648 51.8568 49.9537C54.3788 49.7292 56.7421 48.6164 58.5325 46.8105C60.314 45.0959 61.4985 42.8464 61.9096 40.3973C62.0456 39.4424 62.0456 38.4729 61.9096 37.518C61.4885 34.7152 59.8012 33.4167 58.2736 31.6142C60.4709 33.3851 62.7755 35.7418 62.6211 39.5581C62.3909 45.1293 57.1043 50.0381 51.5664 50.4261C50.1418 50.5758 48.702 50.4004 47.3536 49.913C46.0052 49.4256 44.7826 48.6385 43.7764 47.6101C45.5944 49.9326 49.0081 51.1255 52.6049 50.5554C57.7111 49.7426 62.268 45.446 62.8226 40.1096C63.3457 35.2879 60.9051 33.0578 58.6005 30.6773C61.0568 32.5537 63.1548 34.636 63.3091 38.4813C63.4295 41.8357 61.8181 45.1056 59.7515 47.1905C56.4529 50.529 50.0152 52.7327 45.0137 49.6423C49.2749 52.9227 55.8905 51.0463 59.401 47.8239C61.9567 45.4988 63.814 42.3978 63.5079 37.737C63.2463 33.9947 61.1536 32.0813 58.781 30.0835C60.1901 30.7847 61.4002 31.8345 62.2986 33.1349C63.197 34.4354 63.7543 35.9442 63.9186 37.5206C64.3659 42.2949 62.1895 45.8287 59.5396 48.1802C57.8436 49.751 55.7846 50.8681 53.5506 51.4296C51.3166 51.9912 48.9788 51.9791 46.7506 51.3947C55.1502 54.0127 63.0109 47.7263 64.1279 40.4501C64.931 35.2114 62.2968 32.1341 59.7489 29.9331C59.4873 29.7087 59.3434 29.5451 58.9851 29.231C62.6211 31.1286 65.5928 35.3011 64.4078 41.226C63.0266 48.1063 56.1939 53.6934 47.3758 52.2313C48.6576 52.7591 50.1486 52.6404 51.4487 52.5665C55.0825 52.3564 58.5057 50.7778 61.0412 48.1432C63.3954 45.5041 65.2632 42.1603 64.9048 37.3596C64.5778 33.0156 62.1686 30.9227 59.2231 28.6188C60.4592 29.1282 61.5562 29.9291 62.4223 30.9544C64.1032 32.7509 65.1241 35.0736 65.3155 37.5365C65.6739 42.4849 63.4164 46.1533 60.9365 48.7318C59.5443 50.1929 57.8703 51.3511 56.0177 52.1349C54.1651 52.9188 52.1731 53.3117 50.1643 53.2896C57.3004 53.5113 62.043 49.0986 64.3398 44.1766C65.743 41.0691 65.9655 37.5498 64.965 34.2877C63.9762 31.4268 61.7056 29.4659 59.4716 27.8824C63.3745 29.9779 66.6574 33.934 65.9407 40.0463C65.6996 42.1531 65.0098 44.1823 63.9186 45.995C61.7945 49.5948 58.3154 52.1284 54.4125 53.4902C57.3707 52.7727 60.0394 51.157 62.0587 48.8611C64.5229 46.1111 66.422 42.6248 66.2991 37.7766C66.163 32.5353 62.9638 29.5477 59.6966 27.191C59.7392 27.1969 59.7812 27.2066 59.8222 27.22C63.385 28.983 66.0846 32.0417 66.647 36.7949C67.5233 44.3244 62.6264 49.8217 58.0904 52.6615Z" fill="#2F459C"/>
<path d="M105.475 55V53.5589L105.17 54.2931H104.832L104.531 53.5831V55H104V52H104.517L105.001 53.3384L105.483 52H106V55H105.475Z" fill="black"/>
</svg>
