<svg width="129" height="80" viewBox="0 0 129 80" fill="none" xmlns="http://www.w3.org/2000/svg">
<path d="M12 57.0748V24.7768H20.34C23.427 24.7768 26.298 24.7108 27.783 24.9778C29.3245 25.274 30.8084 25.8159 32.178 26.5828C33.5566 27.4458 34.6283 28.7211 35.241 30.2278C35.9833 32.0596 36.3436 34.0237 36.3 35.9998C36.3 39.6868 35.496 42.5518 33.555 44.4838C31.614 46.4158 27.312 47.2108 23.547 47.2108H21.414V57.0748H12ZM21.366 41.2828C21.5094 41.3102 21.655 41.3243 21.801 41.3248C24.72 41.4328 25.494 40.7248 25.935 40.1248C26.625 39.2668 26.649 37.3678 26.649 35.6038C26.649 34.1368 26.703 32.9338 25.638 31.7848C24.939 31.0288 23.253 30.7738 21.354 30.7738V31.3078L21.366 41.2828Z" fill="black"/>
<path d="M98.1479 56.9409H76.9619V24.5859H87.4109V47.2239H98.1359L98.1479 56.9409Z" fill="black"/>
<path d="M109.971 35.7441H99.9629V56.9871H109.971V35.7441Z" fill="black"/>
<path d="M110.043 24.7285H99.8223V33.5095H110.043V24.7285Z" fill="black"/>
<path d="M114.483 53.8418H111.528V54.4568H112.635V56.8148H113.397V54.4568H114.483V53.8418Z" fill="black"/>
<path fill-rule="evenodd" clip-rule="evenodd" d="M62.9163 54.717C64.3416 54.1141 65.641 53.2492 66.7473 52.167C69.9753 49.224 73.3833 44.22 73.1223 38.133C72.8463 31.728 69.4113 27.633 64.8303 25.062C66.1503 25.362 67.2123 26.262 68.2593 27.051C71.1903 29.436 73.4253 33.111 73.5213 38.292C73.6443 45.192 69.9813 49.881 66.3723 53.121C67.4955 52.4481 68.4702 51.554 69.2373 50.493C72.1497 47.1246 73.7767 42.8346 73.8303 38.382C73.8303 31.152 69.7503 26.982 64.9833 24.282C66.5267 24.7709 67.9482 25.5829 69.1533 26.664C70.9123 28.1974 72.288 30.1212 73.1705 32.2815C74.0529 34.4418 74.4176 36.7786 74.2353 39.105C73.9469 44.1764 71.7204 48.943 68.0163 52.419C64.3669 55.8997 59.6422 58.0356 54.6183 58.476C53.9562 58.524 53.2914 58.524 52.6293 58.476C44.2893 57.786 38.2713 52.476 37.6293 44.286C37.5663 43.4372 37.5663 42.5848 37.6293 41.736C37.9982 37.0378 40.0348 32.6262 43.3713 29.298C46.7073 25.836 50.9073 23.25 56.7693 22.83C56.9133 22.191 57.0843 21.459 57.1743 21C59.1033 23.049 61.4523 25.278 63.8703 27.69C60.9513 29.19 58.1103 30.759 55.2633 32.319C55.3203 31.719 55.4583 31.068 55.5003 30.645C50.5983 31.509 46.4763 35.058 45.6423 40.05C44.5683 46.128 48.6213 50.781 54.4653 50.808C60.3093 50.835 65.3643 46.287 66.2583 41.088C66.9843 36.888 65.1333 33.939 62.7513 31.998C64.9713 33.462 67.3683 36.108 67.0563 40.05C66.5673 46.203 60.7773 51.321 54.7023 51.369C53.1112 51.3703 51.5393 51.0216 50.098 50.3477C48.6567 49.6737 47.3813 48.6909 46.3623 47.469C48.3453 50.361 51.8193 51.879 55.7673 51.639C58.6596 51.3838 61.3699 50.1189 63.4233 48.066C65.4663 46.117 66.8248 43.5599 67.2963 40.776C67.4523 39.6906 67.4523 38.5884 67.2963 37.503C66.8133 34.317 64.8783 32.841 63.1263 30.792C65.6463 32.805 68.2893 35.484 68.1123 39.822C67.8483 46.155 61.7853 51.735 55.4343 52.176C53.8004 52.3461 52.1492 52.1468 50.6028 51.5927C49.0564 51.0386 47.6543 50.144 46.5003 48.975C48.5853 51.615 52.5003 52.971 56.6253 52.323C62.4813 51.399 67.7073 46.515 68.3433 40.449C68.9433 34.968 66.1443 32.433 63.5013 29.727C66.3183 31.86 68.7243 34.227 68.9013 38.598C69.0393 42.411 67.1913 46.128 64.8213 48.498C61.0383 52.293 53.6553 54.798 47.9193 51.285C52.8063 55.014 60.3933 52.881 64.4193 49.218C67.3503 46.575 69.4803 43.05 69.1293 37.752C68.8293 33.498 66.4293 31.323 63.7083 29.052C65.3243 29.8491 66.7121 31.0424 67.7424 32.5207C68.7726 33.9989 69.4118 35.714 69.6003 37.506C70.1133 42.933 67.6173 46.95 64.5783 49.623C62.6332 51.4086 60.2719 52.6785 57.7098 53.3167C55.1478 53.955 52.4667 53.9414 49.9113 53.277C59.5443 56.253 68.5593 49.107 69.8403 40.836C70.7613 34.881 67.7403 31.383 64.8183 28.881C64.5183 28.626 64.3533 28.44 63.9423 28.083C68.1123 30.24 71.5203 34.983 70.1613 41.718C68.5773 49.539 60.7413 55.89 50.6283 54.228C52.0983 54.828 53.8083 54.693 55.2993 54.609C59.4666 54.3702 63.3926 52.5758 66.3003 49.581C69.0003 46.581 71.1423 42.78 70.7313 37.323C70.3563 32.385 67.5933 30.006 64.2153 27.387C65.6329 27.9661 66.891 28.8765 67.8843 30.042C69.812 32.0841 70.9828 34.7244 71.2023 37.524C71.6133 43.149 69.0243 47.319 66.1803 50.25C64.5836 51.9109 62.6639 53.2274 60.5392 54.1184C58.4146 55.0095 56.1301 55.4561 53.8263 55.431C62.0103 55.683 67.4493 50.667 70.0833 45.072C71.6926 41.5397 71.9477 37.5392 70.8003 33.831C69.6663 30.579 67.0623 28.35 64.5003 26.55C68.9763 28.932 72.7413 33.429 71.9193 40.377C71.6427 42.7718 70.8517 45.0785 69.6003 47.139C67.1643 51.231 63.1743 54.111 58.6983 55.659C62.0908 54.8435 65.1515 53.0068 67.4673 50.397C70.2933 47.271 72.4713 43.308 72.3303 37.797C72.1743 31.839 68.5053 28.443 64.7583 25.764C64.8072 25.7707 64.8554 25.7817 64.9023 25.797C68.9883 27.801 72.0843 31.278 72.7293 36.681C73.7343 45.24 68.1183 51.489 62.9163 54.717Z" fill="#2F459C"/>
<path d="M117.465 56.8501V55.4191L117.036 56.1481H116.562L116.139 55.4431V56.8501H115.392V53.8711H116.118L116.799 55.2001L117.477 53.8711H118.203V56.8501H117.465Z" fill="black"/>
</svg>
