<svg width="120" height="80" viewBox="0 0 120 80" fill="none" xmlns="http://www.w3.org/2000/svg">
<path d="M116 0H4C1.79086 0 0 1.79086 0 4V76C0 78.2091 1.79086 80 4 80H116C118.209 80 120 78.2091 120 76V4C120 1.79086 118.209 0 116 0Z" fill="#FFFFFE"/>
<path d="M108.024 29.0875L100.082 52.9588C99.2375 55.5051 97.3867 56.9264 95.0009 56.9219C93.5056 56.919 92.1289 56.3633 91.0891 55.3388L92.5551 53.0787C93.2596 53.7002 93.9143 53.9864 94.788 53.9881C96.0145 53.9904 96.6035 53.4719 97.2115 51.8303L97.7012 50.507L90.114 29.0368L93.3734 29.043L99.188 46.1181L104.748 29.0645L108.024 29.0707L108.024 29.0875ZM83.9277 48.6036C82.2101 50.6286 80.2594 51.5636 77.7056 51.5588C71.9427 51.5479 68.0033 46.8302 68.0162 39.9912C68.0291 33.1522 72.0199 28.483 77.8332 28.494C80.4542 28.499 82.2673 29.2735 84.0112 31.0871L84.4687 29.0262L87.2745 29.0315L87.233 51.0068L84.4272 51.0015L83.9277 48.6036ZM71.3597 39.9975C71.3502 44.9927 74.0652 48.6185 77.7783 48.6255C81.4914 48.6325 84.1864 45.0504 84.1958 40.0553C84.2053 35.0266 81.5239 31.4344 77.7772 31.4273C74.0977 31.4204 71.369 35.0861 71.3597 39.9975ZM58.3025 23.5122C63.2253 23.5215 66.7304 26.9141 66.7212 31.7584C66.7121 36.6027 63.2109 40.0156 58.2713 40.0063L52.2901 39.995L52.2694 50.9408L49.1275 50.9348L49.1794 23.4949L58.3025 23.5122ZM58.0752 37.0893C61.1499 37.0951 63.3551 34.8699 63.3609 31.7688C63.3668 28.6678 61.2036 26.4678 58.0953 26.462L52.3325 26.4511L52.3123 37.0951L58.0752 37.106L58.0752 37.0893ZM16.8219 57.9642L12.0075 53.9154L45.8791 53.9794L16.8219 57.9642ZM22.3461 50.901L22.3631 41.9331L26.2442 41.9405L32.9646 50.921L39.8531 50.934L31.7249 40.107C34.2653 38.3014 35.9343 35.3377 35.9406 32.002C35.951 26.5039 31.4734 22.0367 25.9626 22.0263L16.8899 22.0091L16.8352 50.9073L22.3461 50.9177L22.3461 50.901ZM22.3904 27.484L25.9859 27.4908C28.4557 27.4955 30.468 29.5108 30.4634 31.9748C30.4587 34.4557 28.4388 36.4466 25.969 36.4419L22.3735 36.4351L22.3904 27.484Z" fill="#BF0000"/>
</svg>
