<svg width="185" height="80" viewBox="0 0 185 80" fill="none" xmlns="http://www.w3.org/2000/svg">
<path d="M145.719 33.6191C146.006 33.6764 146.308 33.7493 146.594 33.8171C149.5 34.4993 151.427 37.2285 151.183 40.3275C150.953 43.3744 148.677 45.7025 145.688 45.9004C144.339 45.9889 143.084 45.6556 141.948 44.6035V50.0462H139.448V33.9941H141.948C141.964 34.2962 141.979 34.5983 141.995 35.1035C142.771 34.0931 143.792 33.89 144.813 33.6296C145.115 33.6191 145.417 33.6191 145.719 33.6191ZM148.62 39.6504C148.61 39.5514 148.61 39.2598 148.563 38.9889C148.292 37.1973 146.953 35.9837 145.245 35.9577C143.49 35.9264 142.12 37.0098 141.907 38.8118C141.813 39.7337 141.886 40.666 142.12 41.5566C142.396 42.6244 143.214 43.291 144.323 43.5202C146.709 44.0254 148.641 42.3639 148.62 39.6504Z" fill="black"/>
<path d="M159.047 33.6191C160.084 33.8327 161.12 34.0358 161.938 35.0462C161.979 34.5983 161.995 34.3118 162.026 33.9785H164.495V45.6556H162.052C162.037 45.3379 162.011 45.0514 161.995 44.7493C161.953 44.7337 161.896 44.7025 161.88 44.7025C159.276 47.1712 153.698 45.9473 152.823 40.791C152.203 37.14 154.891 33.9629 157.953 33.7025C158.057 33.6816 158.162 33.6504 158.255 33.6035C158.531 33.6191 158.787 33.6191 159.047 33.6191ZM162.182 39.8691C162.167 39.5514 162.167 39.3483 162.151 39.1608C161.964 37.3587 160.787 36.1139 159.136 35.9681C157.365 35.8275 155.886 36.8223 155.511 38.5983C155.349 39.3796 155.344 40.1816 155.495 40.9629C155.656 41.7493 156.094 42.4473 156.724 42.9368C157.354 43.4264 158.136 43.6712 158.932 43.6348C160.656 43.5618 161.766 42.5671 162.094 40.791C162.141 40.4316 162.156 40.0827 162.182 39.8691Z" fill="black"/>
<path d="M94.4945 44.547H92.0361V35.9845C91.9788 35.9845 91.9111 35.9689 91.8538 35.9689C91.3174 38.8126 90.7861 41.6564 90.2549 44.5314H87.7393C87.208 41.672 86.6768 38.8439 86.1403 36.0001C86.083 36.0001 86.0413 36.0157 85.984 36.0157V44.5157H83.5049C83.5726 41.2241 83.6455 37.9636 83.7184 34.6407C84.9997 34.6407 86.2184 34.6303 87.4424 34.672C87.5726 34.672 87.7861 35.0053 87.8174 35.2084C88.1768 37.3855 88.5205 39.5678 88.8643 41.7449C88.8799 41.8178 88.9111 41.8907 89.0518 41.9636C89.2132 41.0105 89.3695 40.073 89.5153 39.1199C89.7288 37.7761 89.9424 36.4168 90.1768 35.0782C90.2028 34.9168 90.3903 34.6564 90.5205 34.6564C91.7445 34.6303 92.9632 34.6407 94.2601 34.6407C94.3538 37.9636 94.432 41.2136 94.4945 44.547Z" fill="black"/>
<mask id="mask0_125_407" style="mask-type:luminance" maskUnits="userSpaceOnUse" x="165" y="33" width="14" height="18">
<path d="M165.594 33.2598H178.375V50.5931H165.594V33.2598Z" fill="white"/>
</mask>
<g mask="url(#mask0_125_407)">
<path d="M168.943 50.0728C169.646 48.4426 170.292 46.9582 170.896 45.453C171.006 45.1457 171 44.8072 170.881 44.5051C169.427 41.2395 167.964 38.0051 166.479 34.7603C166.381 34.526 166.282 34.2812 166.12 33.9374C167.016 33.9374 167.849 33.9218 168.667 33.9635C168.797 33.9635 168.953 34.2551 169.026 34.4426C170.021 36.7239 171 38.9999 171.974 41.2812C172.089 41.5416 172.203 41.7864 172.375 42.177C172.506 41.9062 172.594 41.7291 172.667 41.5416C173.584 39.2187 174.532 36.8957 175.427 34.5572C175.615 34.052 175.854 33.8905 176.375 33.9374C177.006 33.9791 177.657 33.9478 178.375 33.9478C178.287 34.2082 178.245 34.3957 178.172 34.5572C176.073 39.5364 173.974 44.5051 171.886 49.4947C171.688 49.9895 171.427 50.1457 170.927 50.1041C170.308 50.0468 169.688 50.0728 168.943 50.0728Z" fill="black"/>
</g>
<path d="M124.323 44.4888C123.229 44.4888 122.177 44.5148 121.13 44.4575C120.958 44.4419 120.74 44.1138 120.667 43.895C119.948 41.5877 119.26 39.2596 118.568 36.9367C118.542 36.8325 118.479 36.7336 118.396 36.6607V44.4315H116.094V34.6398C117.245 34.6398 118.38 34.6294 119.516 34.6711C119.646 34.6711 119.807 35.0044 119.865 35.1919C120.51 37.343 121.13 39.5044 121.76 41.6555C121.802 41.8169 121.859 41.9732 121.979 42.3065V34.6867H124.323C124.323 37.9315 124.323 41.1502 124.323 44.4888Z" fill="black"/>
<path d="M131.469 40.5052C131.109 40.474 130.807 40.4479 130.49 40.401V39.0156H133.839C133.839 40.2708 133.927 41.526 133.813 42.7552C133.724 43.6823 133.021 44.2135 132.172 44.5052C131.104 44.8802 129.943 44.8906 128.865 44.5469C127.63 44.1719 126.995 43.375 126.969 42.0781C126.922 40.474 126.937 38.875 126.953 37.2708C126.979 35.6406 127.745 34.7135 129.339 34.4688C130.062 34.3542 130.802 34.3542 131.526 34.4688C133.307 34.7448 134.068 35.8542 133.87 37.7448H131.479C131.469 37.5 131.453 37.2708 131.422 37.0417C131.339 36.4479 130.932 36.099 130.359 36.1458C129.786 36.1875 129.411 36.4896 129.396 37.0833C129.37 38.7448 129.37 40.4167 129.396 42.0781C129.396 42.6406 129.786 42.9583 130.375 42.9844C130.995 43.0156 131.411 42.6823 131.453 42.1198C131.495 41.599 131.469 41.0833 131.469 40.5052Z" fill="black"/>
<path d="M106.364 34.6719H108.823V41.8906C108.823 42.7135 109.172 43.1146 109.833 43.1042C110.463 43.0885 110.781 42.6823 110.781 41.8906V34.7031H113.224C113.239 34.875 113.271 35.0625 113.271 35.25C113.271 37.4427 113.281 39.625 113.271 41.8177C113.255 43.7656 112.479 44.6771 110.552 44.8177C109.718 44.875 108.88 44.8073 108.062 44.6198C107.057 44.3698 106.411 43.6094 106.396 42.5521C106.333 39.9427 106.364 37.3437 106.364 34.6719Z" fill="black"/>
<path d="M64.7761 41.3444H67.3647V42.1777C67.3491 42.6413 67.5209 43.0579 67.9793 43.1048C68.3699 43.1309 68.9428 43.0579 69.1199 42.7975C69.3178 42.5111 69.2918 41.9173 69.1303 41.5579C68.974 41.1986 68.5261 40.9642 68.1668 40.735C67.4793 40.2871 66.7293 39.9277 66.0678 39.4642C64.8907 38.6725 64.5313 37.6621 64.8595 36.3184C65.1199 35.235 65.9688 34.5423 67.3491 34.3965C68.0782 34.3184 68.8126 34.334 69.5366 34.4434C71.1303 34.6881 71.8647 35.8392 71.547 37.485H69.2032C69.1876 37.2559 69.1772 37.0527 69.1616 36.8392C69.1303 36.3913 68.9011 36.0423 68.4688 36.0423C68.1251 36.0423 67.6199 36.1882 67.4949 36.4329C67.3491 36.709 67.4063 37.2559 67.5938 37.5319C67.8074 37.8652 68.2553 38.0631 68.6147 38.2975C69.2918 38.7142 70.0105 39.0736 70.672 39.5059C71.948 40.3288 72.0209 41.5892 71.7657 42.9173C71.5209 44.1569 70.599 44.7194 69.4636 44.8652C68.6772 44.9798 67.8751 44.9694 67.0886 44.834C65.2397 44.5059 64.4428 43.2454 64.7761 41.3444Z" fill="black"/>
<path d="M103.713 37.5002H101.37C101.354 37.2971 101.328 37.1252 101.328 36.9377C101.312 36.4898 101.125 36.1721 100.692 36.0888C100.265 36.0002 99.7914 36.0159 99.6456 36.4742C99.5518 36.8544 99.6091 37.2502 99.8018 37.5888C100.005 37.9065 100.437 38.094 100.781 38.3075C101.458 38.7294 102.177 39.0888 102.838 39.5367C104.088 40.3752 104.187 41.6305 103.885 42.943C103.614 44.1409 102.708 44.6773 101.588 44.8075C100.859 44.9013 100.125 44.9013 99.4008 44.8075C97.5153 44.5315 96.6976 43.3023 96.9997 41.344H99.557C99.557 41.6461 99.4893 41.9638 99.5726 42.193C99.7028 42.5263 99.906 42.9742 100.177 43.0575C100.495 43.1617 101.083 43.0575 101.271 42.8284C101.484 42.568 101.531 41.9742 101.37 41.6565C101.198 41.2815 100.75 41.0107 100.38 40.7659C99.6872 40.318 98.9528 39.943 98.281 39.495C97.1299 38.7555 96.7966 37.6773 97.0831 36.3909C97.3591 35.1461 98.281 34.6305 99.4164 34.469C100.099 34.3805 100.786 34.3752 101.474 34.4534C103.213 34.6877 103.922 35.6825 103.713 37.5002Z" fill="black"/>
<path d="M81.5101 44.563C80.6924 44.563 79.932 44.5891 79.1559 44.5318C79.0257 44.5162 78.8226 44.2453 78.7966 44.0578C78.3799 41.3547 78.0049 38.6568 77.6038 35.9693C77.5778 35.8807 77.5518 35.787 77.5153 35.6985C77.4424 35.9589 77.3851 36.0891 77.359 36.2297C76.9684 38.813 76.5674 41.412 76.208 43.9953C76.1507 44.4432 75.9893 44.5735 75.557 44.563C74.8695 44.5318 74.1924 44.5474 73.458 44.5474C73.9372 42.0057 74.3955 39.5526 74.8382 37.0839C74.958 36.4172 75.083 35.7714 75.1976 35.1047C75.2601 34.7714 75.3851 34.6307 75.7445 34.6412C76.9111 34.6568 78.0778 34.6307 79.2393 34.6724C79.4268 34.6724 79.7288 34.8912 79.7601 35.0474C80.3643 38.1828 80.9216 41.3287 81.5101 44.563Z" fill="black"/>
<mask id="mask1_125_407" style="mask-type:luminance" maskUnits="userSpaceOnUse" x="7" y="17" width="47" height="46">
<path d="M7 17H53.5938V62.8542H7V17Z" fill="white"/>
</mask>
<g mask="url(#mask1_125_407)">
<path d="M52.2548 33.094C51.6923 28.8336 50.1923 24.9794 47.5465 22.1513C44.7288 19.495 40.885 17.9898 36.6455 17.4221C32.5934 16.8857 29.8382 17.0159 29.8382 17.0159C29.8382 17.0159 27.0777 16.8857 23.0257 17.4221C18.7861 17.9898 14.9423 19.495 12.1298 22.1513C9.47878 24.9794 7.97878 28.8388 7.41628 33.094C6.87983 37.1565 7.01524 39.9273 7.01524 39.9273C7.01524 39.9273 6.87983 42.6982 7.41628 46.7659C7.97878 51.0211 9.47878 54.8804 12.1246 57.7034C14.9423 60.3648 18.7861 61.87 23.0257 62.4325C27.0777 62.9742 29.833 62.8388 29.833 62.8388C29.833 62.8388 32.5934 62.9742 36.6455 62.4325C40.885 61.87 44.7288 60.3596 47.5413 57.7034C50.1923 54.8804 51.6923 51.0211 52.2548 46.7659C52.7913 42.6982 52.6559 39.9273 52.6559 39.9273C52.6559 39.9273 52.7913 37.1617 52.2548 33.094ZM18.9111 44.4482H17.9944V42.4898H18.9111C20.6871 42.4898 22.1298 41.1565 22.1298 39.3752C22.1298 38.5211 21.7913 37.6982 21.1871 37.094C20.5829 36.4898 19.7652 36.1461 18.9111 36.1461H16.0048C15.9163 36.1461 15.833 36.1825 15.7704 36.245C15.7132 36.3075 15.6767 36.3909 15.6767 36.4794V47.4534H13.6871V36.4794C13.6871 35.8648 13.9319 35.2711 14.3694 34.8336C14.8017 34.4013 15.3902 34.1565 16.0048 34.1565H18.9111C20.2913 34.1565 21.6142 34.7086 22.5882 35.6877C23.5673 36.6669 24.1142 37.995 24.1142 39.3804C24.1142 42.2554 21.7809 44.4482 18.9111 44.4482ZM35.5413 39.594V44.469H33.5569V39.4013C33.5569 37.6357 31.9319 36.1617 30.1559 36.1617C28.4267 36.1617 26.9267 37.6929 26.9267 39.4013C26.9267 41.245 28.3121 42.4638 30.2809 42.4638H30.9007V44.4586H30.2809C27.1819 44.4586 24.9423 42.3857 24.9423 39.4065C24.9423 36.5888 27.3277 34.1721 30.1559 34.1721C33.0309 34.1721 35.5413 36.5419 35.5413 39.4065V39.594ZM35.8538 34.495H38.0777L40.6455 39.8648L39.5309 42.094L35.8538 34.495ZM40.4475 47.7971H38.234L44.7392 34.495H46.958L40.4475 47.7971Z" fill="#3056D3"/>
</g>
<path d="M16.0052 34.1504C15.3906 34.1556 14.8021 34.4004 14.3698 34.8327C13.9323 35.2702 13.6875 35.8639 13.6875 36.4785V42.5775H15.6771V36.4785C15.6771 36.39 15.7135 36.3066 15.7708 36.2441C15.8333 36.1816 15.9167 36.1452 16.0052 36.1452H17.9219V34.1504H16.0052Z" fill="white"/>
<path d="M18.9118 34.1504H18.8649V36.1452H18.9118C19.766 36.1452 20.5837 36.4889 21.1878 37.0931C21.792 37.7025 22.1305 38.5202 22.1305 39.3796C22.1305 41.1556 20.693 42.4941 18.9118 42.4941H17.9951V44.4473H18.9118C21.7816 44.4473 24.1149 42.2598 24.1149 39.3796C24.1149 37.9941 23.568 36.666 22.5941 35.6868C21.6149 34.7077 20.292 34.1556 18.9118 34.1504Z" fill="white"/>
<path d="M18.8646 34.1504H17.9219V36.1452H18.8646V34.1504Z" fill="white"/>
<path d="M30.1559 34.166C27.3278 34.166 24.9424 36.5827 24.9424 39.4004C24.9424 42.3848 27.182 44.4525 30.2809 44.4525H30.9007V42.4629H30.2809C28.3122 42.4629 26.9268 41.2441 26.9268 39.3952C26.9268 37.6921 28.4372 36.1608 30.1559 36.1608C31.932 36.1608 33.557 37.6348 33.557 39.3952V39.5931H35.5413V39.3952C35.5413 36.5358 33.0309 34.166 30.1559 34.166Z" fill="white"/>
<path d="M15.6771 43.5781H13.6875V47.4531H15.6771V43.5781Z" fill="white"/>
<path d="M15.6771 42.5781H13.6875V43.5729H15.6771V42.5781Z" fill="white"/>
<path d="M35.542 40.8066H33.5576V44.4681H35.542V40.8066Z" fill="white"/>
<path d="M35.542 39.5938H33.5576V40.8125H35.542V39.5938Z" fill="white"/>
<path d="M40.641 39.8639L38.0732 34.4941H35.8545L39.5316 42.0931L40.641 39.8639Z" fill="white"/>
<path d="M38.2344 47.7962H40.4427L46.9583 34.4941H44.7396L38.2344 47.7962Z" fill="white"/>
</svg>
