<?xml version="1.0" encoding="UTF-8"?>
<svg xmlns="http://www.w3.org/2000/svg" xmlns:xlink="http://www.w3.org/1999/xlink" width="139pt" height="80pt" viewBox="0 0 139 80" version="1.1">
<defs>
<clipPath id="clip1">
  <path d="M 5.054688 22.804688 L 133.585938 22.804688 L 133.585938 57.195312 L 5.054688 57.195312 Z M 5.054688 22.804688 "/>
</clipPath>
<clipPath id="clip2">
  <path d="M 124 35 L 133.585938 35 L 133.585938 48 L 124 48 Z M 124 35 "/>
</clipPath>
<clipPath id="clip3">
  <path d="M 5.054688 22.804688 L 40 22.804688 L 40 57.195312 L 5.054688 57.195312 Z M 5.054688 22.804688 "/>
</clipPath>
</defs>
<g id="surface1">
<rect x="0" y="0" width="139" height="80" style="fill:rgb(100%,100%,100%);fill-opacity:1;stroke:none;"/>
<g clip-path="url(#clip1)" clip-rule="nonzero">
<path style=" stroke:none;fill-rule:nonzero;fill:rgb(100%,100%,100%);fill-opacity:1;" d="M 5.054688 22.804688 L 133.585938 22.804688 L 133.585938 57.195312 L 5.054688 57.195312 Z M 5.054688 22.804688 "/>
</g>
<path style=" stroke:none;fill-rule:nonzero;fill:rgb(0%,0%,0%);fill-opacity:1;" d="M 109.09375 35.269531 C 109.308594 35.3125 109.535156 35.367188 109.75 35.417969 C 111.929688 35.929688 113.375 37.976562 113.191406 40.300781 C 113.019531 42.585938 111.3125 44.332031 109.070312 44.480469 C 108.058594 44.546875 107.117188 44.296875 106.265625 43.507812 L 106.265625 47.589844 L 104.390625 47.589844 L 104.390625 35.550781 L 106.265625 35.550781 C 106.277344 35.777344 106.289062 36.003906 106.300781 36.382812 C 106.882812 35.625 107.648438 35.472656 108.414062 35.277344 C 108.640625 35.269531 108.867188 35.269531 109.09375 35.269531 Z M 111.269531 39.792969 C 111.261719 39.71875 111.261719 39.5 111.226562 39.296875 C 111.023438 37.953125 110.019531 37.042969 108.738281 37.023438 C 107.421875 37 106.394531 37.8125 106.234375 39.164062 C 106.164062 39.855469 106.21875 40.554688 106.394531 41.222656 C 106.601562 42.023438 107.214844 42.523438 108.046875 42.695312 C 109.835938 43.074219 111.285156 41.828125 111.269531 39.792969 Z M 111.269531 39.792969 "/>
<path style=" stroke:none;fill-rule:nonzero;fill:rgb(0%,0%,0%);fill-opacity:1;" d="M 119.089844 35.269531 C 119.867188 35.429688 120.644531 35.582031 121.257812 36.339844 C 121.289062 36.003906 121.300781 35.789062 121.324219 35.539062 L 123.175781 35.539062 L 123.175781 44.296875 L 121.34375 44.296875 C 121.332031 44.058594 121.3125 43.84375 121.300781 43.617188 C 121.269531 43.605469 121.226562 43.582031 121.214844 43.582031 C 119.261719 45.433594 115.078125 44.515625 114.421875 40.648438 C 113.957031 37.910156 115.972656 35.527344 118.269531 35.332031 C 118.347656 35.316406 118.425781 35.292969 118.496094 35.257812 C 118.703125 35.269531 118.894531 35.269531 119.089844 35.269531 Z M 121.441406 39.957031 C 121.429688 39.71875 121.429688 39.566406 121.417969 39.425781 C 121.277344 38.074219 120.394531 37.140625 119.15625 37.03125 C 117.828125 36.925781 116.71875 37.671875 116.4375 39.003906 C 116.316406 39.589844 116.3125 40.191406 116.425781 40.777344 C 116.546875 41.367188 116.875 41.890625 117.347656 42.257812 C 117.820312 42.625 118.40625 42.808594 119.003906 42.78125 C 120.296875 42.726562 121.128906 41.980469 121.375 40.648438 C 121.410156 40.378906 121.421875 40.117188 121.441406 39.957031 Z M 121.441406 39.957031 "/>
<path style=" stroke:none;fill-rule:nonzero;fill:rgb(0%,0%,0%);fill-opacity:1;" d="M 70.675781 43.464844 L 68.832031 43.464844 L 68.832031 37.042969 C 68.789062 37.042969 68.738281 37.03125 68.695312 37.03125 C 68.292969 39.164062 67.894531 41.296875 67.496094 43.453125 L 65.609375 43.453125 C 65.210938 41.308594 64.8125 39.1875 64.410156 37.054688 C 64.367188 37.054688 64.335938 37.066406 64.292969 37.066406 L 64.292969 43.441406 L 62.433594 43.441406 C 62.484375 40.972656 62.539062 38.527344 62.59375 36.035156 C 63.554688 36.035156 64.46875 36.027344 65.386719 36.058594 C 65.484375 36.058594 65.644531 36.308594 65.667969 36.460938 C 65.9375 38.09375 66.195312 39.730469 66.453125 41.363281 C 66.464844 41.417969 66.488281 41.472656 66.59375 41.527344 C 66.714844 40.8125 66.832031 40.109375 66.941406 39.394531 C 67.101562 38.386719 67.261719 37.367188 67.4375 36.363281 C 67.457031 36.242188 67.597656 36.046875 67.695312 36.046875 C 68.613281 36.027344 69.527344 36.035156 70.5 36.035156 C 70.570312 38.527344 70.628906 40.964844 70.675781 43.464844 Z M 70.675781 43.464844 "/>
<g clip-path="url(#clip2)" clip-rule="nonzero">
<path style=" stroke:none;fill-rule:nonzero;fill:rgb(0%,0%,0%);fill-opacity:1;" d="M 126.511719 47.609375 C 127.039062 46.386719 127.523438 45.273438 127.976562 44.144531 C 128.058594 43.914062 128.054688 43.660156 127.964844 43.433594 C 126.875 40.984375 125.777344 38.558594 124.664062 36.125 C 124.589844 35.949219 124.515625 35.765625 124.394531 35.507812 C 125.066406 35.507812 125.691406 35.496094 126.304688 35.527344 C 126.402344 35.527344 126.519531 35.746094 126.574219 35.886719 C 127.320312 37.597656 128.054688 39.304688 128.785156 41.015625 C 128.871094 41.210938 128.957031 41.394531 129.085938 41.6875 C 129.183594 41.484375 129.25 41.351562 129.304688 41.210938 C 129.992188 39.46875 130.703125 37.726562 131.375 35.972656 C 131.515625 35.59375 131.695312 35.472656 132.085938 35.507812 C 132.558594 35.539062 133.046875 35.515625 133.585938 35.515625 C 133.519531 35.710938 133.488281 35.851562 133.433594 35.972656 C 131.859375 39.707031 130.285156 43.433594 128.71875 47.175781 C 128.570312 47.546875 128.375 47.664062 128 47.632812 C 127.535156 47.589844 127.070312 47.609375 126.511719 47.609375 Z M 126.511719 47.609375 "/>
</g>
<path style=" stroke:none;fill-rule:nonzero;fill:rgb(0%,0%,0%);fill-opacity:1;" d="M 93.046875 43.421875 C 92.226562 43.421875 91.4375 43.441406 90.652344 43.398438 C 90.523438 43.386719 90.359375 43.140625 90.304688 42.976562 C 89.765625 41.246094 89.25 39.5 88.730469 37.757812 C 88.710938 37.679688 88.664062 37.605469 88.601562 37.550781 L 88.601562 43.378906 L 86.875 43.378906 L 86.875 36.035156 C 87.738281 36.035156 88.589844 36.027344 89.441406 36.058594 C 89.539062 36.058594 89.660156 36.308594 89.703125 36.449219 C 90.1875 38.0625 90.652344 39.683594 91.125 41.296875 C 91.15625 41.417969 91.199219 41.535156 91.289062 41.785156 L 91.289062 36.070312 L 93.046875 36.070312 C 93.046875 38.503906 93.046875 40.917969 93.046875 43.421875 Z M 93.046875 43.421875 "/>
<path style=" stroke:none;fill-rule:nonzero;fill:rgb(0%,0%,0%);fill-opacity:1;" d="M 98.40625 40.433594 C 98.136719 40.410156 97.910156 40.390625 97.671875 40.355469 L 97.671875 39.316406 L 100.183594 39.316406 C 100.183594 40.257812 100.25 41.199219 100.164062 42.121094 C 100.097656 42.816406 99.570312 43.214844 98.933594 43.433594 C 98.132812 43.714844 97.261719 43.722656 96.453125 43.464844 C 95.527344 43.183594 95.050781 42.585938 95.03125 41.613281 C 94.996094 40.410156 95.007812 39.210938 95.019531 38.007812 C 95.039062 36.785156 95.613281 36.089844 96.808594 35.90625 C 97.351562 35.820312 97.90625 35.820312 98.449219 35.90625 C 99.785156 36.113281 100.355469 36.945312 100.207031 38.363281 L 98.414062 38.363281 C 98.40625 38.179688 98.394531 38.007812 98.371094 37.835938 C 98.308594 37.390625 98.003906 37.128906 97.574219 37.164062 C 97.144531 37.195312 96.863281 37.421875 96.851562 37.867188 C 96.832031 39.113281 96.832031 40.367188 96.851562 41.613281 C 96.851562 42.035156 97.144531 42.273438 97.585938 42.292969 C 98.050781 42.316406 98.363281 42.066406 98.394531 41.644531 C 98.425781 41.253906 98.40625 40.867188 98.40625 40.433594 Z M 98.40625 40.433594 "/>
<path style=" stroke:none;fill-rule:nonzero;fill:rgb(0%,0%,0%);fill-opacity:1;" d="M 79.578125 36.058594 L 81.421875 36.058594 L 81.421875 41.472656 C 81.421875 42.089844 81.683594 42.390625 82.179688 42.382812 C 82.652344 42.371094 82.890625 42.066406 82.890625 41.472656 L 82.890625 36.082031 L 84.722656 36.082031 C 84.734375 36.210938 84.757812 36.351562 84.757812 36.492188 C 84.757812 38.136719 84.765625 39.773438 84.757812 41.417969 C 84.746094 42.878906 84.164062 43.5625 82.71875 43.667969 C 82.09375 43.710938 81.464844 43.660156 80.851562 43.519531 C 80.097656 43.332031 79.613281 42.761719 79.601562 41.96875 C 79.554688 40.011719 79.578125 38.0625 79.578125 36.058594 Z M 79.578125 36.058594 "/>
<path style=" stroke:none;fill-rule:nonzero;fill:rgb(0%,0%,0%);fill-opacity:1;" d="M 48.386719 41.0625 L 50.328125 41.0625 L 50.328125 41.6875 C 50.316406 42.035156 50.445312 42.347656 50.789062 42.382812 C 51.082031 42.402344 51.511719 42.347656 51.644531 42.152344 C 51.792969 41.9375 51.773438 41.492188 51.652344 41.222656 C 51.535156 40.953125 51.199219 40.777344 50.929688 40.605469 C 50.414062 40.269531 49.851562 40 49.355469 39.652344 C 48.472656 39.058594 48.203125 38.300781 48.449219 37.292969 C 48.644531 36.480469 49.28125 35.960938 50.316406 35.851562 C 50.863281 35.792969 51.414062 35.804688 51.957031 35.886719 C 53.152344 36.070312 53.703125 36.933594 53.464844 38.167969 L 51.707031 38.167969 C 51.695312 37.996094 51.6875 37.84375 51.675781 37.683594 C 51.652344 37.347656 51.480469 37.085938 51.15625 37.085938 C 50.898438 37.085938 50.519531 37.195312 50.425781 37.378906 C 50.316406 37.585938 50.359375 37.996094 50.5 38.203125 C 50.660156 38.453125 50.996094 38.601562 51.265625 38.777344 C 51.773438 39.089844 52.3125 39.359375 52.808594 39.683594 C 53.765625 40.300781 53.820312 41.246094 53.628906 42.242188 C 53.445312 43.171875 52.753906 43.59375 51.902344 43.703125 C 51.3125 43.789062 50.710938 43.78125 50.121094 43.679688 C 48.734375 43.433594 48.136719 42.488281 48.386719 41.0625 Z M 48.386719 41.0625 "/>
<path style=" stroke:none;fill-rule:nonzero;fill:rgb(0%,0%,0%);fill-opacity:1;" d="M 77.589844 38.179688 L 75.832031 38.179688 C 75.820312 38.027344 75.800781 37.898438 75.800781 37.757812 C 75.789062 37.421875 75.648438 37.183594 75.324219 37.121094 C 75.003906 37.054688 74.648438 37.066406 74.539062 37.410156 C 74.46875 37.695312 74.511719 37.992188 74.65625 38.246094 C 74.808594 38.484375 75.132812 38.625 75.390625 38.785156 C 75.898438 39.101562 76.4375 39.371094 76.933594 39.707031 C 77.871094 40.335938 77.945312 41.277344 77.71875 42.261719 C 77.515625 43.160156 76.835938 43.5625 75.996094 43.660156 C 75.449219 43.730469 74.898438 43.730469 74.355469 43.660156 C 72.941406 43.453125 72.328125 42.53125 72.554688 41.0625 L 74.472656 41.0625 C 74.472656 41.289062 74.421875 41.527344 74.484375 41.699219 C 74.582031 41.949219 74.734375 42.285156 74.9375 42.347656 C 75.175781 42.425781 75.617188 42.347656 75.757812 42.175781 C 75.917969 41.980469 75.953125 41.535156 75.832031 41.296875 C 75.703125 41.015625 75.367188 40.8125 75.089844 40.628906 C 74.570312 40.292969 74.019531 40.011719 73.515625 39.675781 C 72.652344 39.121094 72.402344 38.3125 72.617188 37.347656 C 72.824219 36.414062 73.515625 36.027344 74.367188 35.90625 C 74.878906 35.839844 75.394531 35.835938 75.910156 35.894531 C 77.214844 36.070312 77.746094 36.816406 77.589844 38.179688 Z M 77.589844 38.179688 "/>
<path style=" stroke:none;fill-rule:nonzero;fill:rgb(0%,0%,0%);fill-opacity:1;" d="M 60.9375 43.476562 C 60.324219 43.476562 59.753906 43.496094 59.171875 43.453125 C 59.074219 43.441406 58.921875 43.238281 58.902344 43.097656 C 58.589844 41.070312 58.308594 39.046875 58.007812 37.03125 C 57.988281 36.964844 57.96875 36.894531 57.941406 36.828125 C 57.886719 37.023438 57.84375 37.121094 57.824219 37.226562 C 57.53125 39.164062 57.230469 41.113281 56.960938 43.050781 C 56.917969 43.386719 56.796875 43.484375 56.472656 43.476562 C 55.957031 43.453125 55.449219 43.464844 54.898438 43.464844 C 55.257812 41.558594 55.601562 39.71875 55.933594 37.867188 C 56.023438 37.367188 56.117188 36.882812 56.203125 36.382812 C 56.25 36.132812 56.34375 36.027344 56.613281 36.035156 C 57.488281 36.046875 58.363281 36.027344 59.234375 36.058594 C 59.375 36.058594 59.601562 36.222656 59.625 36.339844 C 60.078125 38.691406 60.496094 41.050781 60.9375 43.476562 Z M 60.9375 43.476562 "/>
<g clip-path="url(#clip3)" clip-rule="nonzero">
<path style=" stroke:none;fill-rule:nonzero;fill:rgb(18.823529%,33.72549%,82.745098%);fill-opacity:1;" d="M 38.996094 34.875 C 38.574219 31.679688 37.449219 28.789062 35.464844 26.667969 C 33.351562 24.675781 30.46875 23.546875 27.289062 23.121094 C 24.25 22.71875 22.183594 22.816406 22.183594 22.816406 C 22.183594 22.816406 20.113281 22.71875 17.074219 23.121094 C 13.894531 23.546875 11.011719 24.675781 8.902344 26.667969 C 6.914062 28.789062 5.789062 31.683594 5.367188 34.875 C 4.964844 37.921875 5.066406 40 5.066406 40 C 5.066406 40 4.964844 42.078125 5.367188 45.128906 C 5.789062 48.320312 6.914062 51.214844 8.898438 53.332031 C 11.011719 55.328125 13.894531 56.457031 17.074219 56.878906 C 20.113281 57.285156 22.179688 57.183594 22.179688 57.183594 C 22.179688 57.183594 24.25 57.285156 27.289062 56.878906 C 30.46875 56.457031 33.351562 55.324219 35.460938 53.332031 C 37.449219 51.214844 38.574219 48.320312 38.996094 45.128906 C 39.398438 42.078125 39.296875 40 39.296875 40 C 39.296875 40 39.398438 37.925781 38.996094 34.875 Z M 13.988281 43.390625 L 13.300781 43.390625 L 13.300781 41.921875 L 13.988281 41.921875 C 15.320312 41.921875 16.402344 40.921875 16.402344 39.585938 C 16.402344 38.945312 16.148438 38.328125 15.695312 37.875 C 15.242188 37.421875 14.628906 37.164062 13.988281 37.164062 L 11.808594 37.164062 C 11.742188 37.164062 11.679688 37.191406 11.632812 37.238281 C 11.589844 37.285156 11.5625 37.347656 11.5625 37.414062 L 11.5625 45.644531 L 10.070312 45.644531 L 10.070312 37.414062 C 10.070312 36.953125 10.253906 36.507812 10.582031 36.179688 C 10.90625 35.855469 11.347656 35.671875 11.808594 35.671875 L 13.988281 35.671875 C 15.023438 35.671875 16.015625 36.085938 16.746094 36.820312 C 17.480469 37.554688 17.890625 38.550781 17.890625 39.589844 C 17.890625 41.746094 16.140625 43.390625 13.988281 43.390625 Z M 26.460938 39.75 L 26.460938 43.40625 L 24.972656 43.40625 L 24.972656 39.605469 C 24.972656 38.28125 23.753906 37.175781 22.421875 37.175781 C 21.125 37.175781 20 38.324219 20 39.605469 C 20 40.988281 21.039062 41.902344 22.515625 41.902344 L 22.980469 41.902344 L 22.980469 43.398438 L 22.515625 43.398438 C 20.191406 43.398438 18.511719 41.84375 18.511719 39.609375 C 18.511719 37.496094 20.300781 35.683594 22.421875 35.683594 C 24.578125 35.683594 26.460938 37.460938 26.460938 39.609375 Z M 26.695312 35.925781 L 28.363281 35.925781 L 30.289062 39.953125 L 29.453125 41.625 Z M 30.140625 45.902344 L 28.480469 45.902344 L 33.359375 35.925781 L 35.023438 35.925781 Z M 30.140625 45.902344 "/>
</g>
<path style=" stroke:none;fill-rule:nonzero;fill:rgb(100%,100%,100%);fill-opacity:1;" d="M 11.808594 35.667969 C 11.347656 35.671875 10.90625 35.855469 10.582031 36.179688 C 10.253906 36.507812 10.070312 36.953125 10.070312 37.414062 L 10.070312 41.988281 L 11.5625 41.988281 L 11.5625 37.414062 C 11.5625 37.347656 11.589844 37.285156 11.632812 37.238281 C 11.679688 37.191406 11.742188 37.164062 11.808594 37.164062 L 13.246094 37.164062 L 13.246094 35.667969 Z M 11.808594 35.667969 "/>
<path style=" stroke:none;fill-rule:nonzero;fill:rgb(100%,100%,100%);fill-opacity:1;" d="M 13.988281 35.667969 L 13.953125 35.667969 L 13.953125 37.164062 L 13.988281 37.164062 C 14.628906 37.164062 15.242188 37.421875 15.695312 37.875 C 16.148438 38.332031 16.402344 38.945312 16.402344 39.589844 C 16.402344 40.921875 15.324219 41.925781 13.988281 41.925781 L 13.300781 41.925781 L 13.300781 43.390625 L 13.988281 43.390625 C 16.140625 43.390625 17.890625 41.75 17.890625 39.589844 C 17.890625 38.550781 17.480469 37.554688 16.75 36.820312 C 16.015625 36.085938 15.023438 35.671875 13.988281 35.667969 Z M 13.988281 35.667969 "/>
<path style=" stroke:none;fill-rule:nonzero;fill:rgb(100%,100%,100%);fill-opacity:1;" d="M 13.953125 35.667969 L 13.246094 35.667969 L 13.246094 37.164062 L 13.953125 37.164062 Z M 13.953125 35.667969 "/>
<path style=" stroke:none;fill-rule:nonzero;fill:rgb(100%,100%,100%);fill-opacity:1;" d="M 22.421875 35.679688 C 20.300781 35.679688 18.511719 37.492188 18.511719 39.605469 C 18.511719 41.84375 20.191406 43.394531 22.515625 43.394531 L 22.980469 43.394531 L 22.980469 41.902344 L 22.515625 41.902344 C 21.039062 41.902344 20 40.988281 20 39.601562 C 20 38.324219 21.132812 37.175781 22.421875 37.175781 C 23.753906 37.175781 24.972656 38.28125 24.972656 39.601562 L 24.972656 39.75 L 26.460938 39.75 L 26.460938 39.601562 C 26.460938 37.457031 24.578125 35.679688 22.421875 35.679688 Z M 22.421875 35.679688 "/>
<path style=" stroke:none;fill-rule:nonzero;fill:rgb(100%,100%,100%);fill-opacity:1;" d="M 11.5625 42.738281 L 10.070312 42.738281 L 10.070312 45.644531 L 11.5625 45.644531 Z M 11.5625 42.738281 "/>
<path style=" stroke:none;fill-rule:nonzero;fill:rgb(100%,100%,100%);fill-opacity:1;" d="M 11.5625 41.988281 L 10.070312 41.988281 L 10.070312 42.734375 L 11.5625 42.734375 Z M 11.5625 41.988281 "/>
<path style=" stroke:none;fill-rule:nonzero;fill:rgb(100%,100%,100%);fill-opacity:1;" d="M 26.460938 40.660156 L 24.972656 40.660156 L 24.972656 43.40625 L 26.460938 43.40625 Z M 26.460938 40.660156 "/>
<path style=" stroke:none;fill-rule:nonzero;fill:rgb(100%,100%,100%);fill-opacity:1;" d="M 26.460938 39.75 L 24.972656 39.75 L 24.972656 40.664062 L 26.460938 40.664062 Z M 26.460938 39.75 "/>
<path style=" stroke:none;fill-rule:nonzero;fill:rgb(100%,100%,100%);fill-opacity:1;" d="M 30.285156 39.953125 L 28.359375 35.925781 L 26.695312 35.925781 L 29.453125 41.625 Z M 30.285156 39.953125 "/>
<path style=" stroke:none;fill-rule:nonzero;fill:rgb(100%,100%,100%);fill-opacity:1;" d="M 28.480469 45.902344 L 30.136719 45.902344 L 35.023438 35.925781 L 33.359375 35.925781 Z M 28.480469 45.902344 "/>
</g>
</svg>
