<svg width="163" height="80" viewBox="0 0 163 80" fill="none" xmlns="http://www.w3.org/2000/svg">
<path d="M47.7233 46.5069L49.4102 44.1795C50.0953 44.9281 50.9284 45.5262 51.8566 45.9356C52.7848 46.3451 53.7879 46.5571 54.8023 46.5582C57.2558 46.5582 58.2012 45.3561 58.2012 44.2053C58.2012 42.6052 56.2218 42.1641 54.0318 41.6077C51.3201 40.9179 48.2855 40.05 48.2855 36.5834C48.2855 33.7443 50.7391 31.5703 54.4957 31.5703C57.128 31.5703 59.3 32.4398 60.8592 33.9747L59.1723 36.1994C57.818 34.8438 56.0032 34.2299 54.2145 34.2299C52.4768 34.2299 51.3522 35.0995 51.3522 36.3528C51.3522 37.8562 53.5448 38.2173 55.8673 38.8372C58.4849 39.5357 61.2677 40.5633 61.2677 43.9237C61.2677 46.7631 59.2487 49.2181 54.6743 49.2181C51.5309 49.2181 49.2565 48.0928 47.7231 46.5069" fill="#3B77BC"/>
<path d="M72.2825 48.9109V41.1867C72.2825 39.2425 71.2858 38.6286 69.778 38.6286C68.4234 38.6286 67.2478 39.4472 66.6089 40.2657V48.9109H63.9258V36.5568H66.6089V38.2196C67.1585 37.6029 67.8317 37.1088 68.5846 36.7695C69.3374 36.4301 70.1532 36.2532 70.9789 36.25C73.637 36.25 74.9659 37.6825 74.9659 40.2145V48.9109H72.2825Z" fill="#3B77BC"/>
<path d="M85.6995 48.911V47.5551C84.7796 48.6292 83.3226 49.2177 81.6872 49.2177C79.6937 49.2177 77.4194 47.8366 77.4194 45.1254C77.4194 42.2605 79.6683 41.0839 81.6872 41.0839C83.3737 41.0839 84.7796 41.6218 85.6995 42.6698V40.8284C85.6995 39.3959 84.4982 38.5262 82.8115 38.5262C81.4315 38.5262 80.205 39.0379 79.1573 40.112L78.0327 38.2448C79.4638 36.8636 81.2529 36.25 83.2202 36.25C85.9802 36.25 88.3826 37.4008 88.3826 40.7004V48.911H85.6995ZM85.6995 46.0972V44.2053C85.0603 43.3613 83.9105 42.9262 82.7604 42.9262C81.2529 42.9262 80.1035 43.8212 80.1035 45.1515C80.1035 46.5069 81.2536 47.3767 82.7604 47.3767C83.9105 47.3767 85.0603 46.9418 85.6995 46.0978" fill="#3B77BC"/>
<path d="M93.8519 47.1971V53.6168H91.1685V36.5568H93.8519V38.2451C94.3103 37.6257 94.9075 37.1226 95.5955 36.7761C96.2835 36.4296 97.0431 36.2494 97.8133 36.25C101.008 36.25 103.282 38.6541 103.282 42.721C103.282 46.7878 101.007 49.2176 97.8133 49.2176C96.2541 49.2176 94.8741 48.5016 93.8519 47.1971ZM100.522 42.721C100.522 40.3166 99.1421 38.6286 97.0203 38.6286C95.7682 38.6286 94.4648 39.3447 93.8514 40.2657V45.1507C94.439 46.0714 95.7682 46.8387 97.0203 46.8387C99.1417 46.8387 100.522 45.1252 100.522 42.721Z" fill="#3B77BC"/>
<path d="M104.969 46.504L106.656 44.1766C107.341 44.9251 108.175 45.523 109.103 45.9323C110.031 46.3417 111.034 46.5537 112.048 46.5547C114.501 46.5547 115.447 45.3526 115.447 44.2018C115.447 42.6294 113.536 42.1763 111.391 41.6325C108.651 40.9379 105.531 40.0955 105.531 36.5795C105.531 33.7404 107.985 31.5664 111.742 31.5664C114.374 31.5664 116.546 32.4359 118.105 33.9708L116.418 36.1966C115.064 34.8409 113.249 34.227 111.46 34.227C109.722 34.227 108.598 35.0967 108.598 36.35C108.598 37.8024 110.645 38.1886 112.878 38.7722C115.561 39.4734 118.515 40.4596 118.515 43.9213C118.515 46.7607 116.496 49.2157 111.921 49.2157C108.778 49.2157 106.504 48.0904 104.97 46.5045" fill="#3B77BC"/>
<path d="M120.432 42.721C120.432 38.9859 123.064 36.25 126.795 36.25C129.223 36.25 130.654 37.2729 131.523 38.4497L129.759 40.0609C129.07 39.0891 128.124 38.6286 126.923 38.6286C124.7 38.6286 123.192 40.3166 123.192 42.721C123.192 45.1254 124.7 46.8387 126.923 46.8387C127.482 46.851 128.036 46.7214 128.532 46.4621C129.028 46.2027 129.45 45.8221 129.759 45.3555L131.523 47.0181C130.654 48.1689 129.223 49.2174 126.795 49.2174C123.063 49.2174 120.432 46.4552 120.432 42.721Z" fill="#3B77BC"/>
<path d="M141.464 48.911V47.5551C140.544 48.6292 139.087 49.2177 137.451 49.2177C135.458 49.2177 133.184 47.8366 133.184 45.1254C133.184 42.2605 135.433 41.0839 137.451 41.0839C139.138 41.0839 140.544 41.6218 141.464 42.6698V40.8284C141.464 39.3959 140.263 38.5262 138.577 38.5262C137.196 38.5262 135.97 39.0379 134.921 40.112L133.797 38.2448C135.228 36.8636 137.017 36.25 138.985 36.25C141.745 36.25 144.147 37.4008 144.147 40.7004V48.911H141.464ZM141.464 46.0972V44.2053C140.825 43.3613 139.675 42.9262 138.525 42.9262C137.017 42.9262 135.867 43.8212 135.867 45.1515C135.867 46.5069 137.017 47.3767 138.525 47.3767C139.675 47.3767 140.825 46.9418 141.464 46.0978" fill="#3B77BC"/>
<path d="M155.316 48.9109V41.1867C155.316 39.2425 154.319 38.6286 152.811 38.6286C151.457 38.6286 150.281 39.4472 149.642 40.2657V48.9109H146.959V36.5568H149.643V38.2196C150.193 37.6028 150.866 37.1088 151.619 36.7694C152.372 36.4301 153.188 36.2531 154.013 36.25C156.671 36.25 158 37.6825 158 40.2145V48.9109H155.316Z" fill="#3B77BC"/>
<path d="M23.3734 58.7775C19.7395 58.7775 16.1872 57.699 13.1657 55.6785C10.1442 53.6579 7.78924 50.7859 6.3986 47.4258C5.00796 44.0657 4.64411 40.3684 5.35305 36.8013C6.06199 33.2342 7.81189 29.9577 10.3815 27.3859C12.951 24.8142 16.2249 23.0629 19.789 22.3533C23.3531 21.6438 27.0473 22.008 30.4046 23.3998C33.7619 24.7916 36.6315 27.1485 38.6504 30.1725C40.6693 33.1965 41.7469 36.7518 41.7469 40.3888C41.7414 45.2641 39.8039 49.9381 36.3594 53.3855C32.9149 56.8329 28.2447 58.772 23.3734 58.7775ZM23.3734 23.8342C20.1021 23.8342 16.9042 24.805 14.1842 26.624C11.4642 28.443 9.34418 31.0284 8.0923 34.0532C6.84041 37.0781 6.51286 40.4065 7.15107 43.6177C7.78927 46.8288 9.36457 49.7785 11.6778 52.0936C13.9909 54.4087 16.9381 55.9853 20.1466 56.624C23.3551 57.2628 26.6808 56.935 29.7031 55.682C32.7254 54.4291 35.3086 52.3073 37.1261 49.585C38.9436 46.8628 39.9136 43.6622 39.9136 40.3881C39.9085 35.9993 38.1642 31.7918 35.0634 28.6884C31.9626 25.5851 27.7586 23.8393 23.3734 23.8342Z" fill="#3B77BC"/>
<path d="M21.0103 39.172H16.7429C16.4343 39.172 16.1383 39.0493 15.92 38.8308C15.7018 38.6124 15.5791 38.3162 15.5791 38.0073V33.737C15.5791 33.4281 15.7017 33.1319 15.92 32.9134C16.1382 32.695 16.4342 32.5723 16.7429 32.5723H21.0103C21.1632 32.5722 21.3145 32.6024 21.4557 32.6609C21.597 32.7194 21.7253 32.8052 21.8334 32.9134C21.9415 33.0215 22.0272 33.1499 22.0857 33.2913C22.1442 33.4326 22.1743 33.5841 22.1743 33.737V38.008C22.1742 38.3169 22.0516 38.6132 21.8334 38.8316C21.6151 39.05 21.3191 39.1728 21.0105 39.1728" fill="#3B77BC"/>
<path d="M21.0103 48.1878H16.7429C16.4342 48.1878 16.1382 48.0651 15.92 47.8467C15.7017 47.6282 15.5791 47.332 15.5791 47.023V42.7527C15.5792 42.4438 15.7018 42.1476 15.9201 41.9291C16.1383 41.7107 16.4343 41.588 16.7429 41.5879H21.0103C21.319 41.588 21.6149 41.7107 21.8332 41.9291C22.0514 42.1476 22.1741 42.4438 22.1741 42.7527V47.0237C22.174 47.3325 22.0513 47.6286 21.833 47.8469C21.6148 48.0652 21.3189 48.1878 21.0103 48.1878Z" fill="#3B77BC"/>
<path d="M30.0217 39.1669H25.7546C25.446 39.1669 25.1499 39.0442 24.9317 38.8258C24.7134 38.6073 24.5908 38.3111 24.5908 38.0022V33.7315C24.5908 33.5785 24.6209 33.427 24.6794 33.2857C24.7378 33.1443 24.8236 33.0159 24.9316 32.9077C25.0397 32.7995 25.168 32.7137 25.3092 32.6551C25.4504 32.5966 25.6018 32.5664 25.7546 32.5664H30.0217C30.3304 32.5665 30.6264 32.6893 30.8447 32.9078C31.0629 33.1262 31.1855 33.4225 31.1855 33.7315V38.0022C31.1855 38.3111 31.0629 38.6073 30.8446 38.8257C30.6264 39.0442 30.3304 39.1669 30.0217 39.1669Z" fill="#3B77BC"/>
</svg>
