<svg width="115" height="80" viewBox="0 0 115 80" fill="none" xmlns="http://www.w3.org/2000/svg">
<g clip-path="url(#clip0)">
<path fill-rule="evenodd" clip-rule="evenodd" d="M1.90383 28.9844L4.43248 33.2187L0 37.4461H7.66331L8.38361 35.7518H4.15532L6.71384 33.2074L5.21937 30.6782H12.1918L6.07091 45.1369H8.16815L15.0122 28.9844H1.90383Z" fill="#00C6FF"/>
<path fill-rule="evenodd" clip-rule="evenodd" d="M94.9047 38.8906H96.6523V48.1399H94.9047V38.8906Z" fill="#232F49"/>
<path fill-rule="evenodd" clip-rule="evenodd" d="M94.8252 35.7656H96.732V37.6417H94.8252V35.7656Z" fill="#232F49"/>
<path fill-rule="evenodd" clip-rule="evenodd" d="M91.9111 35.7656L89.7385 45.3794H89.6596L87.4081 38.8929H85.8451L83.2753 45.3794H83.196L81.4743 35.7656H79.5935L81.9503 48.1412H83.6989L86.4807 41.2892H86.5595L88.9711 48.1412H90.7188L93.7121 35.7656H91.9111Z" fill="#232F49"/>
<path fill-rule="evenodd" clip-rule="evenodd" d="M67.5937 46.7838C65.8985 46.7838 64.7331 45.4544 64.7331 43.5266C64.7331 41.7292 65.7393 40.1913 67.3822 40.1913C69.263 40.1913 69.7664 41.7551 69.8193 42.7195H66.5679L65.9592 44.1266H71.5938C71.6198 43.7611 71.6198 43.6575 71.6198 43.4748C71.6198 40.8171 70.2693 38.707 67.3553 38.707C64.8388 38.707 62.9056 40.7384 62.9056 43.5266C62.9056 46.393 64.759 48.2944 67.4081 48.2944C68.9981 48.2944 70.4015 47.7218 71.2496 46.7056L70.1899 45.6889C69.5015 46.393 68.6005 46.7838 67.5937 46.7838Z" fill="#232F49"/>
<path fill-rule="evenodd" clip-rule="evenodd" d="M60.6801 38.7098C60.6801 37.5637 61.2364 36.9119 62.296 36.9119C62.6936 36.9119 63.3292 37.0165 63.8326 37.1992L64.3884 35.9221C63.6999 35.5836 62.8787 35.4531 62.2431 35.4531C60.4681 35.4531 58.932 36.3389 58.932 38.7098V38.9966H57.7666V40.4559H58.932V48.1413H60.6801V40.4559H62.4547L63.0643 38.9966H60.6801V38.7098Z" fill="#232F49"/>
<path fill-rule="evenodd" clip-rule="evenodd" d="M44.9188 38.707C43.7534 38.707 42.6938 39.1506 42.164 40.0623H42.0851V38.8898H40.3894V48.1386H42.1375V43.1372C42.1375 41.313 43.065 40.2181 44.5222 40.2181C45.8987 40.2181 46.7203 40.9475 46.7203 42.6409V48.1386H48.4684V42.3287C48.4684 39.9841 47.0915 38.707 44.9188 38.707Z" fill="#232F49"/>
<path fill-rule="evenodd" clip-rule="evenodd" d="M36.6278 44.5697C36.6278 45.9498 35.4888 46.8361 33.8994 46.8361C32.946 46.8361 32.1248 46.3934 32.1248 45.2986C32.1248 44.2834 32.9724 43.6058 34.2706 43.6058C35.436 43.6058 36.2042 43.8139 36.6278 44.1266V44.5697ZM34.1643 38.707C33.1316 38.707 32.1513 38.8629 31.4099 39.1497L31.7013 40.5577C32.5489 40.2968 33.2374 40.1922 33.9263 40.1922C35.4095 40.1922 36.6278 40.8699 36.6278 42.381V42.6414C36.1514 42.4596 35.4095 42.2246 34.3234 42.2246C31.9392 42.2246 30.3767 43.423 30.3767 45.3773C30.3767 47.4096 31.9128 48.3213 33.6345 48.3213C35.0653 48.3213 36.0451 47.7487 36.549 47.0706H36.6278V48.1395H38.3235V42.3551C38.3235 39.8283 36.6812 38.707 34.1643 38.707Z" fill="#232F49"/>
<path fill-rule="evenodd" clip-rule="evenodd" d="M15.0122 35.7656V37.4335H18.9325V48.1412H20.7874V37.4335H24.7076V35.7656H15.0122Z" fill="#232F49"/>
<path fill-rule="evenodd" clip-rule="evenodd" d="M30.456 39.0729C29.8998 38.8384 29.2906 38.8125 28.9459 38.8125C27.9656 38.8125 27.0127 39.2033 26.5088 39.9059H26.4295V38.8907H24.7343V48.14H26.4829V43.0854C26.4829 41.1312 27.4362 40.3495 28.8401 40.3495C29.3171 40.3495 29.6349 40.4018 30.0589 40.5058L30.456 39.0729Z" fill="#232F49"/>
<path fill-rule="evenodd" clip-rule="evenodd" d="M79.1167 39.0993C78.5605 38.8653 77.9513 38.8125 77.6066 38.8125C76.6268 38.8125 75.5671 39.2033 75.0647 39.9073H74.9839V38.8907H73.2892V48.14H75.0378V43.0859C75.0378 41.1317 76.0969 40.3505 77.5008 40.3505C77.9778 40.3505 78.2956 40.4018 78.7196 40.5063L79.1167 39.0993Z" fill="#232F49"/>
<path fill-rule="evenodd" clip-rule="evenodd" d="M110.974 46.7838C109.278 46.7838 108.113 45.4544 108.113 43.5266C108.113 41.7292 109.12 40.1913 110.762 40.1913C112.643 40.1913 113.146 41.7551 113.2 42.7195H109.948L109.338 44.1266H114.974C115 43.7611 115 43.6575 115 43.4748C115 40.8171 113.65 38.707 110.736 38.707C108.219 38.707 106.285 40.7384 106.285 43.5266C106.285 46.393 108.139 48.2944 110.788 48.2944C112.378 48.2944 113.782 47.7218 114.63 46.7056L113.57 45.6889C112.881 46.393 111.981 46.7838 110.974 46.7838Z" fill="#232F49"/>
<path fill-rule="evenodd" clip-rule="evenodd" d="M53.8203 42.7977C52.4693 42.615 51.6746 42.3541 51.6746 41.4683C51.6746 40.6608 52.4693 40.1659 53.4496 40.1659C54.2439 40.1659 55.2506 40.479 55.8857 40.948L56.7338 39.6968C55.9396 39.0451 54.6679 38.707 53.4756 38.707C51.4361 38.707 49.926 39.9318 49.926 41.5465C49.926 43.3971 51.1183 43.9961 53.1318 44.3088C54.2708 44.491 55.2506 44.6215 55.2506 45.5854C55.2506 46.393 54.4554 46.8361 53.3968 46.8361C52.3636 46.8361 51.4361 46.5493 50.5351 45.8458L49.7673 47.2264C50.4294 47.8259 51.8073 48.2949 53.3434 48.2949C55.4627 48.2949 56.9988 47.0706 56.9988 45.429C56.9988 43.4489 55.4098 43.0063 53.8203 42.7977Z" fill="#232F49"/>
<path fill-rule="evenodd" clip-rule="evenodd" d="M102.194 42.7977C100.843 42.615 100.048 42.3541 100.048 41.4683C100.048 40.6608 100.843 40.1659 101.824 40.1659C102.617 40.1659 103.625 40.479 104.26 40.948L105.108 39.6964C104.313 39.0451 103.042 38.707 101.849 38.707C99.81 38.707 98.3004 39.9313 98.3004 41.5465C98.3004 43.3967 99.4922 43.9956 101.505 44.3083C102.644 44.491 103.625 44.621 103.625 45.5849C103.625 46.3925 102.83 46.8361 101.77 46.8361C100.737 46.8361 99.81 46.5493 98.909 45.8453L98.1417 47.2269C98.8033 47.8259 100.18 48.2949 101.717 48.2949C103.836 48.2949 105.372 47.0701 105.372 45.429C105.372 43.4489 103.783 43.0058 102.194 42.7977Z" fill="#232F49"/>
</g>
<defs>
<clipPath id="clip0">
<rect width="115" height="80" fill="white"/>
</clipPath>
</defs>
</svg>
