<svg width="115" height="80" viewBox="0 0 115 80" fill="none" xmlns="http://www.w3.org/2000/svg">
<path fill-rule="evenodd" clip-rule="evenodd" d="M105.404 22.5059C103.8 22.5059 102.032 23.3993 101.326 25.0045L93.8307 42.1732L91.1309 25.0045C90.8134 23.3993 89.722 22.5059 87.9944 22.5059H78.4988L86.6206 51.0192C86.7701 51.566 86.7984 52.1723 86.689 52.8099C86.264 55.1894 83.9892 57.1197 81.607 57.1197H76.2895C74.9391 57.1197 74.05 57.9555 73.6152 59.8477L72.4338 66.9138H81.7985C86.6841 66.9138 92.4218 64.4611 96.2491 57.6792L115 22.5059H105.404Z" fill="#323E48"/>
<path fill-rule="evenodd" clip-rule="evenodd" d="M13.2233 14C16.0277 14 17.3829 15.118 16.8894 17.927L16.0814 22.5034H22.5245L21.1047 30.5429H14.6587L12.9028 40.4971C12.296 43.9653 15.7316 44.4271 17.7024 44.4271C18.0952 44.4271 18.4216 44.4183 18.6551 44.4046L17.079 53.3698C16.5924 53.4215 16.0912 53.4889 15.03 53.4889C10.1385 53.4889 0.885278 52.1796 2.70466 41.865L4.69701 30.5429H0L1.41385 22.5034H6.06493L7.56192 14H13.2233Z" fill="#323E48"/>
<path fill-rule="evenodd" clip-rule="evenodd" d="M67.366 22.873L65.7107 32.2463C67.7519 33.2882 69.1502 35.404 69.1502 37.8479C69.1502 41.0699 66.7328 43.7101 63.6207 44.0899L61.9664 53.4612C62.2585 53.4798 62.5556 53.4896 62.8516 53.4896C71.5021 53.4896 78.508 46.484 78.508 37.8479C78.508 30.7867 73.8159 24.8122 67.366 22.873Z" fill="#00ADBB"/>
<path fill-rule="evenodd" clip-rule="evenodd" d="M59.998 43.4512C57.9587 42.4153 56.5575 40.2897 56.5575 37.8487C56.5575 34.6471 58.9798 31.9865 62.0909 31.6135L63.7432 22.2412C63.4491 22.2227 63.1501 22.209 62.8561 22.209C54.2125 22.209 47.2026 29.2194 47.2026 37.8487C47.2026 44.9129 51.8967 50.8913 58.3467 52.8304L59.998 43.4512Z" fill="#00ADBB"/>
<path fill-rule="evenodd" clip-rule="evenodd" d="M26.2546 22.5087H31.7909C34.5962 22.5087 35.9456 23.6287 35.4512 26.4387L34.8454 29.8385C36.908 25.6547 41.3823 22.2031 45.9718 22.2031C46.5737 22.2031 47.1532 22.3222 47.1532 22.3222L45.364 32.4591C45.364 32.4591 44.5609 32.2726 43.3072 32.2726C40.8615 32.2726 36.7253 33.0478 34.4232 37.6398C33.8741 38.7714 33.452 40.1481 33.1598 41.807L31.1567 53.1955H20.8433L26.2546 22.5087Z" fill="#323E48"/>
</svg>
