<svg width="115" height="80" viewBox="0 0 115 80" fill="none" xmlns="http://www.w3.org/2000/svg">
<rect y="18" width="115" height="45" fill="black"/>
<path d="M37.6013 47.3002C37.6013 47.6798 37.3324 48.1392 37.001 48.329L25.4013 55.0387C25.0693 55.2285 24.532 55.2285 24.2 55.0387L12.6003 48.329C12.2683 48.1392 12 47.6804 12 47.3002V33.8809C12 33.5012 12.269 33.0418 12.6003 32.852L24.2 26.1424C24.532 25.9525 25.0693 25.9525 25.4013 26.1424L37.001 32.852C37.333 33.0418 37.6013 33.5006 37.6013 33.8809V47.3002ZM102 34.846H91.617V37.3303H95.3463V47.9487H98.2855V37.3303H101.999L102 34.846ZM54.8272 34.846H44.4287V37.3303H48.158V47.9487H51.0972V37.3303H54.8265L54.8272 34.846ZM84.8848 34.4348C81.6137 34.4348 79.796 36.5234 79.796 39.5462V47.9494H82.7036V39.4832C82.7036 38.1699 83.4783 37.1572 84.9164 37.1572C86.3544 37.1572 87.113 38.3598 87.113 39.4832V47.9494H90.0207V39.5462C90.0368 36.5234 88.156 34.4348 84.8848 34.4348ZM73.9176 34.846V47.9487H76.8253V34.846H73.9176ZM64.0565 40.0365L64.1511 40.622L66.885 47.9487H68.0702L71.784 34.846H68.9234L67.1533 41.73L67.0426 42.4738L66.9004 41.73L64.53 34.846H63.5816L61.2112 41.73L61.069 42.4738L60.9744 41.73L59.2044 34.846H56.3283L60.0421 47.9487H61.2273L63.9612 40.622L64.0558 40.0365" fill="white"/>
<path d="M30.8531 40.6185L27.8187 45.0652L26.2699 42.6916L28.0554 40.0175C28.3875 39.5426 29.0984 38.2294 28.2768 36.4413C27.6128 34.9853 26.1747 34.2891 24.9104 34.2891C23.646 34.2891 22.271 34.9376 21.5285 36.4413C20.6908 38.1664 21.4179 39.5111 21.7338 39.9705C21.7338 39.9705 22.7292 41.4266 23.5515 42.6607L24.8949 44.6071L26.9179 47.709C26.934 47.7251 27.2499 48.2154 27.8187 48.2154C28.3559 48.2154 28.6879 47.7251 28.7356 47.6775L33.4763 40.6513H30.8531V40.6197V40.6185ZM24.8949 40.7291C24.8949 40.7291 24.1048 39.5266 23.583 38.6875C23.0296 37.7854 23.646 36.4407 24.8949 36.4407C26.1432 36.4407 26.7596 37.7861 26.2069 38.6875C25.7011 39.5266 24.8949 40.7291 24.8949 40.7291Z" fill="url(#paint0_radial)"/>
<path d="M21.9872 44.9236L19.0159 40.7459C19.0159 40.7459 18.2257 39.5433 17.7039 38.7043C17.1506 37.8022 17.767 36.4574 19.0159 36.4574C19.1742 36.4574 19.3164 36.4735 19.4586 36.5205L20.5015 34.6056C20.0273 34.3997 19.5062 34.2891 19.032 34.2891C17.7676 34.2891 16.3926 34.9376 15.6501 36.4413C14.8124 38.1664 15.5394 39.5111 15.8554 39.9705L21.0549 47.6775C21.1025 47.7405 21.4339 48.2315 21.9872 48.2315C22.5406 48.2315 22.8565 47.7566 22.9041 47.6936L24.4689 45.3039L23.1254 43.326L21.9879 44.9243L21.9872 44.9236Z" fill="url(#paint1_radial)"/>
<defs>
<radialGradient id="paint0_radial" cx="0" cy="0" r="1" gradientUnits="userSpaceOnUse" gradientTransform="translate(23.9088 35.509) scale(13.9765 15.7767)">
<stop stop-color="#FFCC00"/>
<stop offset="0.09157" stop-color="#FFC800"/>
<stop offset="0.1739" stop-color="#FFBD00"/>
<stop offset="0.2528" stop-color="#FFAB00"/>
<stop offset="0.3295" stop-color="#FF9100"/>
<stop offset="0.4046" stop-color="#FF7000"/>
<stop offset="0.4786" stop-color="#FF4700"/>
<stop offset="0.5503" stop-color="#FF1800"/>
<stop offset="0.5822" stop-color="#FF0000"/>
<stop offset="1" stop-color="#FF0000"/>
</radialGradient>
<radialGradient id="paint1_radial" cx="0" cy="0" r="1" gradientUnits="userSpaceOnUse" gradientTransform="translate(15.4845 36.3142) scale(12.8156 19.4044)">
<stop stop-color="#00B4E6"/>
<stop offset="0.201" stop-color="#00B0E3"/>
<stop offset="0.3898" stop-color="#01A5DB"/>
<stop offset="0.5737" stop-color="#0292CD"/>
<stop offset="0.7546" stop-color="#0377BA"/>
<stop offset="0.9316" stop-color="#0455A1"/>
<stop offset="1" stop-color="#054696"/>
</radialGradient>
</defs>
</svg>
