<svg width="115" height="80" viewBox="0 0 115 80" fill="none" xmlns="http://www.w3.org/2000/svg">
<g clip-path="url(#clip0)">
<path fill-rule="evenodd" clip-rule="evenodd" d="M31.2419 43.301V37.375H34.1711V43.2404C34.1711 44.7634 34.9336 45.4873 36.0993 45.4873C37.2801 45.4873 38.0423 44.7939 38.0423 43.3158V37.375H40.9718V43.2253C40.9718 46.6182 39.0438 48.126 36.0693 48.126C33.1102 48.126 31.2419 46.6033 31.2419 43.301Z" fill="#262626"/>
<path fill-rule="evenodd" clip-rule="evenodd" d="M42.748 39.7748H45.5878V40.9208C46.1113 40.242 46.8586 39.5938 48.0092 39.5938C49.7281 39.5938 50.7593 40.7398 50.7593 42.5946V47.9325H47.9346V43.5144C47.9346 42.6094 47.4712 42.1271 46.7835 42.1271C46.0961 42.1271 45.5878 42.6094 45.5878 43.5144V47.9325H42.748V39.7748Z" fill="#262626"/>
<mask id="mask0" mask-type="alpha" maskUnits="userSpaceOnUse" x="0" y="26" width="115" height="28">
<path d="M0 53.5488H115V26H0V53.5488Z" fill="white"/>
</mask>
<g mask="url(#mask0)">
<path fill-rule="evenodd" clip-rule="evenodd" d="M52.5209 38.9299H55.3458V36.9258H52.5209V38.9299Z" fill="#4C4C4E"/>
<path fill-rule="evenodd" clip-rule="evenodd" d="M52.5209 47.9351H55.3458V39.7773H52.5209V47.9351Z" fill="#262626"/>
<path fill-rule="evenodd" clip-rule="evenodd" d="M63.027 43.8914V43.8614C63.027 42.851 62.2948 42.0066 61.2936 42.0066C60.2621 42.0066 59.6047 42.8356 59.6047 43.8314V43.8614C59.6047 44.8563 60.3221 45.7008 61.3233 45.7008C62.3548 45.7008 63.027 44.8715 63.027 43.8914ZM56.8546 43.8914V43.8614C56.8546 41.5391 58.7377 39.5938 61.3233 39.5938C63.9092 39.5938 65.7774 41.5088 65.7774 43.8314V43.8614C65.7774 46.1837 63.894 48.1287 61.2936 48.1287C58.7226 48.1287 56.8546 46.2137 56.8546 43.8914Z" fill="#262626"/>
<path fill-rule="evenodd" clip-rule="evenodd" d="M67.1948 39.7748H70.0346V40.9208C70.5577 40.242 71.3054 39.5938 72.456 39.5938C74.1748 39.5938 75.2063 40.7398 75.2063 42.5946V47.9325H72.3814V43.5144C72.3814 42.6094 71.9179 42.1271 71.2306 42.1271C70.5429 42.1271 70.0346 42.6094 70.0346 43.5144V47.9325H67.1948V39.7748Z" fill="#262626"/>
<path fill-rule="evenodd" clip-rule="evenodd" d="M81.6579 43.6325H79.8822V45.5778H81.6876C82.5846 45.5778 83.0781 45.2309 83.0781 44.6126V44.5826C83.0781 44.0092 82.6294 43.6325 81.6579 43.6325ZM82.6594 40.632C82.6594 40.0437 82.1959 39.7273 81.3438 39.7273H79.8822V41.5818H81.2695C82.1514 41.5818 82.6594 41.2802 82.6594 40.662V40.632ZM77.0579 37.375H82.0377C83.1426 37.375 84.0247 37.7151 84.6567 38.2985C85.3798 38.9662 85.7356 40.2936 85.3267 41.3513C85.1282 41.8645 84.7061 42.1918 84.2066 42.4114C85.4752 42.7981 86.2442 43.5571 86.2442 44.9898V45.0198C86.2442 46.8292 84.7795 47.9301 82.2833 47.9301H77.0579V37.375Z" fill="#262626"/>
<path fill-rule="evenodd" clip-rule="evenodd" d="M92.5547 44.9749V44.5982C92.2557 44.4777 91.8522 44.3869 91.4338 44.3869C90.6116 44.3869 90.1333 44.7793 90.1333 45.3972V45.4275C90.1333 45.9855 90.5517 46.3171 91.1345 46.3171C91.9718 46.3171 92.5547 45.7893 92.5547 44.9749ZM87.4132 45.5934V45.5632C87.4132 43.8591 88.6834 42.9996 90.5819 42.9996C91.329 42.9996 92.0612 43.1355 92.525 43.3163V43.1809C92.525 42.3213 92.0015 41.8387 90.9103 41.8387C90.0588 41.8387 89.4011 42.0198 88.6689 42.2911L88.086 40.2857C88.9973 39.9085 89.9691 39.6523 91.359 39.6523C92.8089 39.6523 93.7955 39.999 94.438 40.6473C95.0506 41.2507 95.3048 42.0951 95.3048 43.2409V47.9306H92.5099V47.071C91.9418 47.6893 91.1799 48.1116 90.1185 48.1116C88.5789 48.1116 87.4132 47.2066 87.4132 45.5934Z" fill="#262626"/>
<path fill-rule="evenodd" clip-rule="evenodd" d="M96.9769 39.7748H99.8167V40.9208C100.34 40.242 101.087 39.5938 102.238 39.5938C103.957 39.5938 104.988 40.7398 104.988 42.5946V47.9325H102.164V43.5144C102.164 42.6094 101.7 42.1271 101.013 42.1271C100.325 42.1271 99.8167 42.6094 99.8167 43.5144V47.9325H96.9769V39.7748Z" fill="#262626"/>
<path fill-rule="evenodd" clip-rule="evenodd" d="M106.675 36.9258H109.515V42.5051L111.712 39.7758H114.925L112.116 43.0328L115 47.9335H111.861L110.247 45.144L109.515 46.0036V47.9335H106.675V36.9258Z" fill="#262626"/>
<path fill-rule="evenodd" clip-rule="evenodd" d="M17.8347 40.5023C16.6764 40.3521 16.1718 40.2916 16.1718 40.2916V36.1673C16.4579 36.2381 18.3419 36.6962 18.3419 36.6962C19.4959 36.9244 20.0833 37.7637 20.0833 38.7695C20.0833 39.7755 19.1878 40.678 17.8347 40.5023ZM22.483 42.2075C22.483 42.2075 23.8201 40.8781 23.8201 38.3745C23.8201 36.2847 22.4116 33.9687 19.9302 33.0968L11.7734 30.2031L11.7471 44.3556C11.7471 44.3556 11.7497 46.4052 9.46337 46.8384C7.93269 47.1285 6.44085 45.7429 6.44085 44.0209C6.44285 44.0212 6.44913 32.8672 6.44285 28.296L0 26V44.6315C0 51.2868 6.0379 54.102 9.74723 53.46C14.1751 52.6938 16.1718 49.2729 16.1718 45.5704V44.2559L19.2957 44.3627C20.3289 44.3627 21.0971 45.2637 21.0971 46.2081C21.0971 47.0457 20.5122 47.9473 19.3085 48.0515L17.592 48.1826C17.3167 49.3126 16.7204 50.8724 15.3813 52.4311L20.4112 51.5415C22.4367 51.1751 24.7922 49.4165 24.7922 46.5114C24.7922 45.2737 24.3738 43.462 22.483 42.2075Z" fill="#FF8000"/>
</g>
</g>
<defs>
<clipPath id="clip0">
<rect width="115" height="80" fill="white"/>
</clipPath>
</defs>
</svg>
