<svg width="115" height="80" viewBox="0 0 115 80" fill="none" xmlns="http://www.w3.org/2000/svg">
<path d="M25.1503 6H52.1066C55.8695 6 58.2099 9.06706 57.332 12.8424L44.7819 66.7249C43.8962 70.4871 40.1288 73.5568 36.3633 73.5568H9.40957C5.65197 73.5568 3.30634 70.4871 4.18414 66.7249L16.7395 12.8424C17.6173 9.06706 21.3828 6 25.1503 6Z" fill="#E21836"/>
<path d="M49.8635 6H80.8626C84.6249 6 82.9284 9.06706 82.0433 12.8424L69.4952 66.7249C68.6148 70.4871 68.8894 73.5568 65.1193 73.5568H34.1202C30.3501 73.5568 28.017 70.4871 28.9027 66.7249L41.4502 12.8424C42.3411 9.06706 46.0987 6 49.8635 6Z" fill="#00447C"/>
<path d="M79.6331 6H106.589C110.358 6 112.698 9.06706 111.813 12.8424L99.2648 66.7249C98.3791 70.4871 94.609 73.5568 90.8416 73.5568H63.8977C60.1276 73.5568 57.7892 70.4871 58.6723 66.7249L71.2224 12.8424C72.1002 9.06706 75.8631 6 79.6331 6Z" fill="#007B84"/>
<path d="M32.1903 23.268C29.4183 23.2962 28.5996 23.268 28.3381 23.2062C28.2376 23.6839 26.367 32.3128 26.3617 32.32C25.959 34.0658 25.6659 35.3102 24.6705 36.1138C24.1055 36.5809 23.4458 36.8063 22.681 36.8063C21.4517 36.8063 20.7355 36.1959 20.6153 35.0382L20.5923 34.6407C20.5923 34.6407 20.9668 32.3023 20.9668 32.2891C20.9668 32.2891 22.93 24.4257 23.2815 23.3863C23.2999 23.3271 23.3052 23.2962 23.3098 23.268C19.4885 23.3015 18.8111 23.268 18.7644 23.2062C18.7388 23.291 18.6442 23.7785 18.6442 23.7785L16.6395 32.6413L16.4674 33.393L16.1343 35.8516C16.1343 36.5809 16.2775 37.1762 16.5627 37.6795C17.476 39.2754 20.0811 39.5146 21.5549 39.5146C23.4537 39.5146 25.2349 39.1112 26.4386 38.3746C28.528 37.1401 29.0747 35.2103 29.5622 33.4955L29.7882 32.6157C29.7882 32.6157 31.8106 24.4487 32.1542 23.3863C32.1673 23.3271 32.1726 23.2962 32.1903 23.268ZM39.0713 29.8564C38.5838 29.8564 37.6929 29.9747 36.8926 30.3669C36.6022 30.5161 36.3275 30.6882 36.0378 30.8597L36.2993 29.9155L36.156 29.7565C34.4589 30.1001 34.0791 30.1461 32.5114 30.3669L32.38 30.4543C32.198 31.9635 32.0364 33.0982 31.3616 36.0648C31.1047 37.1581 30.838 38.2619 30.5705 39.3526L30.6428 39.4912C32.2493 39.4065 32.7368 39.4065 34.133 39.4294L34.246 39.3066C34.4234 38.3979 34.4464 38.185 34.8393 36.3446C35.024 35.4721 35.409 33.5549 35.5989 32.8722C35.9478 32.7106 36.292 32.5516 36.6206 32.5516C37.4031 32.5516 37.3078 33.2342 37.2776 33.5062C37.2441 33.9629 36.9589 35.4544 36.6666 36.7349L36.4714 37.5615C36.3354 38.1719 36.1863 38.7652 36.0503 39.3703L36.1094 39.4912C37.6929 39.4065 38.1758 39.4065 39.528 39.4294L39.687 39.3066C39.9314 37.8874 40.003 37.5076 40.4366 35.4412L40.6548 34.4918C41.0786 32.6337 41.2915 31.6915 40.9708 30.9241C40.6318 30.064 39.8184 29.8564 39.0713 29.8564ZM46.7582 31.8018C45.9165 31.9634 45.3797 32.0712 44.8462 32.1408C44.3173 32.2256 43.8015 32.3025 42.9881 32.4155L42.9237 32.474L42.8645 32.5206C42.7798 33.1264 42.7206 33.6501 42.6083 34.2657C42.513 34.9024 42.3665 35.6258 42.128 36.6652C41.9434 37.4609 41.8481 37.7382 41.743 38.0181C41.6405 38.298 41.5275 38.57 41.3198 39.3525L41.3685 39.4248L41.4092 39.4911C42.1694 39.455 42.6668 39.4294 43.1779 39.4248C43.6885 39.4064 44.2174 39.4248 45.0361 39.4294L45.1077 39.3709L45.1845 39.3065C45.3028 38.6009 45.3205 38.411 45.3928 38.0667C45.4644 37.6974 45.588 37.1862 45.8909 35.8209C46.0341 35.1797 46.1938 34.5404 46.3422 33.8859C46.4967 33.2342 46.6583 32.5922 46.812 31.951L46.789 31.8734L46.7582 31.8018ZM46.7761 29.1788C46.0113 28.7274 44.6689 28.8706 43.7655 29.4942C42.8647 30.1052 42.7622 30.9725 43.5244 31.4298C44.276 31.8687 45.6236 31.7379 46.5192 31.1092C47.418 30.485 47.5304 29.6256 46.7761 29.1788ZM51.4013 39.6326C52.9486 39.6326 54.5347 39.2062 55.7286 37.9407C56.6471 36.9144 57.0683 35.3875 57.2141 34.7587C57.6892 32.6746 57.3192 31.7015 56.8547 31.1088C56.1491 30.2054 54.902 29.9157 53.6083 29.9157C52.8304 29.9157 50.9775 29.9925 49.5301 31.327C48.4906 32.2895 48.0103 33.5957 47.7206 34.848C47.4282 36.124 47.0918 38.421 49.2042 39.2758C49.8559 39.5557 50.7955 39.6326 51.4013 39.6326ZM51.2804 34.9433C51.6372 33.3651 52.0584 32.0405 53.1333 32.0405C53.9756 32.0405 54.0367 33.0261 53.6622 34.6095C53.5952 34.9611 53.2877 36.2679 52.8718 36.8244C52.5814 37.2351 52.2377 37.4841 51.858 37.4841C51.7449 37.4841 51.0728 37.4841 51.0623 36.486C51.057 35.9933 51.1576 35.49 51.2804 34.9433ZM61.0821 39.4296L61.203 39.3068C61.3745 38.3981 61.4028 38.1846 61.7825 36.3448C61.9724 35.4723 62.3653 33.5551 62.55 32.8724C62.8995 32.7101 63.2379 32.5511 63.5769 32.5511C64.3542 32.5511 64.2596 33.2338 64.2287 33.5058C64.2004 33.9631 63.9153 35.4539 63.6176 36.7345L63.433 37.561C63.2918 38.1721 63.138 38.7647 63.002 39.3705L63.0611 39.4914C64.6499 39.4066 65.1144 39.4066 66.4745 39.4296L66.6387 39.3068C66.8772 37.8869 66.9416 37.5071 67.3884 35.4414L67.6013 34.4913C68.027 32.6332 68.2425 31.6917 67.9272 30.9243C67.5783 30.0642 66.7596 29.8566 66.0231 29.8566C65.5349 29.8566 64.6393 29.9742 63.8437 30.3671C63.5592 30.5163 63.274 30.6877 62.9941 30.8599L63.2379 29.9157L63.1071 29.7561C61.4107 30.1003 61.023 30.1463 59.4573 30.3671L59.337 30.4545C59.1472 31.9637 58.9927 33.0978 58.318 36.0649C58.0611 37.1583 57.7943 38.2621 57.5276 39.3528L57.5992 39.4914C59.2083 39.4066 59.6886 39.4066 61.0821 39.4296ZM72.7548 39.4911C72.8546 39.0036 73.4479 36.1139 73.4532 36.1139C73.4532 36.1139 73.9585 33.9936 73.9893 33.9168C73.9893 33.9168 74.1483 33.696 74.3073 33.6086H74.5413C76.7483 33.6086 79.2404 33.6086 81.1938 32.1717C82.523 31.1861 83.4316 29.7308 83.837 27.962C83.9422 27.5284 84.0197 27.0126 84.0197 26.4968C84.0197 25.8194 83.8837 25.1492 83.4908 24.6256C82.4947 23.232 80.5111 23.2064 78.2213 23.1958C78.2141 23.1958 77.0925 23.2064 77.0925 23.2064C74.1615 23.2425 72.986 23.232 72.5031 23.1729C72.4624 23.3864 72.3855 23.7662 72.3855 23.7662C72.3855 23.7662 71.3356 28.6322 71.3356 28.6401C71.3356 28.6401 68.823 38.9858 68.7048 39.4733C71.2639 39.4425 72.3132 39.4425 72.7548 39.4911V39.4911ZM74.7003 30.8471C74.7003 30.8471 75.8166 25.9909 75.8113 26.0093L75.8474 25.7603L75.8632 25.5704L76.3093 25.6164C76.3093 25.6164 78.6116 25.8141 78.6655 25.8194C79.5742 26.1709 79.9487 27.077 79.6872 28.2597C79.4487 29.3405 78.7476 30.2492 77.8468 30.6881C77.105 31.06 76.1963 31.0908 75.2601 31.0908H74.6543L74.7003 30.8471ZM81.6507 35.0333C81.3557 36.2908 81.0166 38.5878 83.1185 39.4065C83.7887 39.6917 84.3892 39.7764 84.9996 39.7455C85.6442 39.7107 86.2414 39.3875 86.7946 38.9223C86.7447 39.1135 86.6948 39.3047 86.6448 39.4965L86.7401 39.6194C88.2519 39.5557 88.7211 39.5557 90.3591 39.5681L90.5076 39.4551C90.7467 38.0491 90.9721 36.6837 91.5937 33.9938C91.8966 32.7054 92.1988 31.4294 92.5096 30.1462L92.4609 30.0049C90.7697 30.3183 90.3177 30.3854 88.6909 30.616L88.5673 30.7165C88.5509 30.8473 88.5338 30.9728 88.5181 31.0983C88.2651 30.6896 87.8985 30.3407 87.3328 30.1232C86.6094 29.8387 84.9102 30.2053 83.4497 31.5352C82.4234 32.4846 81.9306 33.7855 81.6507 35.0333ZM85.2026 35.1101C85.5647 33.5602 85.9806 32.2487 87.0581 32.2487C87.7395 32.2487 88.0982 32.8775 88.0253 33.9498C87.9675 34.2172 87.905 34.4991 87.8308 34.8178C87.723 35.2783 87.6061 35.735 87.4924 36.1923C87.3768 36.505 87.2421 36.8 87.0943 36.9965C86.817 37.3894 86.1573 37.6332 85.7775 37.6332C85.6698 37.6332 85.0049 37.6332 84.9819 36.6529C84.9766 36.1647 85.0771 35.6621 85.2026 35.1101ZM103.751 29.9924L103.62 29.8432C101.947 30.1823 101.644 30.2362 100.107 30.4438L99.9936 30.5568C99.9883 30.5752 99.9837 30.6034 99.9758 30.6291L99.9706 30.6034C98.826 33.2441 98.8595 32.6744 97.9279 34.7533C97.9226 34.6587 97.9226 34.5996 97.9173 34.499L97.6841 29.9924L97.5376 29.8432C95.7846 30.1823 95.7432 30.2362 94.1242 30.4438L93.9981 30.5568C93.9803 30.6107 93.9803 30.6698 93.9698 30.7342L93.9804 30.7572C94.1827 31.7914 94.1341 31.5607 94.3371 33.1928C94.4318 33.9938 94.5579 34.7993 94.6525 35.5904C94.8122 36.9143 94.9015 37.5661 95.0967 39.5865C94.0034 41.3907 93.7445 42.0734 92.6919 43.6568L92.6991 43.6726L91.958 44.8448C91.8732 44.9683 91.7964 45.053 91.6886 45.0892C91.5703 45.1477 91.4166 45.1582 91.2031 45.1582H90.7924L90.182 47.1884L92.276 47.2246C93.5053 47.2193 94.278 46.6444 94.6939 45.8717L96.0106 43.6154H95.9896L96.1283 43.4564C97.0139 41.5497 103.751 29.9924 103.751 29.9924H103.751ZM81.6506 56.6567H80.7623L84.0501 45.782H85.1408L85.4871 44.6618L85.5206 45.9075C85.4798 46.6776 86.0856 47.3602 87.677 47.2472H89.5173L90.1507 45.1532H89.4582C89.0601 45.1532 88.8754 45.0527 88.8984 44.8372L88.8649 43.5698H85.4568V43.5763C84.355 43.5993 81.0645 43.6821 80.3983 43.8595C79.5921 44.0672 78.7426 44.6782 78.7426 44.6782L79.0763 43.5566H75.8884L75.2241 45.782L71.8923 56.8229H71.2457L70.6117 58.9018H76.9613L76.7484 59.595H79.8773L80.0849 58.9018H80.9627L81.6506 56.6567ZM79.0455 47.9917C78.5349 48.1329 77.5849 48.5613 77.5849 48.5613L78.4298 45.782H80.9627L80.3516 47.807C80.3516 47.807 79.5691 47.853 79.0455 47.9917ZM79.0941 51.9621C79.0941 51.9621 78.2984 52.062 77.7747 52.1803C77.259 52.3367 76.2918 52.8294 76.2918 52.8294L77.1643 49.9371H79.7104L79.0941 51.9621ZM77.6749 56.6823H75.1341L75.8706 54.2414H78.4035L77.6749 56.6823ZM83.7936 49.9371H87.456L86.9297 51.6415H83.2187L82.6615 53.5049H85.9086L83.45 56.9668C83.2778 57.2211 83.1234 57.3111 82.9519 57.3827C82.7798 57.4701 82.5538 57.5726 82.2923 57.5726H81.3915L80.7725 59.6134H83.1287C84.3534 59.6134 85.0768 59.0562 85.611 58.3249L87.297 56.0174L87.659 58.3604C87.7358 58.7993 88.0512 59.0562 88.2648 59.1561C88.5006 59.2743 88.7444 59.4774 89.0887 59.5076C89.4579 59.5233 89.7247 59.5359 89.9021 59.5359H91.0598L91.7549 57.252H91.2983C91.0361 57.252 90.5848 57.208 90.5079 57.1258C90.431 57.026 90.431 56.8722 90.3896 56.6383L90.0223 54.2901H88.5184L89.178 53.5049H92.8818L93.4514 51.6415H90.0223L90.5565 49.9372H93.9751L94.6091 47.8353H84.4171L83.7936 49.9371ZM52.8614 57.1569L53.7162 54.3132H57.2294L57.8713 52.1982H54.3548L54.8916 50.4479H58.328L58.9646 48.3999H50.3666L49.7431 50.4479H51.6965L51.1754 52.1982H49.2168L48.5676 54.3494H50.5204L49.3811 58.1116C49.2273 58.6096 49.4533 58.7995 49.5966 59.0308C49.7431 59.2561 49.8916 59.4053 50.2253 59.49C50.5696 59.5669 50.8055 59.6129 51.1261 59.6129H55.0868L55.7924 57.2699L54.0368 57.511C53.6978 57.511 52.7589 57.4703 52.8614 57.1569ZM53.2644 43.5438L52.3741 45.1529C52.1835 45.5044 52.012 45.7226 51.8576 45.8231C51.7216 45.9079 51.4522 45.9433 51.062 45.9433H50.5974L49.9765 48.0018H51.5193C52.2611 48.0018 52.8307 47.7298 53.1027 47.5938C53.3951 47.4374 53.472 47.5268 53.698 47.3087L54.219 46.8573H59.0364L59.6757 44.714H56.1494L56.7651 43.5438H53.2644ZM60.3764 57.1982C60.2943 57.0799 60.3534 56.8717 60.4789 56.438L61.7956 52.0799H66.4796C67.1623 52.07 67.6551 52.0621 67.9757 52.0391C68.32 52.003 68.6945 51.8801 69.1025 51.6594C69.5237 51.4281 69.7392 51.1843 69.9212 50.9044C70.1242 50.6252 70.4501 50.0141 70.73 49.072L72.3851 43.5568L67.5243 43.585C67.5243 43.585 66.0276 43.8058 65.3686 44.0495C64.7037 44.3216 63.7536 45.0811 63.7536 45.0811L64.1925 43.5692H61.1898L56.9861 57.511C56.8369 58.0524 56.7371 58.4453 56.7141 58.6811C56.7062 58.9354 57.0347 59.1871 57.2476 59.3769C57.4992 59.5668 57.8711 59.536 58.2279 59.5668C58.6031 59.5951 59.1366 59.6128 59.8731 59.6128H62.1806L62.8889 57.2212L60.8232 57.4163C60.6024 57.4163 60.4428 57.2981 60.3764 57.1982V57.1982ZM62.6452 49.1363H67.5651L67.2523 50.1166C67.2083 50.1396 67.1032 50.068 66.6025 50.1272H62.3423L62.6452 49.1363ZM63.6307 45.8485H68.592L68.2352 47.0292C68.2352 47.0292 65.8969 47.0062 65.5223 47.0752C63.8745 47.3604 62.9119 48.2408 62.9119 48.2408L63.6307 45.8485ZM67.3624 53.3994C67.3217 53.5459 67.2573 53.6353 67.1673 53.7023C67.0674 53.7667 66.9058 53.7897 66.6647 53.7897H65.9636L66.005 52.5959H63.089L62.9708 58.4323C62.9662 58.8535 63.0069 59.0973 63.3151 59.2924C63.6232 59.5362 64.5726 59.567 65.8506 59.567H67.6778L68.3375 57.3824L66.7468 57.4698L66.2179 57.5007C66.1456 57.4698 66.0766 57.4415 65.9997 57.3647C65.9327 57.2983 65.8197 57.339 65.8381 56.9179L65.8506 55.4218L67.5188 55.3528C68.4196 55.3528 68.8046 55.0598 69.1331 54.7805C69.4465 54.5131 69.549 54.2056 69.6673 53.7897L69.9472 52.4651H67.6548L67.3624 53.3994Z" fill="#FEFEFE"/>
</svg>
