<svg width="115" height="80" viewBox="0 0 115 80" fill="none" xmlns="http://www.w3.org/2000/svg">
<g clip-path="url(#clip0)">
<path d="M0.925129 54.9018H1.78607L0.986048 58.2433C0.867318 58.7391 0.889696 59.1123 1.0538 59.3613C1.21729 59.6106 1.52157 59.7352 1.96634 59.7352C2.40832 59.7352 2.77072 59.6106 3.05387 59.3613C3.33733 59.1123 3.53843 58.7391 3.65716 58.2433L4.45687 54.9018H5.32901L4.5094 58.326C4.33131 59.0701 4.01397 59.6271 3.55956 59.9963C3.10485 60.3662 2.50871 60.5508 1.77116 60.5508C1.03298 60.5508 0.526669 60.3665 0.25098 59.9982C-0.0250202 59.6302 -0.0731959 59.0726 0.10552 58.326L0.925129 54.9018Z" fill="#696A6A"/>
<path d="M5.21326 60.4076L6.58269 54.6871L9.1848 58.051C9.25442 58.1458 9.32466 58.2474 9.39397 58.3553C9.46328 58.4631 9.53415 58.5844 9.60688 58.7199L10.5204 54.905H11.3263L9.95778 60.6211L7.30097 57.1972C7.2298 57.1049 7.1636 57.0073 7.10174 56.9044C7.03927 56.8015 6.98301 56.6937 6.93142 56.5812L6.01546 60.4076H5.21326Z" fill="#696A6A"/>
<path d="M11.2549 60.4062L12.5721 54.9037H13.4436L12.1267 60.4062H11.2549Z" fill="#696A6A"/>
<path d="M13.3801 60.4062L14.6973 54.9037H17.6905L17.5086 55.6627H15.3873L15.0588 57.0346H17.1801L16.9924 57.82H14.8708L14.252 60.4062H13.3801Z" fill="#696A6A"/>
<path d="M17.3334 60.4062L18.6506 54.9037H19.5221L18.2052 60.4062H17.3334Z" fill="#696A6A"/>
<path d="M19.4585 60.4062L20.7757 54.9037H23.7688L23.587 55.6627H21.4657L21.1353 57.042H23.2566L23.0689 57.8278H20.9476L20.5218 59.6056H22.6431L22.4516 60.4062H19.4585Z" fill="#696A6A"/>
<path d="M24.5173 59.5978H25.2502C25.653 59.5978 25.9619 59.5702 26.1767 59.5152C26.3915 59.4601 26.5885 59.3672 26.7691 59.237C27.0144 59.0595 27.2192 58.8382 27.3839 58.5737C27.5483 58.3095 27.673 58.0015 27.7569 57.6506C27.8405 57.2997 27.8635 56.9926 27.8256 56.7287C27.7873 56.4639 27.6885 56.2429 27.5284 56.0648C27.4081 55.9349 27.2493 55.8417 27.051 55.7864C26.8524 55.7317 26.5292 55.704 26.0797 55.704H25.7646H25.4494L24.5173 59.5978ZM23.4521 60.4062L24.7694 54.9033H25.9452C26.7098 54.9033 27.2381 54.9425 27.5309 55.0215C27.8231 55.1007 28.0646 55.2331 28.2545 55.4184C28.5066 55.6614 28.6669 55.9735 28.7359 56.3539C28.8046 56.735 28.7804 57.1698 28.6635 57.6584C28.5466 58.147 28.363 58.5799 28.1124 58.9569C27.8626 59.3343 27.5527 59.6454 27.1841 59.8909C26.9053 60.0765 26.6063 60.2086 26.2886 60.2878C25.97 60.3665 25.4951 60.4062 24.8623 60.4062H24.6276H23.4521Z" fill="#696A6A"/>
<path d="M32.9085 57.204H33.1323C33.6156 57.204 33.951 57.1496 34.1381 57.042C34.3255 56.9345 34.4514 56.744 34.5167 56.4708C34.5869 56.1777 34.5506 55.9707 34.407 55.8507C34.2634 55.7304 33.9613 55.6698 33.4997 55.6698H33.2759L32.9085 57.204ZM32.6782 57.9362L32.0871 60.4062H31.2703L32.5878 54.9037H33.9066C34.2973 54.9037 34.5798 54.9254 34.7538 54.9692C34.9273 55.0127 35.0705 55.0852 35.1837 55.1856C35.3214 55.3133 35.4118 55.4855 35.4553 55.7021C35.4985 55.9191 35.4892 56.1578 35.427 56.4179C35.3643 56.6787 35.2592 56.9193 35.1113 57.1399C34.9633 57.3603 34.7899 57.5334 34.5916 57.6584C34.4306 57.7588 34.2531 57.8302 34.0585 57.8725C33.8637 57.9154 33.5712 57.9362 33.1805 57.9362H33.0086H32.6782Z" fill="#696A6A"/>
<path d="M36.5033 58.2452H37.998L37.7484 56.9895C37.7366 56.9096 37.7254 56.8176 37.7158 56.7135C37.7068 56.6094 37.7006 56.4935 37.6965 56.3657C37.6387 56.486 37.5806 56.5982 37.5225 56.7023C37.4647 56.8061 37.4084 56.9019 37.3531 56.9895L36.5033 58.2452ZM38.3968 60.4062L38.1273 58.9893H36.0023L35.0403 60.4062H34.125L38.0913 54.6858L39.3162 60.4062H38.3968Z" fill="#696A6A"/>
<path d="M40.5658 60.4062L41.1681 57.8877L40.0765 54.9037H40.9925L41.6701 56.7716C41.6856 56.8195 41.7043 56.882 41.7257 56.9597C41.7475 57.0374 41.7686 57.121 41.7885 57.2114C41.8432 57.1238 41.8994 57.0405 41.9557 56.9631C42.012 56.8854 42.0688 56.8142 42.1263 56.7489L43.7217 54.9037H44.5939L42.0328 57.8877L41.4301 60.4062H40.5658Z" fill="#696A6A"/>
<path d="M48.8845 57.6854C48.8848 57.6428 48.8972 57.5253 48.9215 57.3323C48.9401 57.1719 48.9547 57.0389 48.9653 56.9335C48.9134 57.0591 48.8521 57.1846 48.7819 57.3096C48.7113 57.4348 48.6305 57.5626 48.5382 57.6931L46.4331 60.625L45.7462 57.6331C45.717 57.5101 45.6946 57.391 45.6797 57.276C45.6648 57.1607 45.6545 57.0466 45.6495 56.9335C45.6197 57.0491 45.5818 57.1697 45.5355 57.2965C45.4892 57.423 45.4338 57.5554 45.3689 57.6931L44.1449 60.4031H43.343L45.9834 54.6671L46.7349 58.1404C46.7458 58.1954 46.7616 58.2871 46.7809 58.4148C46.8002 58.5426 46.8229 58.7005 46.8493 58.8882C46.9382 58.7303 47.0662 58.5301 47.2347 58.2871C47.2794 58.2218 47.3136 58.1718 47.3366 58.1366L49.7134 54.6671L49.6372 60.4031H48.8273L48.8845 57.6854Z" fill="#696A6A"/>
<path d="M50.3333 60.4062L51.6508 54.9037H54.6439L54.4621 55.6627H52.3405L52.0104 57.042H54.1317L53.9439 57.8278H51.8223L51.3968 59.6056H53.5181L53.326 60.4062H50.3333Z" fill="#696A6A"/>
<path d="M54.3269 60.4076L55.6963 54.6871L58.2984 58.051C58.3681 58.1458 58.4383 58.2474 58.5076 58.3553C58.5769 58.4631 58.6478 58.5844 58.7205 58.7199L59.634 54.905H60.4402L59.0714 60.6211L56.4146 57.1972C56.3434 57.1049 56.2772 57.0073 56.2154 56.9044C56.1529 56.8015 56.0967 56.6937 56.0451 56.5812L55.1291 60.4076H54.3269Z" fill="#696A6A"/>
<path d="M63.222 55.6627L62.0866 60.4062H61.2148L62.3499 55.6627H60.9248L61.1066 54.9037H64.8214L64.6399 55.6627H63.222Z" fill="#696A6A"/>
<path d="M64.1268 59.3029L64.9019 58.9725C64.9097 59.2177 64.9855 59.4051 65.1304 59.5341C65.2752 59.6634 65.4844 59.7278 65.7585 59.7278C66.0171 59.7278 66.2409 59.6538 66.4286 59.5058C66.6167 59.3582 66.7407 59.1602 66.8001 58.9122C66.8775 58.5886 66.6844 58.3005 66.2229 58.0478C66.1582 58.0102 66.1085 57.9826 66.0743 57.9648C65.5537 57.6693 65.2236 57.4016 65.0844 57.1623C64.9455 56.923 64.9169 56.6305 64.9995 56.2849C65.1068 55.8364 65.3424 55.4731 65.7057 55.1949C66.069 54.9167 66.4911 54.7775 66.9726 54.7775C67.3682 54.7775 67.6806 54.8558 67.909 55.0124C68.1378 55.1694 68.2683 55.3941 68.3007 55.6872L67.5333 56.0481C67.4668 55.8753 67.3791 55.7488 67.2703 55.6683C67.1612 55.5881 67.0232 55.548 66.8576 55.548C66.6232 55.548 66.4218 55.6111 66.2537 55.7357C66.0864 55.8613 65.9767 56.0291 65.9261 56.2398C65.8471 56.5705 66.0762 56.8786 66.6136 57.1642C66.6549 57.1866 66.6872 57.2046 66.7105 57.217C67.1808 57.4672 67.4866 57.7125 67.6268 57.9518C67.7673 58.1914 67.795 58.4901 67.7089 58.8482C67.5842 59.3697 67.3253 59.7837 66.9318 60.0905C66.5384 60.3972 66.069 60.5508 65.5248 60.5508C65.0676 60.5508 64.7192 60.4432 64.4792 60.2275C64.2387 60.0121 64.1212 59.7041 64.1268 59.3029Z" fill="#696A6A"/>
<path d="M70.5684 60.4062L71.8856 54.9037H72.7574L71.4402 60.4062H70.5684Z" fill="#696A6A"/>
<path d="M72.6934 60.4076L74.0628 54.6871L76.6649 58.051C76.7345 58.1458 76.8048 58.2474 76.8741 58.3553C76.9434 58.4631 77.0143 58.5844 77.087 58.7199L78.0005 54.905H78.8064L77.4379 60.6211L74.7811 57.1972C74.7099 57.1049 74.6434 57.0073 74.5815 56.9044C74.5194 56.8015 74.4628 56.6937 74.4112 56.5812L73.4956 60.4076H72.6934Z" fill="#696A6A"/>
<path d="M81.5885 55.6627L80.4528 60.4062H79.5812L80.7163 55.6627H79.2913L79.4731 54.9037H83.1879L83.0064 55.6627H81.5885Z" fill="#696A6A"/>
<path d="M82.5376 60.4062L83.8548 54.9037H86.8479L86.6664 55.6627H84.5451L84.2147 57.042H86.336L86.148 57.8278H84.0267L83.6012 59.6056H85.7225L85.5307 60.4062H82.5376Z" fill="#696A6A"/>
<path d="M88.159 57.2487H88.3169C88.7781 57.2487 89.0979 57.194 89.2757 57.0837C89.4535 56.9733 89.5766 56.7782 89.6431 56.4972C89.7158 56.1941 89.686 55.9803 89.5526 55.8566C89.4205 55.732 89.1343 55.6701 88.6948 55.6701H88.5369L88.159 57.2487ZM87.9377 57.944L87.3481 60.4062H86.5312L87.8488 54.9037H89.065C89.4215 54.9037 89.6925 54.9273 89.8774 54.9751C90.0627 55.0227 90.2119 55.1013 90.3247 55.212C90.459 55.3444 90.546 55.5166 90.5864 55.727C90.6259 55.9371 90.6156 56.1677 90.5559 56.4179C90.4506 56.859 90.2641 57.2043 89.9968 57.4539C89.7295 57.7028 89.387 57.8529 88.9696 57.9027L90.2172 60.4062H89.2313L88.0365 57.944H87.9377Z" fill="#696A6A"/>
<path d="M90.7336 60.4062L92.0509 54.9037H95.044L94.8625 55.6627H92.7409L92.4123 57.0346H94.5339L94.3459 57.82H92.2246L91.6055 60.4062H90.7336Z" fill="#696A6A"/>
<path d="M96.0546 58.2452H97.5496L97.3 56.9895C97.2879 56.9096 97.277 56.8176 97.2674 56.7135C97.2584 56.6094 97.2521 56.4935 97.2481 56.3657C97.19 56.486 97.1319 56.5982 97.0741 56.7023C97.0162 56.8061 96.9597 56.9019 96.9044 56.9895L96.0546 58.2452ZM97.9484 60.4062L97.6789 58.9893H95.5539L94.5919 60.4062H93.6763L97.6425 54.6858L98.8677 60.4062H97.9484Z" fill="#696A6A"/>
<path d="M104.543 56.2398C104.348 56.0244 104.126 55.8628 103.877 55.755C103.628 55.6477 103.352 55.5933 103.049 55.5933C102.463 55.5933 101.94 55.7864 101.48 56.1721C101.02 56.5581 100.717 57.0579 100.57 57.6721C100.427 58.266 100.489 58.7555 100.755 59.1413C101.02 59.5273 101.426 59.7206 101.97 59.7206C102.288 59.7206 102.603 59.6628 102.918 59.5475C103.233 59.4322 103.55 59.2581 103.869 59.0247L103.627 60.0361C103.351 60.2089 103.065 60.3382 102.769 60.423C102.472 60.5082 102.163 60.5508 101.841 60.5508C101.43 60.5508 101.067 60.4821 100.753 60.3441C100.437 60.2064 100.18 60.0038 99.9805 59.7352C99.7822 59.4723 99.6551 59.1624 99.6007 58.805C99.5454 58.4481 99.5662 58.0677 99.6626 57.664C99.7592 57.2608 99.9206 56.882 100.146 56.5273C100.371 56.1727 100.649 55.8613 100.979 55.5933C101.311 55.3226 101.665 55.1181 102.042 54.9786C102.42 54.8399 102.809 54.77 103.21 54.77C103.525 54.77 103.814 54.8173 104.077 54.9114C104.341 55.005 104.584 55.147 104.807 55.3382L104.543 56.2398Z" fill="#696A6A"/>
<path d="M104.627 60.4062L105.945 54.9037H108.938L108.756 55.6627H106.635L106.304 57.042H108.426L108.238 57.8278H106.116L105.691 59.6056H107.812L107.62 60.4062H104.627Z" fill="#696A6A"/>
<path d="M88.7249 50.1016H82.7316L91.0669 19.998H97.0606L88.7249 50.1016Z" fill="#66686C"/>
<path d="M85.6135 20.9512C85.198 20.3783 84.5571 20.0893 83.6865 20.0893H50.7294L49.097 25.9854H55.0938V25.9819H79.0787L77.3338 32.2827H53.3483L53.3504 32.2696H47.3561L42.381 50.2305H48.3784L51.7171 38.1754H78.6787C79.5207 38.1754 80.3133 37.8882 81.0586 37.3138C81.8024 36.7388 82.2919 36.0298 82.5265 35.1832L85.865 23.1256C86.1086 22.2507 86.0244 21.5246 85.6135 20.9512Z" fill="#66686C"/>
<path d="M38.8885 48.2296C38.5575 49.4215 37.4721 50.2461 36.2348 50.2461H5.31188C4.46927 50.2461 3.84299 49.9589 3.43117 49.3851C3.01965 48.8108 2.93138 48.1003 3.16667 47.2539L10.7119 20.0931H16.7109L9.97156 44.3519H33.968L40.7073 20.0931H46.7051L38.8885 48.2296Z" fill="#66686C"/>
<path d="M107.412 20.0568L115 35.1476L99.0486 50.2344L107.412 20.0568Z" fill="#27803B"/>
<path d="M102.093 20.0568L109.675 35.1476L93.7172 50.2344L102.093 20.0568Z" fill="#E9661C"/>
</g>
<defs>
<clipPath id="clip0">
<rect width="115" height="80" fill="white"/>
</clipPath>
</defs>
</svg>
