<svg width="115" height="80" viewBox="0 0 115 80" fill="none" xmlns="http://www.w3.org/2000/svg">
<path d="M57 80C79.1668 80 97 62.1668 97 40C97 17.8332 79.1668 0 57 0C34.8332 0 17 17.8332 17 40C17 62.1668 34.8332 80 57 80Z" fill="#2775CA"/>
<path d="M68 46.332C68 40.4988 64.5 38.4988 57.5001 37.6656C52.5001 36.9988 51.5001 35.6656 51.5001 33.332C51.5001 30.9984 53.1669 29.4988 56.5001 29.4988C59.5 29.4988 61.1668 30.4988 62 32.9988C62.1668 33.4988 62.6668 33.832 63.1668 33.832H65.8332C66.5 33.832 67 33.332 67 32.6656V32.4988C66.3332 28.832 63.3332 25.9988 59.5 25.6656V21.6656C59.5 20.9988 59.0001 20.4988 58.1669 20.332H55.6669C55.0001 20.332 54.5001 20.832 54.3333 21.6656V25.4988C49.3333 26.1656 46.1669 29.4988 46.1669 33.6656C46.1669 39.1656 49.5001 41.332 56.5001 42.1656C61.1668 42.9988 62.6668 43.9988 62.6668 46.6656C62.6668 49.3324 60.3332 51.1656 57.1669 51.1656C52.8333 51.1656 51.3333 49.332 50.8333 46.832C50.6669 46.1656 50.1669 45.832 49.6669 45.832H46.8333C46.1669 45.832 45.6669 46.332 45.6669 46.9988V47.1656C46.3333 51.332 49.0001 54.332 54.5001 55.1656V59.1656C54.5001 59.832 55.0001 60.332 55.8333 60.4988H58.3333C59 60.4988 59.5001 59.9988 59.6669 59.1656V55.1656C64.6668 54.332 68 50.832 68 46.332Z" fill="white"/>
<path d="M48.5 63.8344C35.5 59.168 28.8332 44.668 33.6668 31.8344C36.1668 24.8344 41.6668 19.5012 48.5 17.0012C49.1668 16.668 49.5 16.168 49.5 15.3344V13.0012C49.5 12.3344 49.1668 11.8344 48.5 11.668C48.3332 11.668 48 11.668 47.8332 11.8344C32 16.8344 23.3332 33.668 28.3332 49.5012C31.3332 58.8344 38.5 66.0012 47.8332 69.0012C48.5 69.3344 49.1668 69.0012 49.3332 68.3344C49.5 68.168 49.5 68.0012 49.5 67.668V65.3344C49.5 64.8344 49 64.168 48.5 63.8344ZM66.1668 11.8344C65.5 11.5012 64.8332 11.8344 64.6668 12.5012C64.5 12.668 64.5 12.8344 64.5 13.168V15.5012C64.5 16.168 65 16.8344 65.5 17.168C78.5 21.8344 85.1668 36.3344 80.3332 49.168C77.8332 56.168 72.3332 61.5012 65.5 64.0012C64.8332 64.3344 64.5 64.8344 64.5 65.668V68.0012C64.5 68.668 64.8332 69.168 65.5 69.3344C65.6668 69.3344 66 69.3344 66.1668 69.168C82 64.168 90.6668 47.3344 85.6668 31.5012C82.6668 22.0012 75.3332 14.8344 66.1668 11.8344Z" fill="white"/>
</svg>
