<svg width="115" height="80" viewBox="0 0 115 80" fill="none" xmlns="http://www.w3.org/2000/svg">
<path d="M94.6023 70.9632L108 8.01367H20.3731L7 70.9632H94.6023Z" fill="white"/>
<path d="M22.1954 10.5033C22.1954 10.5033 70.9098 20.5024 71.8703 20.6748C83.0515 22.645 82.7067 24.8123 82.7067 24.8123C90.5385 24.763 91.5236 25.0832 92.8781 26.2407C96.991 29.6886 90.2922 39.8354 90.2922 39.8354C89.3317 40.5497 16.8511 68.5272 16.8511 68.5272H92.6811L105.069 10.2324H22.1954V10.5033Z" fill="#333366"/>
<path d="M78.9141 29.3922C77.8058 29.934 74.9489 30.2295 73.5944 30.3527C72.2891 30.4512 71.9443 30.599 71.9197 31.0915C71.895 31.5348 72.1167 31.7811 73.9638 31.7811C78.2245 31.7811 85.8838 30.1803 88.1989 30.9191C89.4303 31.3132 88.4452 33.4804 87.4354 36.3373C87.0413 37.4456 87.8048 37.3717 88.2481 36.8791C88.6914 36.3866 90.6863 32.7662 90.908 30.8945C91.2035 28.2593 88.9623 27.8652 85.8346 27.8652H80.8843C80.6134 27.8652 80.4164 28.0376 80.0962 28.4563C79.8499 28.8011 79.6283 29.0228 78.9141 29.3922Z" fill="#333366"/>
<path d="M19.3879 23.7013L9.88147 68.5245C9.88147 68.5245 39.0412 54.2156 42.5876 52.3931C49.9022 48.6496 59.9997 43.6747 69.3338 40.4977C71.107 39.882 78.7417 37.5423 83.1748 36.7542C84.8988 36.434 85.613 36.1631 85.613 35.8183C85.5391 34.9071 83.8151 34.8332 80.8844 34.981C71.9444 35.3997 54.8278 42.2217 49.9022 44.8076L44.3362 27.5679H79.8993C81.5001 23.0856 58.8422 23.7259 58.1526 23.6767H19.3879V23.7013Z" fill="#333366"/>
</svg>
