<svg width="115" height="80" viewBox="0 0 115 80" fill="none" xmlns="http://www.w3.org/2000/svg">
<path d="M18.7383 29C19.5079 30.2718 19.8544 31.581 19.8544 33.2347C19.8544 38.5101 15.3514 45.3632 11.6963 50.1757H3.34832L0 30.1554L7.30979 29.4613L9.07992 43.7072C10.734 41.0124 12.7751 36.7781 12.7751 33.8907C12.7751 32.3102 12.5042 31.2342 12.081 30.3477L18.7383 29Z" fill="#3B94C3"/>
<path d="M28.2118 37.8162C29.5572 37.8162 32.9433 37.2003 32.9433 35.2761C32.9433 34.3519 32.2901 33.8906 31.5196 33.8906C30.1723 33.8906 28.4045 35.5061 28.2118 37.8162ZM28.0576 41.6282C28.0576 43.9783 29.3641 44.9002 31.0968 44.9002C32.9837 44.9002 34.7897 44.4393 37.1379 43.2461L36.2534 49.2513C34.5993 50.0591 32.021 50.5986 29.5187 50.5986C23.1712 50.5986 20.8993 46.7489 20.8993 41.9369C20.8993 35.6996 24.5944 29.0762 32.2133 29.0762C36.4076 29.0762 38.7535 31.4264 38.7535 34.6984C38.7538 39.9737 31.9829 41.59 28.0576 41.6282Z" fill="#3B94C3"/>
<path d="M59.8481 33.6979C59.8481 34.4679 59.7313 35.5844 59.6149 36.3143L57.4216 50.1747H50.3042L52.3055 37.469C52.3433 37.124 52.4597 36.4303 52.4597 36.0457C52.4597 35.1215 51.8828 34.8906 51.1882 34.8906C50.2664 34.8906 49.3422 35.3138 48.7263 35.6225L46.4571 50.1751H39.2988L42.5689 29.423H48.7637L48.842 31.0795C50.3038 30.1168 52.228 29.0762 54.9585 29.0762C58.5767 29.0754 59.8481 30.9245 59.8481 33.6979Z" fill="#3B94C3"/>
<path d="M80.979 31.3481C83.0173 29.8867 84.9424 29.0762 87.5962 29.0762C91.2512 29.0762 92.5223 30.9249 92.5223 33.6982C92.5223 34.4683 92.4059 35.5847 92.2895 36.3147L90.0986 50.1751H82.9792L85.0175 37.2007C85.0557 36.8538 85.1343 36.4307 85.1343 36.1625C85.1343 35.1219 84.5566 34.891 83.8625 34.891C82.9784 34.891 82.0943 35.2757 81.4384 35.6229L79.1696 50.1755H72.0517L74.0905 37.2011C74.1282 36.8538 74.2045 36.4311 74.2045 36.1628C74.2045 35.1222 73.6268 34.8914 72.935 34.8914C72.0108 34.8914 71.089 35.3142 70.4731 35.6233L68.202 50.1758H61.0468L64.316 29.4234H70.4357L70.6276 31.1557C72.0513 30.1175 73.9744 29.0769 76.5523 29.0769C78.7849 29.0762 80.2464 30.0389 80.979 31.3481Z" fill="#3B94C3"/>
<path d="M106.688 37.3935C106.688 35.6992 106.264 34.5442 104.996 34.5442C102.186 34.5442 101.61 39.5104 101.61 42.051C101.61 43.9784 102.149 45.1712 103.417 45.1712C106.072 45.1708 106.688 39.9332 106.688 37.3935ZM94.3761 41.7442C94.3761 35.1998 97.8381 29.0762 105.804 29.0762C111.806 29.0762 114 32.6195 114 37.5095C114 43.978 110.575 50.6765 102.417 50.6765C96.3763 50.6765 94.3761 46.7104 94.3761 41.7442Z" fill="#3B94C3"/>
</svg>
