<svg width="115" height="80" viewBox="0 0 115 80" fill="none" xmlns="http://www.w3.org/2000/svg">
<path d="M31.8025 7H82.1976C82.325 7 82.4524 7.00324 82.58 7.00946C82.7074 7.01543 82.8348 7.02514 82.9621 7.03784C83.089 7.05 83.2159 7.06546 83.342 7.08435C83.4681 7.10352 83.5943 7.12492 83.7194 7.15003C83.8448 7.17492 83.9692 7.20302 84.0933 7.23413C84.217 7.26498 84.3401 7.2993 84.4622 7.33638C84.5841 7.37321 84.7053 7.4135 84.8257 7.45629C84.9461 7.49909 85.0647 7.54486 85.1834 7.59385C85.3013 7.6431 85.418 7.69459 85.5334 7.74932C85.6489 7.8038 85.7628 7.86127 85.875 7.92123C85.988 7.98143 86.0989 8.04438 86.2086 8.11004C86.3176 8.17572 86.426 8.24413 86.532 8.31503C86.638 8.38567 86.7427 8.45932 86.8455 8.53545C86.948 8.61158 87.0482 8.69018 87.1473 8.77102C87.246 8.85213 87.3426 8.93546 87.4371 9.02105C87.5316 9.10712 87.6241 9.19493 87.7147 9.28525C87.8045 9.37554 87.8928 9.46809 87.9787 9.56263C88.0643 9.65714 88.1478 9.75391 88.229 9.8527C88.3096 9.95121 88.3884 10.052 88.4643 10.1547C88.5404 10.2572 88.6141 10.3617 88.685 10.4679C88.7559 10.5739 88.8246 10.6818 88.8897 10.7913C88.9556 10.901 89.0186 11.012 89.0788 11.1247C89.139 11.2371 89.1962 11.3513 89.2505 11.4667C89.3052 11.5822 89.3572 11.6988 89.4057 11.8165C89.4545 11.9349 89.501 12.0536 89.5435 12.174C89.5865 12.2944 89.6271 12.4156 89.6639 12.5377C89.7005 12.6601 89.7348 12.783 89.7659 12.9066C89.797 13.0305 89.8249 13.1551 89.8495 13.2803C89.8751 13.4056 89.8965 13.5315 89.9157 13.6576C89.9341 13.7843 89.95 13.9109 89.9619 14.0378C89.9749 14.1649 89.9843 14.292 89.9906 14.4196C89.9968 14.5473 90 14.6749 90 14.8025V65.1976C90 65.325 89.9968 65.4524 89.9906 65.58C89.9843 65.7074 89.9749 65.8348 89.9619 65.9621C89.95 66.089 89.9343 66.2159 89.9157 66.342C89.8968 66.4681 89.8751 66.5943 89.8495 66.7194C89.8249 66.8448 89.797 66.9692 89.7659 67.0933C89.7348 67.217 89.7005 67.3401 89.6639 67.4622C89.6271 67.5841 89.5863 67.7053 89.5435 67.8257C89.501 67.9461 89.4547 68.0647 89.4057 68.1834C89.3572 68.3013 89.3052 68.418 89.2505 68.5334C89.196 68.6489 89.139 68.7628 89.0788 68.875C89.0186 68.988 88.9557 69.0989 88.8897 69.2086C88.8243 69.3176 88.7559 69.426 88.685 69.532C88.6141 69.638 88.5404 69.7427 88.4643 69.8455C88.3882 69.948 88.3096 70.0482 88.229 70.1473C88.1479 70.246 88.0643 70.3426 87.9787 70.4371C87.8928 70.5316 87.8048 70.6241 87.7147 70.7147C87.6241 70.8045 87.5316 70.8928 87.4371 70.9787C87.3426 71.0643 87.246 71.1478 87.1473 71.229C87.0485 71.3096 86.948 71.3884 86.8455 71.4643C86.7427 71.5404 86.638 71.6141 86.532 71.685C86.426 71.7559 86.3178 71.8246 86.2086 71.8897C86.0992 71.9556 85.9879 72.0186 85.875 72.0788C85.7628 72.139 85.6489 72.1962 85.5334 72.2505C85.418 72.3052 85.3011 72.3572 85.1834 72.4057C85.0648 72.4545 84.9464 72.501 84.8257 72.5435C84.7053 72.5865 84.5841 72.6271 84.4622 72.6639C84.3401 72.7005 84.217 72.7348 84.0933 72.7659C83.9692 72.797 83.8448 72.8249 83.7194 72.8495C83.5943 72.8751 83.4681 72.8965 83.342 72.9157C83.2156 72.9341 83.0887 72.95 82.9621 72.9619C82.8348 72.9749 82.7074 72.9843 82.58 72.9906C82.4524 72.9968 82.325 73 82.1976 73H31.8025C31.6749 73 31.5473 72.9968 31.4196 72.9906C31.292 72.9843 31.1649 72.9749 31.0378 72.9619C30.9106 72.95 30.784 72.9343 30.6576 72.9157C30.5315 72.8968 30.4056 72.8751 30.2803 72.8495C30.1551 72.8249 30.0305 72.797 29.9066 72.7659C29.7829 72.7348 29.6601 72.7005 29.5377 72.6639C29.4155 72.6271 29.2941 72.5863 29.174 72.5435C29.0538 72.501 28.9349 72.4547 28.8165 72.4057C28.6986 72.3572 28.5821 72.3052 28.4667 72.2505C28.3513 72.196 28.2371 72.139 28.1247 72.0788C28.012 72.0186 27.9013 71.9557 27.7913 71.8897C27.6821 71.8243 27.5738 71.7559 27.4679 71.685C27.3616 71.6141 27.2569 71.5404 27.1547 71.4643C27.0519 71.3882 26.9514 71.3096 26.8527 71.229C26.7539 71.1479 26.6571 71.0643 26.5626 70.9787C26.4681 70.8928 26.3755 70.8048 26.2852 70.7147C26.1952 70.6241 26.1071 70.5316 26.021 70.4371C25.9354 70.3426 25.8521 70.246 25.771 70.1473C25.6902 70.0485 25.6113 69.948 25.5354 69.8455C25.4593 69.7427 25.3857 69.638 25.315 69.532C25.2441 69.426 25.1754 69.3178 25.11 69.2086C25.0443 69.0992 24.9814 68.9879 24.9212 68.875C24.8612 68.7628 24.8035 68.6489 24.7493 68.5334C24.6946 68.418 24.6431 68.3011 24.5938 68.1834C24.5451 68.0648 24.499 67.9464 24.4563 67.8257C24.4132 67.7053 24.3732 67.5841 24.3364 67.4622C24.2993 67.3401 24.265 67.217 24.2341 67.0933C24.203 66.9692 24.1749 66.8448 24.15 66.7194C24.1249 66.5943 24.1035 66.4681 24.0843 66.342C24.0657 66.2156 24.05 66.0887 24.0378 65.9621C24.0249 65.8348 24.0154 65.7074 24.0095 65.58C24.0032 65.4524 24 65.325 24 65.1976V14.8023C24 14.6747 24.0032 14.547 24.0095 14.4194C24.0154 14.2918 24.0251 14.1647 24.0378 14.0375C24.05 13.9104 24.0655 13.7838 24.0843 13.6574C24.1035 13.5313 24.1249 13.4054 24.15 13.28C24.1749 13.1549 24.203 13.0302 24.2341 12.9064C24.265 12.7827 24.2993 12.6598 24.3364 12.5375C24.3732 12.4153 24.4135 12.2942 24.4563 12.1738C24.4991 12.0536 24.5448 11.9347 24.5938 11.8163C24.6431 11.6983 24.6946 11.5819 24.7493 11.4665C24.8038 11.3511 24.8612 11.2369 24.9212 11.1244C24.9814 11.0117 25.0444 10.901 25.11 10.7911C25.1757 10.6819 25.2441 10.5736 25.315 10.4677C25.3856 10.3614 25.4593 10.257 25.5354 10.1545C25.6115 10.0517 25.6902 9.95124 25.771 9.85247C25.8521 9.75371 25.9354 9.65694 26.021 9.5624C26.1071 9.46786 26.1949 9.37531 26.2852 9.28502C26.3755 9.19496 26.4681 9.10692 26.5626 9.02082C26.6571 8.93523 26.7539 8.8519 26.8527 8.77079C26.9512 8.68995 27.0519 8.61109 27.1547 8.53522C27.2569 8.45909 27.3616 8.38547 27.4679 8.3148C27.5738 8.24391 27.6818 8.17524 27.7913 8.10981C27.901 8.04413 28.012 7.9812 28.1247 7.921C28.2371 7.86104 28.3513 7.80335 28.4667 7.7491C28.5821 7.69436 28.6988 7.64287 28.8165 7.59363C28.9349 7.54486 29.0535 7.49883 29.174 7.45606C29.2941 7.41302 29.4155 7.37298 29.5377 7.33615C29.6601 7.2991 29.7829 7.26476 29.9066 7.23392C30.0305 7.20284 30.1551 7.17472 30.2803 7.14983C30.4056 7.12471 30.5315 7.10332 30.6576 7.08415C30.7843 7.06551 30.9109 7.04983 31.0378 7.03763C31.1649 7.02469 31.292 7.01523 31.4196 7.00926C31.5473 7.00298 31.6749 7 31.8025 7Z" fill="#3395C3"/>
<path d="M73.2642 20.4307C74.684 22.7714 75.3213 25.185 75.3213 28.2329C75.3213 37.9537 67.0238 50.5782 60.2895 59.4419H44.9118L38.7452 22.5604L52.2148 21.2815L55.4909 47.5235C58.5351 42.5587 62.2988 34.7562 62.2988 29.4404C62.2988 26.5278 61.8005 24.5481 61.0199 22.9171L73.2642 20.4307Z" fill="white"/>
</svg>
