<svg width="115" height="80" viewBox="0 0 115 80" fill="none" xmlns="http://www.w3.org/2000/svg">
<circle cx="20" cy="41" r="20" fill="#EE312A"/>
<path d="M41.7843 27.6914L41.986 27.8931L41.7843 27.6914ZM11.3331 28.6997L11.5348 28.9014L11.3331 28.6997Z" fill="#AB0101"/>
<path d="M6.7621 30.0454C6.75091 30.0566 6.7397 30.2695 6.82934 30.1798C6.84053 30.1686 6.85174 29.9558 6.7621 30.0454Z" fill="#F79A96"/>
<path d="M19.3997 29.9082L19.6013 30.1099L19.3997 29.9082Z" fill="#F47975"/>
<path d="M28.4746 29.9082L28.6763 30.1099L28.4746 29.9082Z" fill="#F36863"/>
<path d="M6.89648 30.1104C7.30925 32.5091 8.57618 34.9146 9.47782 37.1686C11.2732 41.6568 13.1556 46.1531 15.3166 50.4784C16.0829 52.0122 16.7642 53.5836 17.5349 55.1166C17.8367 55.717 18.1044 56.468 18.8158 56.6658C19.8791 56.9615 21.3247 56.7497 22.4244 56.7289C22.8777 56.7205 23.3472 56.7243 23.7078 56.4067C24.2726 55.9086 24.5642 54.97 24.8943 54.31C25.6282 52.8423 26.2909 51.3445 27.0136 49.8734C29.1136 45.5995 30.9814 41.186 32.7497 36.7653C33.5935 34.6556 34.7918 32.3639 35.1294 30.1104H30.6928C30.1063 30.1104 29.2765 29.9749 28.7606 30.3176C28.2575 30.652 28.1173 31.3911 27.9366 31.9253C27.546 33.0794 27.0951 34.2122 26.6696 35.3536C25.5068 38.4727 24.2337 41.5437 22.989 44.6301C22.3959 46.1015 21.6337 47.5343 21.2146 49.0667H20.8113C20.3521 47.1334 19.3409 45.2472 18.5628 43.4202C16.7554 39.1767 14.5927 34.6094 13.5514 30.1104H6.89648Z" fill="#FEFEFE"/>
<path d="M37.5494 30.1113L37.7511 30.313L37.5494 30.1113Z" fill="#AB0101"/>
<path d="M35.1295 30.3105L35.3312 30.5122L35.1295 30.3105Z" fill="#F36A65"/>
<path d="M19.6014 30.5137L19.8031 30.7153L19.6014 30.5137Z" fill="#F79A97"/>
<path d="M28.2728 30.5137L28.4745 30.7153L28.2728 30.5137Z" fill="#F5817D"/>
<path d="M6.89648 30.7168L7.09815 30.9185L6.89648 30.7168Z" fill="#F58B87"/>
<path d="M34.9279 30.7168L35.1295 30.9185L34.9279 30.7168Z" fill="#F7A3A0"/>
<path d="M13.1481 31.1191L13.3497 31.3208L13.1481 31.1191Z" fill="#FAC4C2"/>
<path d="M19.803 31.1191L20.0046 31.3208L19.803 31.1191Z" fill="#F8A9A6"/>
<path d="M28.0713 31.1191L28.273 31.3208L28.0713 31.1191Z" fill="#F6908C"/>
<path d="M38.1544 31.1191L38.3561 31.3208L38.1544 31.1191Z" fill="#AB0101"/>
<path d="M13.1481 31.3223L13.3497 31.5239L13.1481 31.3223Z" fill="#F47873"/>
<path d="M34.7261 31.3223L34.9277 31.5239L34.7261 31.3223Z" fill="#F6918D"/>
<path d="M3.46826 31.5215L3.66993 31.7231L3.46826 31.5215Z" fill="#010101"/>
<path d="M20.0048 31.5215L20.2064 31.7231L20.0048 31.5215Z" fill="#F36F6A"/>
<path d="M13.3497 31.7246L13.5514 31.9263L13.3497 31.7246Z" fill="#F8AFAC"/>
<path d="M20.0048 31.7246L20.2064 31.9263L20.0048 31.7246Z" fill="#F9B9B7"/>
<path d="M27.8696 31.7246L28.0713 31.9263L27.8696 31.7246Z" fill="#F7A19E"/>
<path d="M34.5244 31.7246L34.7261 31.9263L34.5244 31.7246Z" fill="#FAC7C5"/>
<path d="M3.2666 31.9277L3.46827 32.1294L3.2666 31.9277Z" fill="#800101"/>
<path d="M34.5244 31.9277L34.7261 32.1294L34.5244 31.9277Z" fill="#F47B76"/>
<path d="M20.2064 32.127L20.4081 32.3286L20.2064 32.127Z" fill="#F5817C"/>
<path d="M27.668 32.127L27.8696 32.3286L27.668 32.127Z" fill="#F36863"/>
<path d="M13.5515 32.3301L13.7532 32.5317L13.5515 32.3301Z" fill="#F69692"/>
<path d="M27.668 32.3301L27.8696 32.5317L27.668 32.3301Z" fill="#F9B3B0"/>
<path d="M34.3228 32.3301L34.5244 32.5317L34.3228 32.3301Z" fill="#F8AFAC"/>
<path d="M13.7532 32.7324L13.9548 32.9341L13.7532 32.7324Z" fill="#FAC8C7"/>
<path d="M20.408 32.7324L20.6096 32.9341L20.408 32.7324Z" fill="#F69591"/>
<path d="M27.4663 32.7324L27.668 32.9341L27.4663 32.7324Z" fill="#F47D78"/>
<path d="M38.9611 32.7324L39.1627 32.9341L38.9611 32.7324Z" fill="#010101"/>
<path d="M13.7532 32.9336L13.9548 33.1353L13.7532 32.9336Z" fill="#F47B76"/>
<path d="M27.4663 32.9336L27.668 33.1353L27.4663 32.9336Z" fill="#FAC8C7"/>
<path d="M34.1211 32.9336L34.3228 33.1353L34.1211 32.9336Z" fill="#F69490"/>
<path d="M13.9548 33.3359L14.1565 33.5376L13.9548 33.3359Z" fill="#F8ACA9"/>
<path d="M20.6097 33.3359L20.8114 33.5376L20.6097 33.3359Z" fill="#F8ABA8"/>
<path d="M27.2645 33.3359L27.4662 33.5376L27.2645 33.3359Z" fill="#F6928F"/>
<path d="M33.9196 33.3359L34.1212 33.5376L33.9196 33.3359Z" fill="#FAC4C2"/>
<path d="M33.9196 33.5391L34.1212 33.7407L33.9196 33.5391Z" fill="#F47571"/>
<path d="M20.8113 33.7422L21.0129 33.9439L20.8113 33.7422Z" fill="#F47671"/>
<path d="M39.3645 33.7422L39.5662 33.9439L39.3645 33.7422Z" fill="#AB0101"/>
<path d="M14.1565 33.9414L14.3582 34.1431L14.1565 33.9414Z" fill="#F68D89"/>
<path d="M20.8113 33.9414L21.0129 34.1431L20.8113 33.9414Z" fill="#FAC2C0"/>
<path d="M27.063 33.9414L27.2647 34.1431L27.063 33.9414Z" fill="#F8AAA7"/>
<path d="M33.7178 33.9414L33.9194 34.1431L33.7178 33.9414Z" fill="#F8A6A3"/>
<path d="M14.358 34.3477L14.5597 34.5493L14.358 34.3477Z" fill="#F9BCBA"/>
<path d="M21.0131 34.3477L21.2147 34.5493L21.0131 34.3477Z" fill="#F68E8A"/>
<path d="M26.8613 34.3477L27.063 34.5493L26.8613 34.3477Z" fill="#F47470"/>
<path d="M14.358 34.5469L14.5597 34.7485L14.358 34.5469Z" fill="#F36C67"/>
<path d="M26.8613 34.5469L27.063 34.7485L26.8613 34.5469Z" fill="#FAC1BF"/>
<path d="M33.5162 34.5469L33.7179 34.7485L33.5162 34.5469Z" fill="#F58580"/>
<path d="M14.5598 34.9531L14.7615 35.1548L14.5598 34.9531Z" fill="#F69894"/>
<path d="M21.2147 34.9531L21.4164 35.1548L21.2147 34.9531Z" fill="#F8A7A4"/>
<path d="M32.7095 34.9531L32.9111 35.1548L32.7095 34.9531Z" fill="#F68E8A"/>
<path d="M33.3145 34.9531L33.5161 35.1548L33.3145 34.9531Z" fill="#F8B1AE"/>
<path d="M14.7615 35.3555L14.9631 35.5571L14.7615 35.3555Z" fill="#FAC4C2"/>
<path d="M21.4163 35.3555L21.6179 35.5571L21.4163 35.3555Z" fill="#F47470"/>
<path d="M14.7615 35.5547L14.9631 35.7564L14.7615 35.5547Z" fill="#F4736E"/>
<path d="M21.4163 35.5547L21.6179 35.7564L21.4163 35.5547Z" fill="#FAC2C0"/>
<path d="M32.5078 35.5547L32.7095 35.7564L32.5078 35.5547Z" fill="#F8AAA7"/>
<path d="M33.1128 35.5547L33.3145 35.7564L33.1128 35.5547Z" fill="#F68C88"/>
<path d="M14.9631 35.957L15.1648 36.1587L14.9631 35.957Z" fill="#F79E9B"/>
<path d="M21.618 35.957L21.8197 36.1587L21.618 35.957Z" fill="#F6918D"/>
<path d="M32.3062 35.957L32.5078 36.1587L32.3062 35.957Z" fill="#F47873"/>
<path d="M32.9111 35.957L33.1128 36.1587L32.9111 35.957Z" fill="#F9B7B5"/>
<path d="M32.3062 36.1602L32.5078 36.3618L32.3062 36.1602Z" fill="#FAC6C4"/>
<path d="M32.9111 36.1602L33.1128 36.3618L32.9111 36.1602Z" fill="#F2645F"/>
<path d="M15.1648 36.3613L15.3665 36.563L15.1648 36.3613Z" fill="#FAC7C5"/>
<path d="M1.65344 36.5625L1.85511 36.7642L1.65344 36.5625Z" fill="#010101"/>
<path d="M15.1648 36.5625L15.3665 36.7642L15.1648 36.5625Z" fill="#F4746F"/>
<path d="M21.8196 36.5625L22.0212 36.7642L21.8196 36.5625Z" fill="#F8AFAC"/>
<path d="M32.1045 36.5625L32.3062 36.7642L32.1045 36.5625Z" fill="#F69692"/>
<path d="M32.7095 36.5625L32.9111 36.7642L32.7095 36.5625Z" fill="#F68D89"/>
<path d="M15.3665 36.9668L15.5681 37.1685L15.3665 36.9668Z" fill="#F79C99"/>
<path d="M22.0214 36.9668L22.223 37.1685L22.0214 36.9668Z" fill="#F47D79"/>
<path d="M31.903 36.9668L32.1046 37.1685L31.903 36.9668Z" fill="#F36560"/>
<path d="M32.5078 36.9668L32.7095 37.1685L32.5078 36.9668Z" fill="#F9B4B2"/>
<path d="M39.566 36.9668L39.7677 37.1685L39.566 36.9668Z" fill="#4F3C52"/>
<path d="M31.903 37.168L32.1046 37.3696L31.903 37.168Z" fill="#F9B4B2"/>
<path d="M39.1627 37.168L39.3644 37.3696L39.1627 37.168Z" fill="#8C3842"/>
<path d="M15.5681 37.3711L15.7698 37.5728L15.5681 37.3711Z" fill="#FAC4C2"/>
<path d="M15.5681 37.5723L15.7698 37.7739L15.5681 37.5723Z" fill="#F3706C"/>
<path d="M22.2229 37.5723L22.4246 37.7739L22.2229 37.5723Z" fill="#F79E9B"/>
<path d="M31.7012 37.5723L31.9028 37.7739L31.7012 37.5723Z" fill="#F58682"/>
<path d="M32.3062 37.5723L32.5078 37.7739L32.3062 37.5723Z" fill="#F58985"/>
<path d="M38.3562 37.7734L38.5579 37.9751L38.3562 37.7734Z" fill="#893843"/>
<path d="M15.7698 37.9766L15.9714 38.1782L15.7698 37.9766Z" fill="#F69692"/>
<path d="M22.4246 37.9766L22.6262 38.1782L22.4246 37.9766Z" fill="#F3706C"/>
<path d="M32.1045 37.9766L32.3062 38.1782L32.1045 37.9766Z" fill="#F8AFAC"/>
<path d="M38.1544 37.9766L38.3561 38.1782L38.1544 37.9766Z" fill="#6A3A4B"/>
<path d="M22.4246 38.1777L22.6262 38.3794L22.4246 38.1777Z" fill="#FAC0BE"/>
<path d="M31.4995 38.1777L31.7012 38.3794L31.4995 38.1777Z" fill="#F8A8A5"/>
<path d="M37.9528 38.1777L38.1544 38.3794L37.9528 38.1777Z" fill="#593B4F"/>
<path d="M15.9714 38.3789L16.1731 38.5806L15.9714 38.3789Z" fill="#F9BAB8"/>
<path d="M37.751 38.3789L37.9526 38.5806L37.751 38.3789Z" fill="#553C50"/>
<path d="M15.9714 38.5801L16.1731 38.7817L15.9714 38.5801Z" fill="#F36560"/>
<path d="M22.6263 38.5801L22.828 38.7817L22.6263 38.5801Z" fill="#F6938F"/>
<path d="M31.2977 38.5801L31.4994 38.7817L31.2977 38.5801Z" fill="#F47A76"/>
<path d="M31.903 38.5801L32.1046 38.7817L31.903 38.5801Z" fill="#F47D79"/>
<path d="M37.5494 38.5801L37.7511 38.7817L37.5494 38.5801Z" fill="#623B4D"/>
<path d="M31.2977 38.7832L31.4994 38.9849L31.2977 38.7832Z" fill="#FACBC9"/>
<path d="M37.3477 38.7832L37.5493 38.9849L37.3477 38.7832Z" fill="#7A3947"/>
<path d="M16.1731 38.9824L16.3748 39.1841L16.1731 38.9824Z" fill="#F58985"/>
<path d="M22.8281 38.9824L23.0298 39.1841L22.8281 38.9824Z" fill="#F36762"/>
<path d="M31.7012 38.9824L31.9028 39.1841L31.7012 38.9824Z" fill="#F7A29F"/>
<path d="M37.1461 38.9824L37.3478 39.1841L37.1461 38.9824Z" fill="#A3363D"/>
<path d="M22.8281 39.1855L23.0298 39.3872L22.8281 39.1855Z" fill="#F9B7B5"/>
<path d="M31.0962 39.1855L31.2979 39.3872L31.0962 39.1855Z" fill="#F79F9C"/>
<path d="M16.3748 39.3867L16.5764 39.5884L16.3748 39.3867Z" fill="#F8ADAA"/>
<path d="M31.4995 39.3867L31.7012 39.5884L31.4995 39.3867Z" fill="#FAC5C3"/>
<path d="M23.0297 39.5879L23.2313 39.7896L23.0297 39.5879Z" fill="#F68C88"/>
<path d="M30.8945 39.5879L31.0962 39.7896L30.8945 39.5879Z" fill="#F4746F"/>
<path d="M31.4995 39.5879L31.7012 39.7896L31.4995 39.5879Z" fill="#F3706C"/>
<path d="M36.7429 39.5879L36.9446 39.7896L36.7429 39.5879Z" fill="#693A4B"/>
<path d="M1.25 39.791L1.45166 39.9927L1.25 39.791Z" fill="#010101"/>
<path d="M30.8945 39.791L31.0962 39.9927L30.8945 39.791Z" fill="#FAC4C2"/>
<path d="M16.5764 39.9941L16.7781 40.1958L16.5764 39.9941Z" fill="#F47873"/>
<path d="M31.2977 39.9941L31.4994 40.1958L31.2977 39.9941Z" fill="#F6918D"/>
<path d="M23.2313 40.1934L23.433 40.395L23.2313 40.1934Z" fill="#F9B2AF"/>
<path d="M30.6929 40.1934L30.8945 40.395L30.6929 40.1934Z" fill="#F79995"/>
<path d="M36.3394 40.1934L36.541 40.395L36.3394 40.1934Z" fill="#853844"/>
<path d="M16.7781 40.3965L16.9797 40.5981L16.7781 40.3965Z" fill="#F69894"/>
<path d="M31.0962 40.3965L31.2979 40.5981L31.0962 40.3965Z" fill="#F8B0AE"/>
<path d="M42.3894 40.3965L42.5911 40.5981L42.3894 40.3965Z" fill="#000101"/>
<path d="M23.4329 40.5977L23.6345 40.7993L23.4329 40.5977Z" fill="#F58985"/>
<path d="M30.4912 40.5977L30.6929 40.7993L30.4912 40.5977Z" fill="#F3706C"/>
<path d="M36.1377 40.5977L36.3394 40.7993L36.1377 40.5977Z" fill="#6F3A4A"/>
<path d="M16.9799 40.7988L17.1815 41.0005L16.9799 40.7988Z" fill="#F9B7B5"/>
<path d="M30.4912 40.7988L30.6929 41.0005L30.4912 40.7988Z" fill="#FAC3C1"/>
<path d="M30.8945 41.002L31.0962 41.2036L30.8945 41.002Z" fill="#F47975"/>
<path d="M35.9362 41.002L36.1378 41.2036L35.9362 41.002Z" fill="#753948"/>
<path d="M23.6346 41.2031L23.8363 41.4048L23.6346 41.2031Z" fill="#F9B3B0"/>
<path d="M30.2896 41.2031L30.4912 41.4048L30.2896 41.2031Z" fill="#F79A97"/>
<path d="M17.1814 41.4043L17.3831 41.606L17.1814 41.4043Z" fill="#F5817C"/>
<path d="M30.6929 41.4043L30.8945 41.606L30.6929 41.4043Z" fill="#F79A96"/>
<path d="M35.7344 41.4043L35.936 41.606L35.7344 41.4043Z" fill="#943740"/>
<path d="M1.25 41.6055L1.45166 41.8071L1.25 41.6055Z" fill="#010101"/>
<path d="M23.8362 41.6055L24.0378 41.8071L23.8362 41.6055Z" fill="#F58A86"/>
<path d="M30.0879 41.6055L30.2896 41.8071L30.0879 41.6055Z" fill="#F4726D"/>
<path d="M17.3831 41.8086L17.5847 42.0103L17.3831 41.8086Z" fill="#F79E9B"/>
<path d="M30.0879 41.8086L30.2896 42.0103L30.0879 41.8086Z" fill="#FAC4C2"/>
<path d="M30.4912 41.8086L30.6929 42.0103L30.4912 41.8086Z" fill="#F9B7B5"/>
<path d="M35.5328 42.0078L35.7345 42.2095L35.5328 42.0078Z" fill="#773948"/>
<path d="M17.5847 42.2109L17.7864 42.4126L17.5847 42.2109Z" fill="#F9BAB8"/>
<path d="M24.038 42.2109L24.2396 42.4126L24.038 42.2109Z" fill="#F9B7B4"/>
<path d="M29.8862 42.2109L30.0879 42.4126L29.8862 42.2109Z" fill="#F79E9A"/>
<path d="M30.2896 42.4141L30.4912 42.6157L30.2896 42.4141Z" fill="#F47975"/>
<path d="M24.2396 42.6133L24.4413 42.8149L24.2396 42.6133Z" fill="#F6918D"/>
<path d="M29.6846 42.6133L29.8862 42.8149L29.6846 42.6133Z" fill="#F47974"/>
<path d="M17.7864 42.8164L17.988 43.0181L17.7864 42.8164Z" fill="#F47C77"/>
<path d="M30.0879 42.8164L30.2896 43.0181L30.0879 42.8164Z" fill="#F69490"/>
<path d="M24.4414 43.0195L24.6431 43.2212L24.4414 43.0195Z" fill="#F36B66"/>
<path d="M17.9882 43.2188L18.1898 43.4204L17.9882 43.2188Z" fill="#F69693"/>
<path d="M24.4414 43.2188L24.6431 43.4204L24.4414 43.2188Z" fill="#FABFBD"/>
<path d="M29.4829 43.2188L29.6846 43.4204L29.4829 43.2188Z" fill="#F8A7A4"/>
<path d="M29.8862 43.2188L30.0879 43.4204L29.8862 43.2188Z" fill="#F8AFAD"/>
<path d="M18.1897 43.6211L18.3914 43.8228L18.1897 43.6211Z" fill="#F9B2AF"/>
<path d="M24.6429 43.6211L24.8446 43.8228L24.6429 43.6211Z" fill="#F79A96"/>
<path d="M29.2812 43.6211L29.4829 43.8228L29.2812 43.6211Z" fill="#F5817C"/>
<path d="M29.6846 43.6211L29.8862 43.8228L29.6846 43.6211Z" fill="#FACAC8"/>
<path d="M29.6846 43.8242L29.8862 44.0259L29.6846 43.8242Z" fill="#F3706C"/>
<path d="M18.3914 44.0234L18.593 44.2251L18.3914 44.0234Z" fill="#FACBC9"/>
<path d="M24.8447 44.0234L25.0464 44.2251L24.8447 44.0234Z" fill="#F47772"/>
<path d="M18.3914 44.2266L18.593 44.4282L18.3914 44.2266Z" fill="#F36F6A"/>
<path d="M29.0796 44.2266L29.2813 44.4282L29.0796 44.2266Z" fill="#F9B4B2"/>
<path d="M29.4829 44.2266L29.6846 44.4282L29.4829 44.2266Z" fill="#F58884"/>
<path d="M18.5931 44.6289L18.7948 44.8306L18.5931 44.6289Z" fill="#F58580"/>
<path d="M25.0463 44.6289L25.2479 44.8306L25.0463 44.6289Z" fill="#F8ABA8"/>
<path d="M28.8779 44.6289L29.0796 44.8306L28.8779 44.6289Z" fill="#F6928F"/>
<path d="M29.2812 44.6289L29.4829 44.8306L29.2812 44.6289Z" fill="#F79E9A"/>
<path d="M18.7947 45.0332L18.9963 45.2349L18.7947 45.0332Z" fill="#F79B98"/>
<path d="M25.2479 45.0332L25.4496 45.2349L25.2479 45.0332Z" fill="#F58985"/>
<path d="M28.6763 45.0332L28.8779 45.2349L28.6763 45.0332Z" fill="#F3706B"/>
<path d="M29.0796 45.0332L29.2813 45.2349L29.0796 45.0332Z" fill="#F9B4B2"/>
<path d="M28.6763 45.2344L28.8779 45.436L28.6763 45.2344Z" fill="#FAC6C4"/>
<path d="M18.9965 45.4375L19.1981 45.6392L18.9965 45.4375Z" fill="#F8B1AE"/>
<path d="M25.4495 45.4375L25.6511 45.6392L25.4495 45.4375Z" fill="#F36762"/>
<path d="M28.8779 45.4375L29.0796 45.6392L28.8779 45.4375Z" fill="#FACAC8"/>
<path d="M25.4495 45.6387L25.6511 45.8403L25.4495 45.6387Z" fill="#F9BEBC"/>
<path d="M28.4746 45.6387L28.6763 45.8403L28.4746 45.6387Z" fill="#F8A6A3"/>
<path d="M28.8779 45.6387L29.0796 45.8403L28.8779 45.6387Z" fill="#F36E69"/>
<path d="M19.198 45.8398L19.3997 46.0415L19.198 45.8398Z" fill="#FAC8C6"/>
<path d="M19.198 46.043L19.3997 46.2446L19.198 46.043Z" fill="#F36C67"/>
<path d="M25.6512 46.043L25.8529 46.2446L25.6512 46.043Z" fill="#F7A09D"/>
<path d="M28.2728 46.043L28.4745 46.2446L28.2728 46.043Z" fill="#F58783"/>
<path d="M28.6763 46.043L28.8779 46.2446L28.6763 46.043Z" fill="#F58580"/>
<path d="M19.3997 46.4453L19.6013 46.647L19.3997 46.4453Z" fill="#F57F7B"/>
<path d="M25.853 46.4453L26.0547 46.647L25.853 46.4453Z" fill="#F5817D"/>
<path d="M28.0713 46.4453L28.273 46.647L28.0713 46.4453Z" fill="#F36863"/>
<path d="M28.4746 46.4453L28.6763 46.647L28.4746 46.4453Z" fill="#F69794"/>
<path d="M28.0713 46.6465L28.273 46.8481L28.0713 46.6465Z" fill="#FAC0BE"/>
<path d="M19.6014 46.8496L19.8031 47.0513L19.6014 46.8496Z" fill="#F6908C"/>
<path d="M28.2728 46.8496L28.4745 47.0513L28.2728 46.8496Z" fill="#F8A9A6"/>
<path d="M26.0547 47.0488L26.2564 47.2505L26.0547 47.0488Z" fill="#F9BBB8"/>
<path d="M27.8696 47.0488L28.0713 47.2505L27.8696 47.0488Z" fill="#F7A29F"/>
<path d="M19.803 47.252L20.0046 47.4536L19.803 47.252Z" fill="#F7A19E"/>
<path d="M28.0713 47.252L28.273 47.4536L28.0713 47.252Z" fill="#F9BAB8"/>
<path d="M26.2562 47.4531L26.4579 47.6548L26.2562 47.4531Z" fill="#F79E9B"/>
<path d="M27.668 47.4531L27.8696 47.6548L27.668 47.4531Z" fill="#F58581"/>
<path d="M20.0048 47.6543L20.2064 47.856L20.0048 47.6543Z" fill="#F9B2AF"/>
<path d="M27.8696 47.6543L28.0713 47.856L27.8696 47.6543Z" fill="#FACBC9"/>
<path d="M26.458 47.8574L26.6597 48.0591L26.458 47.8574Z" fill="#F58480"/>
<path d="M27.4663 47.8574L27.668 48.0591L27.4663 47.8574Z" fill="#F36B66"/>
<path d="M27.8696 47.8574L28.0713 48.0591L27.8696 47.8574Z" fill="#F36C67"/>
<path d="M20.2064 48.0586L20.4081 48.2603L20.2064 48.0586Z" fill="#FAC3C1"/>
<path d="M27.4663 48.0586L27.668 48.2603L27.4663 48.0586Z" fill="#FAC5C3"/>
<path d="M20.2064 48.2598L20.4081 48.4614L20.2064 48.2598Z" fill="#F2645F"/>
<path d="M26.6595 48.2598L26.8612 48.4614L26.6595 48.2598Z" fill="#F36964"/>
<path d="M27.668 48.2598L27.8696 48.4614L27.668 48.2598Z" fill="#F47D79"/>
<path d="M26.6595 48.4629L26.8612 48.6646L26.6595 48.4629Z" fill="#FAC3C1"/>
<path d="M27.2645 48.4629L27.4662 48.6646L27.2645 48.4629Z" fill="#F8ABA8"/>
<path d="M20.408 48.6641L20.6096 48.8657L20.408 48.6641Z" fill="#F47571"/>
<path d="M27.4663 48.6641L27.668 48.8657L27.4663 48.6641Z" fill="#F68E8A"/>
<path d="M26.9957 48.9312C26.9061 49.021 27.119 49.0097 27.1302 48.9986C27.2198 48.9089 27.0069 48.9201 26.9957 48.9312Z" fill="#F6908C"/>
<path d="M20.6097 49.0684L20.8114 49.27L20.6097 49.0684Z" fill="#F5817D"/>
<path d="M27.2645 49.0684L27.4662 49.27L27.2645 49.0684Z" fill="#F79A97"/>
<path d="M3.2666 49.4707L3.46827 49.6724L3.2666 49.4707Z" fill="#010101"/>
<path d="M20.8113 49.4707L21.0129 49.6724L20.8113 49.4707Z" fill="#F68E8A"/>
<path d="M27.063 49.4707L27.2647 49.6724L27.063 49.4707Z" fill="#F8A6A3"/>
<path d="M35.3983 49.8072C35.3872 49.8183 35.3759 50.0312 35.4656 49.9415C35.4767 49.9304 35.488 49.7174 35.3983 49.8072Z" fill="#853844"/>
<path d="M21.0131 49.875L21.2147 50.0767L21.0131 49.875Z" fill="#F79995"/>
<path d="M26.8613 49.875L27.063 50.0767L26.8613 49.875Z" fill="#F9B2AF"/>
<path d="M21.2147 50.2773L21.4164 50.479L21.2147 50.2773Z" fill="#F7A4A1"/>
<path d="M32.7095 50.2773L32.9111 50.479L32.7095 50.2773Z" fill="#F9BDBB"/>
<path d="M35.5328 50.4766L35.7345 50.6782L35.5328 50.4766Z" fill="#653B4C"/>
<path d="M21.4163 50.6797L21.6179 50.8814L21.4163 50.6797Z" fill="#F8B0AE"/>
<path d="M32.5078 50.6797L32.7095 50.8814L32.5078 50.6797Z" fill="#FAC8C7"/>
<path d="M32.5078 50.8828L32.7095 51.0845L32.5078 50.8828Z" fill="#F36862"/>
<path d="M21.618 51.082L21.8197 51.2837L21.618 51.082Z" fill="#F9BCB9"/>
<path d="M35.7344 51.082L35.936 51.2837L35.7344 51.082Z" fill="#723A49"/>
<path d="M42.5911 51.082L42.7927 51.2837L42.5911 51.082Z" fill="#000101"/>
<path d="M32.3062 51.2852L32.5078 51.4868L32.3062 51.2852Z" fill="#F4736E"/>
<path d="M21.8196 51.4883L22.0212 51.6899L21.8196 51.4883Z" fill="#FAC4C2"/>
<path d="M35.9362 51.4883L36.1378 51.6899L35.9362 51.4883Z" fill="#473D54"/>
<path d="M32.1045 51.6875L32.3062 51.8892L32.1045 51.6875Z" fill="#F47974"/>
<path d="M22.0214 51.8906L22.223 52.0923L22.0214 51.8906Z" fill="#FAC9C7"/>
<path d="M22.0214 52.0938L22.223 52.2954L22.0214 52.0938Z" fill="#F36560"/>
<path d="M31.903 52.0938L32.1046 52.2954L31.903 52.0938Z" fill="#F47E7A"/>
<path d="M22.2229 52.4961L22.4246 52.6978L22.2229 52.4961Z" fill="#F36C67"/>
<path d="M31.7012 52.4961L31.9028 52.6978L31.7012 52.4961Z" fill="#F58480"/>
<path d="M5.2832 52.6953L5.48487 52.897L5.2832 52.6953Z" fill="#800101"/>
<path d="M22.4246 52.8984L22.6262 53.1001L22.4246 52.8984Z" fill="#F3716C"/>
<path d="M31.4995 52.8984L31.7012 53.1001L31.4995 52.8984Z" fill="#F58985"/>
<path d="M22.6263 53.3008L22.828 53.5024L22.6263 53.3008Z" fill="#F47772"/>
<path d="M31.2977 53.3008L31.4994 53.5024L31.2977 53.3008Z" fill="#F6908C"/>
<path d="M22.8281 53.7051L23.0298 53.9067L22.8281 53.7051Z" fill="#F47D78"/>
<path d="M31.0962 53.7051L31.2979 53.9067L31.0962 53.7051Z" fill="#F69692"/>
<path d="M35.7344 53.7051L35.936 53.9067L35.7344 53.7051Z" fill="#800101"/>
<path d="M6.29163 53.9062L6.49329 54.1079L6.29163 53.9062Z" fill="#AB0101"/>
<path d="M23.0297 54.1094L23.2313 54.311L23.0297 54.1094Z" fill="#F5807B"/>
<path d="M30.8945 54.1094L31.0962 54.311L30.8945 54.1094Z" fill="#F69894"/>
<path d="M23.2313 54.5117L23.433 54.7134L23.2313 54.5117Z" fill="#F47E7A"/>
<path d="M30.6929 54.5117L30.8945 54.7134L30.6929 54.5117Z" fill="#F69794"/>
<path d="M23.4329 54.916L23.6345 55.1177L23.4329 54.916Z" fill="#F47D79"/>
<path d="M30.4912 54.916L30.6929 55.1177L30.4912 54.916Z" fill="#F69693"/>
<path d="M13.7532 55.3184L13.9548 55.52L13.7532 55.3184Z" fill="#AB0101"/>
<path d="M23.6346 55.3184L23.8363 55.52L23.6346 55.3184Z" fill="#F47D78"/>
<path d="M30.2896 55.3184L30.4912 55.52L30.2896 55.3184Z" fill="#F69692"/>
<path d="M33.9196 55.5215L34.1212 55.7231L33.9196 55.5215Z" fill="#800101"/>
<path d="M23.8362 55.7207L24.0378 55.9224L23.8362 55.7207Z" fill="#F47C77"/>
<path d="M30.0879 55.7207L30.2896 55.9224L30.0879 55.7207Z" fill="#F69591"/>
<path d="M24.038 56.125L24.2396 56.3267L24.038 56.125Z" fill="#F47B76"/>
<path d="M29.8862 56.125L30.0879 56.3267L29.8862 56.125Z" fill="#F69490"/>
<path d="M14.9631 56.3262L15.1648 56.5278L14.9631 56.3262Z" fill="#800101"/>
<path d="M24.2396 56.5293L24.4413 56.731L24.2396 56.5293Z" fill="#F47A76"/>
<path d="M29.6846 56.5293L29.8862 56.731L29.6846 56.5293Z" fill="#F6928F"/>
<path d="M41.1793 56.5293L41.381 56.731L41.1793 56.5293Z" fill="#000101"/>
<path fill-rule="evenodd" clip-rule="evenodd" d="M52.6742 51.284C52.7069 52.8634 52.9124 54.5875 53.2792 56.1239C53.234 56.1466 53.1886 56.1688 53.1429 56.1904C52.0529 56.7058 50.8344 56.9162 49.6493 57.1159C47.2269 57.5241 44.4182 57.582 41.9218 56.8678C40.6141 56.4937 39.3922 55.9077 38.3563 55.0493C34.412 51.7807 34.0445 44.1651 36.6355 39.9908C39.6591 35.1194 47.8357 33.6764 51.7024 38.3855C52.4007 39.2359 52.8759 40.1565 53.1992 41.1216C53.2632 41.3128 53.3212 41.5056 53.3739 41.7001C53.5289 42.2723 53.637 42.8578 53.7124 43.4517C53.8876 44.8317 53.8861 46.2565 53.8845 47.6622V47.6622V47.6622L53.8842 48.0574H40.7761C41.1339 50.0636 42.3101 51.1775 43.8446 51.7311C46.1255 52.5539 49.1983 52.1387 51.552 51.576C51.8313 51.5093 52.1004 51.4404 52.3569 51.3713C52.465 51.3422 52.5708 51.3131 52.6742 51.284ZM48.6409 43.8238H40.5743L40.6065 43.7105C40.902 42.667 41.195 41.6325 42.0233 40.8675C42.397 40.5224 42.8357 40.2676 43.305 40.1032C44.6949 39.6162 46.3533 39.9221 47.3879 41.0216C48.1218 41.8013 48.4271 42.8022 48.6409 43.8238ZM58.1191 56.9328H64.169V45.6396C64.169 45.3938 64.1483 45.0957 64.1259 44.7716C64.0471 43.6351 63.9462 42.1789 64.6364 41.5356C64.9955 41.2009 65.4171 41.0018 65.8727 40.8912C66.7477 40.6787 67.7484 40.7921 68.6745 40.8971C69.0742 40.9424 69.4599 40.9861 69.8156 41.0014C69.9061 40.3002 70.0452 39.6042 70.1842 38.9081L70.1843 38.9081L70.1843 38.908L70.1843 38.908L70.1843 38.9079L70.1843 38.9079L70.1843 38.9078L70.1843 38.9077L70.1843 38.9077L70.1843 38.9076L70.1844 38.9076L70.1844 38.9075L70.1844 38.9075L70.1844 38.9074L70.1844 38.9074L70.1844 38.9073L70.1844 38.9073L70.1844 38.9072L70.1844 38.9072L70.1845 38.9071L70.1845 38.9071L70.1845 38.907L70.1845 38.907L70.1845 38.9069L70.1845 38.9069L70.1845 38.9068L70.1845 38.9068L70.1846 38.9067L70.1846 38.9067L70.1846 38.9066L70.1846 38.9066L70.1846 38.9065L70.1846 38.9065L70.1846 38.9064L70.1846 38.9064C70.3667 37.9955 70.5487 37.0844 70.6222 36.1614C67.9198 35.8125 65.3228 35.5448 62.6697 36.073C62.3973 36.1273 62.1243 36.1899 61.8506 36.2617C61.7496 36.2882 61.6485 36.3159 61.5474 36.3449C60.5556 36.6293 59.121 37.0534 58.4424 37.8815C58.103 38.2957 58.1103 38.8453 58.1172 39.3608V39.361V39.3611V39.3612V39.3614V39.3615V39.3616V39.3618V39.3619V39.362V39.3621V39.3623V39.3624V39.3625V39.3627V39.3628V39.3629V39.363V39.3631V39.3633V39.3634V39.3635V39.3636V39.3637V39.3638V39.3639V39.364V39.3642V39.3643V39.3644V39.3645V39.3646V39.3647V39.3648C58.1182 39.4407 58.1192 39.5159 58.1191 39.5897V43.018V56.9328ZM73.7646 36.0047C73.7249 35.9898 73.6858 35.9743 73.6472 35.9581C74.1097 35.9581 74.6304 35.924 75.1744 35.8884C76.4802 35.8028 77.9202 35.7085 79.0108 36.056C79.172 36.0296 79.3335 35.9976 79.4955 35.959C79.6304 36.3568 79.7603 36.7559 79.8864 37.156C80.2714 38.3781 80.6208 39.6091 80.97 40.8395L80.97 40.8396L80.97 40.8397L80.9701 40.8398L80.9701 40.84C81.4408 42.4984 81.9111 44.1556 82.4679 45.7878C82.8928 47.0334 83.368 48.2645 83.9321 49.4704C84.3555 47.6838 85.0012 45.9325 85.647 44.181C86.1596 42.7908 86.6722 41.4005 87.0738 39.9923C87.1413 39.7555 87.2029 39.4325 87.2712 39.0747L87.2712 39.0747C87.4628 38.0708 87.7068 36.792 88.2808 36.3679C88.6326 36.108 89.1803 36.1311 89.6478 36.1509C89.7658 36.1559 89.8787 36.1607 89.982 36.1606H94.2169C94.0537 36.7358 93.8871 37.3091 93.717 37.8806C93.5173 38.5519 93.3127 39.2208 93.1033 39.8875C92.5932 41.5112 92.0539 43.1216 91.4837 44.721C90.5114 47.4483 89.4491 50.1435 88.2877 52.8179L88.2525 52.8987C88.1616 53.1076 88.0607 53.3749 87.9484 53.672L87.9484 53.672C87.5146 54.8205 86.9122 56.415 86.0717 56.8104C85.5329 57.0637 84.738 57.0112 84.0385 56.9649C83.7829 56.948 83.5401 56.932 83.3271 56.932C83.2017 56.932 83.0665 56.9382 82.9266 56.9446L82.9261 56.9447L82.9261 56.9447H82.926H82.9259H82.9259H82.9258C82.4724 56.9655 81.9699 56.9886 81.5908 56.8104C81.1778 56.6161 80.9589 56.1547 80.7638 55.7436L80.7638 55.7435C80.7273 55.6666 80.6916 55.5915 80.6557 55.5201C80.0251 54.2686 79.4431 52.9768 78.8907 51.6887C77.3844 48.1762 76.3031 44.4994 75.2234 40.8282L75.2234 40.8282L75.2233 40.8281L75.2233 40.828L75.2233 40.828C74.7487 39.2143 74.2745 37.6017 73.7646 36.0047ZM114.171 54.8053L114.171 54.8061L114.171 54.807L114.172 54.8088L114.172 54.8107C114.212 55.084 114.252 55.3571 114.29 55.6298C114.322 55.8623 114.354 56.0946 114.383 56.3265C113.64 56.4798 112.915 56.6278 112.196 56.7614C110.06 57.1584 107.988 57.4274 105.712 57.3269C103.891 57.2464 101.979 56.6448 100.428 55.6826C100.374 55.649 100.32 55.615 100.267 55.5805C99.2112 54.8971 98.3503 53.9883 97.6816 52.9349C94.6789 48.2048 95.5509 40.5605 100.065 37.3275C104.862 33.892 112.364 35.4126 114.367 41.2017C115.03 43.1166 115.012 45.0945 114.994 47.0846C114.991 47.4089 114.988 47.7335 114.988 48.0583H101.88C102.869 53.536 109.99 52.3501 113.778 51.2849C113.829 52.4582 114 53.6344 114.171 54.8053ZM109.745 43.8243H101.88C101.905 43.5342 101.96 43.2499 102.039 42.9752C102.209 42.3878 102.494 41.844 102.863 41.3794C104.044 39.8932 106.081 39.2189 107.927 40.5276C108.494 40.9299 108.916 41.4742 109.217 42.0845C109.485 42.6298 109.655 43.2278 109.745 43.8243Z" fill="#1D546D"/>
</svg>
