<svg width="115" height="80" viewBox="0 0 115 80" fill="none" xmlns="http://www.w3.org/2000/svg">
<path d="M43.6625 14.6557L28.6068 50.5745H18.7836L11.374 21.9082C10.9254 20.1467 10.5347 19.4983 9.16749 18.7537C6.93307 17.54 3.24331 16.4048 0 15.6984L0.218815 14.6557H16.033C18.0457 14.6557 19.8579 15.9958 20.3183 18.3161L24.2334 39.1028L33.8988 14.6557H43.6625ZM56.9419 14.6557L49.2584 50.5745H39.9654L47.6489 14.6557H56.9419ZM82.1498 38.8473C82.1887 29.3692 69.0443 28.8435 69.1303 24.6081C69.1618 23.321 70.3881 21.9501 73.0726 21.5998C74.4024 21.428 78.076 21.2907 82.2372 23.2079L83.8651 15.5868C81.6292 14.7783 78.7523 14 75.1734 14C65.9868 14 59.5244 18.8793 59.473 25.8718C59.4128 31.0441 64.0887 33.9269 67.6052 35.6495C71.2274 37.4088 72.4419 38.5396 72.425 40.1117C72.3993 42.5216 69.5326 43.5886 66.8672 43.6282C62.1935 43.7024 59.484 42.3652 57.323 41.3585L55.6364 49.2322C57.8106 50.2286 61.8176 51.0944 65.9677 51.1384C75.7336 51.1384 82.1211 46.3149 82.1498 38.8473ZM106.408 50.5745H115L107.493 14.6557H99.5662C97.7782 14.6557 96.2759 15.6932 95.6091 17.2888L81.6652 50.5745H91.4237L93.3593 45.2091H105.282L106.408 50.5745ZM96.035 37.8487L100.928 24.36L103.739 37.8487H96.035ZM68.8349 60.4614H65.0592V63.9757H69.2828V65.0323H63.7867V55.2825H69.0662V56.3392H65.0592V59.4195H68.8349V60.4614ZM71.2334 54.7624H72.5059V65.032H71.2334V54.7624ZM75.7159 61.7628C75.7446 63.4847 76.8298 64.1933 78.1163 64.1933C79.0283 64.1933 79.5922 64.0339 80.0555 63.832L80.2868 64.7432C79.8382 64.9452 79.0577 65.1911 77.943 65.1911C75.7886 65.1911 74.5014 63.7593 74.5014 61.6475C74.5014 59.5357 75.7446 57.8865 77.7844 57.8865C80.0842 57.8865 80.6775 59.883 80.6775 61.1702C80.6775 61.4302 80.6628 61.6181 80.6334 61.7628H75.7159ZM79.4476 60.8515C79.4622 60.0563 79.1149 58.7978 77.6831 58.7978C76.3812 58.7978 75.8312 59.9697 75.7299 60.8515H79.4476ZM87.6028 64.7861C87.2701 64.9455 86.5322 65.1914 85.5923 65.1914C83.4805 65.1914 82.1067 63.7596 82.1067 61.6184C82.1067 59.4633 83.5811 57.8868 85.8669 57.8868C86.6188 57.8868 87.2841 58.0741 87.6314 58.2628L87.3428 59.232C87.0381 59.0727 86.5608 58.8987 85.8669 58.8987C84.2611 58.8987 83.3939 60.0992 83.3939 61.5465C83.3939 63.1663 84.4351 64.1642 85.8236 64.1642C86.5469 64.1642 87.0242 63.9909 87.3854 63.8316L87.6028 64.7861ZM91.1731 56.3533V58.0312H92.9948V58.9997H91.1731V62.7754C91.1731 63.644 91.419 64.1353 92.1276 64.1353C92.4742 64.1353 92.6776 64.1066 92.8656 64.0479L92.9236 65.0179C92.6776 65.1045 92.287 65.1911 91.795 65.1911C91.2017 65.1911 90.7244 64.9885 90.4212 64.6566C90.0738 64.2652 89.9292 63.644 89.9292 62.8194V58.9997H88.8439V58.0312H89.9292V56.7293L91.1731 56.3533ZM94.7728 60.2155C94.7728 59.3909 94.7574 58.6823 94.7148 58.031H95.8287L95.8867 59.4196H95.9293C96.248 58.4797 97.0285 57.8864 97.8817 57.8864C98.0124 57.8864 98.1138 57.9011 98.2298 57.915V59.1163C98.0991 59.0869 97.9698 59.0869 97.7951 59.0869C96.8993 59.0869 96.2619 59.7522 96.0886 60.7075C96.06 60.8808 96.0453 61.0974 96.0453 61.3008V65.0324H94.7728V60.2155ZM106.053 61.4737C106.053 64.0628 104.244 65.1914 102.567 65.1914C100.686 65.1914 99.2117 63.8021 99.2117 61.5897C99.2117 59.2606 100.759 57.8867 102.683 57.8867C104.693 57.8867 106.053 59.3472 106.053 61.4737ZM100.513 61.5464C100.513 63.0796 101.381 64.2368 102.625 64.2368C103.84 64.2368 104.75 63.0935 104.75 61.517C104.75 60.3312 104.158 58.8406 102.653 58.8406C101.164 58.8406 100.513 60.2298 100.513 61.5464ZM108.003 59.9258C108.003 59.1885 107.988 58.6099 107.945 58.0313H109.073L109.146 59.1885H109.175C109.522 58.5372 110.332 57.8867 111.489 57.8867C112.458 57.8867 113.962 58.4653 113.962 60.8656V65.032H112.69V60.9963C112.69 59.8685 112.27 58.9279 111.07 58.9279C110.245 58.9279 109.594 59.5212 109.363 60.2298C109.305 60.3891 109.276 60.6057 109.276 60.8231V65.032H108.003V59.9258Z" fill="#1A1F71"/>
</svg>
