<svg width="115" height="80" viewBox="0 0 115 80" fill="none" xmlns="http://www.w3.org/2000/svg">
<path d="M28.3586 40.1806C28.3586 48.0121 22.0121 54.3612 14.1806 54.3612C6.34909 54.3612 0 48.0121 0 40.1806C0 32.3491 6.34909 26 14.1806 26C22.0121 26 28.3586 32.3491 28.3586 40.1806Z" fill="#EE3023"/>
<path d="M14.2925 48.0871C10.3976 48.1003 6.34374 44.7758 6.32551 39.435C6.31246 35.9048 8.21955 32.5049 10.6529 30.4884C13.0289 28.524 16.2829 27.2604 19.2321 27.25C19.6125 27.25 20.0111 27.2812 20.2534 27.3646C17.6741 27.8987 15.6212 30.3007 15.629 33.0233C15.629 33.1144 15.6367 33.2108 15.6471 33.2551C19.9641 34.3077 21.9233 36.913 21.9363 40.5161C21.9467 44.1218 19.1018 48.0714 14.2924 48.087" fill="white"/>
<path d="M37.516 46.0526L33.1808 35.707H36.0127L38.717 42.5772L41.3379 35.707H44.0422L39.8347 46.0526H37.516Z" fill="#EE3023"/>
<path d="M51.5873 40.8217C51.5873 40.3918 51.5379 39.9828 51.4362 39.5946C51.3372 39.2064 51.1861 38.8729 50.9855 38.5942C50.7849 38.3128 50.5426 38.0913 50.256 37.9272C49.9694 37.7605 49.6334 37.6771 49.2478 37.6771C48.8622 37.6771 48.5235 37.7605 48.2395 37.9272C47.9529 38.0913 47.708 38.3128 47.51 38.5942C47.3094 38.8729 47.1583 39.2064 47.0593 39.5946C46.9577 39.9828 46.9082 40.3918 46.9082 40.8217C46.9082 41.2672 46.9577 41.6814 47.0593 42.0618C47.1583 42.4422 47.3042 42.7757 47.497 43.0622C47.6898 43.3488 47.9347 43.5755 48.2291 43.7422C48.5209 43.9063 48.8622 43.9897 49.2478 43.9897C49.6334 43.9897 49.9694 43.9063 50.256 43.7422C50.5426 43.5755 50.7849 43.3488 50.9855 43.0622C51.1861 42.7757 51.3372 42.4422 51.4362 42.0618C51.5378 41.6814 51.5873 41.2672 51.5873 40.8217ZM54.2056 40.833C54.2056 41.5078 54.1014 42.1695 53.8956 42.8209C53.6872 43.4722 53.3798 44.0531 52.9707 44.569C52.5643 45.0848 52.0485 45.4991 51.4258 45.8144C50.8031 46.1296 50.0763 46.2859 49.2478 46.2859C48.4167 46.2859 47.6898 46.1295 47.0698 45.8144C46.4471 45.4991 45.9313 45.0849 45.5222 44.569C45.1158 44.0532 44.8084 43.4722 44.5999 42.8209C44.3941 42.1696 44.2899 41.5078 44.2899 40.833C44.2899 40.1609 44.3941 39.5043 44.5999 38.8582C44.8084 38.2147 45.1158 37.639 45.5222 37.1309C45.9313 36.6229 46.4471 36.2165 47.0698 35.909C47.6898 35.6016 48.4167 35.4453 49.2478 35.4453C50.0763 35.4453 50.8005 35.6017 51.4154 35.909C52.0302 36.2165 52.5461 36.6229 52.9603 37.1309C53.3772 37.639 53.6872 38.2147 53.8956 38.8582C54.1014 39.5043 54.2056 40.1609 54.2056 40.833Z" fill="#EE3023"/>
<path d="M62.2013 37.9858C61.688 37.7852 61.2113 37.6835 60.7684 37.6835C60.315 37.6835 59.9216 37.7722 59.596 37.9441C59.2677 38.1159 58.9968 38.3479 58.7831 38.6423C58.5695 38.9367 58.4106 39.2676 58.3038 39.6349C58.1969 39.9996 58.1422 40.3774 58.1422 40.7656C58.1422 41.1955 58.1891 41.6071 58.2829 42.0031C58.3741 42.3965 58.5174 42.743 58.7102 43.0374C58.9004 43.3318 59.1427 43.5689 59.4345 43.7487C59.7263 43.9258 60.0728 44.017 60.4714 44.017C60.7996 44.017 61.1331 43.9259 61.4744 43.7487C61.8157 43.5689 62.058 43.3553 62.2013 43.113L62.2013 37.9858ZM62.4149 46.0543L62.3081 45.2623C62.0658 45.5333 61.7453 45.773 61.3441 45.9788C60.9455 46.1872 60.474 46.2914 59.9321 46.2914C59.2208 46.2914 58.5903 46.1404 58.0511 45.8407C57.5065 45.5411 57.0506 45.1399 56.6807 44.6397C56.3107 44.1395 56.0267 43.5585 55.8339 42.8993C55.6438 42.2428 55.5474 41.555 55.5474 40.8386C55.5474 40.1664 55.6464 39.5072 55.8444 38.8637C56.045 38.2202 56.3472 37.6445 56.7536 37.1364C57.1626 36.6284 57.6707 36.222 58.2855 35.9146C58.8978 35.6071 59.6194 35.4508 60.4453 35.4508C60.9872 35.4508 61.5734 35.5523 62.2013 35.7504V31.7383H64.8613V46.0543H62.4149Z" fill="#EE3023"/>
<path d="M72.3541 41.1978C72.0675 41.2129 71.7705 41.2396 71.4683 41.2734C71.1661 41.3099 70.8795 41.3568 70.606 41.4141C70.0276 41.5286 69.629 41.7241 69.4049 42.0029C69.1835 42.2843 69.0715 42.5865 69.0715 42.9173C69.0715 43.2586 69.1965 43.5348 69.4492 43.7432C69.7019 43.949 70.0563 44.0532 70.5174 44.0532C70.8639 44.0532 71.2 43.9829 71.523 43.8396C71.8461 43.6963 72.1249 43.5165 72.3541 43.3029V41.1978ZM72.5678 46.041L72.4635 45.2672C72.1744 45.5851 71.8096 45.8352 71.3641 46.015C70.9186 46.1948 70.4314 46.2859 69.8999 46.2859C69.4545 46.2859 69.0246 46.2103 68.6181 46.0593C68.2065 45.9109 67.8444 45.6945 67.5291 45.4158C67.2139 45.137 66.9586 44.7957 66.7658 44.3867C66.5704 43.9776 66.474 43.5165 66.474 43.0007C66.474 42.4874 66.573 42.0315 66.7762 41.6381C66.9768 41.2447 67.2478 40.9138 67.5943 40.6403C67.9382 40.3693 68.3342 40.1479 68.7797 39.9759C69.2226 39.8041 69.6915 39.6737 70.1787 39.5877C70.5226 39.5174 70.9004 39.4652 71.3094 39.4287C71.7184 39.3922 72.0597 39.361 72.3333 39.3323V39.1813C72.3333 38.6081 72.1874 38.2016 71.8904 37.9568C71.596 37.7145 71.1896 37.592 70.6737 37.592C70.3715 37.592 70.0823 37.6285 69.8088 37.7015C69.5352 37.7718 69.2929 37.8605 69.0767 37.9672C68.8604 38.0767 68.6703 38.1835 68.5035 38.2903C68.3394 38.3971 68.2065 38.4935 68.1049 38.5795L67.2243 36.7141C67.3389 36.6125 67.5135 36.4926 67.7506 36.3493C67.9877 36.206 68.2716 36.0653 68.6103 35.9299C68.9464 35.7943 69.3242 35.6798 69.7462 35.586C70.1683 35.4922 70.6242 35.4453 71.1088 35.4453C71.682 35.4453 72.2056 35.521 72.6772 35.672C73.1487 35.8231 73.5578 36.0576 73.9017 36.3806C74.243 36.7011 74.5113 37.1075 74.7067 37.6025C74.8995 38.0949 74.9959 38.6915 74.9959 39.3923V46.041H72.5678Z" fill="#EE3023"/>
<path d="M83.2182 34.1001C83.1322 34.0586 82.9655 33.996 82.7154 33.9177C82.4626 33.8396 82.1318 33.8005 81.7149 33.8005C81.345 33.8005 81.0323 33.9126 80.7822 34.134C80.5321 34.3554 80.4071 34.7176 80.4071 35.2178V35.7102H82.6398V37.8569H80.4279V46.0558H77.7653V37.8569H76.3923V35.7102H77.7653V35.1526C77.7653 34.4805 77.8513 33.9125 78.0232 33.4462C78.1952 32.9825 78.4349 32.6021 78.7423 32.3103C79.0497 32.0159 79.4119 31.7996 79.8261 31.6642C80.2429 31.5286 80.6937 31.4609 81.1809 31.4609C81.8244 31.4609 82.3558 31.5209 82.7779 31.6434C83.1999 31.7659 83.4474 31.8466 83.5178 31.8909L83.2182 34.1001Z" fill="#EE3023"/>
<path d="M90.4739 40.8217C90.4739 40.3918 90.4219 39.9828 90.3228 39.5946C90.2238 39.2064 90.0727 38.8729 89.8721 38.5942C89.6715 38.3128 89.4292 38.0913 89.1426 37.9272C88.856 37.7605 88.52 37.6771 88.1344 37.6771C87.7488 37.6771 87.4101 37.7605 87.1261 37.9272C86.8395 38.0913 86.5946 38.3128 86.394 38.5942C86.196 38.8729 86.0449 39.2064 85.9433 39.5946C85.8443 39.9828 85.7948 40.3918 85.7948 40.8217C85.7948 41.2672 85.8443 41.6814 85.9433 42.0618C86.0449 42.4422 86.1908 42.7757 86.3836 43.0622C86.5764 43.3488 86.8213 43.5755 87.1131 43.7422C87.4075 43.9063 87.7488 43.9897 88.1344 43.9897C88.52 43.9897 88.856 43.9063 89.1426 43.7422C89.4292 43.5755 89.6715 43.3488 89.8721 43.0622C90.0727 42.7757 90.2238 42.4422 90.3228 42.0618C90.4218 41.6814 90.4739 41.2672 90.4739 40.8217ZM93.0922 40.833C93.0922 41.5078 92.988 42.1695 92.7796 42.8209C92.5738 43.4722 92.2664 44.0531 91.8573 44.569C91.4509 45.0848 90.9351 45.4991 90.3124 45.8144C89.6897 46.1296 88.9629 46.2859 88.1344 46.2859C87.3033 46.2859 86.5764 46.1295 85.9564 45.8144C85.3337 45.4991 84.8178 45.0849 84.4088 44.569C84.0024 44.0532 83.695 43.4722 83.4865 42.8209C83.2781 42.1696 83.1765 41.5078 83.1765 40.833C83.1765 40.1609 83.2781 39.5043 83.4865 38.8582C83.695 38.2147 84.0024 37.639 84.4088 37.1309C84.8178 36.6229 85.3337 36.2165 85.9564 35.909C86.5764 35.6016 87.3033 35.4453 88.1344 35.4453C88.9629 35.4453 89.6871 35.6017 90.302 35.909C90.9168 36.2165 91.4327 36.6229 91.8469 37.1309C92.2638 37.639 92.5738 38.2147 92.7796 38.8582C92.988 39.5043 93.0922 40.1609 93.0922 40.833Z" fill="#EE3023"/>
<path d="M101.353 46.0462V40.1452C101.353 39.3584 101.189 38.7488 100.861 38.3189C100.53 37.8917 100.074 37.6754 99.4854 37.6754C99.0712 37.6754 98.6882 37.7822 98.3391 37.9985C97.9874 38.2121 97.6826 38.4492 97.4247 38.7071V46.0462H94.7646V35.7006H97.1902L97.3178 36.5161C97.7347 36.1748 98.201 35.909 98.7247 35.7241C99.2457 35.5365 99.772 35.4453 100.301 35.4453C100.845 35.4453 101.346 35.526 101.804 35.6902C102.263 35.857 102.656 36.1175 102.984 36.4744C103.315 36.8313 103.568 37.2977 103.748 37.8682C103.925 38.4414 104.016 39.1292 104.016 39.929V46.0462H101.353Z" fill="#EE3023"/>
<path d="M112.296 39.6321C112.267 39.2751 112.192 38.9625 112.069 38.6994C111.947 38.4336 111.796 38.22 111.616 38.0558C111.436 37.8891 111.243 37.7693 111.035 37.6885C110.824 37.6104 110.613 37.5713 110.396 37.5713C109.935 37.5713 109.498 37.7432 109.081 38.0871C108.664 38.431 108.419 38.9443 108.346 39.6321H112.296ZM108.284 41.5417C108.341 42.4145 108.612 43.045 109.102 43.4306C109.589 43.8162 110.222 44.0115 110.996 44.0115C111.355 44.0115 111.694 43.9777 112.009 43.9151C112.324 43.8501 112.606 43.7692 112.851 43.6676C113.096 43.5686 113.304 43.467 113.476 43.368C113.648 43.2665 113.776 43.1726 113.864 43.0867L114.573 45.2568C114.471 45.3272 114.31 45.4236 114.088 45.546C113.867 45.6685 113.591 45.7805 113.262 45.8899C112.934 45.9968 112.546 46.0879 112.103 46.1687C111.66 46.2468 111.173 46.2859 110.644 46.2859C109.969 46.2859 109.331 46.1791 108.721 45.9655C108.114 45.7492 107.58 45.4158 107.124 44.965C106.666 44.5143 106.301 43.9542 106.03 43.282C105.756 42.6098 105.621 41.8074 105.621 40.8773C105.621 40.0046 105.746 39.2308 105.996 38.5586C106.246 37.8865 106.59 37.3211 107.025 36.8626C107.463 36.4067 107.971 36.0549 108.549 35.81C109.13 35.5678 109.748 35.4453 110.407 35.4453C111.066 35.4453 111.673 35.5548 112.233 35.7684C112.791 35.982 113.273 36.3155 113.682 36.7662C114.088 37.2169 114.411 37.8005 114.646 38.5169C114.883 39.2308 115 40.0827 115 41.0701V41.5417L108.284 41.5417Z" fill="#EE3023"/>
</svg>
