<svg width="115" height="80" viewBox="0 0 115 80" fill="none" xmlns="http://www.w3.org/2000/svg">
<g clip-path="url(#clip0)">
<path d="M100.072 30.0898C102.192 30.0898 104.21 30.5618 106.021 31.4059C106.305 31.5303 106.59 31.6793 106.873 31.8283L105.632 32.8964L103.771 31.0338L100.564 33.7653L98.6754 31.8032L92.7784 36.8944L96.5538 40.8927L95.0799 42.1341L98.8048 46.1324L97.3308 47.3733L102.659 53.0605L105.813 50.2789L108.555 53.2598C108.012 53.6572 107.417 54.0553 106.771 54.4024C104.805 55.4702 102.529 56.0898 100.098 56.0898C92.6226 56.0898 86.5456 50.2551 86.5456 43.0787C86.5192 35.9508 92.5973 30.0898 100.072 30.0898ZM97.5885 42.2834L100.822 39.5019L103.719 42.606L100.485 45.3873L97.5885 42.2834ZM99.891 47.6477L103.098 44.8415L106.021 47.9454L102.787 50.7271L99.891 47.6477ZM95.288 36.994L98.5201 34.2125L101.417 37.3166L98.1836 40.0981L95.288 36.994ZM101.21 35.5035L103.615 33.4176L105.788 35.7272L103.383 37.8378L101.21 35.5035ZM105.503 45.0646L107.908 42.9785L110.081 45.3123L107.675 47.3996L105.503 45.0646ZM107.624 49.7587L110.03 47.6722L112.201 49.9817L109.796 52.092L107.624 49.7587ZM108.607 39.0299L110.21 37.6391L111.658 39.1794L110.055 40.5697L108.607 39.0299ZM106.538 34.4357L108.141 33.0204L109.59 34.5847L107.986 35.9754L106.538 34.4357ZM110.65 43.6246L112.253 42.2339L113.727 43.7737L112.099 45.164L110.65 43.6246ZM103.434 40.1726L105.84 38.0865L108.012 40.3957L105.607 42.4821L103.434 40.1726Z" fill="#036CB5"/>
<mask id="mask0" mask-type="alpha" maskUnits="userSpaceOnUse" x="0" y="35" width="15" height="13">
<path d="M0.59314 35.457V47.3845H14.2366V35.457H0.59314Z" fill="white"/>
</mask>
<g mask="url(#mask0)">
<path d="M7.44013 38.9889H7.3224L5.11195 47.3845H3.30523L0.59314 35.457H2.46771L4.34274 44.3569H4.45983L6.63567 35.457H8.12602L10.453 44.3569H10.5701L12.2779 35.457H14.2366L11.5239 47.3845H9.71578L7.44013 38.9889Z" fill="#036CB5"/>
</g>
<path d="M16.1902 42.2236H19.9747C19.8925 40.3299 19.0491 39.5728 18.1569 39.5728C17.1486 39.5728 16.3713 40.4206 16.1902 42.2236ZM21.2968 45.6164V46.9878C20.5531 47.4567 19.5619 47.8178 18.3711 47.8178C15.595 47.8178 14.4546 45.9415 14.4546 43.0913C14.4546 40.3479 15.727 38.3633 18.2064 38.3633C20.272 38.3633 21.5455 39.8256 21.5455 42.7657V43.4333H16.1571C16.1571 45.5976 16.9665 46.554 18.6696 46.554C19.5619 46.554 20.3884 46.2107 21.2968 45.6164Z" fill="#036CB5"/>
<path d="M25.6075 46.3692C26.1353 46.6049 26.7129 46.6397 27.1258 46.6397C28.3458 46.6397 29.2682 45.864 29.2682 43.1366C29.2682 40.9979 28.5098 40.3074 27.4054 40.3074C26.7453 40.3074 26.2673 40.4933 25.6075 40.863V46.3692H25.6075ZM25.6248 39.6172C26.1183 39.3487 26.9591 38.9938 27.85 38.9938C29.895 38.9938 31 40.442 31 43.1366C31 46.2859 29.5156 47.8184 27.1258 47.8184C26.2511 47.8184 24.899 47.532 23.9091 46.9919V35.2388L25.6248 34.8184V39.6172H25.6248Z" fill="#036CB5"/>
<path d="M39.2897 45.3152H39.3757L43.0508 35.998H45.1818V47.8162H43.3268V39.2485H43.1719L39.6673 47.8162H38.5691L35.0637 39.4488H34.9097V47.8162H33.3636V35.998H35.4426L39.2897 45.3152Z" fill="#036CB5"/>
<path d="M51.8209 43.0908C51.8209 40.6554 50.9663 39.6275 49.9089 39.6275C48.8829 39.6275 47.9958 40.6554 47.9958 43.0908C47.9958 45.5627 48.8054 46.554 49.9089 46.554C51.0124 46.554 51.8209 45.5627 51.8209 43.0908ZM46.3636 43.0908C46.3636 39.9324 47.8569 38.3633 49.9089 38.3633C51.9622 38.3633 53.4546 39.9324 53.4546 43.0908C53.4546 46.1752 52.0396 47.8178 49.9089 47.8178C47.7786 47.8178 46.3636 46.1752 46.3636 43.0908Z" fill="#036CB5"/>
<path d="M54.6362 39.7307C55.396 39.2313 57.0009 38.3633 58.9424 38.3633C60.9686 38.3633 61.7271 39.2313 61.7271 41.1327V47.8178H59.9722V41.5579C59.9722 40.0995 59.3147 39.8411 58.4525 39.8411C57.7778 39.8411 56.9155 40.1739 56.3925 40.5062V47.8178H54.6362V39.7307H54.6362Z" fill="#036CB5"/>
<path d="M65.8259 42.2236H69.6102C69.5289 40.3299 68.6851 39.5728 67.7925 39.5728C66.7842 39.5728 66.0084 40.4206 65.8259 42.2236ZM70.932 45.6164V46.9878C70.1888 47.4567 69.1971 47.8178 68.0069 47.8178C65.232 47.8178 64.0909 45.9415 64.0909 43.0913C64.0909 40.3479 65.3628 38.3633 67.8421 38.3633C69.9087 38.3633 71.1819 39.8256 71.1819 42.7657V43.4333H65.7934C65.7934 45.5976 66.6033 46.554 68.3056 46.554C69.1971 46.554 70.0247 46.2107 70.932 45.6164Z" fill="#036CB5"/>
<path d="M77.8224 38.3633H79.4546L76.6941 46.6854C75.9305 48.9828 75.0013 50.1815 73.2479 50.1815V48.8174C74.2855 48.8174 74.925 47.918 75.2918 46.6854L72.3636 38.3633H74.0415L75.9933 44.489H76.0848L77.8224 38.3633Z" fill="#036CB5"/>
<path d="M18.6745 55.1371V54.4107C19.2952 54.7259 19.8859 54.8841 20.4456 54.8841C20.9117 54.8841 21.2689 54.7986 21.5184 54.6261C21.7679 54.4547 21.8929 54.2229 21.8929 53.9299C21.8929 53.637 21.7903 53.4173 21.585 53.2711C21.3802 53.1252 20.9974 52.9444 20.4374 52.7303C20.2431 52.6573 20.1189 52.6097 20.0629 52.5871C20.0077 52.565 19.8996 52.5194 19.7385 52.4522C19.5779 52.385 19.4726 52.3339 19.4229 52.3003C19.3728 52.2656 19.2886 52.2148 19.1691 52.1481C19.05 52.0798 18.9697 52.0197 18.9278 51.9672C18.8867 51.9132 18.8295 51.8449 18.7574 51.7634C18.6855 51.6822 18.6368 51.6014 18.6117 51.5192C18.587 51.4377 18.5631 51.3434 18.5412 51.2362C18.5192 51.1288 18.5079 51.0138 18.5079 50.8899C18.5079 50.4112 18.6842 50.0266 19.036 49.7335C19.3884 49.4414 19.8745 49.2949 20.4957 49.2949C21.0444 49.2949 21.5909 49.396 22.1338 49.5988V50.3666C21.6072 50.1073 21.0805 49.9789 20.5537 49.9789C20.1823 49.9789 19.9051 50.0565 19.7221 50.2139C19.5391 50.3714 19.4475 50.5797 19.4475 50.839C19.4475 51.115 19.5391 51.3242 19.7221 51.4681C19.9051 51.6124 20.2324 51.7714 20.7038 51.9454C21.5129 52.2438 22.0703 52.5139 22.3749 52.7563C22.6801 52.9976 22.8325 53.3588 22.8325 53.8366C22.8325 54.3381 22.6232 54.7479 22.2046 55.0659C21.786 55.3839 21.211 55.543 20.4789 55.543C19.8084 55.543 19.2067 55.4072 18.6745 55.1371ZM27.1363 55.4152H26.3463L26.288 54.9255C25.8108 55.32 25.3343 55.5173 24.8575 55.5173C24.4584 55.5173 24.1493 55.4091 23.9305 55.1918C23.7111 54.9752 23.6017 54.7015 23.6017 54.3686C23.6017 54.1938 23.6335 54.0269 23.6974 53.8663C23.7612 53.7057 23.8666 53.55 24.0134 53.3981C24.1602 53.2458 24.382 53.1238 24.6785 53.0305C24.975 52.9371 25.3315 52.891 25.7474 52.891H26.2632V52.663C26.2632 52.286 26.1939 52.0292 26.0552 51.8906C25.9162 51.7526 25.6835 51.6837 25.3566 51.6837C24.9574 51.6837 24.4666 51.849 23.8847 52.182V51.5066C24.4835 51.2309 25.0709 51.0919 25.6475 51.0919C26.2072 51.0919 26.5957 51.208 26.8116 51.4393C27.0281 51.6695 27.1363 52.019 27.1363 52.4851V55.4152ZM26.2715 53.4817H25.8304C24.921 53.4817 24.4666 53.755 24.4666 54.3012C24.4666 54.4932 24.5273 54.6311 24.6495 54.7188C24.7717 54.8063 24.9242 54.8495 25.1073 54.8495C25.3396 54.8495 25.5644 54.7931 25.7806 54.6803C25.9968 54.5684 26.1606 54.439 26.2715 54.2926V53.4817H26.2715ZM28.4876 57.1044V51.7096C28.7317 51.5233 29.0195 51.3735 29.3525 51.2611C29.6854 51.1494 30.012 51.0919 30.334 51.0919C31.4867 51.0919 32.0637 51.7987 32.0637 53.2121C32.0637 53.9438 31.914 54.504 31.6144 54.8917C31.3151 55.2805 30.8859 55.4738 30.3254 55.4738C29.9372 55.4738 29.6129 55.3753 29.3525 55.1795V57.1044H28.4876ZM29.3442 51.9957V54.555C29.4551 54.6614 29.5949 54.7407 29.764 54.7946C29.9333 54.848 30.0817 54.8746 30.2091 54.8746C30.5138 54.8746 30.7539 54.7557 30.9286 54.5165C31.1032 54.2768 31.1901 53.8421 31.1901 53.2122C31.1901 52.6999 31.1006 52.3246 30.9203 52.0895C30.7401 51.8522 30.5056 51.7346 30.2173 51.7346C29.8906 51.7346 29.5996 51.8213 29.3442 51.9957ZM34.0472 51.1353V55.4152H33.1823V51.346L34.0472 51.1353ZM33.0491 49.8935C33.0491 49.7415 33.1059 49.6083 33.2194 49.4922C33.3334 49.3769 33.4651 49.319 33.6143 49.319C33.7644 49.319 33.896 49.3769 34.0099 49.4922C34.1235 49.6083 34.1803 49.7415 34.1803 49.8935C34.1803 50.0454 34.1235 50.1796 34.0099 50.2954C33.896 50.4097 33.7644 50.4676 33.6143 50.4676C33.4652 50.4676 33.3334 50.4097 33.2194 50.2954C33.1059 50.1796 33.0491 50.0454 33.0491 49.8935ZM37.2864 54.9255C37.6858 54.9255 38.1261 54.779 38.6086 54.4869V55.1285C38.1652 55.3879 37.6745 55.5173 37.1367 55.5173C36.4603 55.5173 35.9629 55.3229 35.6441 54.9343C35.3252 54.5456 35.1658 54.0028 35.1658 53.3048C35.1658 52.6402 35.3295 52.1049 35.6562 51.701C35.9837 51.2957 36.449 51.0919 37.0532 51.0919C37.586 51.0919 37.9984 51.2669 38.293 51.6163C38.5867 51.9658 38.7332 52.4773 38.7332 53.1526V53.4654H36.0224C36.0224 53.9666 36.125 54.3358 36.3299 54.5707C36.5351 54.8081 36.854 54.9255 37.2864 54.9255ZM37.0283 51.6586C36.7681 51.6586 36.5488 51.7629 36.3714 51.9703C36.1943 52.1789 36.0831 52.4891 36.0389 52.8988H37.9432C37.9209 52.4828 37.8241 52.1726 37.6521 51.9672C37.4806 51.7612 37.2726 51.6586 37.0283 51.6586ZM39.835 55.4152V51.7175C40.5169 51.3006 41.2239 51.0919 41.956 51.0919C42.4495 51.0919 42.8012 51.194 43.0119 51.3968C43.2227 51.5996 43.328 51.9202 43.328 52.3589V55.4151H42.4633V52.5532C42.4633 52.2438 42.3994 52.0352 42.272 51.9289C42.1444 51.8213 41.9588 51.7682 41.7147 51.7682C41.3822 51.7682 41.0438 51.87 40.7003 52.0724V55.4151H39.835V55.4152ZM45.5027 51.2957H46.8167L46.6087 51.87H45.5027V54.0984C45.5027 54.6614 45.7412 54.9428 46.2179 54.9428C46.4008 54.9428 46.5865 54.9037 46.7756 54.8247V55.3645C46.5148 55.4661 46.2041 55.5173 45.8438 55.5173C45.4279 55.5173 45.1231 55.3973 44.9289 55.1574C44.735 54.9192 44.6378 54.6051 44.6378 54.2157V50.7379L45.5027 50.104V51.2957H45.5027ZM48.5096 51.1353V55.4152H47.6445V51.346L48.5096 51.1353ZM47.5116 49.8935C47.5116 49.7415 47.5685 49.6083 47.6815 49.4922C47.7951 49.3769 47.9268 49.319 48.0769 49.319C48.2264 49.319 48.3584 49.3769 48.4717 49.4922C48.5856 49.6083 48.6424 49.7415 48.6424 49.8935C48.6424 50.0454 48.5856 50.1796 48.4717 50.2954C48.3584 50.4097 48.2264 50.4676 48.0769 50.4676C47.9268 50.4676 47.7951 50.4097 47.6815 50.2954C47.5685 50.1796 47.5116 50.0454 47.5116 49.8935ZM54.3973 51.4304V52.1049C53.9814 51.8239 53.56 51.6837 53.1334 51.6837C52.9172 51.6837 52.7398 51.7259 52.6008 51.8105C52.4624 51.8943 52.393 52.03 52.393 52.2148C52.393 52.3903 52.4691 52.5292 52.6215 52.6332C52.7741 52.7376 53.014 52.8432 53.3414 52.9494C53.5243 53.0114 53.6613 53.0596 53.7526 53.0932C53.8444 53.1277 53.9646 53.1841 54.1146 53.2624C54.2641 53.3416 54.3766 53.4196 54.4513 53.499C54.5262 53.5781 54.5941 53.6816 54.6552 53.8115C54.7162 53.9409 54.7463 54.084 54.7463 54.2417C54.7463 54.6304 54.5925 54.9398 54.2853 55.1707C53.9775 55.4015 53.5655 55.5173 53.0503 55.5173C52.4734 55.5173 51.9936 55.3934 51.6112 55.145V54.487C52.099 54.7791 52.5454 54.9255 52.9505 54.9255C53.5599 54.9255 53.865 54.7235 53.865 54.3177C53.865 54.2393 53.847 54.1655 53.811 54.0984C53.7749 54.0309 53.7334 53.976 53.6864 53.9336C53.6391 53.8915 53.5627 53.8438 53.4573 53.7895C53.3519 53.7371 53.2635 53.6979 53.1913 53.6721C53.1193 53.647 53.0057 53.6061 52.8506 53.55C52.6231 53.4655 52.4429 53.3926 52.3097 53.3303C52.1764 53.2679 52.0438 53.188 51.9107 53.0898C51.7774 52.9913 51.6802 52.8737 51.6196 52.739C51.5588 52.6044 51.5282 52.4435 51.5282 52.2579C51.5282 52.0214 51.5835 51.8194 51.6944 51.6509C51.8052 51.4809 51.9497 51.36 52.1267 51.2871C52.3042 51.2136 52.4664 51.1627 52.6133 51.1354C52.7604 51.1063 52.9058 51.0919 53.0503 51.0919C53.5216 51.0919 53.9705 51.2048 54.3973 51.4304ZM58.9919 55.4152H58.2021L58.1435 54.9255C57.6664 55.32 57.1901 55.5173 56.7135 55.5173C56.3143 55.5173 56.0052 55.4091 55.7861 55.1918C55.5669 54.9752 55.4576 54.7015 55.4576 54.3686C55.4576 54.1938 55.4894 54.0269 55.5534 53.8663C55.617 53.7057 55.7224 53.55 55.8694 53.3981C56.0166 53.2458 56.2378 53.1238 56.5344 53.0305C56.8312 52.9371 57.1876 52.891 57.6029 52.891H58.1191V52.663C58.1191 52.286 58.0494 52.0292 57.9115 51.8906C57.772 51.7526 57.5393 51.6837 57.2127 51.6837C56.8133 51.6837 56.3224 51.849 55.7405 52.182V51.5066C56.3394 51.2309 56.9268 51.0919 57.5033 51.0919C58.0636 51.0919 58.4511 51.208 58.6675 51.4393C58.8837 51.6695 58.9919 52.019 58.9919 52.4851V55.4152H58.9919ZM58.1278 53.4817H57.6865C56.7772 53.4817 56.3224 53.755 56.3224 54.3012C56.3224 54.4932 56.3835 54.6311 56.5053 54.7188C56.6276 54.8063 56.7796 54.8495 56.9629 54.8495C57.1956 54.8495 57.4195 54.7931 57.6366 54.6803C57.8527 54.5684 58.0166 54.439 58.1278 54.2926V53.4817H58.1278ZM61.1671 51.2957H62.481L62.2725 51.87H61.1671V54.0984C61.1671 54.6614 61.4053 54.9428 61.8815 54.9428C62.0647 54.9428 62.2499 54.9037 62.4392 54.8247V55.3645C62.1785 55.4661 61.8685 55.5173 61.507 55.5173C61.0919 55.5173 60.7871 55.3973 60.593 55.1574C60.3988 54.9192 60.3014 54.6051 60.3014 54.2157V50.7379L61.1671 50.104V51.2957H61.1671Z" fill="#B6B6B6"/>
</g>
<defs>
<clipPath id="clip0">
<rect width="115" height="80" fill="white"/>
</clipPath>
</defs>
</svg>
