<svg width="115" height="80" viewBox="0 0 115 80" fill="none" xmlns="http://www.w3.org/2000/svg">
<g clip-path="url(#clip0)">
<path fill-rule="evenodd" clip-rule="evenodd" d="M7.53271 51.3522L10.3796 41.7431L13.1978 51.3522H15.3921L20.7886 36.5234H17.0231L14.236 45.5692L11.832 36.5234H9.01631L6.55256 45.5692L3.82524 36.5234H0L5.36785 51.3522H7.53271Z" fill="#372F2D"/>
<path fill-rule="evenodd" clip-rule="evenodd" d="M33.8633 43.7293C33.8633 39.4586 30.3933 35.9297 26.1824 35.9297C21.8822 35.9297 18.3818 39.5184 18.3818 43.9668C18.3818 48.3571 21.8527 51.8557 26.2118 51.8557C29.4149 51.8557 32.4108 49.6613 33.3294 46.6655H29.4149C28.6132 47.9697 27.5464 48.5928 26.094 48.5928C24.2844 48.5928 22.624 47.2894 22.1499 45.5085H33.6553C33.8338 44.6497 33.8633 44.2623 33.8633 43.7293ZM22.0304 42.6617C22.5044 40.5557 24.1944 39.1917 26.2413 39.1917C28.2882 39.1917 29.8898 40.5263 30.3933 42.6617H22.0304Z" fill="#372F2D"/>
<path fill-rule="evenodd" clip-rule="evenodd" d="M36.731 51.3519V49.5719C38.1852 51.1742 39.6991 51.8563 41.714 51.8563C45.8669 51.8563 49.0985 48.4158 49.0985 43.9674C49.0985 39.5476 45.7785 36.0196 41.6551 36.0196C39.7867 36.0196 38.1852 36.6713 37.0299 37.8872V31.5703H33.4698V51.3519H36.731ZM41.2097 39.2807C43.7021 39.2807 45.541 41.2687 45.541 43.9084C45.541 46.6357 43.761 48.5934 41.2703 48.5934C38.7198 48.5934 36.7925 46.5482 36.7925 43.8192C36.7925 41.2982 38.7484 39.2807 41.2097 39.2807Z" fill="#372F2D"/>
<path fill-rule="evenodd" clip-rule="evenodd" d="M52.3483 54.947V48.7801C53.8242 50.1701 54.8962 50.6329 56.7768 50.6329C60.83 50.6329 64.0435 47.1881 64.0435 42.8454C64.0435 38.5054 60.8872 35.1758 56.8063 35.1758C54.8096 35.1758 53.2168 35.9281 52.0589 37.3753V35.668H48.8732V54.947H52.3483ZM56.373 38.3598C58.6886 38.3598 60.57 40.3851 60.57 42.9035C60.57 45.4228 58.6886 47.4498 56.3435 47.4498C53.9984 47.4498 52.117 45.4505 52.117 42.9035C52.117 40.3574 53.9984 38.3598 56.373 38.3598Z" fill="#FCC030"/>
<path fill-rule="evenodd" clip-rule="evenodd" d="M75.0437 35.668V37.4905C73.9725 36.1308 72.0036 35.1758 70.1811 35.1758C66.0698 35.1758 62.943 38.4759 62.943 42.8169C62.943 47.3042 65.9242 50.6329 69.9774 50.6329C71.7713 50.6329 73.9725 49.6493 75.0437 48.3745V50.1407H78.2268V35.668H75.0437ZM70.701 47.4498C68.2988 47.4498 66.4165 45.4808 66.4165 42.9919C66.4165 40.3574 68.2684 38.3598 70.701 38.3598C73.1614 38.3598 74.957 40.269 74.957 42.8454C74.957 45.5103 73.1614 47.4498 70.701 47.4498Z" fill="#FCC030"/>
<path fill-rule="evenodd" clip-rule="evenodd" d="M84.3902 54.9508L92.7262 35.6719H88.7615L85.2577 44.9491L81.988 35.6719H78.0214L83.3191 48.764L80.6551 54.9508H84.3902Z" fill="#FCC030"/>
<path d="M93.5807 36.4619C93.5807 36.2573 93.858 35.5208 94.0158 35.3648L103.217 26.2158C103.508 25.9281 103.978 25.9281 104.269 26.2158L114.781 36.6699C115.073 36.9593 115.073 37.4247 114.781 37.7141L105.581 46.8622C105.394 47.0468 104.596 47.2332 104.414 47.2332H94.3243C93.9135 47.2332 93.5807 46.9021 93.5807 46.4948V36.4619Z" fill="#E62B24" stroke="white" stroke-miterlimit="3.86369"/>
<path fill-rule="evenodd" clip-rule="evenodd" d="M96.3087 42.8479V40.7628C96.8087 41.2334 97.1719 41.3894 97.8071 41.3894C99.1781 41.3894 100.265 40.2238 100.265 38.7548C100.265 37.2867 99.1971 36.1602 97.8184 36.1602C97.1424 36.1602 96.6034 36.4149 96.2117 36.9046V36.3265H95.1335V42.8479H96.3087ZM97.671 37.2382C98.4545 37.2382 99.0897 37.922 99.0897 38.7748C99.0897 39.6258 98.4545 40.3121 97.6598 40.3121C96.8669 40.3121 96.2307 39.6362 96.2307 38.7748C96.2307 37.9133 96.8669 37.2382 97.671 37.2382Z" fill="white"/>
<path d="M101.73 34.6914H100.555V41.2214H101.73V34.6914Z" fill="white"/>
<path fill-rule="evenodd" clip-rule="evenodd" d="M105.406 38.8353C105.406 39.805 105.054 40.3137 104.388 40.3137C103.731 40.3137 103.388 39.8145 103.388 38.8353V36.3281H102.213V39.1975C102.213 40.0104 102.38 40.4506 102.821 40.8614C103.203 41.2046 103.702 41.391 104.231 41.391C104.799 41.391 105.121 41.2237 105.505 40.7358V41.2237H106.581V36.3281H105.406V38.8353Z" fill="white"/>
<path fill-rule="evenodd" clip-rule="evenodd" d="M106.704 39.6847C106.744 40.0868 106.782 40.2428 106.9 40.4785C107.173 41.0176 107.791 41.3894 108.457 41.3894C109.446 41.3894 110.249 40.6155 110.249 39.676C110.249 39.2341 110.102 38.8926 109.789 38.6283C109.593 38.4611 109.318 38.3432 108.887 38.2063L108.555 38.0997C108.174 37.9714 108.056 37.8735 108.056 37.649C108.056 37.4133 108.252 37.2382 108.506 37.2382C108.751 37.2382 108.916 37.3847 108.966 37.6586H110.121C110.081 36.8066 109.386 36.1602 108.516 36.1602C107.604 36.1602 106.881 36.8352 106.881 37.6777C106.881 38.0997 107.028 38.4507 107.321 38.7167C107.576 38.9412 107.683 38.9906 108.24 39.176C108.898 39.3918 109.075 39.5287 109.075 39.813C109.075 40.0964 108.849 40.3121 108.544 40.3121C108.203 40.3121 108.016 40.1259 107.9 39.6847H106.704Z" fill="white"/>
</g>
<defs>
<clipPath id="clip0">
<rect width="115" height="80" fill="white"/>
</clipPath>
</defs>
</svg>
