<svg width="115" height="80" viewBox="0 0 115 80" fill="none" xmlns="http://www.w3.org/2000/svg">
<path d="M10.8813 45.5027C10.7355 45.5102 10.5856 45.4869 10.4414 45.429L1.47594 41.8138C0.577722 41.4514 -0.00157096 40.5916 3.20017e-06 39.6235C0.0018922 38.655 0.584333 37.7974 1.4835 37.4382L10.4619 33.8554C10.9933 33.6454 11.5912 33.9026 11.8018 34.4306C12.0128 34.9595 11.7552 35.5593 11.2263 35.7705L2.24791 39.3533C2.09459 39.4147 2.06216 39.536 2.06184 39.6269C2.06184 39.7182 2.09396 39.8398 2.24697 39.9021L11.2125 43.5167C11.7404 43.7295 11.9958 44.3302 11.7833 44.8582C11.628 45.242 11.2685 45.4819 10.8813 45.5027Z" fill="#5791CD"/>
<path d="M21.5295 39.1441C21.4599 39.1473 21.3888 39.1429 21.3173 39.1312C20.7553 39.0399 20.3741 38.51 20.4657 37.9481L22.0219 28.4067C22.0484 28.244 21.9605 28.1536 21.8828 28.1064C21.8044 28.0592 21.6844 28.0245 21.5528 28.1234L13.8337 33.9447C13.3782 34.2878 12.7321 34.1965 12.3899 33.7419C12.0471 33.2876 12.1377 32.6409 12.5924 32.2981L20.3111 26.4774C21.0843 25.895 22.1192 25.8405 22.9482 26.3411C23.7774 26.8414 24.2125 27.7827 24.0567 28.7386L22.5005 38.2799C22.4205 38.7704 22.0065 39.123 21.5295 39.1441Z" fill="#33A736"/>
<path d="M21.8472 53.1641C21.3155 53.1874 20.7806 53.0291 20.3322 52.6938L12.5952 46.8977C12.1393 46.5561 12.0468 45.9104 12.3884 45.4545C12.7287 44.9983 13.375 44.9051 13.8312 45.2477L21.5686 51.0437C21.7002 51.1423 21.8204 51.107 21.8988 51.0598C21.9766 51.0122 22.0638 50.9219 22.0367 50.7588L20.45 41.2228C20.3568 40.6612 20.7362 40.13 21.2981 40.0365C21.8535 39.9433 22.3906 40.3227 22.4841 40.8844L24.0709 50.4204C24.2295 51.3756 23.7973 52.3182 22.9699 52.8213C22.6207 53.0338 22.2351 53.1474 21.8472 53.1641Z" fill="#A1AAAD"/>
<path d="M46.2292 48.4734H44.7428L41.6672 38.9135H41.6159L38.5403 48.4734H37.0795L31.7742 34.2744H34.6184L37.7715 43.5012H37.8228L40.77 34.2744H42.5129L45.4603 43.5012H45.5117L48.6386 34.2744H51.4834L46.2292 48.4734Z" fill="#5791CD"/>
<path d="M54.3342 42.5271C55.0004 45.2696 57.2048 46.3973 58.9987 46.3973C60.9721 46.3973 62.4074 45.2438 63.0481 44.0134H65.7138C64.3553 47.679 61.1006 48.8323 58.8961 48.8323C54.8725 48.8323 51.6688 45.3719 51.6688 41.3484C51.6688 37.0934 54.9493 33.8896 58.9474 33.8896C62.7918 33.8896 66.1492 37.0166 66.175 41.1689C66.175 41.6301 66.1237 42.3476 66.0982 42.5271H54.3342ZM63.5097 40.4766C63.3812 38.4006 61.4847 36.3246 58.9219 36.3246C56.3589 36.3246 54.4623 38.4006 54.3342 40.4766H63.5097Z" fill="#5791CD"/>
<path d="M68.2001 34.2741H70.635V36.453H70.686C71.9674 34.6075 73.9156 33.8896 75.7353 33.8896C80.5535 33.8896 83.0907 37.7599 83.0907 41.553C83.0907 45.1415 80.3995 48.8319 75.9144 48.8319C72.9415 48.8319 71.4548 47.3198 70.9168 46.4228H70.8655V53.2147H68.1998V34.2741H68.2001ZM75.5558 36.3246C72.762 36.3246 70.8141 38.734 70.8141 41.3484C70.8141 44.2187 72.9415 46.3973 75.6327 46.3973C78.1444 46.3973 80.4257 44.3981 80.4257 41.3994C80.4257 38.8621 78.4517 36.3246 75.5558 36.3246Z" fill="#33A736"/>
<path d="M96.8027 48.4743V46.2702H96.7513C95.7263 48.0125 93.8552 48.8329 91.9331 48.8329C87.1398 48.8329 84.3976 45.1679 84.3976 41.4262C84.3976 37.9658 86.8325 33.8906 91.9331 33.8906C93.9065 33.8906 95.7263 34.7108 96.7513 36.2742H96.8027V34.275H99.468V48.4746H96.8027V48.4743ZM91.9331 36.3252C88.6526 36.3252 87.063 39.1701 87.063 41.4C87.063 43.9634 89.0883 46.398 91.9073 46.398C94.7012 46.398 96.854 44.1167 96.854 41.4C96.854 38.3761 94.6753 36.3252 91.9331 36.3252Z" fill="#33A736"/>
<path d="M107.157 53.2151H104.389L106.465 48.1916L100.801 34.2744H103.672L107.849 45.2955L112.129 34.2744H115L107.157 53.2151Z" fill="#33A736"/>
</svg>
