<svg width="115" height="80" viewBox="0 0 115 80" fill="none" xmlns="http://www.w3.org/2000/svg">
<path d="M25.1506 29H28.7319V32.5818H25.1506V29Z" fill="#BD0027"/>
<path d="M25.1506 35.3154V51.5302H28.7319V35.3154H25.1506Z" fill="#43557E"/>
<path d="M0 35.2305H3.8152L6.99951 47.4005H7.06265L10.1201 35.2305H13.7464L16.6787 47.4005H16.7419L20.0519 35.2305H23.7098L18.6013 51.5298H14.9124L11.8865 39.4234H11.8228L8.8279 51.5298H5.04483L0 35.2305Z" fill="#43557E"/>
<path d="M30.7131 35.2309H34.0863V38.3848H34.1495C34.5593 36.6494 36.7035 34.79 38.9113 34.79C39.7299 34.79 39.9509 34.8526 40.2661 34.8836V38.3521C39.762 38.289 39.2264 38.1954 38.7213 38.1954C36.2614 38.1954 34.3073 40.1816 34.3073 43.7752V51.5302H30.7131V35.2309Z" fill="#43557E"/>
<path d="M51.496 41.9468C51.3692 39.6764 49.8244 37.6282 47.3967 37.6282C44.9053 37.6282 43.2037 39.5191 43.1096 41.9468H51.496ZM43.1096 44.3108C43.1096 46.8643 44.4971 49.1352 47.492 49.1352C49.5729 49.1352 50.8341 48.2213 51.4644 46.4234H54.8692C54.081 49.986 51.0546 51.9717 47.492 51.9717C42.384 51.9717 39.5154 48.4096 39.5154 43.3969C39.5154 38.7625 42.5418 34.79 47.3967 34.79C52.5362 34.79 55.6884 39.4239 55.0902 44.3108H43.1096Z" fill="#43557E"/>
<path d="M67.891 40.6851C67.6074 38.6988 66.1567 37.6282 64.1699 37.6282C62.31 37.6282 59.6928 38.6041 59.6928 43.5548C59.6928 46.2655 60.8914 49.1352 64.0121 49.1352C66.093 49.1352 67.5437 47.7466 67.891 45.4147H71.484C70.8227 49.6393 68.2056 51.9722 64.0121 51.9722C58.9046 51.9722 56.0986 48.347 56.0986 43.5548C56.0986 38.6357 58.7789 34.79 64.1389 34.79C67.922 34.79 71.1373 36.681 71.484 40.6851H67.891Z" fill="#43557E"/>
<path d="M83.5283 43.3654C82.4255 44.091 80.6913 44.0588 79.1144 44.3424C77.5701 44.5944 76.1826 45.1616 76.1826 47.0543C76.1826 48.6622 78.232 49.1352 79.4927 49.1352C81.069 49.1352 83.5283 48.316 83.5283 46.0456V43.3654ZM87.1225 47.9067C87.1225 48.7885 87.3125 49.1352 87.9744 49.1352C88.1943 49.1352 88.4784 49.1352 88.8567 49.0721V51.5624C88.3206 51.7518 87.1862 51.9722 86.5863 51.9722C85.1363 51.9722 84.0961 51.4688 83.813 49.986C82.3934 51.3735 80.092 51.9722 78.1683 51.9722C75.2366 51.9722 72.5884 50.3964 72.5884 47.211C72.5884 43.1449 75.8359 42.4836 78.8623 42.1352C81.4473 41.6627 83.7493 41.9469 83.7493 39.8349C83.7493 37.9738 81.8262 37.6282 80.3756 37.6282C78.3578 37.6282 76.9387 38.4474 76.7814 40.2132H73.1878C73.4392 36.0197 77.0013 34.79 80.5966 34.79C83.7809 34.79 87.1225 36.0823 87.1225 39.5197V47.9067Z" fill="#43557E"/>
<path d="M90.0543 35.2309H93.4281V38.3848H93.4912C93.9017 36.6494 96.0458 34.79 98.253 34.79C99.0722 34.79 99.2932 34.8526 99.6078 34.8836V38.3521C99.1038 38.289 98.5676 38.1954 98.0636 38.1954C95.6043 38.1954 93.6496 40.1816 93.6496 43.7752V51.5302H90.0543V35.2309Z" fill="#43557E"/>
<path d="M106.96 49.1352C110.176 49.1352 111.531 46.2034 111.531 43.3653C111.531 39.7711 109.797 37.6281 107.023 37.6281C103.65 37.6281 102.452 40.6224 102.452 43.5547C102.452 46.3602 103.838 49.1352 106.96 49.1352ZM115 51.5302H111.595V49.3235H111.531C110.586 51.1846 108.536 51.9716 106.487 51.9716C101.348 51.9716 98.8568 48.1564 98.8568 43.2711C98.8568 37.375 102.357 34.79 105.919 34.79C107.969 34.79 110.239 35.5466 111.343 37.3428H111.405V29.0195H115V51.5302Z" fill="#43557E"/>
</svg>
