<svg width="115" height="80" viewBox="0 0 115 80" fill="none" xmlns="http://www.w3.org/2000/svg">
<g clip-path="url(#clip0)">
<path d="M22.2645 47.1414H18.1484L14.5935 34.2317C14.2194 32.922 14.0323 31.6123 13.8452 30.3027C13.6581 31.6123 13.471 32.922 13.0968 34.2317L9.54193 47.3285H5.42581L0 26.1865H3.55484L6.73548 38.9091C7.10968 40.4059 7.29677 41.7156 7.48387 43.0252C7.67097 41.7156 7.85806 40.4059 8.23226 39.0962L11.7871 26.1865H15.529L19.271 39.0962C19.6452 40.2188 19.8323 41.5285 20.0194 43.0252C20.2065 41.7156 20.3935 40.593 20.7677 39.2833L23.9484 26.1865H27.3161L22.2645 47.1414Z" fill="#366FC1"/>
<path d="M33.8645 47.5161C29.5612 47.5161 26.7548 45.0838 26.7548 39.658C26.7548 34.9806 29.7483 31.4258 34.4258 31.4258C38.5419 31.4258 41.5354 33.6709 41.5354 39.0967C41.5354 43.9613 38.5419 47.5161 33.8645 47.5161ZM34.2387 34.2322C32.1806 34.2322 30.3096 35.729 30.3096 39.2838C30.3096 42.8387 31.6193 44.5226 34.2387 44.5226C36.2967 44.5226 38.1677 42.8387 38.1677 39.2838C38.1677 36.1032 36.858 34.2322 34.2387 34.2322Z" fill="#203D74"/>
<path d="M51.2645 34.6063C48.2709 34.045 46.7742 36.103 46.7742 40.7805V47.1417H43.4064V31.6127H46.5871C46.5871 32.5482 46.5871 33.8579 46.2129 34.9805C46.9613 32.9224 48.458 31.0514 51.2645 31.2385V34.6063Z" fill="#203D74"/>
<path d="M56.6903 26H53.3226V47.1419H56.6903V26Z" fill="#203D74"/>
<path d="M56.6903 37.5996L53.3226 40.9673V47.1415H56.6903V37.5996Z" fill="black"/>
<path d="M69.2258 47.1419C69.2258 46.3935 69.2258 45.0839 69.4129 44.3355C68.6645 46.2065 66.7935 47.5161 64.3613 47.5161C60.6193 47.5161 58.7484 44.7097 58.7484 40.2194C58.7484 34.9806 61.7419 31.4258 66.7935 31.4258C67.5419 31.4258 68.2903 31.4258 69.0387 31.6129V26H72.4064V47.1419H69.2258ZM69.0387 34.4194C68.2903 34.2323 67.3548 34.2323 66.6064 34.2323C63.9871 34.2323 62.1161 35.9161 62.1161 40.0323C62.1161 43.2129 63.0516 44.8968 65.1096 44.8968C67.5419 44.8968 68.8516 41.9032 68.8516 39.2839V34.4194H69.0387Z" fill="black"/>
<path d="M79.7032 39.471C79.329 39.471 78.7677 39.471 78.2064 39.471V47.1419H74.8387V26.1871C76.5226 26.1871 78.2064 26 80.2645 26C85.3161 26 87.9355 28.4323 87.9355 32.3613C87.9355 36.4774 84.7548 39.471 79.7032 39.471ZM79.8903 28.8065C79.329 28.8065 78.7677 28.8065 78.2064 28.8065V36.4774C78.5806 36.4774 79.1419 36.6645 79.7032 36.6645C82.5096 36.6645 84.3806 35.1677 84.3806 32.5484C84.3806 30.3032 83.0709 28.8065 79.8903 28.8065Z" fill="#3466B7"/>
<path d="M97.4773 47.1415C97.4773 46.206 97.4773 45.0834 97.6644 44.3351C96.9161 46.206 95.0451 47.5157 92.6128 47.5157C89.9935 47.5157 88.3096 45.8318 88.3096 43.2125C88.3096 39.6576 91.6773 37.7867 97.4773 37.7867V36.8512C97.4773 34.9802 96.729 33.8576 94.2967 33.8576C92.7999 33.8576 91.1161 34.2318 89.8064 34.9802L89.2451 32.3609C90.7419 31.7996 92.7999 31.2383 94.858 31.2383C99.5354 31.2383 100.845 33.2963 100.845 36.2899V42.6512C100.845 43.9609 100.845 45.6447 100.845 46.9544H97.4773V47.1415ZM97.2902 40.0318C92.6128 40.0318 91.3031 41.3415 91.3031 42.8383C91.3031 43.9609 92.0515 44.8963 93.3612 44.8963C95.6064 44.8963 97.1032 42.6512 97.1032 40.5931V40.0318H97.2902Z" fill="#3466B7"/>
<path d="M109.639 48.2639C107.768 53.5026 105.71 54.9994 102.155 54.9994C101.593 54.9994 100.658 54.9994 100.284 54.8123L100.658 52.0059C101.219 52.193 101.968 52.1929 102.529 52.1929C104.026 52.1929 105.335 51.4446 106.458 48.6381L107.019 47.1413L101.032 31.6123H104.774L107.206 38.722C107.768 40.0317 108.142 41.5284 108.329 42.8381C108.703 41.5284 109.264 39.6575 109.826 37.9736L112.071 31.6123H115.626L109.639 48.2639Z" fill="#3466B7"/>
<path d="M7.48395 47.1428H9.35492L10.1033 44.5234L7.48395 47.1428Z" fill="#203D74"/>
<path d="M23.013 31.6134L21.142 39.2843C20.7678 40.4069 20.5807 41.7166 20.3936 43.0263C20.2065 41.7166 19.8323 40.2198 19.6452 39.0972L18.7097 36.1037L15.9033 38.9101L18.1485 47.1424H22.2646L27.5033 27.123L23.013 31.6134Z" fill="#203D74"/>
</g>
<defs>
<clipPath id="clip0">
<rect width="115" height="80" fill="white"/>
</clipPath>
</defs>
</svg>
