<svg width="115" height="80" viewBox="0 0 115 80" fill="none" xmlns="http://www.w3.org/2000/svg">
<path d="M88.8183 23.9567C93.9345 20.0145 99.0269 16.0417 104.064 12C104.1 17.7238 104.035 23.45 104.097 29.1727C104.189 30.1738 104.134 31.1795 104.148 32.1839C104.148 34.3716 104.144 36.5605 104.152 38.7482C104.172 39.005 104.075 39.2528 103.851 39.3896C97.9481 43.3997 92.0399 47.403 86.1453 51.4244C93.5935 49.0522 101.016 46.5931 108.459 44.204C108.59 44.1305 108.806 44.1079 108.857 43.9449C108.799 39.0288 108.863 34.1047 108.83 29.1851C110.536 29.2157 112.244 29.1987 113.951 29.1942C114.05 30.6013 113.969 32.0165 113.996 33.4271C113.996 40.281 113.995 47.1349 113.997 53.9889C104.506 54.0092 95.0145 53.99 85.5233 53.999C84.7947 54.0013 84.0139 53.9628 83.3963 53.5307C82.7935 53.1631 82.3573 52.5647 82.0955 51.9188C81.8779 51.4007 81.9482 50.8294 81.9391 50.2842C81.9414 44.1758 81.9402 38.0673 81.9402 31.9589C82.0161 30.7971 82.4626 29.6523 83.2286 28.77C84.7753 26.8255 86.8864 25.476 88.8183 23.9567Z" fill="#FECB31"/>
<path d="M12.1558 24.1799C12.5739 24.0408 13.0181 24.0826 13.4499 24.0804C14.0029 24.086 14.5581 24.0588 15.1088 24.1222C15.0907 24.3077 15.0759 24.4966 15.009 24.6731C12.8515 30.4976 10.7212 36.3323 8.59542 42.1681C8.51385 42.3762 8.51724 42.6025 8.51494 42.8231C8.52738 45.7913 8.50927 48.7596 8.52515 51.7267C8.28829 51.8048 8.04014 51.8319 7.792 51.824C7.16426 51.8138 6.53532 51.8399 5.90873 51.7923C5.86568 48.6464 5.90191 45.4984 5.89062 42.3525C4.00512 37.5348 2.15694 32.7023 0.324632 27.8642C0.176167 27.4592 -0.0492812 27.0576 0.00958868 26.6108C0.748415 26.5226 1.49515 26.5791 2.23736 26.5599C2.47983 26.5418 2.71783 26.595 2.9297 26.7137C3.96425 29.7792 5.07022 32.8199 6.13653 35.8742C6.56599 37.0506 6.98301 38.2305 7.44193 39.3956C7.83854 37.7395 8.28273 36.0925 8.82775 34.4783C9.92352 31.0418 11.0601 27.6165 12.1558 24.1799Z" fill="#E92730"/>
<path d="M95.5971 28.9493C96.1716 28.179 96.9976 27.4924 97.988 27.3916C98.4039 27.3328 98.8605 27.3939 99.2005 27.6575C100.664 28.6445 99.0962 31.3509 97.997 32.0681C97.4554 32.49 96.737 32.6416 96.0639 32.5737C95.452 32.4888 95.0418 31.9232 94.8809 31.369C94.7507 30.5059 95.0963 29.6393 95.5971 28.9493Z" fill="#020202"/>
<path d="M104.097 29.1719C105.674 29.1854 107.252 29.1628 108.83 29.1843C108.863 34.1039 108.799 39.0279 108.857 43.9441C108.806 44.107 108.589 44.1296 108.459 44.2032C101.015 46.5922 93.5933 49.0515 86.1451 51.4236C92.0398 47.4022 97.948 43.3989 103.851 39.3888C104.075 39.2519 104.172 39.0042 104.152 38.7474C104.144 36.5597 104.147 34.3708 104.147 32.1831C104.134 31.1786 104.189 30.1729 104.097 29.1719Z" fill="#CCA74D"/>
<path d="M35.0165 38.0686C35.012 42.5991 35.0131 47.1296 35.0165 51.659C34.9564 51.6998 34.8375 51.78 34.7774 51.8196C33.991 51.7733 33.1796 51.9226 32.4113 51.728C32.409 47.2461 32.4079 42.7631 32.4113 38.2812C32.1926 37.6873 31.7473 37.1387 31.1002 37.0052C30.0973 36.8005 28.9982 37.0029 28.1426 37.572C28.154 41.8457 28.1438 46.1194 28.1471 50.3944C28.1426 50.8593 28.163 51.3253 28.1245 51.7903C27.3426 51.8503 26.5573 51.8095 25.7731 51.8174C25.7154 51.779 25.5986 51.6998 25.5397 51.6602C25.5488 46.1341 25.5465 40.607 25.5409 35.081C25.695 35.0143 25.8502 34.9294 26.0259 34.9453C26.7273 34.9521 27.4321 34.9159 28.1325 34.9769C28.1506 35.2914 28.1483 35.6059 28.1495 35.9204C28.4634 35.7677 28.7591 35.5833 29.0707 35.425C29.1274 35.3967 29.2418 35.339 29.2985 35.3096C30.4951 34.7406 31.9082 34.5641 33.1705 35.0189C34.3977 35.4385 35.123 36.8163 35.0165 38.0686ZM22.3284 51.5515C22.3567 51.7495 22.1164 51.8332 21.9567 51.8174C21.5306 51.8298 21.1034 51.8242 20.6785 51.7982C20.5946 51.6409 20.5153 51.4826 20.4394 51.322C20.3431 51.0799 20.2422 50.8412 20.1425 50.6002C19.4252 51.3706 18.5198 52.0516 17.4489 52.1986C16.4744 52.3808 15.4545 52.0437 14.7089 51.4102C13.9656 50.8548 13.561 49.9939 13.1848 49.1727C13.1304 49.0075 13.0715 48.8446 13.0171 48.6817C12.9695 48.5347 12.9275 48.3876 12.8811 48.2428C12.8403 48.0539 12.8131 47.8627 12.7825 47.6727C12.6749 46.934 12.6907 46.1727 12.7712 45.4317C12.8437 44.8797 13.0034 44.3458 13.1904 43.8243C13.5814 42.9147 14.0539 41.9894 14.8959 41.4136C16.2546 40.326 18.2289 40.4202 19.7137 41.1996C19.7137 40.379 19.7126 39.8169 19.7096 39.7587C19.6212 39.348 19.5691 38.9295 19.4637 38.5223C19.4297 38.4024 19.3979 38.2825 19.3674 38.1626C19.1793 37.6173 18.8495 37.0812 18.3248 36.8051C17.7424 36.5234 17.0783 36.6943 16.5152 36.9341C16.4596 36.9669 16.3509 37.0325 16.2965 37.0664C16.1775 37.123 16.0596 37.1818 15.9418 37.2418C15.5373 37.4149 15.152 37.942 14.6886 37.6536C14.5923 37.4092 14.4858 37.1694 14.3758 36.9307C14.1956 36.4907 13.8886 36.0846 13.85 35.6004C13.9203 35.5586 14.0597 35.476 14.1288 35.4353C14.6093 35.2135 15.1101 35.0371 15.6235 34.9104L15.6892 34.8776V34.8775C16.4371 34.6479 17.2179 34.5947 17.9918 34.5257C18.3907 34.5914 18.7998 34.597 19.1873 34.7203C20.1063 34.959 20.8519 35.6151 21.4163 36.3538C21.4707 36.4771 21.5262 36.5993 21.5817 36.7214C21.6644 36.9092 21.7404 37.0992 21.8118 37.2916C21.8628 37.4363 21.9092 37.5823 21.9568 37.7282C21.9953 37.8786 22.0338 38.0314 22.0815 38.1807C22.1041 38.3356 22.1234 38.4917 22.1426 38.6478C22.2707 39.1999 22.1925 39.7734 22.3115 40.3266C22.3521 44.0674 22.3204 47.8095 22.3284 51.5515ZM19.7121 43.3642C19.439 43.1927 17.6431 42.2298 16.6434 43.0076C15.4715 44.1008 15.4741 46.2029 15.4946 46.952C15.5152 47.7012 16.0071 49.9382 17.5767 50.0448C19.1714 50.0508 19.7033 49.0828 19.7032 49.0527C19.7027 48.9137 19.7091 45.9182 19.7121 43.3642ZM19.7267 43.3736C19.7268 43.3855 19.7268 43.3885 19.727 43.3808C19.7552 43.3954 19.7526 43.3907 19.7267 43.3736ZM60.1604 39.9826C60.3531 41.3038 60.3191 42.6409 60.3168 43.9746C59.7469 43.9645 54.7677 44.0873 53.3989 43.8164C53.4081 44.4995 53.3347 45.1899 53.459 45.8672C53.4918 46.0561 53.5201 46.2473 53.5609 46.4362C53.6051 46.5821 53.646 46.7314 53.6912 46.8796C53.7264 46.9939 53.7638 47.1081 53.8023 47.2224C53.8986 47.4577 53.9972 47.6907 54.0935 47.926C54.4708 48.796 55.2595 49.4814 56.1763 49.7292C57.3423 50.0301 58.5332 49.6772 59.6982 49.5538C59.7378 49.6794 59.7786 49.8039 59.8205 49.9294C59.8477 50.0832 59.8761 50.2382 59.9112 50.3921C59.9644 50.5538 60.0132 50.7167 60.0653 50.8796C60.0381 50.9384 59.9825 51.055 59.9554 51.1138C58.9865 51.6364 57.9406 52.0753 56.829 52.1364C55.5972 52.3061 54.3065 51.9871 53.3342 51.2043C52.5433 50.6861 52.0424 49.866 51.6073 49.0515C51.5801 48.995 51.5257 48.883 51.4985 48.8264C51.4203 48.6397 51.341 48.4542 51.2606 48.2698C51.1993 48.0719 51.1348 47.8762 51.0713 47.6793C51.0328 47.5289 50.9988 47.3773 50.9614 47.228C50.762 46.3762 50.6249 45.5051 50.6464 44.6273C50.6611 43.6511 50.5852 42.6635 50.7382 41.6952C50.8073 41.0877 50.9331 40.4893 51.0872 39.8977C51.1552 39.6319 51.2311 39.3672 51.315 39.1058C51.349 38.9905 51.3863 38.8762 51.4238 38.763C51.4634 38.6511 51.5042 38.5391 51.545 38.4271C51.6118 38.2337 51.6855 38.0436 51.7626 37.8547C51.8374 37.6646 51.9167 37.4757 51.9994 37.289C52.379 36.5289 52.9603 35.8931 53.5994 35.3411L53.5993 35.3411C54.6769 34.5096 56.2192 34.3863 57.4396 34.9723C57.9563 35.3038 58.4266 35.711 58.8062 36.1951C59.1178 36.6341 59.3309 37.134 59.553 37.6239C59.698 37.9892 59.8091 38.3682 59.9235 38.7449C59.9553 38.9327 59.9881 39.1216 60.0391 39.306C60.0709 39.5324 60.1003 39.7609 60.1604 39.9826ZM55.7814 36.7211C54.3005 36.5554 53.5384 39.2699 53.5158 42.074C54.5565 41.8968 57.1299 41.8165 57.6366 41.9117C57.6774 36.9929 56.07 36.7217 55.7814 36.7211ZM70.8666 49.7337C70.7566 49.469 70.6468 49.2032 70.5312 48.9407C70.1176 47.9588 69.7017 46.978 69.2813 45.9984C69.1748 45.7315 69.0581 45.469 68.9448 45.2065C68.7351 44.7099 68.5255 44.2133 68.3068 43.7213C68.2162 43.5097 68.1233 43.2959 68.104 43.0652C68.3386 42.6568 68.5154 42.219 68.7069 41.7892C68.8837 41.4227 69.0468 41.0494 69.2145 40.6783C69.3856 40.2994 69.5624 39.9227 69.7279 39.5403C69.9205 39.1229 70.112 38.7055 70.2956 38.2836C70.452 37.9464 70.6061 37.6093 70.7523 37.2677C70.9245 36.8989 71.0888 36.5268 71.2543 36.1546C71.3936 35.7994 71.6362 35.4702 71.6554 35.0799C71.618 35.0528 71.5455 34.9996 71.5092 34.9736C70.8372 34.9125 70.1551 34.9408 69.4809 34.9577C69.1488 34.9781 69.0967 35.3503 68.9958 35.5935C68.9403 35.736 68.8848 35.8774 68.8304 36.02C68.7726 36.1806 68.7126 36.3412 68.6559 36.5019C68.597 36.6433 68.5404 36.7847 68.4848 36.9272C68.4282 37.0867 68.3681 37.2451 68.3125 37.4057C68.2536 37.5471 68.1992 37.6885 68.1437 37.8311C67.9726 38.2926 67.797 38.7519 67.6349 39.2168C67.593 39.3277 67.5522 39.4385 67.5137 39.5517C67.4604 39.6931 67.4094 39.8345 67.3573 39.977C67.2565 40.2745 67.1477 40.5697 67.0412 40.8662C66.8769 40.5042 66.7454 40.1286 66.6162 39.753C66.5595 39.6116 66.5063 39.4714 66.4508 39.3311C66.393 39.1682 66.3341 39.0075 66.2797 38.8458C66.2208 38.7055 66.1641 38.5641 66.1074 38.4239C65.9828 38.0709 65.8377 37.7259 65.7131 37.3741C65.593 37.0754 65.4785 36.7745 65.3687 36.4725C65.3109 36.3311 65.2553 36.1897 65.1998 36.0483C65.082 35.718 64.9472 35.3922 64.8248 35.0642C64.3851 34.8515 63.8865 34.9725 63.4197 34.9431C62.9732 34.9816 62.4248 34.7938 62.1006 35.1999C62.2638 35.5042 62.3896 35.8266 62.5358 36.1388C62.6605 36.4498 62.8134 36.7496 62.9358 37.0619C63.0741 37.3526 63.1964 37.6512 63.3313 37.9442C63.4933 38.3322 63.6758 38.7123 63.8367 39.1015C63.976 39.3922 64.095 39.6931 64.2299 39.9861C64.6015 40.8153 64.9472 41.6558 65.3392 42.4748C65.5364 42.8153 65.4186 43.1852 65.2577 43.511C65.1602 43.7293 65.0639 43.9476 64.971 44.167C64.8611 44.4329 64.7534 44.6999 64.6367 44.9623C64.5279 45.2281 64.4146 45.4917 64.3001 45.7553C64.2049 45.9894 64.103 46.2213 64.0066 46.4566C63.9149 46.6749 63.8208 46.8932 63.7256 47.1116C63.6191 47.3786 63.5035 47.641 63.388 47.9035C63.2848 48.1716 63.1613 48.4306 63.0514 48.6964C62.9573 48.9295 62.8531 49.158 62.7579 49.391C62.6469 49.6558 62.5267 49.917 62.4191 50.184C62.2876 50.4792 62.1698 50.7802 62.0247 51.0697C61.9545 51.2519 61.8922 51.4374 61.8548 51.6308C61.9318 51.6761 62.0848 51.7688 62.1619 51.814C62.8927 51.7779 63.6508 51.9249 64.3614 51.7134C64.4826 51.4374 64.5857 51.1534 64.6968 50.874C64.7512 50.71 64.8089 50.5482 64.8656 50.3865C64.9188 50.2451 64.9721 50.1037 65.0265 49.9634C65.065 49.8514 65.1058 49.7406 65.1489 49.6297C65.2033 49.4657 65.2622 49.3039 65.3177 49.1398C65.3698 48.9984 65.422 48.857 65.4764 48.7156C65.5137 48.6036 65.5546 48.4916 65.5965 48.3808C65.8718 47.5935 66.1279 46.8005 66.3919 46.0097C66.4452 45.8276 66.5007 45.6466 66.5483 45.4622C66.5914 45.4577 66.6775 45.4475 66.7206 45.4418C66.8373 45.8627 66.9959 46.2699 67.1308 46.685C67.184 46.8253 67.235 46.9679 67.2883 47.1104C67.3268 47.2212 67.3665 47.3321 67.4095 47.4441C67.4662 47.6048 67.5262 47.7654 67.5829 47.9283C67.6385 48.0663 67.694 48.2066 67.7529 48.3457C67.8197 48.538 67.8923 48.7292 67.9694 48.9192C68.0838 49.2201 68.1937 49.521 68.315 49.8196C68.426 50.1217 68.5382 50.4226 68.6572 50.7224C68.7138 50.8841 68.7773 51.0448 68.843 51.2043C68.8793 51.3332 68.9144 51.4622 68.9484 51.5922C69.0991 51.6714 69.2317 51.8196 69.4164 51.8139C70.1009 51.8218 70.7865 51.8309 71.4708 51.8026C71.5162 51.7392 71.6057 51.6114 71.651 51.5481C71.4674 51.1703 71.3099 50.78 71.149 50.3919C71.0547 50.1726 70.9629 49.952 70.8666 49.7337ZM48.0502 26.8389C48.0513 35.1149 48.0468 43.3909 48.0525 51.6669C47.9924 51.7054 47.8723 51.7812 47.8122 51.8196C47.351 51.7981 46.8762 51.874 46.4252 51.7687C46.1714 51.521 46.0366 51.1816 45.8586 50.8807C44.8762 51.7427 43.5923 52.4463 42.2415 52.2031C41.1718 52.1047 40.2358 51.4893 39.5083 50.7325C39.114 50.3072 38.8567 49.78 38.578 49.2767C38.4749 49.0459 38.3729 48.814 38.2731 48.5821C38.2335 48.4701 38.1927 48.3581 38.153 48.2473C38.1179 48.1308 38.0839 48.0143 38.0499 47.8978C38.0103 47.7473 37.9751 47.5934 37.94 47.443C37.8925 47.2586 37.8607 47.0719 37.8267 46.8853C37.5411 45.6274 37.6182 44.331 37.6159 43.0516C37.6091 42.1014 37.7474 41.1568 37.9344 40.2269C37.9695 40.0391 38.0023 39.8513 38.0477 39.6658C38.0874 39.5176 38.1259 39.3683 38.1689 39.2201C38.2029 39.1047 38.2403 38.9905 38.2788 38.8762C38.3355 38.7155 38.3944 38.5571 38.4522 38.3965C38.5701 38.1352 38.6879 37.8739 38.8103 37.6137C38.9349 37.3875 39.0585 37.1624 39.1786 36.9339C39.6273 36.1488 40.356 35.5888 41.0937 35.0933C42.1739 34.5415 43.8389 34.4939 45.4429 35.0105C45.4598 32.2063 45.4225 29.4021 45.4622 26.5979C46.2293 26.5255 47.0044 26.5662 47.7749 26.5651C47.9278 26.5392 48.0966 26.6692 48.0502 26.8389ZM45.446 49.5238C45.4135 48.9557 45.4294 41.3877 45.4383 37.3867C45.4367 37.3902 45.4352 37.3941 45.4336 37.3974C44.753 36.965 43.8405 36.4298 42.7968 36.784C39.7957 37.7141 39.1356 49.2206 42.9774 49.9604C43.0379 49.9798 44.4169 50.2044 45.446 49.5238ZM45.462 26.598H45.4621C45.4621 26.5978 45.4621 26.5976 45.4621 26.5974L45.462 26.598Z" fill="#020202"/>
</svg>
