<svg width="115" height="80" viewBox="0 0 115 80" fill="none" xmlns="http://www.w3.org/2000/svg">
<path fill-rule="evenodd" clip-rule="evenodd" d="M27.6568 22.0462L27.7888 21.5182L27.9208 20.8581L33.7294 0L95.5116 0.132013L27.2607 55.7096L58.4159 18.0858H35.0495L33.7294 18.2178C30.9571 18.3498 28.4489 20.066 27.6568 22.0462Z" fill="#808285"/>
<path fill-rule="evenodd" clip-rule="evenodd" d="M92.2112 38.1511C92.2112 37.8871 90.231 49.9003 86.9307 62.3095L22.3762 62.7056L92.0792 6.33594L60.7921 44.2237H84.2904L85.6105 44.0917C88.3828 43.9597 91.2871 40.1313 92.2112 38.1511Z" fill="#ED1C24"/>
<path fill-rule="evenodd" clip-rule="evenodd" d="M30.9571 79.9982H20L27.5248 69.7012H22.5083L22.9043 66.7969H33.3333L25.8086 77.0939H31.3531L30.9571 79.9982ZM33.0693 79.9982L34.7855 66.7969H42.3102L41.9142 69.7012H37.6898L37.4257 71.9454H41.3861L41.1221 74.8497H37.0297L36.7657 77.0939H40.9901L40.5941 79.9982H33.0693ZM42.8383 79.9982L44.5545 66.7969H47.8548L51.6832 73.6616L51.9472 74.4536L52.4752 75.9058C52.4831 75.0682 52.5271 74.2313 52.6073 73.3975L53.3993 66.7969H56.6997L54.9835 79.9982H51.8152L47.9868 73.2655L47.5908 72.3414L47.0627 70.8893C47.0559 71.7708 47.0119 72.6517 46.9307 73.5295L46.1386 79.9982H42.8383ZM57.7558 79.9982L59.4719 66.7969H62.9043L61.1881 79.9982H57.7558ZM65.6766 79.9982L66.9967 69.9652H64.2244L64.6205 66.7969H73.5974L73.2013 69.9652H70.429L69.1089 79.9982H65.6766ZM73.4653 79.9982L75.1815 66.7969H78.6139L77.9538 71.9454H82.4422L83.1023 66.7969H86.5347L84.8185 79.9982H81.3861L82.0462 74.5857H77.5578L76.8977 79.9982H73.4653Z" fill="#808285"/>
</svg>
